v -0.242503 -0.438766 -0.258059
v 0.077108 -0.406937 0.103655
v -0.215936 -0.435203 -0.282592
v -0.125691 -0.477485 -0.253909
v -0.201858 -0.453358 -0.262787
v -0.230262 -0.447129 -0.255455
v -0.152833 -0.441304 -0.302000
v 0.074436 -0.458646 0.400462
v 0.068381 -0.453167 0.413033
v -0.152836 -0.457679 -0.279902
v -0.117986 -0.413356 -0.346005
v -0.251655 -0.347765 0.254437
v 0.208293 -0.406280 -0.345479
v -0.262612 -0.429138 0.014478
v 0.180939 -0.390153 0.244971
v -0.240745 -0.347877 0.261260
v -0.158496 -0.467646 -0.259125
v 0.228800 -0.446799 0.269621
v 0.201405 -0.397289 -0.344731
v -0.260942 -0.392403 -0.014212
v 0.245091 -0.477291 0.037798
v -0.248464 -0.482295 0.168440
v 0.243720 -0.471909 -0.130970
v 0.131884 -0.404987 0.110382
v 0.171729 -0.389383 0.255084
v 0.030405 -0.460259 0.423827
v 0.019611 -0.414060 0.332611
v 0.089687 -0.505572 -0.132898
v 0.008134 -0.450993 0.430243
v 0.150594 -0.385880 0.226642
v -0.263063 -0.405642 -0.017075
v -0.220236 -0.364058 -0.348965
v -0.144166 -0.385585 -0.361859
v 0.229280 -0.438113 -0.255552
v 0.092410 -0.491658 -0.244029
v 0.245447 -0.473803 0.027731
v 0.064699 -0.424061 -0.274715
v 0.116276 -0.414853 0.039646
v 0.235253 -0.474898 -0.136687
v -0.075850 -0.397505 -0.369030
v 0.066102 -0.491623 -0.254016
v -0.255976 -0.381885 0.033002
v -0.228674 -0.486101 0.238266
v -0.151663 -0.471969 0.412487
v -0.086968 -0.385904 0.291056
v 0.113206 -0.420098 -0.291832
v -0.215423 -0.468946 0.379362
v 0.046161 -0.410569 -0.358402
v 0.245921 -0.465708 -0.165681
v -0.241057 -0.346309 0.291529
v -0.257298 -0.368794 0.130953
v 0.007158 -0.468631 0.414160
v -0.205365 -0.385004 0.118892
v 0.226791 -0.483509 0.050063
v 0.024419 -0.511192 0.043108
v -0.039822 -0.460000 0.472911
v -0.062004 -0.420744 0.369222
v 0.239650 -0.466630 0.120592
v -0.170150 -0.410607 -0.107795
v -0.240030 -0.393081 -0.133921
v -0.196821 -0.479149 0.345376
v 0.077113 -0.500972 0.143034
v 0.189078 -0.420100 -0.221586
v 0.153382 -0.428736 -0.099103
v -0.258699 -0.364303 0.290818
v 0.237760 -0.479559 0.062596
v -0.204507 -0.385797 -0.274008
v 0.192786 -0.485962 0.129410
v -0.163467 -0.414996 0.394459
v -0.232658 -0.361071 -0.339247
v 0.188782 -0.403991 0.172211
v -0.237598 -0.439940 0.449460
v 0.200104 -0.429396 -0.148485
v -0.174910 -0.372104 0.312270
v -0.036094 -0.464771 0.471931
v -0.248120 -0.430170 0.424836
v -0.209857 -0.358160 0.285519
v -0.222186 -0.488370 -0.048790
v 0.098892 -0.416000 0.318497
v 0.148279 -0.419988 0.001933
v 0.018530 -0.495231 -0.242023
v 0.179663 -0.452660 0.349640
v -0.073790 -0.480410 0.386217
v -0.096426 -0.468785 -0.282833
v -0.015531 -0.417502 -0.259804
v 0.133534 -0.462975 0.347934
v -0.258593 -0.394090 -0.107875
v -0.254923 -0.437745 0.313073
v 0.171674 -0.386455 0.229173
v 0.240679 -0.470045 0.149044
v -0.200554 -0.467498 -0.226929
v -0.262254 -0.417948 0.101084
v 0.046551 -0.396636 0.294413
v 0.059255 -0.496578 -0.231942
v 0.230323 -0.457752 0.260276
v 0.216889 -0.438329 0.355240
v 0.035329 -0.413163 -0.333295
v 0.180750 -0.389641 0.225458
v 0.162891 -0.387928 0.207577
v 0.228969 -0.460204 0.051390
v -0.248692 -0.461340 -0.176215
v 0.240987 -0.479108 -0.049154
v 0.168633 -0.496316 -0.094361
v 0.212283 -0.473036 -0.204482
v 0.175933 -0.421081 0.321482
v 0.150134 -0.387797 0.258606
v -0.242014 -0.362389 -0.335229
v -0.235523 -0.408172 -0.303116
v 0.214951 -0.437448 -0.318157
v -0.020315 -0.461741 0.465990
v -0.242244 -0.401720 0.397073
v 0.159080 -0.400938 0.131237
v 0.194920 -0.457338 0.312313
v 0.187613 -0.411402 0.295101
v 0.159300 -0.468824 -0.288390
v 0.050395 -0.428173 -0.190893
v -0.046701 -0.471826 0.438171
v 0.224347 -0.421870 -0.320990
v 0.213329 -0.421576 -0.280425
v 0.039629 -0.389618 0.239111
v -0.146332 -0.391151 -0.358312
v 0.194230 -0.395102 -0.362647
v 0.157348 -0.410267 -0.298872
v -0.236746 -0.489402 0.154795
v 0.165467 -0.452176 -0.314838
v -0.261574 -0.430359 -0.079869
v -0.139349 -0.486794 -0.202869
v 0.138761 -0.494605 -0.177458
v 0.162972 -0.428503 -0.174375
v -0.222012 -0.355634 0.308534
v 0.236340 -0.436147 -0.304822
v -0.241185 -0.370643 0.347308
v -0.241165 -0.350670 0.313033
v -0.228043 -0.370872 -0.342769
v -0.054144 -0.465177 0.473279
v -0.250403 -0.388954 0.369421
v -0.159839 -0.383367 -0.330392
v -0.250330 -0.345551 0.297752
v -0.206246 -0.397478 -0.330429
v -0.220970 -0.447956 0.456383
v 0.069562 -0.425247 -0.085152
v 0.014748 -0.389514 0.271706
v 0.027202 -0.391154 0.285007
v -0.172136 -0.393848 0.131576
v -0.229024 -0.437200 0.460559
v 0.003277 -0.460200 0.447669
v -0.139423 -0.406276 -0.241550
v 0.241681 -0.457009 -0.184933
v 0.246185 -0.475624 0.033988
v 0.122905 -0.433359 0.355695
v -0.009221 -0.482502 -0.277702
v 0.092118 -0.464496 0.367567
v -0.254637 -0.348012 0.286117
v -0.256530 -0.472805 0.000769
v 0.189580 -0.388010 -0.353395
v -0.077048 -0.408937 -0.279658
v -0.102198 -0.489386 0.326575
v 0.179222 -0.400683 -0.313043
v -0.224535 -0.402592 0.397144
v 0.150790 -0.396044 0.276590
v -0.248511 -0.381743 -0.251222
v -0.059464 -0.394361 0.317432
v -0.129905 -0.380745 0.301892
v 0.082452 -0.409924 -0.366975
v 0.236037 -0.435154 -0.289572
v -0.088352 -0.504230 0.185565
v 0.189490 -0.401540 -0.306054
v 0.244270 -0.452875 -0.233169
v -0.236459 -0.376452 0.094289
v -0.248614 -0.390054 -0.057520
v 0.163695 -0.393326 -0.372862
v -0.073353 -0.458777 0.473983
v 0.059130 -0.403171 0.141883
v 0.048579 -0.446477 -0.334399
v -0.199207 -0.403044 -0.033956
v 0.193900 -0.415823 -0.348587
v 0.143331 -0.422330 0.325951
v 0.157941 -0.438917 0.371600
v -0.255310 -0.353192 0.304733
v -0.256263 -0.410095 -0.204335
v -0.250939 -0.352891 0.315564
v -0.239364 -0.376557 -0.330859
v 0.090310 -0.389591 0.269319
v 0.137821 -0.449579 0.390322
v 0.215336 -0.486931 -0.060635
v -0.236314 -0.387345 -0.214118
v 0.189913 -0.404027 0.269705
v -0.252764 -0.387180 -0.247852
v 0.020736 -0.454794 0.434864
v -0.039986 -0.464243 -0.302902
v 0.066788 -0.467283 -0.307287
v -0.019084 -0.423644 -0.092676
v -0.135817 -0.383941 0.322675
v -0.226590 -0.360982 0.210642
v -0.133496 -0.382522 0.259421
v -0.103589 -0.390011 -0.351261
v 0.019358 -0.427108 -0.148562
v 0.246308 -0.465858 -0.144598
v 0.221448 -0.439969 0.263493
v 0.116699 -0.479071 -0.280223
v -0.168997 -0.407999 -0.003602
v -0.242795 -0.488095 0.066836
v 0.239444 -0.437983 -0.292102
v 0.149853 -0.429927 -0.147230
v 0.117641 -0.503152 -0.119153
v 0.242572 -0.448476 -0.244484
v 0.221983 -0.441168 0.347971
v 0.064754 -0.484625 -0.276565
v 0.167001 -0.430259 -0.340642
v -0.088689 -0.392349 -0.367509
v -0.177997 -0.375727 -0.356741
v 0.186398 -0.417728 0.044087
v 0.193989 -0.457872 -0.292869
v 0.174276 -0.474848 -0.254556
v 0.163351 -0.494619 0.098503
v 0.173835 -0.411935 0.066890
v -0.243903 -0.472493 0.290045
v 0.131873 -0.483849 0.229764
v 0.174134 -0.496277 0.031832
v 0.245421 -0.472798 -0.054674
v 0.240670 -0.460383 -0.215029
v -0.028421 -0.491691 -0.248981
v 0.172090 -0.469727 -0.277213
v -0.247681 -0.408739 -0.288312
v -0.214581 -0.367626 0.332818
v -0.052167 -0.409829 -0.364240
v -0.130383 -0.407356 0.069908
v 0.242631 -0.469978 0.125952
v 0.109252 -0.404170 -0.366289
v -0.058584 -0.402712 0.333979
v 0.205747 -0.424450 -0.228824
v -0.260149 -0.392401 0.273411
v 0.014335 -0.406149 -0.358854
v -0.245797 -0.372703 -0.323170
v -0.235954 -0.370861 -0.298396
v 0.147925 -0.399545 -0.346023
v 0.088985 -0.448120 0.403859
v 0.223778 -0.457712 -0.259115
v 0.192076 -0.453360 -0.303644
v 0.173378 -0.396550 0.160188
v 0.211532 -0.444598 0.349510
v 0.095242 -0.427701 -0.237531
v -0.262006 -0.381799 0.173421
v 0.123873 -0.428146 -0.103150
v -0.159449 -0.375140 0.279954
v -0.236395 -0.467754 0.345733
v -0.258856 -0.381458 0.063507
v -0.202227 -0.373637 -0.352334
v -0.225207 -0.394784 -0.029352
v 0.179491 -0.440239 0.373122
v -0.251198 -0.387562 -0.292791
v 0.186829 -0.395455 0.233415
v 0.210367 -0.428490 0.321485
v -0.253732 -0.477147 0.145391
v -0.043170 -0.435343 0.397709
v 0.202027 -0.462437 -0.270088
v -0.197326 -0.430178 0.445255
v -0.220960 -0.494314 0.075649
v 0.039392 -0.417243 0.027429
v 0.211057 -0.427202 0.303609
v 0.056704 -0.413087 -0.365690
v 0.205315 -0.434271 0.352213
v 0.145282 -0.386084 0.247855
v 0.088725 -0.480357 0.284891
v 0.200138 -0.415130 0.249834
v 0.212013 -0.443801 -0.030601
v 0.232774 -0.452542 0.271373
v 0.143983 -0.477828 -0.271795
v 0.044331 -0.395209 0.198389
v 0.064663 -0.387447 0.258706
v -0.153852 -0.446312 0.463133
v -0.081000 -0.496996 -0.193731
v 0.190261 -0.415069 0.089299
v 0.164300 -0.488567 0.158717
v -0.173649 -0.460868 0.447757
v -0.181943 -0.448274 0.471052
v -0.214522 -0.395908 -0.194783
v 0.095459 -0.496220 -0.214195
v 0.103291 -0.453341 0.400391
v 0.047015 -0.467676 0.382630
v -0.260404 -0.415900 0.208288
v -0.237957 -0.452124 0.411152
v 0.218084 -0.433772 0.297918
v 0.239476 -0.464398 -0.109381
v -0.080124 -0.510705 0.051717
v -0.188945 -0.468469 0.407916
v -0.149407 -0.458038 0.462451
v -0.225320 -0.457704 0.417623
v -0.243316 -0.456750 -0.213370
v -0.255564 -0.358636 0.180041
v 0.233947 -0.431442 -0.309385
v 0.120409 -0.493945 0.161351
v 0.171235 -0.448451 0.371812
v 0.220592 -0.452232 0.306524
v 0.231968 -0.453436 0.276006
v 0.213794 -0.441337 0.138609
v 0.219955 -0.482278 0.098031
v 0.180687 -0.391914 -0.370765
v 0.153414 -0.392716 -0.368997
v 0.192037 -0.406266 0.194170
v 0.017208 -0.489377 -0.264162
v -0.192360 -0.474878 -0.204617
v -0.109779 -0.467452 0.445972
v -0.257264 -0.354132 0.242972
v -0.251217 -0.482731 0.054278
v -0.241983 -0.450394 -0.236477
v 0.124645 -0.403324 -0.370840
v -0.243692 -0.427274 0.439165
v 0.119848 -0.484442 -0.261567
v 0.214072 -0.412248 -0.324914
v -0.088613 -0.462224 0.469178
v -0.088939 -0.449318 0.454065
v -0.087794 -0.419825 -0.096393
v 0.193187 -0.388815 -0.359307
v -0.257890 -0.442931 0.215402
v 0.069083 -0.510680 -0.024507
v -0.233625 -0.483298 -0.071161
v 0.113741 -0.471877 0.318364
v 0.221161 -0.436164 0.335712
v 0.047226 -0.505097 -0.168810
v 0.197788 -0.424916 0.070779
v 0.195083 -0.471935 0.230647
v -0.146845 -0.391427 0.187546
v -0.245637 -0.478627 -0.070342
v -0.248268 -0.465319 0.298723
v -0.255191 -0.379594 0.342350
v -0.243368 -0.442394 0.427050
v -0.014681 -0.464846 0.454725
v 0.215366 -0.422215 -0.334140
v 0.183041 -0.384569 -0.364191
v -0.140616 -0.503659 0.157740
v 0.189889 -0.426643 -0.165815
v 0.134833 -0.426539 -0.231370
v 0.218041 -0.480791 -0.136794
v -0.207223 -0.456783 0.442972
v 0.182611 -0.403258 0.138285
v -0.166011 -0.503131 0.044924
v -0.179481 -0.399450 -0.236939
v -0.204431 -0.448655 0.465937
v 0.126002 -0.411696 -0.320770
v -0.257067 -0.443164 -0.149726
v -0.017474 -0.493521 0.268477
v -0.119179 -0.434659 -0.321279
v 0.095815 -0.422164 -0.038891
v -0.259681 -0.364432 0.177232
v -0.216043 -0.483073 0.293443
v -0.001255 -0.418246 0.015334
v -0.169137 -0.498020 0.213789
v -0.246246 -0.382814 0.026345
v -0.050290 -0.489448 0.315480
v 0.232283 -0.462450 -0.223204
v 0.239343 -0.441142 -0.290753
v -0.251799 -0.411447 0.395241
v -0.255242 -0.463206 -0.111198
v -0.245807 -0.354216 0.208011
v 0.178473 -0.489697 -0.155343
v -0.220941 -0.457730 -0.238371
v 0.078857 -0.416447 0.016095
v -0.254612 -0.416593 -0.236838
v -0.255929 -0.467740 0.170562
v -0.066878 -0.485148 -0.258823
v 0.202832 -0.440818 0.365245
v -0.163149 -0.392622 -0.290985
v -0.123560 -0.496379 0.268090
v -0.233767 -0.467472 -0.182414
v -0.252930 -0.469979 -0.095651
v 0.001092 -0.399243 0.191714
v -0.136627 -0.383445 -0.361821
v -0.039338 -0.495720 -0.225918
v 0.179539 -0.424618 -0.039226
v -0.157825 -0.388792 0.343981
v -0.193597 -0.496125 0.196716
v -0.039137 -0.390446 0.296594
v 0.227507 -0.441976 0.318660
v 0.068195 -0.418012 -0.316719
v -0.027477 -0.452296 0.447308
v -0.081329 -0.487596 -0.244550
v -0.255532 -0.409694 0.362378
v -0.248565 -0.447554 -0.230952
v 0.179932 -0.392273 0.200274
v 0.197226 -0.399908 -0.321532
v 0.224731 -0.440076 0.341697
v -0.192911 -0.490112 0.270835
v -0.090030 -0.414858 -0.222790
v 0.200529 -0.431795 -0.047237
v 0.231009 -0.468960 0.192189
v -0.260753 -0.367377 0.230150
v -0.016096 -0.474323 0.402827
v -0.049876 -0.394839 0.214110
v -0.248329 -0.372099 -0.307487
v 0.220043 -0.450348 -0.289444
v 0.105283 -0.387184 0.255083
v -0.245876 -0.371227 -0.298417
v -0.033785 -0.404808 -0.326904
v 0.233863 -0.482328 -0.028092
v 0.127161 -0.455995 0.380794
v 0.228987 -0.431368 -0.316968
v 0.241910 -0.476752 0.082168
v -0.027435 -0.468311 0.450093
v 0.008774 -0.501893 -0.200519
v -0.250535 -0.364433 0.143552
v 0.237550 -0.471281 0.157137
v 0.187353 -0.481799 -0.197863
v 0.182232 -0.428266 -0.118803
v 0.151583 -0.481443 -0.250210
v -0.260061 -0.457616 0.042100
v 0.245500 -0.476031 -0.053737
v -0.179333 -0.375754 0.233793
v -0.252808 -0.446191 -0.212298
v 0.017740 -0.480197 0.338874
v 0.235756 -0.447918 -0.277436
v -0.069088 -0.419037 -0.039454
v 0.225242 -0.445632 0.326425
v -0.249923 -0.439775 0.388163
v -0.213257 -0.401130 -0.111863
v 0.129667 -0.410552 -0.366249
v 0.148865 -0.475747 0.265306
v 0.082818 -0.412714 -0.339895
v -0.194395 -0.493761 -0.054250
v 0.023827 -0.401899 0.170962
v -0.044530 -0.505564 -0.149949
v 0.024764 -0.420180 -0.273440
v -0.016928 -0.408473 0.115922
v 0.170717 -0.389687 -0.357556
v 0.192367 -0.427907 -0.071319
v -0.259690 -0.400821 -0.137049
v 0.124802 -0.447920 0.395406
v 0.207034 -0.435321 -0.125853
v 0.092914 -0.428779 -0.156662
v -0.139375 -0.413508 -0.162438
v -0.120239 -0.454282 0.467716
v -0.074326 -0.471346 0.441436
v 0.109649 -0.391042 0.200461
v 0.241565 -0.470490 -0.013785
v -0.241254 -0.483057 0.221886
v -0.002830 -0.424460 -0.191344
v -0.227701 -0.427808 0.448909
v 0.172017 -0.423852 -0.211454
v -0.251338 -0.431164 -0.250551
v 0.242126 -0.450768 -0.252706
v -0.220621 -0.356156 0.254838
v 0.230557 -0.440075 -0.304390
v 0.147685 -0.420695 -0.261362
v 0.219480 -0.465561 0.235190
v -0.202452 -0.440986 0.467950
v -0.183719 -0.373180 -0.348416
v -0.259236 -0.411598 -0.154586
v -0.261214 -0.381989 0.108504
v 0.103828 -0.474141 -0.293394
v 0.197847 -0.418475 -0.237170
v 0.015478 -0.407408 -0.367699
v -0.253873 -0.391364 -0.114496
v -0.025075 -0.390076 0.263903
v -0.001203 -0.406575 -0.339075
v -0.250448 -0.388454 -0.199427
v -0.071088 -0.419466 -0.186540
v 0.072517 -0.443369 0.392282
v -0.110696 -0.400055 -0.302447
v 0.184923 -0.384462 -0.370409
v 0.174019 -0.416110 -0.254901
v -0.122317 -0.482077 0.372576
v 0.090426 -0.408361 -0.356659
v 0.037682 -0.423558 -0.053189
v 0.037107 -0.417671 -0.364437
v -0.091750 -0.385826 0.270518
v -0.135560 -0.497608 -0.127994
v -0.038619 -0.511454 -0.066774
v 0.136185 -0.487486 -0.232923
v -0.228717 -0.473003 0.336279
v -0.106077 -0.488630 -0.224102
v -0.041178 -0.397608 -0.362307
v 0.028206 -0.499417 0.196695
v -0.076466 -0.410498 0.073226
v 0.109870 -0.386798 0.236658
v -0.106739 -0.508225 -0.035146
v -0.180298 -0.405701 -0.180703
v 0.235334 -0.456872 0.229784
v -0.139614 -0.479523 -0.237603
v -0.023029 -0.402851 -0.371642
v 0.115725 -0.506174 -0.036652
v 0.131273 -0.502146 0.045828
v -0.110172 -0.391030 0.219585
v -0.220758 -0.492391 0.179729
v 0.225702 -0.451448 -0.144931
v -0.024826 -0.399903 -0.369598
v -0.189551 -0.482159 -0.165899
v -0.027413 -0.509930 0.094302
v -0.165290 -0.484504 0.340387
v -0.146022 -0.492518 0.294836
v 0.197885 -0.492221 -0.010508
v 0.033692 -0.410684 0.101164
v -0.215087 -0.369056 -0.326208
v 0.061913 -0.488588 -0.266194
v -0.098638 -0.477708 -0.265935
v 0.175462 -0.444160 0.376696
v 0.180939 -0.390153 0.244971
v 0.171729 -0.389383 0.255084
v -0.220236 -0.364058 -0.348965
v -0.232658 -0.361071 -0.339247
v -0.174910 -0.372104 0.312270
v 0.216889 -0.438329 0.355240
v -0.242014 -0.362389 -0.335229
v -0.242014 -0.362389 -0.335229
v 0.194230 -0.395102 -0.362647
v 0.236340 -0.436147 -0.304822
v -0.250403 -0.388954 0.369421
v -0.250330 -0.345551 0.297752
v -0.250330 -0.345551 0.297752
v -0.129905 -0.380745 0.301892
v 0.082452 -0.409924 -0.366975
v -0.250939 -0.352891 0.315564
v 0.221983 -0.441168 0.347971
v 0.221983 -0.441168 0.347971
v 0.221983 -0.441168 0.347971
v -0.177997 -0.375727 -0.356741
v -0.159449 -0.375140 0.279954
v 0.056704 -0.413087 -0.365690
v -0.255564 -0.358636 0.180041
v 0.231968 -0.453436 0.276006
v 0.124645 -0.403324 -0.370840
v 0.221161 -0.436164 0.335712
v 0.239343 -0.441142 -0.290753
v -0.136627 -0.383445 -0.361821
v -0.039137 -0.390446 0.296594
v 0.224731 -0.440076 0.341697
v -0.245876 -0.371227 -0.298417
v 0.241910 -0.476752 0.082168
v 0.237550 -0.471281 0.157137
v 0.225242 -0.445632 0.326425
v -0.120239 -0.454282 0.467716
v 0.184923 -0.384462 -0.370409
f 330 167 155
f 321 300 296
f 18 58 100
f 252 15 187
f 98 252 71
f 336 380 71
f 36 228 149
f 34 310 119
f 165 310 34
f 336 273 212
f 385 212 273
f 13 314 19
f 118 291 397
f 148 198 206
f 167 63 450
f 477 58 18
f 203 165 206
f 49 440 168
f 381 231 119
f 34 148 206
f 36 220 434
f 484 266 100
f 332 73 63
f 407 49 198
f 220 36 149
f 199 265 283
f 428 385 266
f 148 34 484
f 100 296 18
f 267 90 228
f 252 265 300
f 266 385 321
f 434 58 36
f 267 228 477
f 198 168 206
f 155 459 330
f 149 407 220
f 199 296 265
f 450 231 381
f 71 273 336
f 425 212 385
f 381 314 155
f 19 310 13
f 397 13 118
f 90 149 228
f 477 228 58
f 36 58 228
f 253 260 187
f 266 321 296
f 260 283 265
f 397 291 131
f 253 319 260
f 73 450 63
f 58 434 100
f 265 187 260
f 119 231 484
f 381 167 450
f 198 49 168
f 168 440 352
f 273 321 385
f 381 19 314
f 295 90 267
f 198 220 407
f 168 203 206
f 295 267 413
f 118 310 165
f 168 352 203
f 21 407 149
f 71 252 300
f 19 381 310
f 187 265 252
f 284 220 198
f 283 319 374
f 283 18 199
f 484 34 119
f 122 314 13
f 165 291 118
f 283 260 319
f 296 100 266
f 71 321 273
f 382 413 267
f 459 155 314
f 252 98 15
f 18 374 477
f 382 374 319
f 231 450 73
f 149 90 21
f 477 374 267
f 231 73 428
f 118 13 310
f 382 267 374
f 155 167 381
f 428 484 231
f 434 484 100
f 203 131 291
f 459 314 122
f 148 484 284
f 284 198 148
f 352 131 203
f 119 310 381
f 332 425 73
f 18 296 199
f 284 484 434
f 434 220 284
f 18 283 374
f 203 291 165
f 380 98 71
f 266 484 428
f 425 385 73
f 300 265 296
f 165 34 206
f 385 428 73
f 300 321 71
f 87 20 452
f 126 406 14
f 88 360 325
f 88 281 315
f 12 290 304
f 180 341 126
f 1 306 379
f 393 188 161
f 282 325 217
f 439 251 224
f 360 254 325
f 281 88 232
f 251 180 188
f 179 181 138
f 12 153 507
f 308 353 76
f 180 126 447
f 154 354 366
f 353 378 76
f 306 289 379
f 406 126 341
f 326 353 136
f 251 439 359
f 439 379 409
f 353 326 378
f 181 326 136
f 254 22 325
f 243 92 281
f 251 390 234
f 154 305 254
f 327 414 325
f 393 107 390
f 188 426 455
f 387 243 232
f 153 304 65
f 315 92 406
f 387 345 243
f 341 354 154
f 254 360 154
f 345 290 51
f 409 379 101
f 217 325 22
f 324 305 366
f 447 126 426
f 326 65 378
f 414 76 378
f 360 88 315
f 448 31 92
f 390 251 188
f 452 20 42
f 366 409 101
f 76 414 327
f 341 359 409
f 154 366 305
f 345 304 290
f 232 65 387
f 51 42 247
f 289 101 379
f 232 243 281
f 439 409 359
f 138 153 179
f 393 390 188
f 161 188 455
f 92 315 281
f 448 20 31
f 378 65 232
f 31 126 14
f 409 354 341
f 409 366 354
f 426 31 20
f 327 325 282
f 65 326 179
f 448 247 20
f 65 179 153
f 88 378 232
f 12 304 153
f 448 243 345
f 243 448 92
f 136 353 308
f 101 324 366
f 379 439 1
f 154 406 341
f 22 254 305
f 327 72 76
f 359 180 251
f 234 224 251
f 72 308 76
f 359 341 180
f 181 179 326
f 345 51 448
f 360 315 406
f 406 92 14
f 20 87 426
f 406 154 360
f 188 447 426
f 1 439 224
f 234 390 107
f 378 88 414
f 126 31 426
f 247 42 20
f 426 87 455
f 51 247 448
f 92 31 14
f 345 387 304
f 447 188 180
f 88 325 414
f 387 65 304
f 455 87 452
f 108 139 3
f 3 10 5
f 4 478 17
f 302 478 127
f 320 55 467
f 274 417 218
f 113 417 322
f 89 98 380
f 160 105 114
f 160 79 105
f 106 160 25
f 263 30 474
f 259 347 491
f 347 259 463
f 99 380 240
f 430 456 384
f 313 412 192
f 412 347 192
f 423 491 347
f 269 2 173
f 433 2 269
f 183 160 106
f 177 150 105
f 150 178 105
f 472 316 62
f 264 62 292
f 292 218 264
f 318 218 417
f 113 82 86
f 396 86 82
f 82 293 396
f 250 427 495
f 120 270 474
f 120 474 433
f 473 423 347
f 208 493 301
f 430 59 313
f 59 227 313
f 313 473 412
f 412 473 347
f 423 367 491
f 367 420 491
f 93 27 79
f 42 51 401
f 264 318 152
f 396 293 184
f 178 237 427
f 150 457 178
f 453 120 367
f 389 367 423
f 175 201 59
f 313 227 473
f 230 27 93
f 344 38 244
f 9 279 427
f 457 237 178
f 62 264 410
f 410 264 280
f 264 152 280
f 8 280 152
f 8 279 9
f 189 9 237
f 189 237 457
f 410 280 52
f 33 211 368
f 287 275 303
f 189 457 29
f 189 26 9
f 323 195 482
f 144 408 323
f 323 245 195
f 193 371 162
f 172 431 311
f 350 342 410
f 350 388 117
f 388 52 399
f 75 399 328
f 376 56 189
f 255 312 376
f 77 74 516
f 408 77 245
f 194 441 408
f 169 401 355
f 349 42 401
f 194 53 169
f 25 114 187
f 53 144 175
f 349 169 249
f 349 249 170
f 355 518 12
f 60 277 186
f 60 415 277
f 277 415 476
f 455 186 235
f 186 277 67
f 430 384 147
f 363 147 458
f 363 67 338
f 67 363 137
f 137 492 67
f 235 67 492
f 70 235 492
f 526 235 502
f 70 502 235
f 1 224 108
f 499 32 134
f 70 492 446
f 11 343 139
f 7 84 10
f 369 272 470
f 62 316 480
f 62 480 481
f 292 215 274
f 274 68 322
f 444 95 294
f 114 262 253
f 99 240 112
f 433 112 24
f 80 38 24
f 141 358 344
f 197 463 116
f 436 192 197
f 192 463 197
f 433 99 112
f 262 96 521
f 505 442 397
f 25 160 114
f 158 63 167
f 114 105 262
f 96 262 362
f 241 501 362
f 113 241 82
f 55 320 316
f 272 421 475
f 470 272 466
f 470 466 127
f 478 470 127
f 5 10 17
f 7 10 3
f 139 7 3
f 503 182 234
f 211 248 32
f 106 497 263
f 48 97 375
f 361 494 151
f 211 121 248
f 531 171 299
f 382 207 413
f 161 235 526
f 501 241 512
f 64 204 244
f 330 299 424
f 328 26 146
f 442 109 397
f 397 109 329
f 84 7 190
f 368 210 33
f 124 43 435
f 89 99 30
f 275 335 286
f 346 47 469
f 373 93 143
f 288 140 282
f 56 75 110
f 26 280 8
f 125 174 209
f 121 210 40
f 355 12 16
f 421 400 467
f 344 244 429
f 261 462 164
f 151 190 191
f 74 163 516
f 4 494 361
f 191 190 174
f 72 282 140
f 236 123 158
f 184 279 396
f 324 202 305
f 52 280 26
f 135 56 172
f 124 483 43
f 89 497 15
f 75 135 117
f 391 411 238
f 239 442 391
f 221 49 23
f 125 176 109
f 298 176 416
f 531 299 330
f 404 425 332
f 209 176 125
f 416 176 209
f 171 298 416
f 236 424 299
f 39 221 23
f 351 221 39
f 238 104 256
f 213 391 256
f 229 236 299
f 158 460 63
f 398 66 21
f 39 23 102
f 104 39 334
f 403 214 104
f 223 256 214
f 115 213 223
f 125 239 115
f 443 123 340
f 123 443 460
f 460 438 63
f 90 527 21
f 129 404 332
f 370 425 404
f 438 332 63
f 340 46 443
f 418 46 340
f 375 46 418
f 418 340 462
f 462 229 164
f 229 307 164
f 520 416 510
f 449 115 200
f 464 416 174
f 174 125 191
f 125 115 449
f 403 405 214
f 403 334 185
f 96 525 521
f 509 500 193
f 386 90 95
f 386 402 90
f 356 185 490
f 464 451 517
f 451 233 48
f 451 464 479
f 449 200 208
f 200 309 41
f 41 309 35
f 35 468 278
f 278 468 128
f 185 395 54
f 54 395 66
f 212 216 336
f 66 398 386
f 297 54 66
f 219 103 490
f 449 208 151
f 151 191 449
f 464 226 479
f 485 451 479
f 471 454 233
f 471 233 485
f 454 97 233
f 375 97 37
f 462 261 48
f 375 37 242
f 46 242 333
f 242 204 333
f 333 204 129
f 64 404 204
f 356 405 403
f 200 41 493
f 37 116 242
f 293 495 184
f 244 80 64
f 64 80 370
f 80 216 370
f 240 336 216
f 528 386 398
f 320 94 278
f 301 493 41
f 40 210 479
f 95 90 519
f 485 210 471
f 394 471 196
f 394 454 471
f 394 422 454
f 85 436 422
f 436 116 422
f 141 344 429
f 402 527 90
f 444 68 386
f 480 28 205
f 205 28 278
f 320 278 28
f 523 196 210
f 156 85 394
f 436 197 116
f 141 429 116
f 146 26 189
f 212 425 370
f 386 95 444
f 215 68 274
f 215 481 219
f 480 219 481
f 9 427 237
f 400 81 94
f 361 222 377
f 494 84 151
f 190 7 343
f 11 121 226
f 363 458 137
f 301 81 222
f 343 174 190
f 121 40 226
f 498 446 515
f 492 137 446
f 147 384 156
f 458 147 156
f 85 456 436
f 112 240 216
f 80 24 112
f 384 456 85
f 156 384 85
f 137 458 196
f 523 446 196
f 446 137 196
f 211 33 121
f 151 84 190
f 361 151 301
f 301 222 361
f 222 81 369
f 215 219 68
f 444 322 68
f 102 407 21
f 38 80 244
f 141 116 463
f 458 156 394
f 196 458 394
f 210 196 471
f 11 174 343
f 81 301 41
f 81 41 94
f 320 28 316
f 205 103 480
f 480 103 219
f 219 490 68
f 490 297 68
f 386 68 297
f 394 85 422
f 445 145 339
f 174 11 226
f 301 151 208
f 94 41 35
f 35 278 94
f 278 128 205
f 128 103 205
f 490 54 297
f 297 66 386
f 453 524 142
f 116 429 242
f 422 116 37
f 242 429 204
f 429 244 204
f 102 23 407
f 204 404 129
f 369 81 400
f 375 242 46
f 375 418 48
f 48 233 97
f 226 464 174
f 493 208 200
f 54 490 185
f 23 49 407
f 66 102 21
f 395 102 66
f 103 356 490
f 128 356 103
f 35 309 468
f 451 48 261
f 309 405 468
f 468 356 128
f 356 403 185
f 522 411 442
f 395 185 39
f 395 39 102
f 334 39 185
f 403 104 334
f 268 115 223
f 200 115 268
f 191 125 449
f 416 464 517
f 46 333 443
f 333 438 443
f 333 129 438
f 438 129 332
f 221 440 49
f 158 330 424
f 330 158 167
f 340 123 236
f 462 340 236
f 462 236 229
f 416 209 174
f 213 256 223
f 214 256 104
f 104 351 39
f 122 13 329
f 397 329 13
f 123 460 158
f 229 299 307
f 104 238 351
f 411 440 221
f 50 77 16
f 236 158 424
f 307 299 171
f 125 109 239
f 239 391 213
f 351 411 221
f 171 531 298
f 298 504 176
f 504 329 176
f 109 176 329
f 391 442 411
f 522 442 505
f 33 210 121
f 12 507 50
f 520 171 416
f 135 311 303
f 133 50 508
f 529 95 519
f 506 111 132
f 2 24 38
f 94 320 400
f 377 478 4
f 223 214 268
f 339 276 445
f 504 298 531
f 356 468 405
f 517 510 416
f 358 2 38
f 140 288 335
f 184 427 279
f 322 444 113
f 268 309 200
f 189 110 146
f 369 470 377
f 364 331 166
f 86 396 152
f 61 286 47
f 246 43 469
f 485 479 210
f 70 446 498
f 193 45 509
f 346 61 47
f 106 263 183
f 511 133 508
f 427 184 495
f 60 186 452
f 309 268 405
f 250 362 262
f 506 308 111
f 72 140 145
f 3 5 6
f 357 6 5
f 91 478 302
f 127 466 486
f 475 421 467
f 475 467 285
f 467 487 285
f 302 486 365
f 78 486 419
f 317 365 486
f 317 486 78
f 365 91 302
f 217 246 282
f 239 213 115
f 72 145 308
f 463 259 358
f 183 143 93
f 135 172 311
f 253 262 521
f 466 475 337
f 166 487 350
f 489 157 461
f 157 83 461
f 83 117 432
f 432 117 135
f 135 75 56
f 189 56 110
f 312 172 56
f 130 74 77
f 408 441 77
f 194 16 441
f 441 16 77
f 40 479 226
f 523 515 446
f 383 346 43
f 369 377 222
f 289 365 101
f 78 419 258
f 111 308 437
f 495 362 250
f 400 320 467
f 392 183 263
f 258 419 337
f 202 324 317
f 97 422 37
f 217 22 435
f 383 372 348
f 258 337 372
f 511 132 133
f 124 258 483
f 511 506 132
f 317 258 202
f 202 258 124
f 337 348 372
f 495 293 362
f 258 372 483
f 405 268 214
f 404 64 370
f 216 80 112
f 461 432 303
f 461 83 432
f 69 312 255
f 225 193 500
f 50 133 130
f 50 130 77
f 305 202 22
f 132 111 159
f 69 159 257
f 69 271 312
f 275 44 303
f 286 488 44
f 286 61 488
f 246 435 43
f 469 43 346
f 346 383 61
f 61 383 488
f 488 461 44
f 461 303 44
f 303 311 287
f 530 172 312
f 287 311 431
f 133 225 130
f 133 132 225
f 132 159 225
f 225 159 371
f 371 159 69
f 271 530 312
f 422 97 454
f 60 452 170
f 524 143 142
f 187 114 253
f 241 113 294
f 111 437 159
f 159 437 257
f 437 445 257
f 257 445 271
f 275 286 44
f 288 246 469
f 328 52 26
f 276 339 287
f 72 327 282
f 339 145 140
f 246 288 282
f 143 270 142
f 239 109 442
f 75 328 110
f 351 238 411
f 391 238 256
f 335 288 47
f 47 286 335
f 275 287 339
f 335 275 339
f 445 437 145
f 308 145 437
f 288 469 47
f 276 287 431
f 276 530 271
f 445 276 271
f 462 48 418
f 217 435 246
f 324 365 317
f 349 170 42
f 478 91 17
f 435 22 124
f 257 271 69
f 22 202 124
f 130 225 500
f 225 371 193
f 69 230 371
f 303 432 135
f 461 488 489
f 488 383 489
f 383 348 489
f 383 483 372
f 43 483 383
f 42 170 452
f 78 258 317
f 348 337 331
f 350 487 342
f 331 285 166
f 475 285 331
f 331 337 475
f 140 335 339
f 355 16 194
f 230 69 57
f 69 255 57
f 312 56 376
f 399 75 117
f 489 364 157
f 489 331 364
f 348 331 489
f 364 166 157
f 342 487 472
f 285 487 166
f 419 466 337
f 324 101 365
f 12 50 16
f 25 187 496
f 45 453 465
f 306 357 289
f 357 365 289
f 357 91 365
f 306 6 357
f 67 277 338
f 235 186 67
f 306 1 6
f 419 486 466
f 467 55 487
f 486 302 127
f 357 5 17
f 357 17 91
f 1 3 6
f 108 3 1
f 503 134 182
f 17 494 4
f 503 499 134
f 182 108 224
f 182 134 108
f 139 108 134
f 377 470 478
f 292 274 218
f 274 322 417
f 294 529 241
f 241 529 513
f 89 380 99
f 89 15 98
f 240 380 336
f 89 263 497
f 263 89 30
f 99 433 30
f 2 358 259
f 347 463 192
f 313 192 436
f 456 313 436
f 463 358 141
f 358 38 344
f 216 212 370
f 95 529 294
f 444 294 113
f 292 481 215
f 316 28 480
f 421 369 400
f 272 369 421
f 4 361 377
f 17 84 494
f 10 84 17
f 139 343 7
f 139 121 11
f 139 248 121
f 134 248 139
f 248 134 32
f 363 338 147
f 147 476 430
f 338 476 147
f 277 476 338
f 161 455 235
f 186 455 452
f 476 59 430
f 476 415 59
f 170 249 415
f 170 415 60
f 415 249 175
f 443 438 460
f 465 453 389
f 27 255 79
f 45 524 453
f 482 465 389
f 144 323 201
f 201 323 227
f 408 245 323
f 53 408 144
f 227 323 482
f 482 389 227
f 373 162 93
f 162 230 93
f 255 29 457
f 255 457 79
f 227 389 473
f 175 59 415
f 201 175 144
f 249 169 53
f 249 53 175
f 349 401 169
f 51 518 401
f 401 518 355
f 169 355 194
f 194 408 53
f 376 189 29
f 146 110 328
f 399 52 328
f 117 388 399
f 83 350 117
f 157 350 83
f 166 350 157
f 350 410 388
f 45 193 524
f 193 162 373
f 255 376 29
f 371 230 162
f 465 163 45
f 516 163 465
f 195 245 465
f 195 465 482
f 230 57 27
f 27 57 255
f 388 410 52
f 342 472 410
f 8 9 26
f 472 62 410
f 487 55 472
f 396 8 152
f 8 396 279
f 79 457 150
f 453 142 120
f 389 453 367
f 473 389 423
f 201 227 59
f 367 120 269
f 367 269 420
f 142 270 120
f 183 270 143
f 152 318 86
f 264 218 318
f 318 417 86
f 178 427 250
f 79 150 177
f 456 430 313
f 420 173 491
f 420 269 173
f 120 433 269
f 270 392 474
f 270 183 392
f 183 93 160
f 93 79 160
f 293 82 241
f 417 113 86
f 472 55 316
f 79 177 105
f 392 263 474
f 96 514 525
f 491 2 259
f 491 173 2
f 2 433 24
f 474 30 433
f 105 178 262
f 178 250 262
f 522 440 411
f 241 362 293
f 62 481 292
f 466 272 475
f 224 234 182
f 233 451 485