v 0.295788 0.089080 0.696003
v 0.268118 0.046816 0.708941
v 0.296725 0.085182 0.715874
v 0.264828 0.045699 0.724973
v 0.287395 0.065779 0.737793
v 0.274654 -0.004355 0.667812
v 0.279417 0.065821 0.722826
v 0.248696 0.014391 0.723327
v 0.278219 0.045514 0.753056
v 0.286708 0.065374 0.685114
v 0.340247 0.119782 0.702597
v 0.336881 0.080957 0.728420
v 0.291394 0.035544 0.764156
v 0.294308 0.056981 0.751514
v 0.296920 0.011982 0.772613
v 0.359617 0.132773 0.694873
v 0.320933 0.041484 0.613909
v 0.310412 0.106280 0.661112
v 0.329598 0.131814 0.688828
v 0.317383 0.127614 0.673850
v 0.267355 0.043456 0.742037
v 0.316505 0.084556 0.728306
v 0.278432 0.007259 0.661854
v 0.259641 0.006516 0.689544
v 0.252657 0.016960 0.708314
v 0.269363 0.023771 0.683673
v 0.278086 0.025020 0.764279
v 0.295676 0.037355 0.652942
v 0.299176 -0.014737 0.710390
v 0.251932 0.010808 0.740415
v 0.308940 0.025421 0.766250
v 0.306453 0.053541 0.753635
v 0.321517 0.051250 0.750405
v 0.405539 0.163281 0.667718
v 0.393431 0.176916 0.669503
v 0.379767 0.176241 0.673822
v 0.330229 0.160578 0.667030
v 0.385420 0.230278 0.655461
v 0.278287 -0.010307 0.695956
v 0.260872 -0.003845 0.705180
v 0.314001 0.103632 0.706951
v 0.308522 0.079385 0.650010
v 0.339348 0.170615 0.670330
v 0.356857 -0.004440 0.741633
v 0.316955 -0.015990 0.759490
v 0.324007 -0.014414 0.765544
v 0.348451 0.057631 0.733003
v 0.359160 0.086987 0.716091
v 0.284887 -0.005810 0.764712
v 0.313345 -0.017535 0.615193
v 0.303559 -0.016943 0.638516
v 0.263184 0.020955 0.753566
v 0.255028 0.026077 0.737056
v 0.282709 0.006597 0.770130
v 0.411274 0.060048 0.683948
v 0.462299 0.054007 0.638949
v 0.502816 0.051279 0.596954
v 0.483206 0.083527 0.615651
v 0.429801 0.077824 0.666200
v 0.439022 0.109649 0.654323
v 0.418174 0.179612 0.656434
v 0.379069 0.123752 0.692481
v 0.247143 0.003104 0.726842
v 0.429261 0.241320 0.628465
v 0.406110 0.218126 0.652305
v 0.328876 0.126553 0.612280
v 0.358635 0.017074 0.543005
v 0.316749 0.001919 0.606298
v 0.395374 0.107304 0.687674
v 0.272884 0.003392 0.763660
v 0.337236 -0.016803 0.574043
v 0.323184 -0.006716 0.768465
v 0.279677 -0.008457 0.740102
v 0.301293 -0.006569 0.774055
v 0.328032 0.029740 0.755896
v 0.428416 0.148603 0.656262
v 0.504920 0.103491 0.588883
v 0.449921 0.136168 0.640940
v 0.330604 0.007216 0.761381
v 0.414019 0.119290 0.671830
v 0.451406 0.200368 0.623018
v 0.419249 0.274703 0.619122
v 0.353985 0.025299 0.737951
v 0.388909 0.310684 0.622147
v 0.386507 0.347244 0.598466
v 0.359004 0.381067 0.594523
v 0.323826 0.352135 0.627761
v 0.295199 0.402639 0.614268
v 0.403726 0.264226 0.636827
v 0.364305 0.345721 0.616141
v 0.337564 0.353901 0.623883
v 0.377255 0.070354 0.709358
v 0.326214 0.182710 0.648989
v 0.295154 0.338262 0.629079
v 0.435188 0.180403 0.644230
v 0.320481 0.142572 0.645726
v 0.325775 0.102237 0.618413
v 0.397376 0.024546 0.700084
v 0.335861 0.068729 0.592998
v 0.335333 -0.026561 0.605422
v 0.320652 -0.019278 0.733340
v 0.453021 0.260187 0.588587
v 0.448122 0.241630 0.607357
v 0.467101 0.142476 0.623077
v 0.522973 0.049205 0.573233
v 0.496280 0.091265 0.600780
v 0.318544 0.434877 0.577320
v 0.314456 0.443654 0.565827
v 0.330338 0.420128 0.584405
v 0.274358 0.408596 0.613698
v 0.326637 0.385969 0.611715
v 0.297332 0.419035 0.603046
v 0.258254 0.397846 0.618354
v 0.245888 0.384729 0.617688
v 0.277470 0.389448 0.621858
v 0.299509 0.353604 0.628685
v 0.317941 0.242253 0.634729
v 0.295443 0.287354 0.621475
v 0.330640 0.227980 0.647613
v 0.325434 0.167417 0.616660
v 0.348303 -0.029776 0.611595
v 0.372060 0.045134 0.522004
v 0.534431 0.006567 0.557374
v 0.366814 -0.032815 0.707582
v 0.373466 -0.033266 0.715136
v 0.424007 0.216692 0.642304
v 0.390028 -0.021458 0.711630
v 0.512669 0.223160 0.528308
v 0.376171 0.301532 0.633878
v 0.522613 0.140350 0.555534
v 0.521240 0.111305 0.566283
v 0.480500 0.260677 0.550532
v 0.420526 0.377035 0.533710
v 0.312122 0.236493 0.621278
v 0.321779 0.198690 0.622474
v 0.349398 0.280852 0.645021
v 0.330812 0.282956 0.642308
v 0.359256 -0.030260 0.550256
v 0.350750 0.112548 0.557867
v 0.361703 0.216488 0.661500
v 0.350772 -0.017977 0.747369
v 0.346736 0.430816 0.560607
v 0.342493 0.455485 0.538495
v 0.322614 0.456235 0.538661
v 0.361156 0.290374 0.641979
v 0.230521 0.368852 0.603448
v 0.230056 0.383031 0.604532
v 0.337987 0.248974 0.648996
v 0.441117 0.021950 0.661102
v 0.424807 0.319484 0.578255
v 0.412182 0.303443 0.606232
v 0.287770 0.421865 0.600465
v 0.315362 0.414354 0.599118
v 0.258148 0.405257 0.609351
v 0.310453 0.288723 0.634088
v 0.502859 0.306531 0.476490
v 0.561449 0.088909 0.507426
v 0.344281 0.086633 0.576504
v 0.510116 0.314769 0.449376
v 0.351132 0.168941 0.519215
v 0.238390 0.337364 0.527485
v 0.540376 0.039555 0.550718
v 0.327747 0.214921 0.534885
v 0.465047 -0.066560 0.569386
v 0.414613 -0.035174 0.447950
v 0.383222 0.131704 0.461159
v 0.433479 0.013402 0.401247
v 0.438523 -0.043941 0.664543
v 0.461737 -0.039709 0.641238
v 0.264156 0.347892 0.618893
v 0.309371 0.236064 0.596081
v 0.281681 0.287827 0.600183
v 0.263601 0.328277 0.608876
v 0.373868 0.066967 0.515330
v 0.569447 0.059752 0.494103
v 0.573602 0.087619 0.473673
v 0.553874 0.184864 0.473197
v 0.519724 0.315082 0.422067
v 0.491889 0.370506 0.417907
v 0.335844 0.475898 0.461179
v 0.511750 0.260978 0.502228
v 0.342743 0.467446 0.520223
v 0.469094 -0.004551 0.634837
v 0.372364 0.458964 0.509810
v 0.356294 0.481277 0.488716
v 0.381168 0.479889 0.474924
v 0.285279 0.289397 0.503857
v 0.427668 -0.049641 0.434837
v 0.435116 -0.055098 0.516398
v 0.482990 -0.072022 0.598914
v 0.235252 0.390299 0.605026
v 0.236594 0.394878 0.595681
v 0.355897 0.193770 0.464559
v 0.212888 0.381241 0.476241
v 0.248394 0.414060 0.476705
v 0.261947 0.412837 0.593265
v 0.233536 0.407052 0.434571
v 0.364362 0.114780 0.522493
v 0.232160 0.352851 0.591785
v 0.278269 0.286181 0.573786
v 0.213505 0.369245 0.495210
v 0.420921 0.087171 0.394546
v 0.526962 -0.085829 0.531042
v 0.548474 -0.049514 0.520355
v 0.565432 -0.021975 0.494228
v 0.490849 0.390420 0.381204
v 0.388231 0.513674 0.275715
v 0.390162 0.515133 0.310158
v 0.375832 0.512891 0.287586
v 0.318899 0.258246 0.454303
v 0.274455 0.313613 0.463951
v 0.500274 -0.030572 0.598334
v 0.482687 -0.030262 0.619488
v 0.417301 -0.049174 0.672314
v 0.371769 -0.034877 0.640237
v 0.366836 -0.011112 0.526430
v 0.373373 -0.027509 0.518568
v 0.373168 -0.030634 0.721761
v 0.438183 0.388202 0.500519
v 0.486850 0.288049 0.520806
v 0.535397 0.215772 0.492403
v 0.550237 0.060755 0.534278
v 0.536486 0.156517 0.526823
v 0.403370 -0.045323 0.652500
v 0.421291 -0.050278 0.590142
v 0.397258 0.082531 0.458161
v 0.325378 0.203617 0.573445
v 0.207159 0.369830 0.537828
v 0.209097 0.377947 0.545341
v 0.252145 0.411161 0.543041
v 0.278719 0.428396 0.555201
v 0.360892 0.472510 0.504523
v 0.484619 0.325059 0.491843
v 0.545492 0.174036 0.501116
v 0.554062 0.026861 0.529269
v 0.546347 0.102110 0.532482
v 0.537751 -0.035365 0.544584
v 0.391916 -0.032250 0.708326
v 0.402199 -0.009619 0.469051
v 0.216423 0.379913 0.577812
v 0.243748 0.331710 0.580397
v 0.527441 -0.060432 0.552508
v 0.426791 -0.048996 0.671590
v 0.452293 -0.055672 0.646962
v 0.444920 -0.060159 0.626576
v 0.471854 -0.060611 0.624487
v 0.508943 -0.062634 0.578638
v 0.521615 -0.026904 0.570523
v 0.433642 0.475727 0.278709
v 0.517139 0.347552 0.359048
v 0.516062 0.338468 0.393192
v 0.554372 0.250866 0.381635
v 0.574768 0.174031 0.396583
v 0.574908 0.194791 0.352367
v 0.539706 0.302766 0.335553
v 0.543853 0.295031 0.298606
v 0.575968 0.042269 0.476242
v 0.546946 -0.090778 0.457361
v 0.560337 -0.079145 0.473866
v 0.381890 0.507828 0.390774
v 0.219452 0.389258 0.514596
v 0.215556 0.359850 0.525584
v 0.296671 0.446683 0.493606
v 0.368913 0.507928 0.313598
v 0.420313 0.469119 0.425143
v 0.406504 0.494018 0.401197
v 0.329875 0.261634 0.410536
v 0.375409 0.507623 0.368932
v 0.269652 0.435869 0.393016
v 0.264706 0.437050 0.307109
v 0.235353 0.396868 0.369277
v 0.397217 -0.040964 0.490177
v 0.455655 -0.061788 0.634438
v 0.490895 -0.057345 0.604075
v 0.456324 0.100742 0.249129
v 0.451178 0.102743 0.278743
v 0.501064 -0.074657 0.460927
v 0.476323 -0.060150 0.304707
v 0.481867 -0.058662 0.260397
v 0.477622 -0.040661 0.262071
v 0.464444 -0.062762 0.411220
v 0.534959 0.310238 0.257732
v 0.520928 0.328966 0.246648
v 0.440246 0.188872 0.145607
v 0.529734 -0.080366 0.535775
v 0.563867 0.037086 0.509248
v 0.507026 -0.076504 0.571355
v 0.511529 0.320437 0.232082
v 0.513465 0.354430 0.258486
v 0.558147 0.125004 0.500614
v 0.302366 0.455744 0.430745
v 0.410958 -0.047992 0.486346
v 0.505867 -0.080803 0.563049
v 0.523366 -0.086725 0.523603
v 0.469735 0.415871 0.400458
v 0.460518 0.439521 0.267599
v 0.494857 0.392607 0.317075
v 0.543220 0.285466 0.370305
v 0.459021 0.409377 0.439100
v 0.453901 0.443859 0.261868
v 0.445939 0.434181 0.428991
v 0.504489 0.375696 0.275922
v 0.440004 0.409824 0.474078
v 0.418265 0.122918 0.368446
v 0.448183 -0.028902 0.371780
v 0.566828 0.160361 0.451918
v 0.400055 0.511650 0.298931
v 0.408131 0.505488 0.328866
v 0.340892 0.337198 0.190856
v 0.294540 0.393197 0.167425
v 0.399938 0.509458 0.283469
v 0.261067 0.432175 0.174909
v 0.280962 0.451907 0.232229
v 0.267322 0.442229 0.189519
v 0.271875 0.432158 0.165766
v 0.271252 0.443776 0.177879
v 0.269024 0.418594 0.169896
v 0.347307 0.490005 0.231419
v 0.298854 0.452047 0.183561
v 0.233423 0.404647 0.374575
v 0.244682 0.354020 0.435248
v 0.222336 0.396768 0.438930
v 0.233578 0.353051 0.473791
v 0.398321 0.511896 0.338041
v 0.446955 0.458625 0.358517
v 0.471782 0.422468 0.375579
v 0.426213 0.485998 0.334336
v 0.416300 0.493470 0.365652
v 0.390055 0.510686 0.371946
v 0.385135 0.513814 0.333552
v 0.398481 0.488226 0.435541
v 0.372108 0.488323 0.467500
v 0.399518 0.467166 0.466431
v 0.460845 0.028755 0.316729
v 0.349332 0.482377 0.473699
v 0.293329 0.458676 0.190256
v 0.252804 0.425551 0.311282
v 0.299020 0.461464 0.311635
v 0.258564 0.429121 0.254877
v 0.399053 0.178906 0.353810
v 0.288852 0.325421 0.398695
v 0.291804 0.406962 0.158038
v 0.437817 0.473509 0.298569
v 0.542733 0.249474 0.437764
v 0.557944 0.214750 0.425722
v 0.570068 0.127123 0.466587
v 0.544465 -0.074926 0.513805
v 0.574068 -0.001322 0.478206
v 0.460031 -0.009683 0.335253
v 0.454281 -0.058391 0.387276
v 0.447506 -0.050460 0.383660
v 0.380555 0.503469 0.257382
v 0.386651 0.451879 0.220982
v 0.370226 0.230353 0.355418
v 0.435623 0.137069 0.292835
v 0.563748 -0.092200 0.428187
v 0.538013 -0.083717 0.402494
v 0.500494 -0.071073 0.386903
v 0.481434 -0.006275 0.212020
v 0.474435 -0.016664 0.277873
v 0.579377 0.186154 0.311590
v 0.559815 0.248993 0.259353
v 0.468501 0.123094 0.150295
v 0.464039 -0.044641 0.326779
v 0.463725 0.054946 0.282000
v 0.446910 0.095315 0.306942
v 0.441954 0.076930 0.341511
v 0.324598 0.474060 0.384922
v 0.381663 0.501039 0.426928
v 0.394199 0.500518 0.413099
v 0.401037 0.506039 0.372475
v 0.379689 0.513418 0.271819
v 0.369100 0.414196 0.189342
v 0.329634 0.372053 0.153051
v 0.369858 0.496944 0.435135
v 0.385461 0.494271 0.443116
v 0.471758 0.012789 0.279714
v 0.261758 0.424153 0.187872
v 0.407180 0.245512 0.144950
v 0.294977 0.388362 0.210108
v 0.398335 0.499260 0.264717
v 0.404625 0.477504 0.249279
v 0.253390 0.417982 0.292625
v 0.323606 0.483399 0.237315
v 0.416203 0.266600 0.151282
v 0.349677 0.470039 0.214686
v 0.298122 0.428262 0.167741
v 0.332001 0.349704 0.169353
v 0.335698 0.350043 0.153923
v 0.371142 0.311585 0.148133
v 0.322044 0.481100 0.220428
v 0.365335 0.276410 0.282597
v 0.406229 0.196549 0.298366
v 0.337177 0.309236 0.306323
v 0.467816 0.071303 0.222395
v 0.370632 0.282658 0.243768
v 0.433511 0.155685 0.261087
v 0.433754 0.464959 0.395870
v 0.358868 0.494559 0.410405
v 0.367965 0.211211 0.392373
v 0.493926 -0.062725 0.218439
v 0.566308 -0.091437 0.377184
v 0.583432 -0.050139 0.415011
v 0.478763 -0.000776 0.243829
v 0.545647 -0.089719 0.485381
v 0.482258 0.007416 0.166573
v 0.459101 0.114660 0.153531
v 0.554426 -0.087549 0.474139
v 0.584177 0.056314 0.442556
v 0.484082 0.164141 0.164584
v 0.586973 0.124827 0.387364
v 0.485211 0.028511 0.154558
v 0.501749 -0.058126 0.175010
v 0.491181 -0.055971 0.173171
v 0.492832 -0.046036 0.164522
v 0.575772 -0.085425 0.402001
v 0.593905 -0.027673 0.370570
v 0.597872 0.026857 0.365756
v 0.447102 0.203088 0.150402
v 0.591011 0.088469 0.393722
v 0.593328 0.106967 0.353725
v 0.569272 0.205683 0.244350
v 0.534046 0.317040 0.271860
v 0.490213 0.397246 0.265863
v 0.481187 0.406274 0.258111
v 0.597724 0.078433 0.338001
v 0.601437 0.035134 0.311914
v 0.582474 -0.082358 0.362856
v 0.563027 -0.085526 0.320414
v 0.505334 -0.063783 0.195308
v 0.546105 -0.077525 0.286387
v 0.593616 -0.056730 0.308780
v 0.577501 -0.089800 0.338589
v 0.595524 -0.036112 0.339119
v 0.600043 0.066402 0.304600
v 0.587981 0.124520 0.246673
v 0.371457 0.295665 0.155065
v 0.601790 0.024625 0.275437
v 0.600161 0.033900 0.257730
v 0.599481 -0.019393 0.284321
v 0.582211 -0.077762 0.247493
v 0.595671 0.031533 0.244615
v 0.577561 -0.043026 0.227960
v 0.576299 -0.082035 0.258882
v 0.599389 0.002212 0.258926
v 0.594980 -0.017686 0.249052
v 0.585060 -0.057592 0.241060
v 0.589931 -0.073591 0.267910
v 0.353451 0.496960 0.334276
v 0.354783 0.501981 0.253690
v 0.261811 0.360530 0.386545
v 0.422718 0.148691 0.324376
v 0.568488 -0.065484 0.462179
v 0.569450 -0.083098 0.437125
v 0.583438 0.006986 0.447160
v 0.539745 0.285723 0.243608
v 0.401116 0.243111 0.154289
v 0.419401 0.203756 0.181446
v 0.480514 0.072105 0.150982
v 0.422366 0.199249 0.158697
v 0.265237 0.438950 0.248693
v 0.435982 0.177429 0.148461
v 0.390701 0.259220 0.183152
v 0.378240 0.278871 0.207534
v 0.261734 0.433556 0.207611
v 0.348148 0.276280 0.337939
v 0.319493 0.306710 0.359614
v 0.244733 0.386030 0.367181
v 0.482520 -0.028672 0.195703
v 0.482325 -0.050172 0.222548
v 0.476392 0.034916 0.213860
v 0.577816 -0.036651 0.451141
v 0.590125 0.018806 0.418545
v 0.586480 0.150236 0.342108
v 0.589485 -0.014856 0.410650
v 0.594389 0.056107 0.387847
v 0.554767 0.255257 0.248647
v 0.494190 0.093088 0.159763
v 0.538411 0.191768 0.209171
v 0.499919 0.032724 0.159378
v 0.517167 -0.050354 0.178063
v 0.494947 -0.013228 0.159669
v 0.532947 0.054867 0.183677
v 0.568926 0.216958 0.252592
v 0.578513 0.189422 0.273200
v 0.539199 0.254539 0.228168
v 0.593874 0.117694 0.301181
v 0.570957 -0.091794 0.393343
v 0.457443 0.108906 0.200360
v 0.303836 0.372316 0.250372
v 0.347259 0.323749 0.224544
v 0.364000 0.304280 0.180523
v 0.284447 0.375032 0.307530
v 0.577789 -0.072335 0.418173
v 0.597401 0.002161 0.365184
v 0.406593 0.213873 0.256682
v 0.398777 0.239382 0.220767
v 0.312339 0.342935 0.305972
v 0.256322 0.406487 0.301341
v 0.320153 0.478773 0.262355
v 0.270658 0.406550 0.248610
v 0.265342 0.416952 0.218813
v 0.321421 0.360786 0.203676
v 0.445526 0.144206 0.167620
v 0.478055 0.030981 0.180079
v 0.484680 -0.044350 0.177952
v 0.585808 -0.068005 0.372773
v 0.564634 0.134673 0.220411
v 0.537297 -0.064189 0.199392
v 0.526504 0.117429 0.186236
v 0.565834 0.191016 0.234385
v 0.553879 0.239743 0.237533
v 0.524075 -0.007640 0.177344
v 0.486195 -0.020277 0.163521
v 0.486767 -0.056306 0.196328
v 0.572320 0.061746 0.217620
v 0.563863 -0.015501 0.211167
v 0.544613 -0.073695 0.235572
v 0.581656 -0.087196 0.339405
v 0.600721 0.052608 0.268971
v 0.577321 -0.087158 0.296319
v 0.600318 -0.000696 0.318121
v 0.566956 -0.075418 0.232898
v 0.595231 0.106544 0.270244
v 0.595376 0.095093 0.256829
v 0.580936 0.130973 0.237241
v 0.587071 -0.077553 0.254706
v 0.587547 -0.079649 0.311553
v 0.589661 -0.068869 0.254470
v 0.591279 -0.070815 0.285065
v 0.584402 -0.085386 0.287335
v 0.596639 -0.040494 0.271804
v 0.585605 -0.081655 0.264521
v 0.594644 -0.046916 0.260034
v 0.597171 0.061317 0.250756
v 0.589240 0.011993 0.235611
v 0.588901 0.075917 0.237267
v 0.220194 0.377547 0.439019
v 0.482082 0.410958 0.356114
v 0.464369 0.437557 0.279457
v 0.559437 0.253255 0.278647
v 0.454407 0.408385 0.234492
v 0.494336 0.367146 0.241513
v 0.491684 0.383197 0.250497
v 0.426809 0.324968 0.177551
v 0.536053 -0.068175 0.206897
v 0.485016 0.238390 0.182605
v 0.485468 0.308189 0.207050
v 0.439666 0.453909 0.256309
v 0.521796 0.343485 0.321089
v 0.413709 0.499690 0.293232
v 0.464660 0.438284 0.330107
v 0.387488 0.262839 0.645203
v 0.260037 -0.000162 0.743273
v 0.475624 0.166293 0.607437
v 0.479386 0.193902 0.592283
v 0.218422 0.390007 0.429034
v 0.314986 0.246151 0.509662
v 0.433562 0.045662 0.386521
v 0.535705 0.237961 0.471792
v 0.380276 0.409944 0.548173
v 0.456984 0.324147 0.532633
v 0.214390 0.370615 0.577992
v 0.398029 0.364033 0.572084
v 0.491607 0.210115 0.567208
v 0.551944 -0.054551 0.205784
v 0.473602 0.069037 0.154082
v 0.284650 0.351728 0.358074
v 0.338264 0.325726 0.262346
v 0.583922 0.159817 0.257093
v 0.434208 0.166098 0.219773
v 0.514813 -0.070393 0.278883
v 0.469695 0.069713 0.177363
v 0.472115 0.042252 0.244910
v 0.557983 -0.064169 0.492257
v 0.580476 0.119253 0.429226
v 0.524850 -0.085496 0.489897
v 0.483950 -0.064865 0.316477
v 0.493888 -0.076447 0.528557
v 0.558530 0.252904 0.329755
v 0.351949 0.367781 0.158378
v 0.416287 0.490558 0.273288
v 0.537000 0.287138 0.403137
v 0.496347 -0.079061 0.562100
v 0.239883 0.413881 0.381074
v 0.478875 0.372175 0.448810
v 0.475512 0.357122 0.474143
v 0.395622 0.440759 0.502070
v 0.314727 0.455132 0.525304
v 0.239482 0.332656 0.560829
v 0.215392 0.358649 0.560243
v 0.301227 0.254371 0.556874
v 0.338197 0.159410 0.573238
v 0.226639 0.391673 0.565385
v 0.410708 0.020613 0.451724
v 0.431511 -0.028296 0.672507
v 0.551265 -0.005200 0.529329
v 0.286226 0.427465 0.587276
v 0.501224 0.006630 0.599218
v 0.349209 0.187803 0.668494
v 0.249475 0.003577 0.709394
v 0.274654 -0.004355 0.667812
v 0.313345 -0.017535 0.615193
v 0.247143 0.003104 0.726842
v 0.247143 0.003104 0.726842
v 0.301293 -0.006569 0.774055
v 0.274358 0.408596 0.613698
v 0.258254 0.397846 0.618354
v 0.359256 -0.030260 0.550256
v 0.342743 0.467446 0.520223
v 0.356294 0.481277 0.488716
v 0.482990 -0.072022 0.598914
v 0.388231 0.513674 0.275715
v 0.397217 -0.040964 0.490177
v 0.481867 -0.058662 0.260397
v 0.233423 0.404647 0.374575
v 0.291804 0.406962 0.158038
v 0.329634 0.372053 0.153051
v 0.371142 0.311585 0.148133
v 0.459101 0.114660 0.153531
v 0.501749 -0.058126 0.175010
v 0.491181 -0.055971 0.173171
v 0.491181 -0.055971 0.173171
v 0.481187 0.406274 0.258111
v 0.587981 0.124520 0.246673
v 0.539745 0.285723 0.243608
v 0.486767 -0.056306 0.196328
v 0.587071 -0.077553 0.254706
v 0.587071 -0.077553 0.254706
v 0.585605 -0.081655 0.264521
v 0.218422 0.390007 0.429034
v 0.249475 0.003577 0.709394
f 1 10 2
f 41 3 22
f 5 22 3
f 21 4 53
f 601 6 40
f 632 25 24
f 8 2 25
f 22 14 32
f 68 71 50
f 63 554 30
f 74 54 49
f 65 553 38
f 65 126 89
f 553 65 89
f 67 17 99
f 68 17 67
f 49 554 73
f 45 606 49
f 60 78 76
f 90 129 84
f 148 600 140
f 148 140 137
f 135 120 96
f 216 68 67
f 104 106 77
f 77 555 104
f 555 77 131
f 555 131 556
f 555 81 104
f 555 556 81
f 81 556 103
f 556 565 103
f 565 102 103
f 102 565 132
f 150 102 132
f 85 150 564
f 85 151 150
f 562 150 132
f 86 85 564
f 564 561 86
f 142 86 561
f 109 86 142
f 564 150 133
f 150 562 133
f 231 598 589
f 292 100 138
f 121 100 292
f 215 224 124
f 121 292 189
f 189 215 121
f 213 212 599
f 222 131 162
f 220 128 181
f 184 143 142
f 192 240 191
f 591 241 199
f 588 561 133
f 196 230 594
f 227 163 160
f 593 227 160
f 248 242 237
f 161 590 591
f 161 200 590
f 223 236 290
f 177 221 234
f 560 344 159
f 263 291 195
f 194 201 228
f 201 262 228
f 167 226 559
f 203 285 287
f 176 157 175
f 184 588 333
f 187 210 558
f 351 165 305
f 188 165 351
f 584 190 245
f 333 303 301
f 538 271 468
f 538 468 321
f 557 271 538
f 320 631 322
f 322 197 585
f 320 322 585
f 204 347 575
f 583 178 344
f 251 178 583
f 325 326 539
f 327 325 343
f 343 325 552
f 539 326 206
f 552 325 539
f 551 308 327
f 551 327 343
f 551 343 249
f 350 281 292
f 474 253 411
f 386 352 382
f 386 382 353
f 334 365 377
f 279 278 280
f 577 277 357
f 455 409 257
f 256 580 541
f 344 345 583
f 249 540 296
f 249 343 540
f 300 582 249
f 312 317 378
f 270 461 337
f 339 337 461
f 423 256 541
f 362 423 541
f 282 423 362
f 363 567 407
f 545 548 547
f 382 542 353
f 545 373 548
f 373 542 548
f 373 353 542
f 552 297 540
f 343 552 540
f 297 250 550
f 250 298 255
f 255 298 580
f 255 550 250
f 540 297 302
f 425 549 300
f 544 549 425
f 544 542 549
f 382 549 542
f 543 542 544
f 424 544 624
f 289 424 302
f 544 424 289
f 288 542 543
f 548 542 288
f 385 545 547
f 419 385 547
f 384 316 314
f 500 338 449
f 393 340 354
f 454 403 453
f 453 403 472
f 453 259 454
f 356 454 408
f 288 456 486
f 412 567 459
f 505 573 567
f 454 416 494
f 361 474 487
f 361 487 485
f 435 426 418
f 434 522 417
f 507 432 434
f 535 525 520
f 517 516 536
f 516 537 536
f 525 570 524
f 436 570 525
f 625 537 526
f 535 537 625
f 436 525 535
f 537 535 442
f 536 537 442
f 566 517 443
f 535 439 442
f 536 446 447
f 448 530 531
f 448 532 530
f 532 448 534
f 529 534 448
f 447 446 529
f 446 534 529
f 530 532 432
f 440 432 532
f 434 432 440
f 528 531 530
f 521 444 531
f 533 531 444
f 630 448 531
f 529 448 527
f 447 529 628
f 441 447 628
f 509 566 441
f 566 447 441
f 566 443 447
f 443 536 447
f 445 534 446
f 445 532 534
f 445 446 442
f 442 439 445
f 445 439 438
f 445 438 440
f 445 440 532
f 528 530 432
f 523 441 444
f 444 441 533
f 533 441 629
f 448 630 527
f 509 441 523
f 517 536 443
f 536 442 446
f 438 522 440
f 434 440 522
f 531 433 521
f 528 519 531
f 519 433 531
f 521 429 444
f 444 546 523
f 523 546 509
f 516 508 537
f 508 526 537
f 520 525 524
f 439 535 520
f 520 438 439
f 522 438 427
f 519 528 428
f 402 429 521
f 433 402 521
f 444 429 518
f 546 444 518
f 508 511 526
f 513 483 517
f 483 516 517
f 435 524 487
f 520 435 427
f 520 524 435
f 520 427 438
f 528 432 507
f 507 428 528
f 429 431 518
f 518 431 572
f 546 518 430
f 481 566 509
f 513 517 566
f 483 510 516
f 510 508 516
f 526 511 625
f 511 422 625
f 422 570 436
f 485 524 570
f 487 524 485
f 487 426 435
f 420 476 426
f 420 426 421
f 476 418 426
f 435 418 427
f 522 427 418
f 434 417 507
f 488 428 416
f 519 488 433
f 519 428 488
f 572 401 430
f 430 518 572
f 506 414 515
f 622 401 627
f 622 430 401
f 546 430 413
f 480 483 513
f 482 514 412
f 486 512 511
f 479 486 511
f 422 477 484
f 512 477 422
f 422 511 512
f 570 422 484
f 479 511 508
f 510 479 508
f 413 509 546
f 481 513 566
f 418 476 473
f 418 495 522
f 522 495 417
f 417 403 507
f 507 416 428
f 433 488 402
f 403 494 507
f 572 431 357
f 506 515 470
f 415 514 482
f 506 514 415
f 415 414 506
f 415 621 623
f 430 622 413
f 621 481 509
f 621 415 481
f 415 482 481
f 482 513 481
f 482 480 513
f 406 514 469
f 412 514 406
f 482 412 480
f 478 510 483
f 510 410 479
f 410 547 479
f 548 486 479
f 512 626 477
f 512 486 456
f 484 362 485
f 485 570 484
f 474 421 487
f 421 426 487
f 411 420 421
f 473 475 418
f 418 475 495
f 417 495 475
f 416 507 494
f 356 416 454
f 488 416 356
f 429 357 431
f 358 572 357
f 578 572 358
f 578 401 572
f 578 278 401
f 278 615 401
f 506 470 469
f 506 469 514
f 406 469 359
f 471 395 573
f 489 573 395
f 571 489 275
f 465 378 502
f 384 313 500
f 496 571 397
f 490 503 491
f 490 380 503
f 396 569 491
f 498 569 394
f 490 569 498
f 499 501 490
f 490 498 493
f 499 490 493
f 493 498 568
f 380 490 501
f 491 569 490
f 492 491 309
f 464 491 492
f 464 396 491
f 396 464 497
f 464 463 497
f 458 497 463
f 497 458 571
f 504 571 458
f 497 571 496
f 393 496 397
f 396 497 496
f 392 569 396
f 392 394 569
f 498 467 341
f 498 341 568
f 468 493 568
f 468 568 451
f 468 499 493
f 461 465 339
f 384 450 391
f 465 502 339
f 502 380 501
f 503 309 491
f 492 437 463
f 463 464 492
f 458 457 460
f 457 379 462
f 504 489 571
f 620 573 504
f 504 573 489
f 567 573 620
f 363 510 478
f 459 363 478
f 567 406 505
f 567 412 406
f 412 459 480
f 459 478 480
f 478 483 480
f 547 548 479
f 548 288 486
f 626 282 477
f 362 541 485
f 484 477 362
f 420 409 476
f 409 473 476
f 475 473 455
f 472 475 455
f 403 475 472
f 475 403 417
f 403 454 494
f 356 402 488
f 578 358 281
f 627 401 615
f 279 470 515
f 280 469 470
f 280 359 469
f 573 505 471
f 471 505 359
f 505 406 359
f 471 574 395
f 275 395 574
f 275 489 395
f 275 276 397
f 397 571 275
f 452 340 393
f 393 392 496
f 396 496 392
f 394 392 466
f 466 392 393
f 466 393 354
f 467 394 466
f 467 498 394
f 400 354 340
f 466 354 267
f 267 467 466
f 383 501 499
f 383 502 501
f 461 270 313
f 313 338 500
f 318 336 391
f 316 391 336
f 316 384 391
f 313 384 314
f 313 314 465
f 461 313 465
f 310 380 502
f 309 388 492
f 457 463 437
f 390 385 379
f 457 437 379
f 457 458 463
f 462 460 457
f 460 504 458
f 567 363 459
f 410 510 363
f 288 283 456
f 362 477 282
f 541 361 485
f 576 420 411
f 455 473 409
f 472 455 348
f 453 472 205
f 408 454 259
f 402 356 258
f 258 357 402
f 357 429 402
f 357 277 358
f 277 281 358
f 364 360 280
f 359 280 404
f 471 359 404
f 574 471 404
f 275 365 276
f 275 574 365
f 574 377 365
f 355 397 276
f 393 397 355
f 452 393 355
f 267 341 467
f 451 568 341
f 271 499 468
f 616 499 271
f 616 383 499
f 383 320 337
f 383 337 339
f 339 502 383
f 270 338 313
f 264 500 449
f 319 318 386
f 336 318 319
f 319 386 387
f 315 319 387
f 315 336 319
f 316 336 315
f 342 315 387
f 315 617 317
f 317 312 315
f 316 315 312
f 316 312 314
f 312 465 314
f 312 378 465
f 317 502 378
f 317 310 502
f 389 388 310
f 310 388 380
f 388 503 380
f 388 309 503
f 437 388 389
f 437 389 619
f 388 437 492
f 619 379 437
f 385 581 545
f 549 582 300
f 249 296 300
f 298 250 251
f 583 345 252
f 424 540 302
f 624 296 424
f 296 540 424
f 296 624 300
f 550 423 302
f 289 423 282
f 289 302 423
f 283 544 289
f 544 283 543
f 379 385 419
f 419 284 379
f 379 284 462
f 419 547 410
f 462 504 460
f 462 620 504
f 419 410 363
f 407 462 363
f 462 284 363
f 284 419 363
f 543 283 288
f 289 282 283
f 282 626 283
f 580 361 541
f 254 474 361
f 474 411 421
f 576 411 253
f 409 420 576
f 472 348 205
f 453 205 575
f 259 453 575
f 405 356 408
f 405 258 356
f 357 258 577
f 350 578 281
f 280 470 279
f 364 305 349
f 349 360 364
f 377 360 349
f 360 377 404
f 404 280 360
f 377 574 404
f 366 355 276
f 355 366 452
f 304 340 452
f 267 354 400
f 210 267 193
f 320 585 337
f 338 270 269
f 399 268 449
f 399 375 268
f 375 260 268
f 329 260 369
f 369 370 329
f 338 368 449
f 260 375 369
f 370 369 376
f 266 265 398
f 371 370 266
f 329 370 371
f 268 330 264
f 384 500 264
f 384 264 209
f 450 384 209
f 387 386 373
f 581 387 373
f 342 581 374
f 342 387 581
f 617 310 317
f 617 389 310
f 389 617 618
f 390 374 581
f 390 581 385
f 581 373 545
f 382 352 381
f 381 582 549
f 381 549 382
f 552 539 297
f 539 250 297
f 251 583 298
f 583 252 298
f 252 345 253
f 580 252 254
f 298 252 580
f 252 253 254
f 254 253 474
f 256 550 255
f 297 550 302
f 255 580 256
f 423 550 256
f 254 361 580
f 346 176 576
f 409 576 176
f 257 348 455
f 259 575 347
f 259 347 408
f 579 577 584
f 579 277 577
f 189 281 277
f 350 188 351
f 350 278 578
f 278 364 280
f 334 377 349
f 334 366 365
f 366 276 365
f 367 304 366
f 304 452 366
f 304 367 202
f 340 304 193
f 267 400 193
f 451 341 321
f 585 269 270
f 585 270 337
f 269 368 338
f 449 368 399
f 399 335 375
f 376 186 333
f 376 333 331
f 332 376 369
f 369 375 332
f 333 265 331
f 370 376 331
f 266 370 331
f 265 266 331
f 398 265 301
f 295 301 299
f 398 328 266
f 260 329 330
f 268 260 330
f 268 264 449
f 372 208 207
f 209 208 372
f 450 209 372
f 352 372 613
f 372 318 450
f 391 450 318
f 373 386 353
f 389 618 619
f 318 352 386
f 318 372 352
f 352 613 381
f 582 381 613
f 249 582 551
f 539 206 250
f 206 251 250
f 253 345 306
f 253 306 576
f 257 409 176
f 205 204 575
f 294 258 405
f 294 577 258
f 294 584 577
f 584 294 293
f 584 293 190
f 579 584 164
f 579 164 189
f 579 189 277
f 188 350 292
f 351 305 364
f 351 278 350
f 351 364 278
f 367 334 559
f 366 334 367
f 400 340 193
f 210 341 267
f 211 341 210
f 187 211 210
f 321 341 211
f 468 451 321
f 616 271 557
f 211 161 323
f 538 323 201
f 321 323 538
f 194 557 538
f 322 631 194
f 585 197 269
f 269 291 368
f 399 368 180
f 180 335 399
f 332 186 376
f 301 265 333
f 398 301 295
f 371 266 328
f 326 398 295
f 325 328 398
f 329 371 324
f 208 330 329
f 208 329 324
f 324 371 308
f 371 328 308
f 328 325 327
f 398 326 325
f 326 295 206
f 308 328 327
f 307 324 308
f 307 208 324
f 264 330 209
f 208 209 330
f 207 208 307
f 207 307 311
f 582 613 311
f 311 551 582
f 311 307 551
f 307 308 551
f 206 179 251
f 179 178 251
f 177 344 560
f 177 306 345
f 177 345 344
f 346 576 306
f 176 175 257
f 257 175 286
f 286 348 257
f 285 347 242
f 408 347 285
f 285 405 408
f 285 203 405
f 294 405 203
f 584 245 164
f 292 281 189
f 305 165 595
f 595 167 305
f 167 349 305
f 559 349 167
f 559 334 349
f 559 202 367
f 166 304 202
f 166 193 304
f 558 193 163
f 210 193 558
f 321 211 323
f 161 211 187
f 194 538 201
f 322 194 261
f 195 322 261
f 322 195 197
f 197 195 269
f 368 291 180
f 185 332 375
f 185 375 335
f 186 184 333
f 303 299 301
f 586 179 299
f 295 299 179
f 295 179 206
f 178 159 344
f 177 290 346
f 177 346 306
f 205 348 286
f 347 204 242
f 203 293 294
f 203 287 293
f 612 287 274
f 612 293 287
f 190 273 245
f 188 292 272
f 614 165 188
f 239 595 165
f 226 166 202
f 166 160 193
f 193 160 163
f 558 592 187
f 200 161 187
f 262 323 161
f 323 262 201
f 195 261 230
f 195 230 263
f 195 291 269
f 335 180 589
f 180 291 263
f 180 263 589
f 232 184 186
f 611 232 186
f 611 186 332
f 303 587 586
f 586 587 159
f 303 586 299
f 179 159 178
f 177 560 221
f 234 290 177
f 176 346 290
f 290 157 176
f 597 204 205
f 237 242 204
f 247 285 242
f 247 287 285
f 248 247 242
f 247 248 212
f 274 287 247
f 596 168 169
f 168 243 244
f 274 169 246
f 169 168 246
f 168 244 246
f 213 169 274
f 246 612 274
f 246 273 612
f 225 164 245
f 595 226 167
f 202 559 226
f 226 198 166
f 160 166 198
f 261 194 229
f 194 228 229
f 161 591 262
f 591 228 262
f 261 594 230
f 263 230 231
f 589 144 335
f 185 335 144
f 144 182 185
f 611 610 232
f 588 303 333
f 233 156 587
f 220 181 233
f 233 181 156
f 159 587 156
f 586 159 179
f 159 156 560
f 234 223 290
f 223 130 236
f 157 290 236
f 157 286 175
f 286 235 597
f 205 286 597
f 274 247 212
f 274 212 213
f 149 596 169
f 596 127 168
f 238 168 127
f 238 218 243
f 238 243 168
f 214 273 243
f 214 245 273
f 244 273 246
f 244 243 273
f 225 245 224
f 164 225 189
f 174 595 122
f 595 174 226
f 593 160 198
f 163 227 592
f 592 558 163
f 200 187 592
f 200 241 590
f 241 591 590
f 594 261 229
f 563 229 228
f 228 591 563
f 229 563 240
f 240 594 229
f 192 594 240
f 589 263 231
f 610 143 232
f 588 219 303
f 588 133 219
f 303 219 587
f 219 233 587
f 219 562 233
f 560 156 181
f 181 221 560
f 223 234 221
f 222 157 236
f 222 286 157
f 222 235 286
f 237 204 597
f 237 597 123
f 237 123 248
f 183 169 213
f 214 125 124
f 214 218 125
f 218 214 243
f 189 225 215
f 217 165 614
f 165 217 216
f 165 216 239
f 216 67 239
f 595 239 122
f 174 198 226
f 593 198 139
f 171 592 227
f 241 200 172
f 192 196 594
f 196 231 230
f 143 610 108
f 108 182 144
f 143 184 232
f 142 561 184
f 588 184 561
f 561 564 133
f 562 220 233
f 181 128 221
f 128 223 221
f 131 236 130
f 131 222 236
f 162 123 235
f 123 597 235
f 599 212 248
f 183 149 169
f 245 124 224
f 124 245 214
f 609 217 614
f 67 122 239
f 227 120 135
f 135 171 227
f 200 592 171
f 134 200 171
f 172 200 134
f 118 172 134
f 241 172 173
f 199 241 173
f 146 173 170
f 146 199 173
f 591 199 563
f 199 146 563
f 563 146 147
f 240 563 147
f 147 191 240
f 192 191 154
f 192 154 196
f 196 154 598
f 144 589 598
f 108 107 143
f 107 142 143
f 219 133 562
f 562 132 220
f 132 128 220
f 222 162 235
f 599 183 213
f 98 127 596
f 224 215 225
f 292 138 272
f 174 139 198
f 158 139 122
f 139 174 122
f 593 139 66
f 227 593 120
f 171 135 134
f 118 134 117
f 155 170 118
f 173 172 118
f 114 146 170
f 114 147 146
f 113 154 114
f 154 191 114
f 598 154 152
f 598 231 196
f 109 142 107
f 556 130 565
f 556 131 130
f 132 565 128
f 565 223 128
f 565 130 223
f 131 105 162
f 162 105 123
f 123 599 248
f 105 599 123
f 98 596 149
f 127 98 44
f 45 125 218
f 124 125 45
f 101 215 124
f 71 216 217
f 71 217 609
f 158 122 99
f 139 158 66
f 155 117 119
f 155 94 170
f 118 170 173
f 116 114 94
f 114 170 94
f 114 191 147
f 115 608 114
f 114 116 115
f 115 116 87
f 110 115 88
f 115 110 608
f 113 607 154
f 607 152 154
f 152 110 88
f 152 88 112
f 112 88 153
f 88 111 153
f 112 153 107
f 112 107 152
f 152 108 598
f 152 107 108
f 107 153 109
f 153 86 109
f 153 111 86
f 144 598 108
f 85 84 151
f 84 82 151
f 151 102 150
f 151 82 102
f 103 102 82
f 104 81 95
f 104 78 58
f 58 106 104
f 77 105 131
f 183 599 56
f 238 127 141
f 218 238 141
f 46 218 141
f 46 45 218
f 45 101 124
f 73 101 45
f 29 101 73
f 101 29 215
f 215 29 121
f 138 100 51
f 51 603 138
f 71 609 50
f 68 216 71
f 122 67 99
f 97 158 99
f 97 66 158
f 120 593 66
f 135 96 93
f 117 93 119
f 117 134 93
f 134 135 93
f 119 93 43
f 43 600 119
f 119 600 148
f 148 155 119
f 155 148 137
f 118 117 155
f 116 94 136
f 136 145 116
f 136 94 137
f 94 155 137
f 87 116 145
f 88 87 91
f 115 87 88
f 88 91 111
f 90 111 91
f 91 129 90
f 84 89 82
f 129 89 84
f 90 86 111
f 86 90 85
f 90 84 85
f 64 103 82
f 64 126 81
f 64 81 103
f 95 78 104
f 95 76 78
f 61 80 76
f 62 34 35
f 78 56 58
f 78 60 56
f 56 60 59
f 149 56 59
f 106 57 77
f 77 57 105
f 57 599 105
f 57 56 599
f 56 149 183
f 55 98 149
f 83 44 98
f 72 141 44
f 141 127 44
f 72 46 141
f 73 45 49
f 70 554 49
f 17 42 99
f 97 99 42
f 97 18 66
f 96 120 66
f 37 43 93
f 136 140 38
f 136 38 145
f 140 136 137
f 145 38 553
f 38 35 65
f 89 126 64
f 145 553 129
f 87 129 91
f 87 145 129
f 129 553 89
f 89 64 82
f 126 95 81
f 61 126 65
f 61 95 126
f 34 65 35
f 34 61 65
f 34 80 61
f 60 76 80
f 34 69 80
f 34 62 69
f 92 69 62
f 56 57 58
f 57 106 58
f 92 83 98
f 44 83 79
f 79 72 44
f 72 74 46
f 46 606 45
f 30 554 70
f 39 121 29
f 39 100 121
f 39 51 100
f 66 18 96
f 20 37 93
f 20 93 96
f 43 37 19
f 36 38 140
f 38 36 35
f 61 76 95
f 36 62 35
f 36 16 62
f 80 59 60
f 48 92 62
f 80 55 59
f 80 69 55
f 69 92 55
f 48 47 92
f 98 55 92
f 55 149 59
f 92 47 83
f 75 47 33
f 75 33 31
f 75 83 47
f 75 79 83
f 75 31 79
f 79 31 72
f 31 15 72
f 15 74 72
f 15 54 74
f 54 70 49
f 52 70 54
f 52 30 70
f 52 53 30
f 30 53 8
f 604 30 8
f 8 632 604
f 601 40 605
f 40 554 605
f 40 73 554
f 39 29 73
f 40 51 39
f 602 68 50
f 602 23 68
f 28 68 23
f 28 17 68
f 42 17 28
f 42 18 97
f 20 96 18
f 41 19 20
f 16 600 43
f 43 11 16
f 43 19 11
f 20 19 37
f 16 36 140
f 140 600 16
f 16 48 62
f 16 12 48
f 16 11 12
f 48 12 47
f 33 47 12
f 32 31 33
f 15 13 27
f 15 31 13
f 15 27 54
f 27 52 54
f 21 53 52
f 25 632 8
f 40 39 73
f 6 603 51
f 26 28 23
f 20 18 1
f 3 20 1
f 41 20 3
f 19 41 22
f 11 19 22
f 22 12 11
f 32 33 12
f 12 22 32
f 22 5 14
f 5 9 14
f 14 9 13
f 14 13 32
f 13 31 32
f 9 27 13
f 9 52 27
f 9 21 52
f 4 8 53
f 4 2 8
f 2 26 25
f 2 10 26
f 10 28 26
f 25 26 24
f 26 23 24
f 24 23 602
f 24 602 632
f 6 51 40
f 42 28 10
f 10 18 42
f 1 18 10
f 9 5 21
f 7 21 5
f 7 4 21
f 2 4 7
f 3 1 7
f 5 3 7
f 7 1 2