v -0.056250 0.595072 0.453906
v -0.060807 0.587295 0.488824
v -0.132773 0.572563 0.481280
v -0.124264 0.568201 0.513961
v 0.008014 0.610726 0.414510
v -0.363483 0.465789 0.431266
v -0.076245 0.594015 0.424554
v -0.344648 0.457233 0.279792
v -0.274902 0.519486 0.377496
v 0.006125 0.594864 0.490001
v -0.316503 0.494549 0.361755
v -0.352152 0.467278 0.352306
v -0.224319 0.545055 0.394267
v -0.234711 0.519435 0.564323
v -0.370559 0.454228 0.471927
v -0.307957 0.503311 0.428866
v -0.143278 0.576603 0.394165
v -0.348093 0.477978 0.409870
v -0.053581 0.549082 0.583463
v -0.095609 0.539856 0.591232
v -0.159978 0.541518 0.570661
v -0.279007 0.517375 0.471681
v -0.162107 0.523543 0.596345
v -0.158633 0.569981 0.436536
v -0.224535 0.509743 0.591932
v 0.019944 0.502453 0.206724
v 0.076446 0.500509 0.233907
v -0.019814 0.498019 0.260486
v -0.097022 0.565462 0.542608
v -0.090316 0.556148 0.567425
v -0.249704 0.411592 0.178819
v 0.047171 0.607919 0.452652
v -0.039931 0.580952 0.519700
v 0.040706 0.616404 0.383710
v -0.014455 0.565943 0.556121
v -0.338675 0.467025 0.288033
v -0.228601 0.429828 0.164885
v 0.018849 0.613962 0.335178
v 0.079505 0.618936 0.332117
v -0.325991 0.364881 0.174300
v -0.311582 0.386197 0.171372
v 0.002372 0.591394 0.257211
v -0.322897 0.443620 0.223512
v -0.370436 0.444918 0.541494
v -0.338122 0.432655 0.228805
v -0.353426 0.434367 0.309864
v -0.341064 0.476134 0.344427
v -0.367271 0.423875 0.574810
v -0.365698 0.431430 0.586021
v 0.124396 0.615333 0.414884
v 0.074534 0.538536 0.583471
v 0.097265 0.611338 0.442896
v -0.005728 0.536019 0.594543
v -0.225086 0.460041 0.608938
v -0.110623 0.491112 0.602171
v -0.184552 0.556538 0.480216
v -0.360235 0.455102 0.365787
v -0.345893 0.480219 0.462659
v -0.363878 0.464766 0.482497
v 0.271014 0.590159 0.309767
v 0.122574 0.490948 0.224174
v -0.263987 0.517514 0.310452
v -0.295714 0.492134 0.272858
v -0.180727 0.450600 0.224348
v -0.224431 0.429370 0.241755
v -0.210369 0.549097 0.354461
v -0.006204 0.495165 0.307246
v -0.014632 0.609350 0.373742
v -0.082166 0.485680 0.244180
v 0.061618 0.607598 0.274206
v -0.266992 0.439934 0.184816
v -0.002389 0.603077 0.456297
v -0.114006 0.475938 0.210374
v -0.089714 0.525863 0.600396
v -0.333523 0.373746 0.192347
v 0.062573 0.613090 0.287333
v -0.098818 0.585999 0.305818
v -0.180837 0.547382 0.533165
v -0.174578 0.558140 0.299056
v -0.206952 0.495742 0.605970
v -0.357754 0.411796 0.611262
v -0.344470 0.415708 0.235552
v -0.246248 0.526799 0.516357
v -0.368891 0.428637 0.518418
v -0.148539 0.536363 0.585712
v 0.248741 0.591017 0.279767
v 0.256727 0.593916 0.295263
v -0.138816 0.475671 0.594854
v -0.071700 0.597392 0.376104
v 0.179854 0.609561 0.405914
v -0.301647 0.501827 0.508478
v -0.364134 0.461286 0.406487
v -0.349481 0.447243 0.284188
v -0.321056 0.478277 0.281316
v -0.323997 0.484404 0.320933
v 0.291042 0.513938 0.221013
v 0.131519 0.486764 0.182914
v -0.253641 0.460001 0.613695
v -0.206372 0.456953 0.600481
v -0.265141 0.422609 0.597516
v 0.057154 0.496798 0.306658
v 0.025414 0.488873 0.349414
v -0.335576 0.471051 0.560439
v -0.312333 0.490865 0.536563
v 0.102867 0.554607 0.556556
v 0.075585 0.574834 0.532966
v 0.156350 0.594289 0.477726
v -0.353648 0.431498 0.606607
v 0.131420 0.581897 0.508704
v 0.178826 0.579909 0.496231
v -0.300107 0.381722 0.409156
v -0.323871 0.365992 0.416268
v -0.346228 0.380083 0.531316
v -0.351921 0.392343 0.592286
v -0.336104 0.364027 0.276918
v -0.328188 0.463735 0.587842
v -0.288433 0.480458 0.595935
v -0.215274 0.548033 0.446069
v -0.328185 0.363816 0.316853
v -0.262238 0.484562 0.604005
v 0.024932 0.552196 0.574932
v -0.286203 0.493002 0.573987
v 0.331381 0.508246 0.234764
v 0.237430 0.596028 0.408750
v 0.306761 0.574947 0.335897
v 0.297844 0.571603 0.279279
v -0.362354 0.459887 0.530891
v -0.336059 0.461749 0.263849
v -0.362130 0.426321 0.400804
v 0.124576 0.612008 0.281579
v -0.020262 0.499644 0.175604
v 0.133880 0.616303 0.299231
v 0.136789 0.617653 0.374647
v 0.163505 0.615496 0.318106
v 0.074956 0.616326 0.415111
v 0.039821 0.583509 0.521447
v 0.088003 0.619135 0.383482
v 0.207121 0.606670 0.298367
v 0.120098 0.493932 0.169836
v 0.034762 0.506437 0.171602
v -0.014546 0.499550 0.209549
v 0.121431 0.619261 0.333123
v -0.152936 0.571442 0.345800
v -0.302073 0.483312 0.259713
v -0.347712 0.473229 0.518247
v -0.107290 0.503721 0.604816
v 0.135646 0.606219 0.451641
v 0.166864 0.545528 0.212213
v -0.329987 0.448493 0.608176
v 0.195502 0.603246 0.280773
v 0.034396 0.502605 0.255287
v -0.266278 0.401679 0.472413
v -0.315950 0.371150 0.501845
v -0.320705 0.419308 0.622575
v -0.334467 0.388016 0.614682
v -0.310209 0.393258 0.600551
v 0.012124 0.512040 0.603727
v 0.145723 0.522636 0.581957
v 0.168507 0.560590 0.528858
v 0.333988 0.542316 0.264867
v 0.250368 0.435476 0.222506
v -0.083510 0.485111 0.178340
v -0.046737 0.494259 0.216883
v 0.052867 0.500908 0.182776
v 0.156110 0.536841 0.562735
v -0.054218 0.498341 0.170966
v 0.322829 0.566829 0.304349
v -0.055296 0.459251 0.496197
v 0.172792 0.461462 0.315379
v 0.211165 0.453895 0.242236
v 0.289265 0.459147 0.206406
v 0.337955 0.491962 0.247569
v 0.205098 0.584171 0.475922
v -0.138069 0.451990 0.466800
v 0.131542 0.455467 0.380649
v 0.093847 0.438144 0.475918
v 0.346297 0.550757 0.288667
v 0.314475 0.481595 0.215606
v 0.263667 0.439905 0.198935
v -0.296880 0.381948 0.169008
v -0.309988 0.370306 0.187954
v -0.328926 0.360778 0.195731
v -0.022275 0.558343 0.220622
v -0.289292 0.388231 0.246954
v -0.324945 0.363099 0.229799
v -0.151138 0.464732 0.166742
v 0.032609 0.521952 0.180890
v -0.169404 0.469675 0.171033
v -0.238591 0.522506 0.268463
v 0.000557 0.609045 0.303111
v -0.097460 0.589617 0.345704
v -0.302474 0.474249 0.244163
v 0.371870 0.523105 0.269972
v 0.341392 0.490544 0.310209
v 0.292504 0.459173 0.236322
v -0.239424 0.525429 0.281300
v 0.201397 0.440693 0.322691
v 0.232130 0.454851 0.606763
v 0.219961 0.531634 0.541863
v -0.358438 0.450707 0.570149
v 0.223239 0.604958 0.328933
v 0.073365 0.498660 0.279100
v -0.159834 0.457971 0.180708
v 0.180369 0.395200 0.583624
v 0.224469 0.386453 0.590316
v 0.080219 0.617147 0.301683
v 0.215112 0.385711 0.600521
v 0.325081 0.556969 0.405104
v 0.379860 0.523808 0.280831
v -0.073858 0.590143 0.286333
v 0.365882 0.511290 0.260129
v 0.198399 0.378058 0.540892
v 0.237141 0.396100 0.608764
v 0.250756 0.466018 0.594065
v -0.038786 0.603769 0.331226
v 0.228914 0.430306 0.297129
v 0.368463 0.506862 0.308848
v 0.273820 0.444785 0.260986
v 0.306823 0.533301 0.483958
v 0.354320 0.548512 0.309804
v -0.267510 0.474171 0.218164
v 0.247585 0.427932 0.295103
v -0.310912 0.416367 0.189468
v 0.165273 0.396866 0.516800
v 0.211714 0.454615 0.173880
v 0.013746 0.491734 0.602933
v -0.217133 0.431680 0.561061
v -0.171987 0.539299 0.244630
v -0.079119 0.485234 0.594387
v -0.347651 0.402829 0.277734
v -0.356060 0.400774 0.482480
v -0.315786 0.442812 0.617193
v -0.137675 0.467365 0.279240
v -0.344918 0.413874 0.622245
v 0.053592 0.516428 0.601714
v 0.241701 0.466026 0.172088
v 0.294469 0.578159 0.290582
v -0.196195 0.442131 0.325215
v -0.252301 0.413389 0.344687
v 0.263794 0.543214 0.235723
v 0.213391 0.381249 0.567214
v 0.270522 0.419040 0.577034
v 0.185883 0.467725 0.207539
v 0.259861 0.410641 0.606660
v 0.294129 0.512372 0.519072
v 0.277902 0.437946 0.598969
v -0.306091 0.410986 0.614976
v 0.303518 0.462834 0.337094
v -0.313536 0.375506 0.548893
v -0.199254 0.446824 0.582654
v -0.284926 0.398403 0.572535
v -0.327344 0.377355 0.590971
v 0.252424 0.426328 0.327809
v -0.068870 0.476002 0.581998
v 0.008122 0.469248 0.583402
v -0.112407 0.466198 0.569050
v 0.076834 0.465161 0.599148
v 0.115841 0.509896 0.598202
v -0.008927 0.482247 0.595476
v 0.201240 0.598456 0.440928
v 0.382508 0.515450 0.323414
v 0.353983 0.547493 0.353345
v 0.199903 0.393871 0.436398
v 0.270202 0.426230 0.506764
v 0.255249 0.438491 0.171346
v 0.241849 0.443389 0.166413
v 0.279044 0.471849 0.189042
v 0.089099 0.472541 0.373632
v 0.083301 0.488304 0.329274
v 0.300654 0.444552 0.571024
v 0.306144 0.479320 0.546820
v -0.268310 0.401075 0.530689
v 0.322286 0.467457 0.540071
v -0.342415 0.368921 0.405073
v -0.342822 0.376281 0.276891
v -0.337422 0.368507 0.521657
v 0.333621 0.470317 0.492631
v 0.376184 0.512369 0.417506
v 0.329116 0.475033 0.403967
v -0.330670 0.367926 0.539837
v -0.352205 0.391314 0.409504
v -0.333430 0.363553 0.426320
v -0.341285 0.399685 0.622669
v 0.362611 0.495907 0.410467
v -0.349680 0.395823 0.612997
v 0.322442 0.460366 0.532327
v -0.043695 0.476239 0.386670
v -0.199968 0.433533 0.522576
v 0.006102 0.455962 0.500571
v -0.339114 0.377004 0.587303
v -0.036366 0.462973 0.455624
v -0.144903 0.452276 0.539304
v 0.217389 0.403696 0.613094
v 0.153147 0.447456 0.609551
v -0.096273 0.458676 0.521575
v 0.234723 0.582562 0.459350
v 0.245831 0.414816 0.616088
v 0.382530 0.515519 0.369723
v 0.376154 0.507251 0.392294
v 0.284746 0.558655 0.463110
v 0.270035 0.578192 0.432309
v 0.268320 0.433440 0.400843
v 0.366780 0.527178 0.413056
v 0.371927 0.532610 0.373648
v 0.215437 0.605185 0.382548
v 0.265965 0.446730 0.176429
v 0.380892 0.521911 0.378249
v -0.118168 0.569121 0.263387
v -0.020471 0.599370 0.277545
v -0.018450 0.603475 0.288508
v -0.154632 0.562656 0.279784
v -0.191311 0.543050 0.264272
v -0.172899 0.514028 0.214631
v 0.084962 0.452563 0.428780
v 0.129583 0.474158 0.335223
v 0.230447 0.442940 0.210619
v 0.168706 0.475727 0.247112
v -0.044226 0.463756 0.551136
v -0.201477 0.433660 0.455909
v 0.043005 0.452738 0.479039
v 0.026057 0.473037 0.401910
v 0.162546 0.476860 0.607435
v 0.257945 0.593704 0.365340
v 0.016133 0.453737 0.533568
v 0.138481 0.412418 0.532278
v 0.167989 0.439353 0.375326
v 0.202338 0.454340 0.276316
v 0.185985 0.496049 0.593030
v 0.082315 0.449174 0.586640
v 0.110399 0.431655 0.576939
v 0.025419 0.455329 0.561611
v 0.125140 0.473326 0.608420
v 0.355596 0.538872 0.275524
v 0.232336 0.558989 0.500575
v 0.183658 0.411383 0.414263
v 0.175609 0.409159 0.598499
v 0.341777 0.525821 0.460362
v 0.167103 0.428876 0.607306
v 0.100097 0.431012 0.546947
v 0.175384 0.391034 0.560256
v 0.202490 0.377961 0.570743
v 0.264432 0.423711 0.610106
v 0.208981 0.506346 0.575462
v 0.381051 0.527923 0.300788
v 0.378244 0.515261 0.282083
v 0.384849 0.521315 0.312714
v 0.232729 0.403846 0.440571
v 0.188808 0.389742 0.480352
v 0.214492 0.410353 0.374472
v 0.224770 0.407307 0.379248
v 0.378733 0.530866 0.330474
v 0.339056 0.539874 0.434238
v 0.363517 0.517263 0.443852
v 0.290359 0.456259 0.579448
v 0.203409 0.385548 0.480058
v 0.340821 0.490487 0.505392
v 0.225847 0.393452 0.505767
v 0.366922 0.499217 0.449117
v 0.357049 0.503824 0.472096
v 0.211485 0.385342 0.499342
v 0.337249 0.506182 0.493290
v 0.322607 0.466464 0.456698
v 0.234734 0.396679 0.553237
v 0.279876 0.426324 0.594332
v -0.145834 0.459757 0.358579
v -0.271478 0.401899 0.291217
v 0.201445 0.467707 0.166358
v 0.168541 0.499407 0.176613
v -0.131357 0.569108 0.272770
v -0.241304 0.515424 0.254926
v 0.221911 0.399452 0.419686
v 0.348827 0.484704 0.492050
v 0.259166 0.488170 0.569172
v 0.211755 0.438762 0.614292
v 0.148835 0.420093 0.447757
v 0.159206 0.474698 0.287073
v 0.292800 0.577351 0.384559
v -0.092752 0.472975 0.364320
v -0.082043 0.483349 0.294226
v 0.261383 0.570338 0.259921
v 0.120582 0.489658 0.277698
v 0.143610 0.595923 0.260273
v 0.179326 0.613357 0.348308
v 0.084863 0.594610 0.492656
v -0.338675 0.467025 0.288033
v -0.228601 0.429828 0.164885
v -0.325991 0.364881 0.174300
v -0.325991 0.364881 0.174300
v -0.325991 0.364881 0.174300
v -0.338122 0.432655 0.228805
v -0.363878 0.464766 0.482497
v -0.333523 0.373746 0.192347
v 0.248741 0.591017 0.279767
v -0.328185 0.363816 0.316853
v 0.297844 0.571603 0.279279
v -0.362354 0.459887 0.530891
v -0.336059 0.461749 0.263849
v -0.336059 0.461749 0.263849
v -0.020262 0.499644 0.175604
v 0.120098 0.493932 0.169836
v 0.034762 0.506437 0.171602
v 0.195502 0.603246 0.280773
v -0.334467 0.388016 0.614682
v 0.250368 0.435476 0.222506
v -0.054218 0.498341 0.170966
v 0.314475 0.481595 0.215606
v -0.296880 0.381948 0.169008
v -0.328926 0.360778 0.195731
v -0.151138 0.464732 0.166742
v 0.371870 0.523105 0.269972
v 0.371870 0.523105 0.269972
v 0.215112 0.385711 0.600521
v 0.379860 0.523808 0.280831
v 0.379860 0.523808 0.280831
v -0.073858 0.590143 0.286333
v 0.365882 0.511290 0.260129
v 0.198399 0.378058 0.540892
v 0.237141 0.396100 0.608764
v 0.247585 0.427932 0.295103
v 0.259861 0.410641 0.606660
v 0.255249 0.438491 0.171346
v 0.255249 0.438491 0.171346
v 0.241849 0.443389 0.166413
v -0.341285 0.399685 0.622669
v 0.265965 0.446730 0.176429
v -0.018450 0.603475 0.288508
v 0.355596 0.538872 0.275524
v 0.202490 0.377961 0.570743
v 0.264432 0.423711 0.610106
v 0.366922 0.499217 0.449117
v 0.279876 0.426324 0.594332
v 0.201445 0.467707 0.166358
v -0.131357 0.569108 0.272770
f 29 33 2
f 1 5 7
f 30 35 33
f 30 33 29
f 143 13 17
f 10 136 384
f 133 142 137
f 82 8 45
f 104 145 103
f 383 201 134
f 162 166 131
f 129 57 46
f 137 50 133
f 65 31 64
f 75 40 182
f 387 392 41
f 206 39 132
f 79 66 143
f 189 63 196
f 189 144 63
f 210 310 309
f 309 308 210
f 62 79 196
f 221 313 71
f 221 228 313
f 369 308 312
f 312 370 189
f 311 196 79
f 311 189 196
f 311 312 189
f 312 228 370
f 308 228 312
f 312 311 433
f 79 143 77
f 79 77 311
f 415 311 77
f 415 433 311
f 369 210 308
f 426 415 190
f 215 190 415
f 42 308 309
f 70 309 76
f 70 42 309
f 71 313 188
f 223 221 71
f 41 392 390
f 146 55 226
f 139 368 367
f 366 184 65
f 114 81 48
f 81 49 48
f 233 379 365
f 239 366 65
f 65 238 239
f 274 113 231
f 229 256 254
f 229 88 256
f 367 236 266
f 148 240 96
f 96 267 236
f 266 306 265
f 306 266 267
f 236 267 266
f 332 157 226
f 423 421 161
f 179 425 171
f 195 179 171
f 314 268 175
f 319 288 272
f 319 174 288
f 314 175 375
f 289 324 168
f 289 168 291
f 320 339 324
f 289 320 324
f 331 339 330
f 332 294 374
f 322 332 374
f 193 160 333
f 341 205 207
f 428 412 204
f 336 204 412
f 158 328 343
f 123 193 211
f 375 326 335
f 336 293 338
f 294 338 293
f 374 293 297
f 374 294 293
f 213 293 412
f 293 213 297
f 374 297 198
f 214 328 198
f 416 345 172
f 161 222 216
f 209 346 345
f 216 222 350
f 349 216 350
f 342 364 246
f 307 278 298
f 304 303 307
f 299 298 278
f 299 278 358
f 358 284 299
f 279 284 362
f 277 362 284
f 279 362 302
f 371 253 347
f 347 253 302
f 248 279 302
f 284 279 194
f 303 278 307
f 208 303 304
f 353 278 303
f 353 359 430
f 353 430 278
f 277 284 358
f 354 246 270
f 273 372 356
f 277 372 286
f 273 270 286
f 354 270 273
f 242 286 270
f 264 277 242
f 286 242 277
f 357 264 363
f 362 277 264
f 354 273 271
f 373 354 271
f 242 270 431
f 302 362 264
f 350 371 355
f 355 263 350
f 349 263 335
f 350 263 349
f 302 253 218
f 248 302 218
f 194 279 248
f 298 261 346
f 307 298 346
f 351 307 346
f 304 307 351
f 262 304 351
f 262 208 304
f 352 353 303
f 352 337 353
f 353 337 359
f 358 372 277
f 245 356 361
f 245 271 356
f 271 273 356
f 286 372 273
f 270 246 364
f 363 264 242
f 360 212 355
f 357 360 347
f 348 263 355
f 263 348 335
f 371 350 253
f 253 350 419
f 217 284 194
f 261 299 217
f 261 298 299
f 351 346 344
f 352 303 208
f 372 430 359
f 372 359 356
f 361 356 359
f 214 354 373
f 246 354 214
f 360 241 212
f 357 363 241
f 241 360 357
f 348 355 417
f 348 417 224
f 224 375 348
f 347 264 357
f 302 264 347
f 347 360 371
f 360 355 371
f 375 335 348
f 194 248 218
f 217 299 284
f 261 345 346
f 413 345 410
f 209 344 346
f 220 351 344
f 220 262 351
f 377 208 262
f 337 361 359
f 245 373 271
f 343 373 199
f 343 214 373
f 246 214 198
f 198 429 246
f 244 364 342
f 431 420 242
f 420 418 242
f 205 242 418
f 242 205 363
f 363 205 241
f 212 241 341
f 417 340 224
f 340 325 224
f 325 176 224
f 216 349 335
f 195 194 218
f 345 261 217
f 345 217 172
f 410 345 416
f 414 220 344
f 125 262 220
f 377 262 125
f 301 352 208
f 300 337 352
f 245 361 219
f 334 199 245
f 328 214 343
f 198 297 429
f 297 244 342
f 244 297 213
f 418 207 205
f 428 204 340
f 417 428 340
f 224 176 375
f 335 197 216
f 253 404 218
f 253 419 404
f 172 178 416
f 406 123 211
f 414 411 427
f 427 177 414
f 177 220 414
f 177 167 220
f 300 352 301
f 300 219 337
f 219 361 337
f 199 373 245
f 158 343 165
f 198 322 374
f 339 325 340
f 330 340 204
f 330 339 340
f 330 336 329
f 330 204 336
f 412 293 336
f 205 341 241
f 339 176 325
f 375 175 326
f 326 197 335
f 327 216 197
f 327 197 169
f 327 170 216
f 170 316 216
f 161 216 316
f 179 218 404
f 172 217 194
f 96 160 123
f 160 193 123
f 377 301 208
f 165 343 199
f 294 257 338
f 257 329 338
f 329 336 338
f 339 320 176
f 314 375 176
f 169 197 326
f 315 169 175
f 169 326 175
f 170 327 376
f 195 171 172
f 194 195 172
f 267 123 406
f 333 160 126
f 395 177 427
f 125 220 167
f 377 125 323
f 159 165 199
f 258 198 328
f 258 322 198
f 331 330 329
f 324 339 331
f 168 174 291
f 376 327 169
f 317 170 376
f 170 243 316
f 179 195 218
f 178 172 171
f 240 380 96
f 380 160 96
f 323 124 377
f 124 301 377
f 334 245 219
f 219 300 334
f 334 300 296
f 334 296 173
f 159 199 334
f 159 105 165
f 168 324 318
f 318 295 168
f 295 174 168
f 295 292 174
f 292 288 174
f 365 174 319
f 174 287 291
f 287 321 291
f 291 321 320
f 320 314 176
f 320 289 291
f 376 169 315
f 317 243 170
f 171 425 178
f 237 177 395
f 237 167 177
f 124 323 305
f 296 300 301
f 110 334 173
f 159 334 110
f 51 165 105
f 51 158 165
f 328 158 258
f 258 235 322
f 257 255 329
f 318 324 331
f 295 318 256
f 152 319 272
f 378 287 174
f 321 314 320
f 321 268 314
f 268 315 175
f 269 315 268
f 317 376 381
f 243 225 316
f 225 423 316
f 423 161 316
f 404 422 179
f 425 179 422
f 267 406 306
f 380 126 160
f 60 167 237
f 60 125 167
f 260 301 124
f 296 301 260
f 159 110 109
f 159 109 105
f 51 258 158
f 157 322 235
f 157 332 322
f 332 226 294
f 226 257 294
f 331 329 255
f 318 331 255
f 256 318 254
f 292 295 256
f 250 227 292
f 288 292 227
f 227 251 288
f 153 111 152
f 280 153 249
f 249 153 152
f 249 152 272
f 290 114 113
f 252 155 290
f 155 283 285
f 155 285 290
f 156 252 251
f 247 403 156
f 403 252 156
f 424 403 247
f 154 424 247
f 154 234 424
f 234 285 283
f 114 290 285
f 276 290 113
f 280 249 252
f 252 290 280
f 276 280 290
f 276 274 282
f 282 119 112
f 119 282 115
f 275 274 281
f 274 115 282
f 152 238 319
f 111 239 152
f 280 276 282
f 276 113 274
f 280 282 153
f 282 112 153
f 112 111 153
f 272 288 251
f 365 378 174
f 287 102 321
f 321 269 268
f 269 376 315
f 269 381 376
f 61 243 317
f 432 423 225
f 96 123 267
f 60 323 125
f 201 305 323
f 90 124 305
f 260 173 296
f 257 259 255
f 226 259 257
f 318 255 254
f 256 250 292
f 251 249 272
f 252 249 251
f 247 156 100
f 232 234 154
f 285 234 81
f 113 114 84
f 281 274 231
f 275 129 230
f 111 366 239
f 111 184 366
f 394 184 111
f 111 112 394
f 239 238 152
f 378 365 379
f 365 319 238
f 102 269 321
f 202 381 269
f 61 317 381
f 97 225 243
f 432 225 97
f 367 368 236
f 368 96 236
f 148 380 240
f 126 380 86
f 237 393 87
f 393 237 395
f 87 60 237
f 201 323 60
f 147 260 90
f 90 260 124
f 107 173 260
f 107 109 110
f 107 110 173
f 106 105 109
f 121 105 106
f 121 51 105
f 258 51 53
f 254 259 229
f 254 255 259
f 88 229 55
f 99 250 88
f 99 100 250
f 250 251 227
f 54 154 247
f 154 54 98
f 232 154 98
f 232 108 234
f 81 234 108
f 114 285 81
f 48 84 114
f 113 84 231
f 231 84 129
f 281 231 129
f 275 115 274
f 119 115 185
f 233 238 64
f 69 379 233
f 238 233 365
f 163 141 28
f 69 163 28
f 67 379 28
f 379 67 378
f 67 102 287
f 269 102 101
f 202 269 101
f 202 27 381
f 61 381 27
f 97 243 61
f 148 368 187
f 400 432 97
f 368 148 96
f 138 60 87
f 383 305 201
f 383 90 305
f 50 90 133
f 50 147 90
f 147 107 260
f 107 147 384
f 109 107 384
f 384 106 109
f 136 106 384
f 35 106 136
f 35 121 106
f 226 157 146
f 55 259 226
f 55 229 259
f 88 250 256
f 88 55 99
f 55 54 99
f 251 250 100
f 100 99 247
f 54 247 99
f 156 251 100
f 149 108 232
f 49 81 108
f 129 275 281
f 230 129 46
f 46 82 230
f 93 82 46
f 221 43 192
f 43 221 223
f 390 43 223
f 230 82 275
f 82 45 75
f 41 390 223
f 221 192 228
f 192 370 228
f 370 144 189
f 62 66 79
f 143 191 77
f 77 215 415
f 309 310 76
f 426 190 76
f 190 38 39
f 206 76 190
f 190 39 206
f 70 76 130
f 308 42 228
f 115 75 182
f 275 75 115
f 275 82 75
f 408 185 115
f 184 394 185
f 65 184 31
f 203 64 31
f 37 186 31
f 186 203 31
f 64 203 73
f 186 162 203
f 203 162 73
f 65 64 238
f 28 379 69
f 378 67 287
f 102 67 101
f 148 382 380
f 382 150 380
f 86 380 150
f 402 138 393
f 138 87 393
f 201 60 138
f 50 135 52
f 52 147 50
f 52 384 147
f 53 235 258
f 53 51 121
f 157 235 53
f 74 146 157
f 146 54 55
f 49 108 200
f 49 200 44
f 84 48 44
f 43 390 192
f 370 192 144
f 77 191 215
f 215 38 190
f 38 34 39
f 132 39 142
f 132 76 206
f 132 130 76
f 382 70 130
f 42 70 382
f 313 228 42
f 223 71 188
f 41 223 188
f 388 41 180
f 41 188 386
f 407 37 31
f 41 386 180
f 389 407 181
f 407 31 181
f 181 31 184
f 389 181 408
f 408 181 185
f 185 181 184
f 188 313 183
f 313 42 183
f 386 188 409
f 188 183 187
f 188 405 409
f 186 166 162
f 162 163 73
f 73 233 64
f 73 69 233
f 73 163 69
f 140 164 131
f 141 399 26
f 399 164 26
f 28 141 151
f 141 26 151
f 27 164 61
f 164 27 26
f 27 151 26
f 151 27 202
f 151 67 28
f 67 151 101
f 151 202 101
f 382 130 150
f 133 90 383
f 50 137 135
f 52 135 32
f 32 384 52
f 53 74 157
f 23 80 74
f 80 146 74
f 146 98 54
f 80 232 98
f 120 117 149
f 149 232 120
f 200 108 116
f 200 116 103
f 103 145 200
f 200 145 127
f 200 396 44
f 44 48 49
f 44 15 84
f 57 93 46
f 45 8 128
f 128 8 36
f 397 94 144
f 397 385 94
f 398 192 390
f 398 144 192
f 62 196 63
f 89 215 191
f 215 68 38
f 68 34 38
f 132 142 134
f 132 134 138
f 137 39 34
f 137 142 39
f 142 383 134
f 142 133 383
f 135 137 34
f 42 382 183
f 187 405 188
f 187 183 148
f 141 162 399
f 163 162 141
f 166 140 131
f 405 187 401
f 139 187 368
f 401 187 139
f 400 164 140
f 97 61 164
f 400 97 164
f 183 382 148
f 130 132 402
f 132 138 402
f 138 134 201
f 34 5 135
f 135 5 32
f 53 121 19
f 23 74 20
f 20 19 30
f 20 30 85
f 21 85 30
f 23 20 85
f 80 98 146
f 104 83 91
f 103 116 122
f 116 117 122
f 149 117 116
f 149 116 108
f 103 122 104
f 83 56 118
f 83 22 91
f 145 104 91
f 145 59 127
f 396 391 44
f 44 391 15
f 12 57 92
f 47 11 95
f 57 12 8
f 93 8 82
f 94 95 62
f 95 94 385
f 94 63 144
f 94 62 63
f 66 13 143
f 17 191 143
f 17 89 191
f 215 89 68
f 34 68 5
f 2 10 72
f 32 72 10
f 10 384 32
f 33 136 10
f 35 136 33
f 19 121 35
f 74 53 20
f 21 25 85
f 23 85 25
f 25 120 80
f 120 232 80
f 122 14 104
f 104 14 83
f 78 56 83
f 78 3 56
f 22 83 118
f 91 22 58
f 145 91 58
f 145 58 59
f 22 16 58
f 391 6 15
f 12 92 6
f 12 6 18
f 12 18 47
f 16 9 11
f 47 18 11
f 18 16 11
f 47 385 12
f 93 57 8
f 36 8 12
f 385 47 95
f 95 11 62
f 62 11 9
f 62 9 66
f 17 24 7
f 5 72 32
f 72 5 1
f 2 72 1
f 2 33 10
f 19 20 53
f 30 19 35
f 30 29 21
f 78 29 4
f 21 29 78
f 25 21 14
f 25 80 23
f 21 78 14
f 117 120 25
f 117 25 122
f 25 14 122
f 14 78 83
f 24 56 3
f 118 56 24
f 16 22 118
f 16 118 13
f 6 59 58
f 84 57 129
f 84 15 57
f 15 92 57
f 92 15 6
f 6 58 18
f 58 16 18
f 16 13 9
f 13 66 9
f 13 118 17
f 118 24 17
f 89 17 7
f 7 68 89
f 5 68 7
f 4 3 78
f 29 2 4
f 24 3 7
f 3 1 7
f 2 1 3
f 2 3 4