v -0.093898 -0.454848 0.471184
v -0.104091 -0.453247 0.495381
v -0.045048 -0.458059 0.464297
v -0.059164 -0.459681 0.497167
v -0.064147 -0.459251 0.482357
v -0.095571 -0.393419 0.721044
v -0.026683 -0.390773 0.707836
v -0.041994 -0.382072 0.733232
v -0.073667 -0.369830 0.722284
v -0.062488 -0.372653 0.662572
v -0.024187 -0.415869 0.639442
v -0.011570 -0.381993 0.707344
v -0.002126 -0.411609 0.635699
v 0.009649 -0.453035 0.490357
v -0.092223 -0.420651 0.610601
v -0.010500 -0.434090 0.582367
v -0.032842 -0.440640 0.574461
v -0.156463 -0.447402 0.499352
v 0.017900 -0.454940 0.461224
v -0.219329 -0.438606 0.479462
v -0.144624 -0.441369 0.443878
v -0.190282 -0.443121 0.472328
v -0.199523 -0.437769 0.520763
v -0.217037 -0.425073 0.549906
v -0.242442 -0.419026 0.501278
v 0.075867 -0.335618 0.677435
v 0.069202 -0.342505 0.697224
v 0.055067 -0.352297 0.595126
v -0.065143 -0.375257 0.563958
v 0.048170 -0.365312 0.682876
v 0.019565 -0.388445 0.663878
v -0.021630 -0.372227 0.622051
v -0.059286 -0.441369 0.567467
v -0.109045 -0.372610 0.498245
v -0.043402 -0.429420 0.604313
v -0.165398 -0.355483 0.561251
v -0.139803 -0.366797 0.503212
v -0.047758 -0.451564 0.540850
v -0.170537 -0.348045 0.610235
v -0.125781 -0.367746 0.599464
v -0.097125 -0.361755 0.764631
v -0.138411 -0.345472 0.854496
v -0.116762 -0.362763 0.825300
v -0.095939 -0.372653 0.617161
v -0.082111 -0.368396 0.769956
v -0.062718 -0.391765 0.719022
v -0.045816 -0.375250 0.736752
v -0.103249 -0.378489 0.780021
v -0.038493 -0.457682 0.514483
v -0.026614 -0.449551 0.545241
v -0.105985 -0.361750 0.814124
v -0.162708 -0.369187 0.791216
v -0.171282 -0.395635 0.691339
v -0.222528 -0.373083 0.690123
v -0.132443 -0.367942 0.814471
v -0.067455 -0.456459 0.513081
v -0.053686 -0.411146 0.653580
v -0.104994 -0.412125 0.641851
v -0.125925 -0.430907 0.568887
v -0.152206 -0.448598 0.478853
v -0.196474 -0.443417 0.492339
v -0.248689 -0.388484 0.496241
v 0.017312 -0.367472 0.616005
v -0.028436 -0.372914 0.498612
v -0.233092 -0.406981 0.406860
v 0.021905 -0.444906 0.510705
v 0.033570 -0.407382 0.616313
v 0.061199 -0.379709 0.669353
v 0.038427 -0.381657 0.669452
v 0.047172 -0.372682 0.681424
v 0.068324 -0.349698 0.709859
v -0.227449 -0.336566 0.762259
v -0.245928 -0.353645 0.543461
v -0.220376 -0.345073 0.772347
v -0.253185 -0.352152 0.409862
v -0.212208 -0.350790 0.333575
v -0.251854 -0.338936 0.356053
v -0.211888 -0.344621 0.370728
v 0.015604 -0.367779 0.506536
v 0.028568 -0.363413 0.584335
v 0.044784 -0.361937 0.671706
v 0.165361 -0.275141 0.803295
v 0.151486 -0.293963 0.796667
v 0.143747 -0.320255 0.770356
v -0.123920 -0.349133 0.826078
v -0.135050 -0.358623 0.659745
v -0.173481 -0.355014 0.481985
v -0.151715 -0.337776 0.746524
v -0.111421 -0.360301 0.718171
v 0.134271 -0.334606 0.751328
v -0.080181 -0.373022 0.773796
v 0.106352 -0.329464 0.765316
v 0.114160 -0.312749 0.779407
v 0.068366 -0.371716 0.347868
v -0.061623 -0.376971 0.368074
v -0.014273 -0.382355 0.329595
v 0.014057 -0.384313 0.304979
v -0.127186 -0.395528 0.712416
v 0.172747 -0.283772 0.787912
v 0.175831 -0.288725 0.737070
v 0.177303 -0.309528 0.759382
v 0.174904 -0.350181 0.690330
v 0.066144 -0.380508 0.292835
v 0.080399 -0.385723 0.274278
v 0.143213 -0.433995 0.347996
v 0.168109 -0.322314 0.751116
v 0.180150 -0.304020 0.745824
v 0.173095 -0.278756 0.775845
v 0.168466 -0.270199 0.796869
v -0.078566 -0.378971 0.764169
v -0.142623 -0.417393 0.388155
v -0.169263 -0.423469 0.589483
v -0.144812 -0.442708 0.524935
v -0.253945 -0.359216 0.361469
v -0.142054 -0.387194 0.741761
v -0.250970 -0.374326 0.367346
v -0.252663 -0.389911 0.434321
v -0.239317 -0.369972 0.344812
v 0.084696 -0.385629 0.644428
v 0.096651 -0.443654 0.451665
v 0.096513 -0.447735 0.428304
v 0.097241 -0.362897 0.699235
v 0.165095 -0.360697 0.366712
v 0.151790 -0.372742 0.301139
v 0.164149 -0.423840 0.319187
v -0.195946 -0.393768 0.362094
v -0.249189 -0.342163 0.328468
v -0.243746 -0.340094 0.322871
v -0.236848 -0.335480 0.356163
v -0.232424 -0.352988 0.321578
v 0.125064 -0.373837 0.659250
v 0.159328 -0.281295 0.708886
v 0.170963 -0.273296 0.761131
v 0.146762 -0.288346 0.702953
v 0.170929 -0.279031 0.725486
v 0.167068 -0.268295 0.770246
v 0.166673 -0.274952 0.729246
v 0.048984 -0.355536 0.640988
v 0.183217 -0.373300 0.345054
v 0.077226 -0.359392 0.708308
v 0.120889 -0.308153 0.668939
v 0.107718 -0.328848 0.585899
v 0.197682 -0.439189 0.385349
v 0.182706 -0.438356 0.405130
v 0.196607 -0.379398 0.593871
v 0.168617 -0.390521 0.263284
v 0.142575 -0.388519 0.261623
v 0.168391 -0.382165 0.264065
v 0.190395 -0.392335 0.295824
v 0.175607 -0.360175 0.380263
v 0.136403 -0.306637 0.643488
v 0.159744 -0.296294 0.652162
v 0.147105 -0.320764 0.567483
v 0.210242 -0.434417 0.350279
v 0.182298 -0.407111 0.521383
v 0.201970 -0.410652 0.493229
v 0.209237 -0.391521 0.527189
v 0.189354 -0.396358 0.281693
v 0.186187 -0.413597 0.297834
v 0.222020 -0.433032 0.382999
v 0.174505 -0.313363 0.593472
v 0.194550 -0.353120 0.615134
v 0.178340 -0.315235 0.613326
v 0.200511 -0.372454 0.601703
v 0.187980 -0.348307 0.558924
v 0.199687 -0.379998 0.497183
v 0.220290 -0.421811 0.416367
v 0.181855 -0.330384 0.572139
v -0.168461 -0.361695 0.366075
v -0.001343 -0.378708 0.688029
v 0.016124 -0.370678 0.644505
v -0.014507 -0.371169 0.552095
v 0.099765 -0.319999 0.762722
v 0.123152 -0.317944 0.779075
v 0.016876 -0.376764 0.664771
v 0.140985 -0.291504 0.792729
v -0.018299 -0.372588 0.683122
v -0.167703 -0.322059 0.801999
v -0.139138 -0.340014 0.800816
v -0.208831 -0.324532 0.605182
v -0.215434 -0.299406 0.858411
v -0.205170 -0.335798 0.526928
v -0.185975 -0.346653 0.837766
v -0.181484 -0.353643 0.418208
v -0.208346 -0.308111 0.871023
v -0.145034 -0.364720 0.423766
v -0.162362 -0.332632 0.878377
v -0.167728 -0.325054 0.875459
v -0.197432 -0.321191 0.876125
v -0.162634 -0.324919 0.855420
v -0.189838 -0.308855 0.860558
v -0.156178 -0.355508 0.842153
v 0.111257 -0.305962 0.746402
v 0.130637 -0.293013 0.773554
v -0.209988 -0.297102 0.838558
v -0.201837 -0.364450 0.755536
v -0.204718 -0.331803 0.846577
v -0.217060 -0.317363 0.844426
v 0.059165 -0.353382 0.535332
v 0.080699 -0.339879 0.734959
v 0.089688 -0.323684 0.734296
v 0.113945 -0.339183 0.750470
v 0.124851 -0.351084 0.721542
v -0.059170 -0.403044 0.328646
v -0.078489 -0.388468 0.315792
v -0.192123 -0.367874 0.325141
v -0.178749 -0.379741 0.332561
v 0.081535 -0.437317 0.487934
v 0.098939 -0.347853 0.734920
v -0.115397 -0.371869 0.362534
v 0.038225 -0.387488 0.284897
v 0.062523 -0.363004 0.426522
v 0.082258 -0.349562 0.500457
v 0.077259 -0.338922 0.612855
v 0.144815 -0.367018 0.669301
v -0.192194 -0.361866 0.327452
v -0.054243 -0.384280 0.317069
v 0.010387 -0.394193 0.297086
v 0.157740 -0.309928 0.778173
v 0.150408 -0.351846 0.705478
v 0.152701 -0.337754 0.734377
v 0.165884 -0.300570 0.785191
v 0.094743 -0.331654 0.757430
v 0.094996 -0.329159 0.616485
v -0.153533 -0.368571 0.344694
v 0.124860 -0.336244 0.517668
v -0.126802 -0.377220 0.324535
v 0.016460 -0.377160 0.354942
v -0.023275 -0.375613 0.413220
v 0.109796 -0.397176 0.277715
v 0.095536 -0.354965 0.441087
v 0.149956 -0.393770 0.585492
v 0.143658 -0.444026 0.409494
v 0.167356 -0.267450 0.785825
v 0.160960 -0.272093 0.793289
v 0.157270 -0.272974 0.767399
v 0.113770 -0.361318 0.388121
v 0.151326 -0.279970 0.735791
v 0.114563 -0.305763 0.710373
v 0.144534 -0.349850 0.429844
v 0.145784 -0.378830 0.272816
v 0.114036 -0.378050 0.288426
v 0.108397 -0.382356 0.272955
v 0.180604 -0.338814 0.708468
v 0.187170 -0.333368 0.705139
v 0.186933 -0.341146 0.694126
v 0.187447 -0.329093 0.703975
v 0.197607 -0.359869 0.627695
v 0.168773 -0.307282 0.608096
v 0.170907 -0.334958 0.494485
v 0.184305 -0.355521 0.465234
v 0.200754 -0.397663 0.378027
v 0.180181 -0.385405 0.269132
v 0.206553 -0.402250 0.514344
v -0.002568 -0.456914 0.455475
v 0.050029 -0.447761 0.466381
v 0.055521 -0.451214 0.430429
v 0.219150 -0.424948 0.420258
v 0.210137 -0.421587 0.330268
v 0.211441 -0.415094 0.362082
v 0.214979 -0.410898 0.435389
v 0.216872 -0.423420 0.361408
v 0.222892 -0.430697 0.379637
v -0.001363 -0.374367 0.665389
v -0.104230 -0.371572 0.418650
v -0.064315 -0.375146 0.457349
v -0.222202 -0.294511 0.801803
v -0.224971 -0.300235 0.809250
v -0.225595 -0.312213 0.807082
v -0.247825 -0.330023 0.439300
v -0.241979 -0.323854 0.591052
v -0.168412 -0.337017 0.687588
v -0.180243 -0.339655 0.864248
v -0.195570 -0.308693 0.871104
v -0.185321 -0.312896 0.779540
v -0.194165 -0.315422 0.717244
v -0.208654 -0.303218 0.741637
v -0.208451 -0.298227 0.795338
v -0.224335 -0.295410 0.751785
v -0.235329 -0.307772 0.620092
v -0.231307 -0.302711 0.725317
v -0.219361 -0.295500 0.838442
v -0.224341 -0.330854 0.450513
v -0.239815 -0.313941 0.596798
v -0.226029 -0.307428 0.645530
v -0.183816 -0.311149 0.833323
v -0.153706 -0.345720 0.864498
v -0.179923 -0.330890 0.880800
v -0.183261 -0.321823 0.884463
v -0.220783 -0.304387 0.842759
v -0.240380 -0.321563 0.478645
v 0.115709 -0.416407 0.534607
v 0.082412 -0.347168 0.730761
v 0.174103 -0.367331 0.648527
v 0.039994 -0.364092 0.471052
v -0.235465 -0.336283 0.692025
v -0.015095 -0.458501 0.490694
v 0.018182 -0.449509 0.416456
v -0.036386 -0.460641 0.488363
v 0.069472 -0.407745 0.593188
v -0.243861 -0.329401 0.394291
v 0.143511 -0.307692 0.786955
v 0.220267 -0.431586 0.359769
v 0.209432 -0.430640 0.412779
v 0.220482 -0.435377 0.367829
v 0.211444 -0.436565 0.382840
v 0.198710 -0.439308 0.371435
v 0.212107 -0.402760 0.499671
v 0.189968 -0.363783 0.642627
v 0.180688 -0.384289 0.594715
v 0.150537 -0.436853 0.438222
v 0.172983 -0.439982 0.364138
v 0.174075 -0.377650 0.283705
v 0.160884 -0.325378 0.535318
v 0.135089 -0.383292 0.261641
v 0.127379 -0.446138 0.397065
v 0.183325 -0.425227 0.457286
v 0.168546 -0.287385 0.795461
v 0.020646 -0.371154 0.420504
v -0.235381 -0.389032 0.610821
v -0.223109 -0.402763 0.607307
v -0.009783 -0.451267 0.524779
v -0.245772 -0.420711 0.467557
v 0.046366 -0.430694 0.537480
v -0.248813 -0.405183 0.428112
v -0.037091 -0.439408 0.403184
v -0.221641 -0.433757 0.458779
v -0.199563 -0.410321 0.617322
v 0.013349 -0.434007 0.558179
v -0.022925 -0.374083 0.712269
v 0.001404 -0.394584 0.673260
v -0.042280 -0.372115 0.701029
v -0.238339 -0.429634 0.471202
v -0.080766 -0.429067 0.589139
v -0.085668 -0.447957 0.532558
v -0.242130 -0.386692 0.573640
v 0.042491 -0.427767 0.352348
v -0.226558 -0.434327 0.497786
v -0.156463 -0.447402 0.499352
v 0.017900 -0.454940 0.461224
v -0.219329 -0.438606 0.479462
v -0.082111 -0.368396 0.769956
v -0.045816 -0.375250 0.736752
v -0.045816 -0.375250 0.736752
v -0.196474 -0.443417 0.492339
v 0.165361 -0.275141 0.803295
v -0.080181 -0.373022 0.773796
v 0.080399 -0.385723 0.274278
v 0.168466 -0.270199 0.796869
v 0.168466 -0.270199 0.796869
v -0.249189 -0.342163 0.328468
v -0.243746 -0.340094 0.322871
v -0.243746 -0.340094 0.322871
v -0.243746 -0.340094 0.322871
v -0.236848 -0.335480 0.356163
v 0.167068 -0.268295 0.770246
v 0.166673 -0.274952 0.729246
v 0.166673 -0.274952 0.729246
v 0.197682 -0.439189 0.385349
v 0.168391 -0.382165 0.264065
v 0.189354 -0.396358 0.281693
v 0.222020 -0.433032 0.382999
v 0.016876 -0.376764 0.664771
v -0.215434 -0.299406 0.858411
v -0.208346 -0.308111 0.871023
v 0.038225 -0.387488 0.284897
v -0.192194 -0.361866 0.327452
v -0.054243 -0.384280 0.317069
v 0.010387 -0.394193 0.297086
v -0.126802 -0.377220 0.324535
v 0.143658 -0.444026 0.409494
v 0.167356 -0.267450 0.785825
v 0.108397 -0.382356 0.272955
v 0.180181 -0.385405 0.269132
v 0.180181 -0.385405 0.269132
v 0.219150 -0.424948 0.420258
v 0.210137 -0.421587 0.330268
v -0.222202 -0.294511 0.801803
v -0.224335 -0.295410 0.751785
v -0.235329 -0.307772 0.620092
v -0.219361 -0.295500 0.838442
v -0.240380 -0.321563 0.478645
v -0.015095 -0.458501 0.490694
v -0.036386 -0.460641 0.488363
v -0.243861 -0.329401 0.394291
v 0.220267 -0.431586 0.359769
v 0.220482 -0.435377 0.367829
v 0.212107 -0.402760 0.499671
v 0.135089 -0.383292 0.261641
v -0.238339 -0.429634 0.471202
f 299 255 297
f 49 50 38
f 384 383 49
f 255 299 3
f 3 21 298
f 297 255 19
f 322 49 383
f 50 49 322
f 17 50 16
f 113 18 2
f 62 336 73
f 330 12 170
f 12 7 331
f 57 35 11
f 113 334 59
f 113 335 334
f 67 13 329
f 331 31 12
f 330 332 47
f 40 44 37
f 87 40 37
f 66 14 256
f 14 340 256
f 255 257 19
f 340 257 256
f 324 66 256
f 63 32 171
f 177 264 32
f 171 32 264
f 186 37 34
f 180 272 39
f 185 274 181
f 54 321 196
f 320 54 74
f 256 121 120
f 324 256 208
f 120 208 256
f 266 265 34
f 266 29 64
f 186 265 210
f 290 364 282
f 290 282 268
f 282 267 268
f 268 267 281
f 279 281 267
f 268 269 290
f 268 281 269
f 269 281 296
f 271 281 284
f 271 296 281
f 291 283 301
f 284 270 271
f 270 75 271
f 270 284 280
f 280 382 270
f 385 270 382
f 75 270 77
f 296 320 72
f 296 336 320
f 198 72 74
f 72 198 269
f 72 269 296
f 269 198 290
f 365 364 198
f 290 198 364
f 181 195 381
f 272 276 88
f 275 178 88
f 276 275 88
f 275 276 277
f 276 285 277
f 285 276 180
f 178 275 286
f 195 191 286
f 185 189 289
f 183 52 192
f 273 192 287
f 183 192 273
f 274 188 190
f 188 274 289
f 189 288 289
f 187 288 287
f 289 288 187
f 287 288 273
f 189 273 288
f 185 289 274
f 274 190 191
f 190 286 191
f 190 178 286
f 272 180 276
f 182 283 180
f 291 180 283
f 291 285 180
f 380 285 291
f 277 285 379
f 285 380 379
f 278 277 379
f 278 275 277
f 286 275 278
f 286 278 195
f 378 278 379
f 378 195 278
f 195 378 381
f 279 280 281
f 280 284 281
f 78 129 283
f 283 129 301
f 292 300 324
f 324 208 292
f 311 208 120
f 311 292 208
f 119 300 292
f 119 292 131
f 90 202 203
f 293 209 92
f 202 92 209
f 200 173 71
f 173 201 71
f 79 199 295
f 231 94 212
f 212 295 213
f 199 213 295
f 231 237 94
f 295 212 319
f 319 79 295
f 229 64 79
f 142 213 224
f 142 226 213
f 96 228 97
f 229 228 96
f 228 319 212
f 212 94 228
f 97 94 103
f 215 232 310
f 294 215 310
f 106 219 84
f 222 219 106
f 222 106 101
f 99 109 82
f 302 174 84
f 176 194 93
f 173 93 194
f 201 194 193
f 201 173 194
f 174 93 92
f 176 93 174
f 235 346 349
f 235 176 346
f 239 194 236
f 194 176 235
f 83 174 302
f 83 176 174
f 194 239 193
f 26 193 239
f 240 123 124
f 240 124 237
f 94 237 242
f 94 242 103
f 247 162 107
f 134 151 141
f 134 132 151
f 241 313 148
f 310 145 294
f 309 145 164
f 252 251 166
f 308 254 258
f 303 262 263
f 376 160 263
f 167 376 263
f 262 261 167
f 262 167 263
f 303 263 305
f 303 259 262
f 158 377 159
f 149 259 361
f 262 259 149
f 261 262 260
f 261 260 252
f 252 166 261
f 162 261 166
f 388 157 164
f 157 261 162
f 251 168 165
f 161 163 251
f 168 251 163
f 157 162 248
f 164 254 308
f 388 167 157
f 167 261 157
f 167 388 376
f 306 362 304
f 304 362 258
f 387 362 306
f 160 305 263
f 386 387 154
f 154 377 386
f 154 159 377
f 262 149 260
f 165 162 166
f 248 164 157
f 145 254 164
f 310 254 145
f 155 156 310
f 156 254 310
f 304 258 156
f 156 258 254
f 144 306 304
f 144 143 306
f 306 307 387
f 307 154 387
f 159 154 125
f 125 154 312
f 312 154 307
f 306 359 307
f 233 307 359
f 148 313 253
f 315 360 146
f 360 374 146
f 158 146 374
f 147 146 230
f 146 159 230
f 146 158 159
f 139 251 252
f 251 139 161
f 150 161 139
f 150 250 161
f 250 314 249
f 226 151 153
f 152 314 153
f 249 314 152
f 249 161 250
f 168 163 165
f 156 155 317
f 156 317 304
f 317 144 304
f 144 317 311
f 143 144 371
f 316 307 233
f 312 307 316
f 125 312 105
f 230 159 125
f 147 315 146
f 241 148 389
f 313 139 149
f 375 313 149
f 149 361 375
f 252 260 149
f 252 149 139
f 251 165 166
f 226 153 240
f 314 123 240
f 240 153 314
f 142 151 226
f 152 153 151
f 151 132 152
f 134 238 132
f 152 132 137
f 249 152 137
f 357 161 249
f 163 135 100
f 161 135 163
f 162 165 163
f 245 101 246
f 248 162 247
f 248 247 245
f 164 248 245
f 245 246 164
f 246 309 164
f 309 294 145
f 232 155 310
f 317 292 311
f 371 144 311
f 243 230 104
f 230 243 315
f 389 242 241
f 242 389 373
f 315 147 230
f 124 313 241
f 139 313 150
f 123 314 250
f 142 224 141
f 224 239 141
f 142 141 151
f 141 238 134
f 357 136 135
f 234 236 235
f 234 356 236
f 356 238 236
f 356 358 238
f 133 372 108
f 350 108 372
f 372 133 136
f 133 135 136
f 133 100 135
f 132 238 358
f 161 357 135
f 247 107 101
f 101 245 247
f 106 244 101
f 246 101 244
f 244 309 246
f 244 102 309
f 309 102 294
f 155 292 317
f 103 373 348
f 103 242 373
f 237 124 242
f 241 242 124
f 123 313 124
f 123 150 313
f 239 238 141
f 239 236 238
f 194 235 236
f 234 235 349
f 99 82 318
f 99 108 350
f 107 100 108
f 100 133 108
f 100 162 163
f 108 99 107
f 101 107 99
f 101 99 318
f 107 162 100
f 222 101 318
f 102 244 106
f 106 221 102
f 221 220 102
f 220 294 102
f 232 292 155
f 97 228 94
f 229 96 95
f 229 95 266
f 319 228 229
f 213 231 212
f 213 226 231
f 226 237 231
f 226 240 237
f 123 250 150
f 214 239 224
f 26 239 214
f 201 193 26
f 173 92 93
f 173 223 92
f 174 202 90
f 174 92 202
f 90 84 174
f 219 302 84
f 83 222 318
f 83 346 176
f 83 318 346
f 83 302 222
f 302 219 222
f 90 221 84
f 221 106 84
f 215 294 220
f 215 131 232
f 120 371 311
f 121 316 233
f 125 105 337
f 230 125 337
f 211 104 230
f 103 348 366
f 366 97 103
f 211 230 218
f 210 95 217
f 206 227 207
f 78 169 76
f 216 169 225
f 367 227 206
f 216 225 370
f 225 210 370
f 205 207 227
f 210 217 370
f 64 229 266
f 79 319 229
f 199 224 213
f 214 224 199
f 223 173 200
f 200 293 223
f 293 92 223
f 202 209 203
f 90 220 221
f 90 203 220
f 203 215 220
f 131 292 232
f 120 121 371
f 204 230 337
f 218 230 204
f 97 366 369
f 369 205 97
f 368 97 205
f 217 96 97
f 95 96 217
f 368 205 227
f 216 76 169
f 169 78 184
f 169 210 225
f 95 210 265
f 265 266 95
f 172 80 79
f 172 63 80
f 172 79 64
f 199 79 80
f 80 28 199
f 28 214 199
f 200 71 293
f 71 201 27
f 201 26 27
f 140 122 209
f 293 140 209
f 203 122 131
f 122 203 209
f 215 203 131
f 67 119 68
f 119 67 300
f 298 312 316
f 105 312 298
f 205 218 204
f 207 205 204
f 207 204 126
f 207 130 206
f 118 130 207
f 118 207 126
f 78 76 129
f 385 77 270
f 77 127 114
f 114 75 77
f 75 114 117
f 75 73 271
f 73 296 271
f 72 320 74
f 54 196 74
f 183 196 52
f 197 74 196
f 196 183 197
f 198 74 197
f 197 189 198
f 198 189 365
f 195 181 274
f 274 191 195
f 197 273 189
f 197 183 273
f 42 187 287
f 42 188 187
f 289 187 188
f 188 42 190
f 190 42 85
f 43 287 55
f 42 287 43
f 190 85 179
f 179 178 190
f 179 88 178
f 180 39 182
f 184 78 283
f 87 184 283
f 184 87 186
f 87 37 186
f 186 169 184
f 210 169 186
f 186 34 265
f 34 29 266
f 29 32 172
f 170 31 175
f 264 170 363
f 171 175 81
f 363 171 264
f 64 29 172
f 32 63 172
f 63 81 138
f 80 63 138
f 28 26 214
f 71 27 81
f 293 71 140
f 71 70 140
f 69 68 70
f 68 119 122
f 140 68 122
f 140 70 68
f 122 119 131
f 324 300 67
f 121 256 257
f 257 316 121
f 116 114 127
f 118 116 127
f 130 118 127
f 130 367 206
f 128 367 130
f 352 76 216
f 352 129 76
f 130 127 353
f 355 354 351
f 351 385 355
f 351 77 385
f 118 126 65
f 204 111 126
f 111 204 337
f 126 111 65
f 118 65 116
f 325 114 116
f 62 75 117
f 61 18 23
f 113 59 112
f 23 113 112
f 18 113 23
f 53 98 115
f 328 53 196
f 328 196 321
f 321 24 328
f 112 58 98
f 112 53 328
f 112 98 53
f 115 98 55
f 52 53 115
f 53 52 196
f 115 55 52
f 192 52 55
f 192 55 287
f 98 6 48
f 43 55 48
f 45 51 91
f 45 85 51
f 347 51 43
f 43 110 347
f 43 48 110
f 6 46 48
f 48 46 110
f 89 9 44
f 41 9 89
f 42 51 85
f 41 85 342
f 51 42 43
f 55 98 48
f 46 8 110
f 8 343 110
f 45 91 344
f 342 47 9
f 347 110 343
f 342 9 41
f 9 10 44
f 89 44 40
f 41 89 179
f 86 89 40
f 41 179 85
f 89 88 179
f 89 86 88
f 86 272 88
f 86 39 272
f 39 86 36
f 86 40 36
f 36 40 87
f 44 10 29
f 332 330 177
f 332 177 32
f 10 332 32
f 10 32 29
f 182 36 87
f 36 182 39
f 283 182 87
f 37 44 34
f 44 29 34
f 12 31 170
f 31 69 175
f 70 175 69
f 70 81 175
f 30 81 70
f 171 81 63
f 138 81 26
f 138 28 80
f 138 26 28
f 26 81 27
f 30 71 81
f 30 70 71
f 69 31 68
f 31 67 68
f 329 324 67
f 329 66 324
f 298 257 255
f 298 316 257
f 116 65 325
f 325 117 114
f 62 73 75
f 336 296 73
f 321 54 320
f 25 321 320
f 328 23 112
f 328 24 23
f 23 338 61
f 61 338 20
f 345 341 22
f 345 60 339
f 345 22 60
f 22 21 60
f 334 15 59
f 59 15 58
f 59 58 112
f 15 57 58
f 46 57 11
f 98 58 6
f 58 46 6
f 58 57 46
f 8 46 7
f 9 47 332
f 9 332 10
f 12 343 8
f 8 7 12
f 7 46 11
f 7 11 13
f 7 13 331
f 343 12 330
f 330 264 177
f 330 170 264
f 16 322 329
f 11 17 16
f 13 16 329
f 31 331 67
f 331 13 67
f 329 322 66
f 14 66 322
f 337 105 298
f 65 111 21
f 117 325 323
f 117 25 62
f 25 336 62
f 336 25 320
f 323 25 117
f 333 25 323
f 333 338 25
f 338 321 25
f 338 24 321
f 24 338 23
f 333 20 338
f 327 341 390
f 327 22 341
f 327 21 22
f 1 21 3
f 21 1 60
f 113 2 335
f 335 33 334
f 334 57 15
f 11 16 13
f 17 11 35
f 16 50 322
f 383 14 322
f 383 340 14
f 3 298 255
f 298 21 326
f 111 337 326
f 111 326 21
f 325 65 390
f 65 327 390
f 65 21 327
f 325 390 323
f 5 1 3
f 4 56 2
f 2 5 4
f 1 5 2
f 60 1 2
f 60 2 339
f 56 335 2
f 335 56 38
f 33 335 38
f 35 334 33
f 57 334 35
f 35 33 17
f 33 38 17
f 38 50 17
f 49 38 56
f 56 4 49
f 384 49 4
f 4 5 299
f 5 3 299
f 337 298 326