v -0.348625 0.318632 0.076581
v -0.335610 0.316915 -0.184692
v -0.550959 0.205845 0.152993
v -0.631380 0.091446 0.294953
v -0.638550 0.039086 0.261949
v -0.328631 0.399849 0.129061
v -0.491925 -0.025603 -0.268902
v -0.353277 0.005424 -0.387118
v -0.454969 -0.016056 -0.311146
v -0.531033 0.014791 0.219455
v -0.489550 -0.013115 0.195420
v -0.635629 -0.067949 0.324638
v -0.307387 0.217941 -0.282792
v -0.389996 0.076192 -0.259413
v -0.400917 0.001677 -0.250198
v -0.570442 0.084486 0.006019
v -0.543867 0.154132 0.024708
v -0.622058 0.023421 0.148523
v -0.461207 0.106830 -0.019931
v -0.634651 -0.057164 0.220534
v -0.588612 -0.052942 -0.032342
v -0.610910 -0.056864 0.071127
v -0.601312 0.118510 0.184230
v -0.245332 0.286318 -0.281784
v -0.329262 0.330260 0.037391
v -0.471781 0.165360 0.167030
v -0.646814 -0.046954 0.342052
v -0.429779 0.273137 0.177422
v -0.335591 0.455430 0.227047
v -0.319533 0.448490 0.159369
v -0.326268 0.357167 0.114564
v -0.315331 0.351652 0.040947
v -0.364805 0.440901 0.245558
v -0.472421 0.108513 -0.239508
v -0.435154 0.382337 0.246110
v -0.634367 0.049971 0.323611
v -0.237014 0.405854 -0.148079
v -0.615262 -0.058373 0.295878
v -0.373283 0.350496 0.181135
v -0.426857 0.255045 0.165465
v -0.378218 -0.017766 -0.360150
v -0.563067 0.115466 0.026162
v -0.428593 0.336719 0.085757
v -0.571638 -0.047118 0.246308
v -0.365370 0.322775 0.158791
v -0.607318 -0.041390 0.296436
v -0.611412 -0.024382 0.299689
v -0.611537 -0.061756 0.266021
v -0.476142 -0.000083 0.179156
v -0.311578 0.143975 -0.374318
v -0.304591 0.164036 -0.370967
v -0.274175 0.375486 -0.097888
v -0.393069 0.370244 0.208340
v -0.337902 0.365163 0.161302
v -0.425549 -0.031844 -0.196348
v -0.600625 -0.058056 0.021756
v -0.265646 0.250230 -0.341032
v -0.463302 -0.008679 0.076051
v -0.615587 0.115604 0.248642
v -0.473177 0.329485 0.251487
v -0.507174 0.312401 0.280261
v -0.460246 0.069879 -0.033029
v -0.325306 0.174268 -0.306969
v -0.407655 0.372097 0.129779
v -0.587020 0.142703 0.166265
v -0.385914 0.290656 0.142175
v -0.640090 0.060052 0.300954
v -0.346488 0.406376 0.198888
v -0.491634 -0.044394 -0.096361
v -0.470828 -0.030787 0.171349
v -0.398574 -0.026459 -0.299986
v -0.276199 0.248724 -0.292418
v -0.450463 -0.013496 -0.046310
v -0.458687 0.026318 -0.021364
v -0.296348 0.175245 -0.361521
v -0.324362 0.227830 -0.315793
v -0.265304 0.344272 -0.239167
v -0.405673 0.395223 0.245621
v -0.587001 0.195761 0.280858
v -0.561491 0.082965 -0.027944
v -0.601080 -0.050090 0.019139
v -0.515513 0.169932 -0.038685
v -0.303116 0.339377 -0.032114
v -0.451353 -0.029640 -0.265937
v -0.544702 -0.049645 -0.090421
v -0.452880 -0.039133 -0.073553
v -0.344842 0.256333 -0.132978
v -0.437653 0.239237 -0.121772
v -0.434475 -0.033002 -0.152038
v -0.358815 0.283321 -0.209234
v -0.482248 0.227554 0.195770
v -0.305907 0.357141 0.007371
v -0.540237 -0.024003 -0.195062
v -0.373805 0.285862 -0.173647
v -0.552769 -0.040487 -0.163955
v -0.220003 0.325721 -0.290930
v -0.358203 0.267108 -0.073164
v -0.282136 0.431822 0.020914
v -0.564665 -0.048104 -0.122393
v -0.503748 -0.044840 0.036789
v -0.434785 0.217228 0.104611
v -0.650473 -0.010462 0.328986
v -0.648725 -0.039048 0.321897
v -0.519313 -0.013759 -0.232821
v -0.369662 0.118023 -0.278816
v -0.243183 0.393199 -0.171348
v -0.256857 0.390596 -0.154242
v -0.367119 0.409984 0.139859
v -0.298295 0.440174 0.075498
v -0.579356 -0.054633 -0.063376
v -0.240166 0.321496 -0.239976
v -0.545261 0.255560 0.283252
v -0.472295 0.016613 0.147640
v -0.604555 -0.065896 0.064522
v -0.583048 0.110539 0.093340
v -0.405030 0.411248 0.255710
v -0.506360 0.219256 0.029801
v -0.626605 0.068827 0.228914
v -0.622671 -0.068539 0.223748
v -0.408245 -0.027228 -0.298233
v -0.359639 0.427295 0.178961
v -0.565833 -0.055595 -0.024524
v -0.575130 0.062741 0.247051
v -0.385660 0.132518 -0.329092
v -0.519424 0.123637 -0.104523
v -0.321533 0.410010 0.029746
v -0.649669 0.011062 0.327128
v -0.647930 0.032740 0.332743
v -0.645606 0.037915 0.313622
v -0.283736 0.223499 -0.318247
v -0.464161 0.136132 0.031178
v -0.572542 -0.033353 -0.097279
v -0.476441 0.339243 0.266503
v -0.358604 0.317930 0.132207
v -0.458275 0.363275 0.259396
v -0.279249 0.351790 -0.208412
v -0.333110 0.350853 0.139667
v -0.577445 0.204143 0.256983
v -0.420719 0.377866 0.185425
v -0.392490 0.097591 -0.241116
v -0.520537 0.297773 0.276915
v -0.431222 0.201276 0.019312
v -0.416680 -0.031387 -0.236783
v -0.455537 -0.041483 -0.103686
v -0.383325 -0.015464 -0.366053
v -0.569934 0.166458 0.142927
v -0.433707 0.217627 -0.174501
v -0.591425 -0.054122 0.255985
v -0.496862 -0.014874 -0.266124
v -0.605578 0.037739 0.084981
v -0.636043 -0.044936 0.216340
v -0.370793 -0.009277 -0.379735
v -0.511486 -0.025891 -0.245577
v -0.321714 0.233916 -0.227829
v -0.579969 -0.042879 -0.070080
v -0.459877 0.162367 -0.205103
v -0.313216 0.371715 0.043764
v -0.463832 -0.037890 -0.191146
v -0.532193 0.284730 0.288389
v -0.492644 0.295765 0.244334
v -0.343326 0.455156 0.246604
v -0.413043 0.109464 -0.175985
v -0.294468 0.327412 -0.087713
v -0.520885 -0.033233 -0.229225
v -0.480493 -0.027377 0.186201
v -0.349271 0.352098 0.164802
v -0.358805 -0.005212 -0.387846
v -0.448894 -0.035243 -0.071318
v -0.625502 0.114982 0.303889
v -0.478832 0.335741 0.238513
v -0.348574 0.451661 0.243279
v -0.513914 0.194712 0.003325
v -0.609695 0.050402 0.118475
v -0.610931 0.156773 0.316748
v -0.261016 0.240143 -0.333368
v -0.581409 0.213536 0.304715
v -0.388935 0.001816 -0.371066
v -0.611195 0.120497 0.300784
v -0.408896 0.263604 0.143535
v -0.459114 0.322347 0.134724
v -0.592528 -0.010740 -0.010754
v -0.354377 0.001591 -0.381220
v -0.353911 0.066420 -0.381519
v -0.441653 -0.037810 -0.143366
v -0.290057 0.409736 -0.037909
v -0.397603 0.125964 -0.201519
v -0.413926 0.016619 -0.350527
v -0.613049 -0.066652 0.186255
v -0.520792 0.002108 -0.224676
v -0.528819 0.044506 -0.177694
v -0.597929 0.180729 0.311290
v -0.612882 0.067041 0.155361
v -0.491923 0.071526 0.181603
v -0.265029 0.327382 -0.167552
v -0.463481 -0.032574 0.088378
v -0.455563 0.165971 0.050580
v -0.463714 -0.030137 0.140312
v -0.631999 0.099795 0.330898
v -0.624260 0.114826 0.322915
v -0.649743 -0.022642 0.341329
v -0.337794 0.455595 0.238816
v -0.595280 0.079208 0.094635
v -0.580004 0.214091 0.295540
v -0.232614 0.368125 -0.235620
v -0.285881 0.429276 0.012433
v -0.608161 0.085603 0.160644
v -0.379515 0.046155 -0.296202
v -0.328288 0.110813 -0.375829
v -0.530345 0.197005 0.061221
v -0.348678 0.052468 -0.386960
v -0.281642 0.383005 -0.128282
v -0.447891 0.080218 -0.081573
v -0.343593 0.453703 0.249200
v -0.367732 0.437570 0.256901
v -0.617951 0.139183 0.321908
v -0.353953 0.019107 -0.368522
v -0.563003 -0.049737 -0.121436
v -0.467153 0.141787 0.072536
v -0.475433 0.063281 0.054965
v -0.272351 0.215668 -0.352737
v -0.570299 0.013841 -0.076275
v -0.367877 0.435128 0.230714
v -0.528797 0.241952 0.155354
v -0.436954 -0.036630 -0.200779
v -0.515013 0.289832 0.230566
v -0.493045 0.122897 -0.181103
v -0.557347 -0.024145 -0.146338
v -0.398059 0.267939 -0.157670
v -0.501216 0.035756 -0.241895
v -0.346853 0.067009 -0.365233
v -0.335437 0.336083 0.094367
v -0.402622 -0.024611 -0.262597
v -0.482520 0.096505 0.156816
v -0.640167 -0.027983 0.234762
v -0.377368 0.294557 0.112911
v -0.376063 -0.014818 -0.332312
v -0.519205 0.079253 -0.166525
v -0.431251 0.040374 -0.151624
v -0.528927 0.221920 0.109524
v -0.360475 0.411565 0.219018
v -0.609791 -0.008014 0.065356
v -0.227091 0.302280 -0.290557
v -0.381876 0.321327 0.170026
v -0.448581 0.121702 -0.050932
v -0.436296 0.095592 -0.113239
v -0.332715 0.270436 -0.264667
v -0.643354 0.060395 0.336661
v -0.649173 -0.009234 0.310451
v -0.296854 0.440525 0.076205
v -0.329219 0.436846 0.134229
v -0.226620 0.384220 -0.204317
v -0.255597 0.419885 -0.071769
v -0.295169 0.363411 -0.029192
v -0.245169 0.374409 -0.178735
v -0.535257 0.067757 -0.133069
v -0.325251 0.279926 -0.128711
v -0.260108 0.416235 -0.068494
v -0.506537 0.080233 0.193224
v -0.465837 -0.027588 0.171745
v -0.347192 0.444857 0.243044
v -0.514436 -0.043041 0.142576
v -0.374346 0.384644 0.079293
v -0.632539 -0.070781 0.292665
v -0.471527 -0.021498 0.180300
v -0.411760 0.312017 -0.022972
v -0.319080 0.340892 0.032066
v -0.308288 0.424634 0.045250
v -0.562068 0.150146 0.081884
v -0.636863 -0.063861 0.249684
v -0.524447 -0.038690 0.204822
v -0.646244 -0.057351 0.324721
v -0.354658 0.382451 0.188305
v -0.510331 0.305786 0.260447
v -0.533697 -0.002901 -0.201083
v -0.550948 -0.047690 -0.137267
v -0.480416 -0.041117 0.071533
v -0.333972 0.312286 -0.197962
v -0.302213 0.275129 -0.191440
v -0.233161 0.406778 -0.146945
v -0.341491 0.078519 -0.382241
v -0.554642 -0.052040 0.080233
v -0.391044 0.263478 -0.183041
v -0.564933 0.235364 0.281721
v -0.626710 -0.022213 0.151268
v -0.468526 -0.037664 0.069070
v -0.476394 -0.036749 0.146065
v -0.624222 0.045683 0.184244
v -0.231412 0.279011 -0.319942
v -0.225101 0.403589 -0.174032
v -0.454183 -0.028815 -0.019567
v -0.297305 0.300684 -0.145216
v -0.459512 -0.001712 0.014495
v -0.359169 -0.009683 -0.382299
v -0.221341 0.401501 -0.182522
v -0.442185 0.018170 -0.106995
v -0.630164 -0.000616 0.319172
v -0.430489 0.320578 0.202183
v -0.521493 -0.036235 -0.224353
v -0.465942 0.118424 0.010684
v -0.433059 0.213118 0.069832
v -0.619000 -0.068192 0.146939
v -0.551732 -0.045213 -0.162548
v -0.627322 0.115991 0.319120
v -0.412034 0.274607 -0.109858
v -0.349840 0.316362 -0.156435
v -0.328573 0.446131 0.166927
v -0.622146 -0.057050 0.138568
v -0.260037 0.238670 -0.351085
v -0.261526 0.410175 -0.092034
v -0.558181 0.249978 0.297554
v -0.340387 0.449114 0.237144
v -0.459238 -0.024355 0.034116
v -0.570634 0.063678 -0.021346
v -0.643913 0.058218 0.331482
v -0.385158 0.263196 -0.196276
v -0.470592 0.030530 0.060975
v -0.647679 0.002265 0.343142
v -0.461504 0.299044 0.079878
v -0.349774 0.029823 -0.389384
v -0.603261 -0.063498 0.043725
v -0.225226 0.407420 -0.162237
v -0.487471 0.153591 -0.148869
v -0.486076 0.069723 0.173339
v -0.527753 -0.025669 0.221546
v -0.595710 -0.061903 0.128933
v -0.227889 0.276825 -0.333373
v -0.498270 0.106245 -0.189697
v -0.511371 0.071048 -0.196740
v -0.408724 0.256216 0.109008
v -0.533156 -0.024809 -0.210495
v -0.642753 -0.065652 0.304686
v -0.318803 0.391873 0.076181
v -0.482383 0.022024 0.178694
v -0.440096 0.381383 0.265582
v -0.602426 0.145173 0.240784
v -0.446209 0.167587 0.004842
v -0.514909 -0.043620 -0.140463
v -0.451212 -0.001685 -0.318233
v -0.516079 0.267747 0.174623
v -0.235668 0.330537 -0.244996
v -0.408293 -0.020416 -0.237847
v -0.352908 0.449440 0.253908
v -0.404395 0.222509 -0.227344
v -0.596168 0.175650 0.304908
v -0.543820 -0.038850 -0.187884
v -0.254886 0.348143 -0.180977
v -0.637306 -0.042675 0.337339
v -0.297358 0.360665 -0.155691
v -0.506773 -0.032263 0.200417
v -0.279722 0.358765 -0.192800
v -0.628001 -0.044472 0.166818
v -0.579111 0.095831 0.054937
v -0.462596 0.173696 0.150813
v -0.449317 0.213128 0.162572
v -0.267648 0.294927 -0.222364
v -0.277670 0.267277 -0.256766
v -0.241557 0.399250 -0.144718
v -0.347503 0.445069 0.211744
v -0.366111 0.090546 -0.365348
v -0.553594 -0.034518 -0.161753
v -0.375217 0.434874 0.256106
v -0.641935 0.062864 0.320349
v -0.574284 -0.042593 0.256394
v -0.545094 0.035627 -0.138377
v -0.274384 0.411921 -0.041195
v -0.218625 0.312092 -0.311565
v -0.217202 0.297691 -0.316953
v -0.565224 0.129542 0.057163
v -0.277112 0.297569 -0.288788
v -0.582672 0.127600 0.120698
v -0.355748 0.104049 -0.321728
v -0.343293 0.339812 0.145867
v -0.491902 0.279152 0.122605
v -0.592460 -0.063023 0.017262
v -0.626488 -0.065997 0.302393
v -0.406851 0.248691 0.057740
v -0.304918 0.440738 0.101395
v -0.462252 -0.022558 0.103119
v -0.559944 0.217070 0.213801
v -0.496669 0.250470 0.068439
v -0.285814 0.395379 -0.035004
v -0.287060 0.190189 -0.364337
v -0.390384 0.195619 -0.277664
v -0.314053 0.328549 -0.026102
v -0.424200 0.083905 -0.160910
v -0.551096 -0.014520 -0.160949
v -0.557264 -0.006858 -0.136449
v -0.441134 0.160562 -0.027093
v -0.505090 -0.035241 -0.234024
v -0.593848 0.171661 0.256669
v -0.310547 0.436803 0.090206
v -0.222315 0.387201 -0.209608
v -0.221970 0.394818 -0.198054
v -0.399726 0.283987 0.158973
v -0.383209 0.296709 0.153809
v -0.591386 0.040186 0.028367
v -0.569956 -0.046366 -0.106341
v -0.460070 -0.034192 0.024625
v -0.507185 -0.039806 -0.192430
v -0.292751 0.191270 -0.363406
v -0.346697 0.209556 -0.211768
v -0.612345 -0.068017 0.136388
v -0.542667 0.058418 0.220275
v -0.463980 -0.039113 0.003954
v -0.354917 0.041304 -0.356492
v -0.342488 0.426592 0.211643
v -0.235933 0.381427 -0.208879
v -0.406874 0.297709 -0.069625
v -0.423978 0.393932 0.263844
v -0.430849 0.229472 -0.158526
v -0.501823 0.112077 -0.172522
v -0.357428 0.380519 0.025947
v -0.646251 -0.022563 0.281868
v -0.346594 0.038995 -0.382916
v -0.569721 -0.024220 -0.104259
v -0.408920 0.234759 0.017616
v -0.589170 -0.060420 -0.016536
v -0.280572 0.356946 -0.088452
v -0.405781 -0.011434 -0.354629
v -0.335245 0.453010 0.212387
v -0.233927 0.281008 -0.333874
v -0.614635 -0.063546 0.101169
v -0.362573 0.083314 -0.321353
v -0.341062 0.348632 0.153164
v -0.535141 -0.035377 -0.206637
v -0.539570 -0.041985 -0.192360
v -0.293598 0.192719 -0.342685
v -0.464408 0.264077 0.003817
v -0.223331 0.398825 -0.188317
v -0.319299 0.140029 -0.358438
v -0.644007 -0.053020 0.285064
v -0.317970 0.313433 -0.060142
v -0.478670 0.131126 0.161673
v -0.480174 0.094171 0.117211
v -0.437761 0.056171 -0.315649
v -0.449092 0.190787 0.096792
v -0.529018 0.131027 0.209432
v -0.290506 0.344110 -0.064384
v -0.572401 -0.054980 -0.070824
v -0.358925 0.153075 -0.262654
v -0.589745 -0.035059 -0.030633
v -0.286747 0.351218 -0.068475
v -0.559825 0.233239 0.253381
v -0.635890 0.089794 0.324516
v -0.218764 0.290169 -0.325681
v -0.548643 -0.030480 -0.175109
v -0.510979 0.150116 -0.087171
v -0.644620 -0.040599 0.344781
v -0.643729 -0.006828 0.340040
v -0.581085 0.042299 -0.008884
v -0.617189 0.096698 0.222872
v -0.565241 0.206719 0.273566
v -0.487719 0.120294 0.176499
v -0.314424 0.313623 -0.226970
v -0.462690 0.197079 -0.139471
v -0.385327 0.249993 -0.030800
v -0.374251 -0.017850 -0.350759
v -0.486239 0.091021 0.171369
v -0.477461 0.167220 0.175465
v -0.318995 0.447060 0.148534
v -0.485680 0.337118 0.273365
v -0.539577 -0.044074 -0.178922
v -0.489742 0.004274 -0.272058
v -0.468976 0.066890 0.010719
v -0.641289 0.065427 0.337163
v -0.480285 0.064675 0.109843
v -0.252683 0.312255 -0.221865
v -0.399008 0.416550 0.261617
v -0.280074 0.313313 -0.156234
v -0.632791 -0.020078 0.186578
v -0.463915 -0.018856 0.155557
v -0.357193 0.323574 0.147456
v -0.544689 0.261079 0.265237
v -0.476774 -0.033839 0.169461
v -0.557130 -0.014285 0.244610
v -0.337758 0.096565 -0.365823
v -0.282188 0.433693 0.019899
v -0.548703 0.181018 0.092492
v -0.380785 0.169302 -0.188576
v -0.331084 0.364988 0.146278
v -0.514978 0.048420 -0.208467
v -0.642485 -0.064119 0.337725
v -0.575774 -0.054101 0.184620
v -0.362687 -0.010978 -0.369272
v -0.474071 0.015034 0.162099
v -0.357866 0.283226 -0.028823
v -0.374750 0.423028 0.247311
v -0.614607 0.147081 0.310863
v -0.418410 0.133168 -0.131259
v -0.599825 0.179485 0.308039
v -0.226350 0.384491 -0.213814
v -0.420725 0.219941 -0.200275
v -0.224238 0.363589 -0.244667
v -0.225203 0.363584 -0.247509
v -0.473665 0.196754 0.180237
v -0.467314 -0.034319 0.127731
v -0.453818 0.018656 -0.311805
v -0.309754 0.197019 -0.349963
v -0.624799 -0.057139 0.316606
v -0.277364 0.366374 -0.178949
v -0.473282 0.134392 0.134030
v -0.272782 0.429341 -0.009852
v -0.254335 0.240763 -0.350169
v -0.333422 0.451396 0.219908
v -0.546962 0.004455 -0.160622
v -0.410028 0.215599 -0.030356
v -0.545184 0.266060 0.282597
v -0.305803 0.429520 0.082338
v -0.628539 -0.068485 0.214724
v -0.472329 0.326201 0.187422
v -0.443844 0.365668 0.217365
v -0.649745 0.008689 0.339846
v -0.459400 0.180434 -0.177934
v -0.608229 -0.037236 0.051179
v -0.323469 0.367722 0.100635
v -0.631662 0.104376 0.328772
v -0.389242 0.262615 0.023764
v -0.370528 0.012864 -0.328008
v -0.227853 0.407937 -0.157548
v -0.442703 0.299601 0.027914
v -0.561939 -0.036227 -0.135249
v -0.325068 0.124902 -0.377136
v -0.328931 0.441463 0.185440
v -0.638769 -0.061359 0.338453
v -0.428970 0.231872 0.133948
v -0.638925 0.013744 0.239248
v -0.465021 -0.006500 0.133914
v -0.496273 0.021388 0.193606
v -0.430446 -0.019209 -0.155068
v -0.551500 -0.052324 0.017608
v -0.636553 -0.069381 0.268777
v -0.472526 0.022671 0.114896
v -0.232248 0.335557 -0.280556
v -0.488714 0.333564 0.269383
v -0.553012 0.110397 -0.017037
v -0.460880 0.242344 -0.054052
v -0.242324 0.414917 -0.111595
v -0.258670 0.400102 -0.125394
v -0.297233 0.434316 0.052429
v -0.621836 -0.006293 0.126285
v -0.469153 -0.043124 -0.059903
v -0.359385 0.004310 -0.388603
v -0.342243 0.309194 0.006098
v -0.284559 0.331547 -0.105528
v -0.422278 0.224072 -0.189492
v -0.558995 0.248299 0.293113
v -0.415737 0.051242 -0.198363
v -0.510057 0.246546 0.228760
v -0.579628 0.177510 0.205621
v -0.332155 0.121670 -0.375105
v -0.478070 0.085071 0.071566
v -0.465277 -0.024675 -0.290361
v -0.617245 0.137952 0.304092
v -0.495270 0.290454 0.162977
v -0.609991 0.146731 0.282738
v -0.334735 0.426560 0.186749
v -0.434336 0.230004 0.151745
v -0.639468 0.060579 0.334352
v -0.267088 0.336828 -0.150639
v -0.613774 0.011833 0.097135
v -0.419237 0.195048 -0.041465
v -0.501938 -0.039026 0.172960
v -0.311499 0.252812 -0.215861
v -0.600878 0.014839 0.041732
v -0.541964 -0.046866 -0.126306
v -0.364860 -0.001712 -0.350460
v -0.474821 0.113736 0.077024
v -0.299334 0.383241 -0.003280
v -0.287764 0.420335 -0.011351
v -0.597275 0.058872 0.075025
v -0.306111 0.347412 -0.171463
v -0.620170 -0.034406 0.114370
v -0.328853 0.347571 0.106005
v -0.472385 0.105338 0.036174
v -0.417056 -0.018679 -0.336390
v -0.644359 -0.063453 0.332161
v -0.246845 0.414970 -0.104696
v -0.486857 0.143252 -0.167221
v -0.599219 0.097963 0.139999
v -0.583580 0.068677 0.033236
v -0.573687 0.225388 0.303230
v -0.229353 0.345882 -0.249406
v -0.220570 0.313946 -0.292980
v -0.570869 0.226491 0.300212
v -0.383386 0.234616 -0.074461
v -0.467054 -0.016004 0.170034
v -0.540537 0.253114 0.227017
v -0.397883 0.411720 0.232748
v -0.594352 0.020886 0.271174
v -0.233482 0.271099 -0.339763
v -0.341439 0.341288 -0.114130
v -0.228158 0.303653 -0.317151
v -0.531719 0.022947 -0.189118
v -0.508489 0.113799 -0.151311
v -0.331243 0.290505 -0.087778
v -0.482678 0.058250 0.156956
v -0.289053 0.428880 0.033602
v -0.263264 0.423390 -0.049343
v -0.646885 0.012594 0.299029
v -0.545610 -0.019332 -0.179621
v -0.217960 0.294837 -0.326880
v -0.635994 -0.071358 0.282983
v -0.408859 -0.022982 -0.325601
v -0.460089 0.170651 -0.192406
v -0.541356 -0.004725 -0.183227
v -0.556322 0.024077 -0.114045
v -0.368022 0.288104 0.028048
v -0.240748 0.387235 -0.189914
v -0.351540 0.357021 -0.051788
v -0.359000 0.433920 0.243993
v -0.553040 0.166860 0.238170
v -0.299315 0.410625 0.029255
v -0.383072 0.279665 0.065425
v -0.262349 0.388733 -0.114858
v -0.453934 0.186597 0.130108
v -0.597129 0.182474 0.299453
v -0.487008 0.049600 0.176668
v -0.457398 0.133251 -0.008201
v -0.470623 0.091426 0.015987
v -0.337867 0.436622 0.212220
v -0.569384 0.039873 -0.053926
v -0.404442 0.406943 0.258595
v -0.248287 0.250129 -0.341397
v -0.299733 0.395061 -0.059797
v -0.557755 -0.047407 0.217505
v -0.464900 -0.041461 -0.030571
v -0.386858 0.351578 0.016843
v -0.588507 -0.061360 0.042807
v -0.413303 0.169588 -0.098252
v -0.514026 0.077375 -0.183118
v -0.322781 0.446800 0.171124
v -0.585979 0.014354 -0.018517
v -0.553748 0.071397 -0.069778
v -0.545301 0.099276 -0.059551
v -0.461629 0.162939 0.095964
v -0.539273 0.017653 -0.172727
v -0.339397 0.339222 0.130555
v -0.569911 -0.010236 -0.095939
v -0.215661 0.307730 -0.312291
v -0.478926 0.145723 -0.184370
v -0.374904 0.406281 0.227556
v -0.397250 0.201943 -0.095403
v -0.540129 0.271202 0.289957
v -0.336524 0.420209 0.096173
v -0.390227 -0.012768 -0.286747
v -0.465393 0.183174 -0.157631
v -0.420168 0.004327 -0.190599
v -0.325010 0.419585 0.131983
v -0.364161 0.026155 -0.385117
v -0.342324 0.130009 -0.324831
v -0.244695 0.315422 -0.295290
v -0.270881 0.420686 -0.043603
v -0.633452 0.003170 0.196745
v -0.333132 0.394216 0.156218
v -0.479789 0.048190 0.139796
v -0.337758 0.394174 0.174283
v -0.610131 0.073657 0.287245
v -0.441052 -0.027454 -0.105997
v -0.311916 0.415826 0.077194
v -0.357850 0.234486 -0.143808
v -0.640121 -0.070268 0.320778
v -0.448096 0.184875 0.061594
v -0.353277 0.005424 -0.387118
v -0.311578 0.143975 -0.374318
v -0.425549 -0.031844 -0.196348
v -0.434475 -0.033002 -0.152038
v -0.358805 -0.005212 -0.387846
v -0.358805 -0.005212 -0.387846
v -0.358805 -0.005212 -0.387846
v -0.448894 -0.035243 -0.071318
v -0.463481 -0.032574 0.088378
v -0.463714 -0.030137 0.140312
v -0.328288 0.110813 -0.375829
v -0.343593 0.453703 0.249200
v -0.402622 -0.024611 -0.262597
v -0.376063 -0.014818 -0.332312
v -0.465837 -0.027588 0.171745
v -0.341491 0.078519 -0.382241
v -0.341491 0.078519 -0.382241
v -0.225101 0.403589 -0.174032
v -0.359169 -0.009683 -0.382299
v -0.349774 0.029823 -0.389384
v -0.486076 0.069723 0.173339
v -0.482383 0.022024 0.178694
v -0.440096 0.381383 0.265582
v -0.352908 0.449440 0.253908
v -0.218625 0.312092 -0.311565
v -0.287060 0.190189 -0.364337
v -0.399726 0.283987 0.158973
v -0.383209 0.296709 0.153809
v -0.460070 -0.034192 0.024625
v -0.223331 0.398825 -0.188317
v -0.218764 0.290169 -0.325681
v -0.218764 0.290169 -0.325681
v -0.357193 0.323574 0.147456
v -0.362687 -0.010978 -0.369272
v -0.624799 -0.057139 0.316606
v -0.254335 0.240763 -0.350169
v -0.227853 0.407937 -0.157548
v -0.638769 -0.061359 0.338453
v -0.434336 0.230004 0.151745
v -0.233482 0.271099 -0.339763
v -0.217960 0.294837 -0.326880
v -0.217960 0.294837 -0.326880
v -0.487008 0.049600 0.176668
f 483 261 625
f 184 143 55
f 483 148 48
f 100 541 276
f 145 41 575
f 337 565 399
f 263 602 509
f 499 524 12
f 301 402 119
f 301 320 114
f 158 84 120
f 419 575 9
f 575 419 145
f 302 217 99
f 164 298 425
f 575 552 9
f 41 152 293
f 44 148 625
f 661 531 602
f 625 261 562
f 404 398 285
f 114 374 402
f 298 552 389
f 143 184 224
f 293 457 41
f 69 530 122
f 122 85 69
f 165 70 259
f 184 55 89
f 602 531 509
f 474 70 349
f 232 143 236
f 426 302 345
f 85 337 69
f 298 426 425
f 425 153 164
f 143 232 55
f 462 217 302
f 462 302 426
f 236 143 457
f 404 276 626
f 320 301 422
f 389 552 84
f 457 293 484
f 496 70 474
f 48 263 119
f 197 496 195
f 114 320 417
f 95 345 302
f 224 158 120
f 144 184 86
f 402 188 119
f 84 399 389
f 144 86 541
f 286 474 562
f 541 69 144
f 270 44 625
f 48 119 483
f 603 41 120
f 603 575 41
f 562 270 625
f 628 374 122
f 263 12 661
f 263 661 602
f 398 404 168
f 397 110 21
f 417 374 114
f 236 457 484
f 148 38 48
f 195 496 285
f 399 158 337
f 38 375 48
f 301 119 509
f 275 462 399
f 224 120 71
f 261 281 100
f 541 626 276
f 71 143 224
f 9 7 153
f 509 422 301
f 552 575 603
f 562 261 286
f 565 275 399
f 363 270 349
f 439 122 374
f 276 404 285
f 158 69 337
f 439 565 85
f 145 419 152
f 165 349 70
f 439 275 565
f 44 270 363
f 21 320 56
f 281 483 325
f 399 84 158
f 474 286 496
f 285 286 276
f 389 462 426
f 21 417 320
f 402 325 188
f 375 263 48
f 301 114 402
f 100 276 261
f 552 7 9
f 84 552 603
f 119 263 509
f 71 41 457
f 363 38 44
f 276 286 261
f 85 565 337
f 152 41 145
f 457 143 71
f 100 530 69
f 168 184 89
f 110 397 99
f 496 197 70
f 426 345 425
f 148 483 625
f 12 38 499
f 363 499 38
f 417 110 439
f 110 99 217
f 281 325 628
f 148 44 38
f 69 541 100
f 164 153 7
f 56 320 422
f 462 275 217
f 281 628 530
f 275 439 217
f 374 417 439
f 152 167 293
f 71 120 41
f 483 119 188
f 281 261 483
f 270 562 474
f 122 439 85
f 281 530 100
f 120 84 603
f 195 285 398
f 375 12 263
f 524 482 12
f 259 70 197
f 285 496 286
f 184 168 86
f 224 69 158
f 439 110 217
f 144 224 184
f 628 122 530
f 349 270 474
f 302 99 95
f 7 298 164
f 110 417 21
f 404 626 86
f 628 402 374
f 389 399 462
f 397 95 99
f 7 552 298
f 626 541 86
f 628 325 402
f 144 69 224
f 375 38 12
f 426 298 389
f 661 12 482
f 483 188 325
f 168 404 86
f 449 448 347
f 449 347 296
f 700 347 448
f 27 482 448
f 700 448 482
f 471 378 527
f 363 324 46
f 324 11 475
f 657 611 178
f 528 11 49
f 49 333 528
f 123 589 403
f 403 589 10
f 437 123 403
f 103 431 271
f 331 271 431
f 490 203 616
f 323 458 193
f 458 683 233
f 596 233 683
f 495 40 28
f 310 176 581
f 176 310 546
f 546 283 203
f 574 551 619
f 619 62 19
f 619 464 62
f 292 73 74
f 73 312 290
f 697 363 46
f 643 60 133
f 66 235 134
f 66 134 395
f 45 690 472
f 394 690 45
f 695 395 134
f 243 394 45
f 607 517 486
f 506 336 561
f 142 336 506
f 300 416 376
f 179 557 525
f 101 615 436
f 436 300 101
f 615 101 525
f 615 635 436
f 635 662 436
f 662 635 196
f 662 300 436
f 142 300 662
f 300 142 416
f 101 300 329
f 329 300 376
f 329 376 613
f 329 613 235
f 329 525 101
f 615 525 557
f 615 557 353
f 615 353 501
f 501 635 615
f 142 662 196
f 388 336 618
f 388 629 642
f 388 561 336
f 388 642 561
f 142 506 456
f 376 416 517
f 376 517 613
f 142 456 416
f 456 517 416
f 486 517 456
f 613 517 607
f 1 235 613
f 134 235 1
f 66 179 329
f 329 235 66
f 329 179 525
f 689 179 66
f 689 66 395
f 372 637 137
f 372 695 637
f 134 637 695
f 424 472 372
f 472 424 45
f 297 243 39
f 61 643 133
f 5 287 526
f 540 284 470
f 307 20 351
f 295 212 62
f 585 642 660
f 506 585 456
f 25 1 543
f 637 231 573
f 54 424 480
f 166 424 54
f 159 507 546
f 159 141 507
f 22 514 81
f 244 212 245
f 245 489 244
f 245 162 489
f 244 489 629
f 479 629 489
f 266 384 83
f 573 231 266
f 60 53 78
f 60 78 133
f 133 622 409
f 461 409 334
f 273 225 473
f 225 273 170
f 564 241 560
f 469 432 291
f 563 87 660
f 278 87 563
f 256 87 278
f 515 157 332
f 35 511 170
f 3 223 239
f 632 450 221
f 194 559 438
f 418 253 442
f 35 135 116
f 446 600 93
f 563 356 278
f 654 556 656
f 342 260 213
f 260 342 214
f 361 468 214
f 355 278 356
f 523 631 504
f 620 556 523
f 420 30 460
f 420 460 306
f 161 201 29
f 504 201 311
f 620 504 311
f 504 29 201
f 504 30 29
f 420 29 30
f 171 29 420
f 161 29 171
f 171 686 161
f 361 686 171
f 171 33 361
f 116 361 33
f 222 33 358
f 33 171 358
f 171 420 358
f 358 420 306
f 30 504 631
f 620 523 504
f 648 523 556
f 523 648 508
f 523 508 631
f 631 508 377
f 377 30 631
f 116 33 222
f 588 116 222
f 588 222 121
f 358 121 222
f 306 250 358
f 391 306 460
f 250 306 391
f 358 250 121
f 588 121 139
f 180 510 64
f 478 209 268
f 481 189 274
f 481 229 189
f 104 274 189
f 104 330 274
f 121 644 108
f 644 121 250
f 477 249 502
f 391 539 267
f 644 391 267
f 391 109 539
f 477 109 249
f 539 109 477
f 98 502 249
f 539 477 205
f 539 205 267
f 644 267 126
f 250 391 644
f 98 377 597
f 249 377 98
f 365 257 98
f 98 257 502
f 477 502 598
f 569 267 205
f 126 262 644
f 64 108 644
f 64 139 108
f 644 262 64
f 43 262 412
f 180 262 43
f 64 262 180
f 172 82 17
f 255 594 237
f 190 237 630
f 257 614 357
f 569 205 652
f 126 569 185
f 126 185 624
f 624 412 126
f 522 208 280
f 208 522 50
f 75 664 382
f 427 430 75
f 346 254 614
f 598 577 652
f 627 609 520
f 265 520 609
f 520 265 428
f 246 76 383
f 343 246 383
f 545 315 492
f 282 147 410
f 228 282 410
f 147 282 545
f 410 88 228
f 88 410 455
f 82 455 447
f 82 88 455
f 185 309 624
f 609 591 408
f 265 609 408
f 408 591 305
f 428 408 536
f 136 407 77
f 77 407 204
f 407 491 204
f 294 392 393
f 429 289 294
f 321 294 289
f 429 294 393
f 692 407 608
f 680 692 608
f 211 107 348
f 107 211 538
f 107 37 106
f 106 37 680
f 680 608 106
f 107 106 500
f 571 107 500
f 571 348 107
f 348 591 211
f 538 37 107
f 577 519 37
f 577 321 699
f 519 680 37
f 699 321 289
f 294 251 392
f 279 251 294
f 321 279 294
f 393 407 692
f 393 491 407
f 491 494 204
f 491 393 494
f 393 392 494
f 392 493 494
f 533 592 651
f 533 494 366
f 494 493 96
f 687 494 96
f 367 601 639
f 687 639 601
f 96 639 687
f 592 533 366
f 651 421 57
f 651 592 421
f 204 494 533
f 136 77 454
f 350 608 136
f 407 136 608
f 608 500 106
f 608 350 500
f 609 211 591
f 609 624 211
f 624 538 211
f 538 309 37
f 577 37 309
f 321 577 537
f 279 321 537
f 357 251 279
f 582 251 254
f 357 254 251
f 493 392 251
f 493 251 582
f 582 340 583
f 583 340 111
f 639 96 583
f 583 367 639
f 288 623 326
f 288 326 445
f 24 288 242
f 703 693 326
f 288 445 367
f 242 288 367
f 367 583 242
f 242 583 111
f 582 583 96
f 601 367 694
f 592 366 704
f 421 592 704
f 704 590 421
f 703 326 702
f 308 421 590
f 421 308 57
f 651 57 369
f 204 533 651
f 204 651 77
f 651 369 77
f 77 369 246
f 454 77 246
f 350 277 2
f 2 500 350
f 305 348 571
f 591 348 305
f 500 2 571
f 305 571 2
f 305 2 94
f 408 304 536
f 408 428 265
f 627 624 609
f 309 538 624
f 252 279 537
f 252 257 279
f 357 279 257
f 582 96 493
f 24 175 288
f 175 623 288
f 175 220 623
f 503 326 623
f 503 702 326
f 698 308 590
f 623 220 503
f 427 220 175
f 427 75 220
f 382 220 75
f 220 382 503
f 308 698 688
f 688 400 308
f 57 308 400
f 369 57 498
f 76 369 498
f 350 136 277
f 90 277 136
f 136 454 90
f 2 277 282
f 315 282 277
f 94 2 282
f 304 408 305
f 228 304 305
f 304 228 88
f 88 536 304
f 228 94 282
f 228 305 94
f 90 343 492
f 315 90 492
f 545 282 315
f 492 343 156
f 76 359 124
f 492 513 545
f 147 545 513
f 455 147 646
f 455 410 147
f 88 172 536
f 380 520 428
f 380 428 117
f 185 652 309
f 652 577 309
f 577 598 537
f 252 537 598
f 357 614 254
f 254 346 582
f 340 582 346
f 467 24 242
f 72 175 24
f 72 130 175
f 130 427 175
f 400 688 51
f 369 76 246
f 454 246 343
f 90 454 343
f 315 277 90
f 383 76 124
f 359 498 550
f 359 76 498
f 550 183 359
f 522 678 550
f 550 678 183
f 604 492 156
f 604 513 492
f 646 147 513
f 447 646 322
f 125 447 322
f 447 455 646
f 513 322 646
f 322 513 578
f 172 88 82
f 428 536 117
f 412 624 627
f 569 652 185
f 467 242 111
f 356 72 24
f 63 427 130
f 430 673 75
f 664 75 673
f 688 50 51
f 57 400 498
f 400 51 498
f 550 498 51
f 51 522 550
f 51 50 522
f 678 210 183
f 383 124 435
f 34 343 383
f 343 34 156
f 640 513 604
f 578 513 640
f 322 578 594
f 125 322 594
f 327 640 156
f 327 226 640
f 226 327 411
f 594 578 411
f 640 226 578
f 578 226 411
f 156 34 481
f 328 156 481
f 328 327 156
f 411 327 630
f 411 630 237
f 594 411 237
f 156 640 604
f 481 34 229
f 229 34 435
f 190 630 328
f 327 328 630
f 634 125 255
f 125 594 255
f 172 117 536
f 535 82 447
f 209 117 172
f 318 520 380
f 318 627 520
f 318 43 627
f 43 412 627
f 262 126 412
f 267 569 126
f 477 652 205
f 477 598 652
f 252 598 502
f 257 252 502
f 257 365 614
f 365 52 614
f 614 52 346
f 346 559 111
f 414 476 230
f 423 371 140
f 105 440 186
f 105 371 650
f 440 105 650
f 63 440 650
f 440 63 13
f 140 371 105
f 371 476 650
f 476 371 230
f 230 371 423
f 650 476 430
f 650 430 63
f 13 63 130
f 154 13 72
f 356 563 72
f 563 154 72
f 469 355 467
f 355 24 467
f 24 355 356
f 111 194 467
f 559 194 111
f 340 346 111
f 72 13 130
f 63 430 427
f 430 476 673
f 679 673 476
f 476 414 679
f 319 679 414
f 678 682 210
f 124 359 435
f 383 435 34
f 359 183 649
f 363 349 324
f 338 497 187
f 347 697 46
f 347 700 697
f 149 463 338
f 463 497 338
f 463 435 497
f 435 463 229
f 229 463 189
f 189 463 104
f 481 593 328
f 593 190 328
f 190 593 636
f 255 190 636
f 190 255 237
f 447 125 634
f 535 447 634
f 17 82 535
f 42 17 535
f 209 172 17
f 268 17 368
f 268 209 17
f 209 380 117
f 239 380 209
f 373 380 239
f 373 318 380
f 318 373 43
f 64 510 139
f 121 108 139
f 391 460 109
f 460 249 109
f 460 30 249
f 30 377 249
f 597 508 612
f 381 597 612
f 597 381 365
f 597 365 98
f 52 365 381
f 346 52 418
f 401 13 154
f 401 440 13
f 401 479 440
f 423 140 14
f 423 14 207
f 405 230 207
f 207 230 423
f 216 230 405
f 230 216 414
f 649 183 210
f 210 682 649
f 682 542 649
f 682 8 542
f 8 667 542
f 677 672 471
f 649 542 177
f 187 649 177
f 359 649 187
f 435 359 187
f 497 435 187
f 187 177 338
f 349 165 324
f 576 661 482
f 378 471 672
f 165 264 11
f 165 11 324
f 331 661 576
f 331 531 661
f 104 463 149
f 671 378 672
f 331 269 531
f 93 274 330
f 386 600 446
f 605 505 636
f 605 386 505
f 605 600 386
f 593 481 274
f 593 274 605
f 593 605 636
f 605 274 93
f 505 364 636
f 364 255 636
f 364 633 255
f 364 606 633
f 80 634 633
f 313 606 621
f 313 633 606
f 633 634 255
f 535 634 80
f 16 535 80
f 16 80 313
f 580 16 313
f 42 535 16
f 368 17 42
f 239 209 478
f 239 223 373
f 180 43 373
f 510 511 139
f 588 139 511
f 361 116 468
f 214 686 361
f 674 161 686
f 201 161 674
f 674 311 201
f 674 260 311
f 620 311 406
f 406 656 620
f 656 556 620
f 556 6 648
f 6 332 648
f 648 332 659
f 659 508 648
f 597 377 508
f 381 418 52
f 346 418 559
f 544 467 194
f 544 469 467
f 291 355 469
f 291 278 355
f 479 186 440
f 140 186 162
f 140 105 186
f 207 14 547
f 645 676 566
f 518 645 566
f 518 207 15
f 518 216 405
f 378 671 312
f 182 216 566
f 414 216 182
f 663 319 414
f 414 182 663
f 312 671 691
f 531 269 509
f 605 93 600
f 691 670 290
f 360 227 446
f 386 446 227
f 387 505 386
f 606 505 387
f 606 364 505
f 621 450 313
f 80 633 313
f 450 580 313
f 450 396 580
f 570 580 396
f 352 16 580
f 42 16 352
f 3 239 478
f 180 373 554
f 510 180 554
f 170 511 510
f 35 588 511
f 35 116 588
f 487 641 610
f 641 240 610
f 240 68 260
f 610 240 260
f 487 610 214
f 409 622 214
f 622 487 214
f 78 487 622
f 409 214 468
f 214 610 260
f 260 406 311
f 260 68 406
f 406 68 656
f 6 556 654
f 6 654 515
f 515 332 6
f 332 612 659
f 508 659 612
f 544 194 438
f 256 278 291
f 385 140 162
f 547 14 385
f 14 140 385
f 670 658 73
f 645 518 15
f 670 73 290
f 307 422 509
f 207 518 405
f 518 566 216
f 227 360 521
f 227 387 386
f 621 606 221
f 221 450 621
f 632 396 450
f 150 570 396
f 202 352 580
f 352 368 42
f 115 368 352
f 115 268 368
f 478 268 146
f 478 146 3
f 65 146 370
f 146 268 370
f 268 115 370
f 352 202 115
f 202 579 115
f 370 115 579
f 549 146 65
f 339 373 223
f 339 554 373
f 685 468 116
f 685 116 135
f 78 641 487
f 240 272 68
f 568 332 157
f 568 612 332
f 568 381 612
f 568 418 381
f 253 157 92
f 568 253 418
f 442 559 418
f 442 438 559
f 163 469 544
f 660 154 563
f 479 489 186
f 162 186 489
f 547 647 207
f 647 15 207
f 645 15 341
f 81 56 22
f 521 132 415
f 415 227 521
f 415 638 227
f 387 227 638
f 638 221 387
f 387 221 606
f 564 396 632
f 564 150 396
f 570 202 580
f 202 192 206
f 579 202 206
f 23 370 579
f 23 65 370
f 451 579 206
f 451 23 579
f 225 554 339
f 510 225 170
f 554 225 510
f 135 170 273
f 135 35 170
f 78 53 641
f 468 334 409
f 240 53 272
f 240 641 53
f 480 654 656
f 480 515 654
f 32 92 515
f 157 515 92
f 157 253 568
f 92 442 253
f 92 438 442
f 83 544 438
f 163 432 469
f 432 595 291
f 595 256 291
f 660 401 154
f 245 385 162
f 385 245 212
f 385 212 238
f 238 547 385
f 647 547 238
f 529 15 647
f 341 15 529
f 22 56 422
f 307 22 422
f 658 670 666
f 132 155 441
f 155 132 397
f 521 397 132
f 415 181 638
f 638 632 221
f 638 181 632
f 181 564 632
f 560 150 564
f 173 570 150
f 173 202 570
f 173 192 202
f 150 287 173
f 192 173 287
f 206 192 118
f 451 206 118
f 379 223 3
f 534 135 273
f 461 135 534
f 461 685 135
f 133 78 622
f 53 39 272
f 272 54 68
f 54 656 68
f 54 480 656
f 32 515 31
f 31 573 32
f 266 32 573
f 266 83 32
f 83 438 32
f 92 32 438
f 163 384 432
f 83 384 163
f 163 544 83
f 256 97 87
f 595 97 256
f 642 401 660
f 642 479 401
f 642 629 479
f 295 238 212
f 647 238 295
f 529 647 295
f 155 397 21
f 341 665 675
f 307 351 572
f 307 572 514
f 22 307 514
f 665 529 666
f 666 529 658
f 665 341 529
f 521 360 95
f 81 21 56
f 521 95 397
f 132 181 415
f 132 441 181
f 181 441 514
f 241 181 514
f 241 564 181
f 18 150 560
f 18 560 653
f 287 150 18
f 118 192 287
f 59 23 451
f 335 65 23
f 3 146 549
f 379 3 549
f 587 223 379
f 587 339 223
f 587 225 339
f 587 473 225
f 507 273 473
f 507 141 273
f 141 534 273
f 61 409 461
f 61 133 409
f 297 53 60
f 297 39 53
f 39 166 272
f 166 54 272
f 31 515 480
f 1 25 231
f 25 266 231
f 25 384 266
f 25 543 384
f 543 432 384
f 97 456 585
f 87 585 660
f 97 585 87
f 486 97 595
f 432 486 595
f 561 642 585
f 658 529 73
f 529 295 73
f 676 696 566
f 284 572 351
f 540 572 284
f 441 81 514
f 441 21 81
f 441 155 21
f 514 572 241
f 572 540 241
f 540 560 241
f 540 653 560
f 540 470 653
f 653 526 18
f 287 18 526
f 5 118 287
f 335 549 65
f 443 473 587
f 159 546 310
f 310 643 159
f 643 61 159
f 61 461 159
f 141 159 461
f 461 534 141
f 160 297 60
f 243 166 39
f 243 45 166
f 45 424 166
f 372 137 424
f 137 480 424
f 31 480 137
f 137 573 31
f 137 637 573
f 231 637 134
f 134 1 231
f 613 607 1
f 607 543 1
f 607 486 543
f 543 486 432
f 456 97 486
f 561 585 506
f 629 388 244
f 212 244 19
f 74 295 62
f 73 295 74
f 675 645 341
f 212 19 62
f 464 74 62
f 312 73 292
f 95 360 446
f 93 330 425
f 93 425 345
f 151 351 20
f 351 470 284
f 351 151 470
f 335 23 59
f 390 549 335
f 549 390 138
f 138 379 549
f 587 379 443
f 379 138 443
f 283 443 138
f 283 473 443
f 507 473 283
f 283 546 507
f 643 310 581
f 581 584 643
f 584 112 643
f 452 160 112
f 452 548 160
f 40 394 28
f 91 28 297
f 91 297 548
f 112 60 643
f 112 160 60
f 548 297 160
f 28 243 297
f 28 394 243
f 394 40 701
f 179 689 557
f 354 353 701
f 26 353 354
f 433 233 501
f 501 218 635
f 501 353 433
f 218 196 635
f 218 567 131
f 551 574 567
f 218 131 196
f 336 131 618
f 131 299 618
f 196 131 336
f 336 142 196
f 618 244 388
f 618 19 244
f 618 299 19
f 299 619 19
f 299 574 619
f 299 131 574
f 131 567 574
f 619 551 219
f 619 219 464
f 74 464 316
f 58 292 316
f 292 74 316
f 446 93 345
f 446 345 95
f 470 234 653
f 335 59 555
f 79 138 390
f 283 138 79
f 203 283 79
f 203 176 546
f 91 495 28
f 40 354 701
f 40 495 354
f 495 459 354
f 26 354 459
f 433 353 26
f 433 26 453
f 26 459 453
f 458 433 453
f 458 233 433
f 233 434 501
f 218 501 567
f 219 551 466
f 219 316 464
f 292 58 312
f 182 696 681
f 182 566 696
f 526 653 413
f 234 413 653
f 234 470 151
f 5 67 118
f 4 59 451
f 59 4 555
f 555 390 335
f 344 112 584
f 344 452 112
f 611 91 548
f 258 453 459
f 258 193 453
f 193 458 453
f 528 617 193
f 528 193 258
f 323 193 617
f 705 596 683
f 434 233 596
f 434 596 466
f 466 551 434
f 567 501 434
f 434 551 567
f 219 466 316
f 312 58 378
f 676 645 675
f 431 20 269
f 431 151 20
f 234 151 431
f 431 413 234
f 413 248 599
f 413 599 526
f 5 526 599
f 67 5 129
f 4 451 118
f 169 555 4
f 169 553 555
f 303 553 169
f 488 553 303
f 79 390 555
f 203 79 616
f 203 490 176
f 176 191 581
f 191 584 581
f 191 344 584
f 258 459 495
f 437 258 495
f 403 258 437
f 403 10 258
f 333 617 528
f 684 596 705
f 684 485 596
f 485 655 596
f 596 655 466
f 532 316 466
f 58 316 532
f 330 153 425
f 331 431 269
f 413 431 103
f 248 413 103
f 102 512 127
f 129 127 128
f 129 128 362
f 314 362 128
f 129 599 127
f 127 512 128
f 102 127 248
f 127 599 248
f 599 129 5
f 67 4 118
f 67 362 4
f 362 444 4
f 444 169 4
f 169 444 303
f 516 215 174
f 516 198 215
f 444 516 303
f 488 303 516
f 516 174 488
f 488 555 553
f 488 616 555
f 490 616 488
f 555 616 79
f 174 176 490
f 174 191 176
f 437 495 91
f 10 528 258
f 684 49 485
f 655 485 113
f 655 113 532
f 655 532 466
f 113 527 532
f 527 58 532
f 58 527 378
f 153 104 149
f 153 149 9
f 576 271 331
f 271 576 27
f 103 200 102
f 103 27 200
f 103 271 27
f 102 248 103
f 512 102 200
f 512 200 317
f 317 558 465
f 317 449 558
f 449 36 558
f 36 296 657
f 247 512 465
f 317 465 512
f 512 247 128
f 314 128 247
f 362 67 129
f 516 444 247
f 444 314 247
f 444 362 314
f 516 465 198
f 516 247 465
f 198 465 558
f 558 199 198
f 558 36 199
f 36 178 199
f 199 178 344
f 199 215 198
f 199 344 215
f 215 344 191
f 215 191 174
f 174 490 488
f 344 178 452
f 178 611 452
f 452 611 548
f 437 91 611
f 611 123 437
f 47 475 589
f 475 10 589
f 475 528 10
f 475 11 528
f 149 338 9
f 264 49 11
f 264 586 49
f 49 586 485
f 586 471 485
f 527 485 471
f 527 113 485
f 177 542 152
f 177 152 419
f 482 27 576
f 200 448 317
f 200 27 448
f 449 296 36
f 657 589 123
f 657 296 589
f 36 657 178
f 657 123 611
f 47 589 296
f 338 177 419
f 152 542 668
f 677 586 264
f 677 471 586
f 330 104 153
f 47 347 46
f 296 347 47
f 449 317 448
f 46 475 47
f 46 324 475
f 9 338 419
f 681 669 663
f 681 663 182
f 509 20 307
f 509 269 20
f 312 691 290
f 259 264 165