v 0.111607 0.345832 -0.602510
v 0.120346 0.337045 -0.616123
v 0.165998 0.356856 -0.553641
v 0.141916 0.332220 -0.614801
v 0.127908 0.328453 -0.627679
v 0.160515 0.331252 -0.604353
v 0.142763 0.318129 -0.635843
v 0.146167 0.320856 -0.630908
v 0.135184 0.356601 -0.572152
v 0.150222 0.342251 -0.591320
v 0.128206 0.313564 -0.645830
v 0.120836 0.325440 -0.634513
v 0.177541 0.337754 -0.578921
v 0.093221 0.339398 -0.619310
v 0.096117 0.045441 -0.789466
v 0.084567 0.053703 -0.794068
v -0.000979 0.098225 -0.793548
v -0.028808 0.073732 -0.797814
v -0.031261 0.076534 -0.793252
v -0.021839 0.099011 -0.791180
v -0.030339 0.101587 -0.784422
v -0.028286 0.127181 -0.773422
v -0.025555 0.115908 -0.782032
v -0.027615 0.151573 -0.758311
v 0.062306 0.350608 -0.599423
v 0.088655 0.361735 -0.575856
v 0.111240 0.056990 -0.785768
v 0.181357 0.369326 -0.518822
v 0.198256 0.358495 -0.523271
v 0.157318 0.320408 -0.624779
v 0.101461 0.331826 -0.630318
v -0.012721 0.090550 -0.795883
v -0.033583 0.101423 -0.776828
v -0.032979 0.089931 -0.781540
v 0.087183 0.072121 -0.789442
v -0.029994 0.070039 -0.792679
v 0.095820 0.325878 -0.639007
v 0.075279 0.335792 -0.627299
v 0.163841 0.375529 -0.520007
v 0.100749 0.300662 -0.662696
v -0.033949 0.124512 -0.762416
v -0.031574 0.120534 -0.771950
v 0.081356 0.276957 -0.684217
v -0.013802 0.166970 -0.760253
v -0.015218 0.132502 -0.778329
v 0.078930 0.346871 -0.606952
v 0.061736 0.338373 -0.622944
v 0.049627 0.360928 -0.575113
v 0.066720 0.396938 -0.499106
v 0.045822 0.385950 -0.517469
v 0.171978 0.318875 -0.616157
v 0.203224 0.341079 -0.548817
v 0.144835 0.384120 -0.514097
v 0.212695 0.377021 -0.475842
v 0.122354 0.390684 -0.509923
v 0.111259 0.373883 -0.547005
v 0.097761 0.383160 -0.530369
v 0.061976 0.382642 -0.530422
v 0.165975 0.305055 -0.639755
v 0.176880 0.284370 -0.654314
v 0.144108 0.286928 -0.664087
v 0.076688 0.030218 -0.779372
v 0.079574 0.030584 -0.773190
v 0.058892 0.035092 -0.799761
v 0.066655 0.031427 -0.791854
v 0.074093 0.035873 -0.793512
v 0.176580 0.167749 -0.564263
v 0.160773 0.125115 -0.625084
v 0.130146 0.094140 -0.687424
v 0.004868 0.218491 -0.730771
v -0.002338 0.241664 -0.709271
v 0.192180 0.217343 -0.492038
v 0.212445 0.212507 -0.470876
v 0.198016 0.189670 -0.514489
v 0.203280 0.309148 -0.600963
v 0.227040 0.357458 -0.494261
v 0.050220 0.341876 -0.615163
v 0.034918 0.359829 -0.569081
v 0.029153 0.346592 -0.592051
v 0.038999 0.382847 -0.519415
v 0.218835 0.405349 -0.415967
v 0.069207 0.414629 -0.458288
v 0.033773 0.395180 -0.482801
v 0.045015 0.414472 -0.447483
v 0.127265 0.052974 -0.778905
v 0.096071 0.038005 -0.783070
v 0.140338 0.061195 -0.775155
v 0.114889 0.040091 -0.773073
v 0.121370 0.132495 -0.664559
v -0.021018 0.152060 -0.765452
v 0.056773 0.035049 -0.782133
v 0.025951 0.031111 -0.800047
v 0.135054 0.029835 -0.721695
v 0.122989 0.037207 -0.760796
v 0.110611 0.031001 -0.756038
v 0.053673 0.387588 -0.517199
v 0.228784 0.241584 -0.412154
v 0.226308 0.229978 -0.430907
v 0.215267 0.195620 -0.484794
v 0.228955 0.137958 -0.516536
v 0.195835 0.159008 -0.547239
v 0.123982 0.033564 -0.728082
v 0.141148 0.038680 -0.705834
v 0.154287 0.053392 -0.683295
v 0.199479 0.144512 -0.555074
v 0.120687 0.170945 -0.625507
v 0.119971 0.190553 -0.603747
v 0.134340 0.175561 -0.606363
v 0.102975 0.143634 -0.671241
v 0.091343 0.168835 -0.653487
v 0.052080 0.178318 -0.668810
v 0.064542 0.122813 -0.720993
v 0.098002 0.109690 -0.707360
v 0.111168 0.098242 -0.704196
v 0.081664 0.146109 -0.686281
v 0.045622 0.069788 -0.770446
v -0.004611 0.106968 -0.757559
v 0.006400 0.286075 -0.665793
v -0.032954 0.164320 -0.730369
v -0.018905 0.229027 -0.691317
v -0.036884 0.156636 -0.705695
v -0.035204 0.134484 -0.732116
v -0.024398 0.124571 -0.740653
v 0.013463 0.089015 -0.770294
v 0.026523 0.074519 -0.776365
v 0.051896 0.398922 -0.490068
v 0.032002 0.090419 -0.763457
v 0.018576 0.098215 -0.761960
v -0.022858 0.100184 -0.764588
v 0.011879 0.069040 -0.784008
v 0.020589 0.042618 -0.795597
v -0.008882 0.054970 -0.797552
v -0.014018 0.147233 -0.716617
v 0.014086 0.313257 -0.633518
v 0.151284 0.405743 -0.467477
v 0.116054 0.406988 -0.476892
v 0.116723 0.423704 -0.438557
v 0.086892 0.427021 -0.431242
v 0.023584 0.330616 -0.618277
v 0.072406 0.431608 -0.417841
v 0.185725 0.321817 -0.598851
v 0.153005 0.305134 -0.645885
v 0.062011 0.476313 -0.291753
v 0.143511 0.442105 -0.388640
v 0.056164 0.480958 -0.273203
v 0.045542 0.479328 -0.264274
v 0.178426 0.432712 -0.393692
v 0.164432 0.442499 -0.379175
v 0.154707 0.423370 -0.428182
v 0.320141 0.424448 -0.222792
v 0.247442 0.442859 -0.300918
v 0.241944 0.430226 -0.337035
v 0.101419 0.030893 -0.754581
v 0.135291 0.054482 -0.705052
v 0.134254 0.073932 -0.696464
v 0.153425 0.085116 -0.666397
v 0.298368 0.414464 -0.284334
v 0.221623 0.284827 -0.361904
v 0.246233 0.283267 -0.344342
v 0.233734 0.257247 -0.382242
v 0.245978 0.254152 -0.368756
v 0.191440 0.326059 -0.342497
v 0.203185 0.311491 -0.349216
v 0.176321 0.323761 -0.357036
v 0.090804 0.243262 -0.560321
v 0.138616 0.264044 -0.492430
v 0.153943 0.105220 -0.650948
v 0.120303 0.282538 -0.482792
v -0.000063 0.178062 -0.681497
v 0.034460 0.148796 -0.710790
v 0.025523 0.129989 -0.732453
v -0.016234 0.162514 -0.698547
v -0.039484 0.198302 -0.662470
v -0.030368 0.225684 -0.657143
v -0.032793 0.172947 -0.683601
v -0.038087 0.185529 -0.668960
v -0.036670 0.193693 -0.681035
v 0.015215 0.394781 -0.440474
v 0.054809 0.430181 -0.414968
v 0.136800 0.408311 -0.468435
v 0.124185 0.451540 -0.369664
v 0.100073 0.464024 -0.338112
v 0.076003 0.456586 -0.354347
v 0.150859 0.146580 -0.617594
v 0.140441 0.117604 -0.656895
v 0.058642 0.460445 -0.336015
v 0.082275 0.469710 -0.319294
v 0.055032 0.467783 -0.311680
v 0.136249 0.154356 -0.626996
v 0.014397 0.148278 -0.771900
v -0.005573 0.162352 -0.764654
v -0.024455 0.184331 -0.734473
v -0.027064 0.090724 -0.774112
v -0.022152 0.064916 -0.802624
v -0.015116 0.052876 -0.804752
v -0.001175 0.058993 -0.804845
v 0.032153 0.033304 -0.806571
v 0.037417 0.027497 -0.801097
v 0.080936 0.034921 -0.766142
v 0.069208 0.066238 -0.758178
v 0.089476 0.059611 -0.746441
v 0.117514 0.111673 -0.687354
v 0.094095 0.079193 -0.732154
v 0.092503 0.040289 -0.753142
v 0.064350 0.084707 -0.750598
v 0.064224 0.031024 -0.781804
v 0.042867 0.028922 -0.801727
v 0.020550 0.040052 -0.807360
v -0.020149 0.057108 -0.804310
v -0.027914 0.056348 -0.803028
v -0.020669 0.074378 -0.785955
v -0.033269 0.104871 -0.766294
v -0.022582 0.167653 -0.753563
v 0.140128 0.287236 -0.458102
v 0.100952 0.291333 -0.485330
v 0.097416 0.301848 -0.471455
v 0.087790 0.268666 -0.527414
v 0.064843 0.274766 -0.531690
v -0.013468 0.212340 -0.726878
v 0.075909 0.217969 -0.604332
v 0.173558 0.205090 -0.529091
v 0.167185 0.225138 -0.513569
v 0.198507 0.245980 -0.449978
v 0.168283 0.242017 -0.491207
v 0.203852 0.260083 -0.423853
v 0.148045 0.228786 -0.530090
v 0.149783 0.204626 -0.557079
v 0.135724 0.240968 -0.526623
v 0.114980 0.234439 -0.553609
v 0.117654 0.253458 -0.525829
v 0.112465 0.215300 -0.580132
v 0.129900 0.214433 -0.565850
v -0.037503 0.205152 -0.641798
v -0.037791 0.226696 -0.611986
v -0.003660 0.211292 -0.734114
v -0.017760 0.257669 -0.564858
v -0.012299 0.200337 -0.738312
v -0.032012 0.235664 -0.597017
v 0.058189 0.161227 -0.760986
v 0.153026 0.174911 -0.585955
v -0.018988 0.255809 -0.645859
v -0.032848 0.197596 -0.650881
v -0.019391 0.195799 -0.655058
v -0.012882 0.322298 -0.536079
v 0.005743 0.344845 -0.540535
v 0.050957 0.441354 -0.383281
v 0.045521 0.432541 -0.401247
v 0.064053 0.444415 -0.383046
v 0.046770 0.493932 -0.220645
v 0.034779 0.486893 -0.215268
v 0.034460 0.486101 -0.213023
v 0.057874 0.508180 -0.188565
v 0.053446 0.507294 -0.180527
v 0.116542 0.076565 -0.713708
v 0.110528 0.064622 -0.725852
v 0.083200 0.103853 -0.723842
v 0.086916 0.127123 -0.701108
v 0.052428 0.092651 -0.752264
v 0.063013 0.104919 -0.736721
v 0.039703 0.036111 -0.790609
v 0.067653 0.513506 -0.177589
v 0.084955 0.514424 -0.182276
v 0.032001 0.336490 -0.617332
v 0.025444 0.326080 -0.629857
v 0.037057 0.313457 -0.652702
v 0.029349 0.326731 -0.632825
v 0.053844 0.048718 -0.776318
v 0.027545 0.285803 -0.678588
v 0.050731 0.301164 -0.665901
v 0.080187 0.318074 -0.649034
v 0.039787 0.251005 -0.707490
v 0.017507 0.227655 -0.724870
v 0.004771 0.274801 -0.679334
v -0.019874 0.216523 -0.707404
v -0.014632 0.221136 -0.715477
v -0.031942 0.117809 -0.749818
v 0.000164 0.072016 -0.784762
v -0.036881 0.152857 -0.727503
v -0.037646 0.143482 -0.726741
v -0.036801 0.137616 -0.740162
v -0.029140 0.058462 -0.800736
v -0.025896 0.058666 -0.798736
v -0.021727 0.053464 -0.802334
v 0.003562 0.046104 -0.806103
v 0.022538 0.027249 -0.806480
v 0.009531 0.038650 -0.804690
v 0.049103 0.321995 -0.644774
v 0.102774 0.498095 -0.237650
v 0.129548 0.503699 -0.220355
v 0.150199 0.504954 -0.212353
v 0.100603 0.515813 -0.180870
v 0.026044 0.351265 -0.576367
v 0.039633 0.352839 -0.588358
v 0.021063 0.337576 -0.597712
v 0.138677 0.511161 -0.195809
v 0.169903 0.479599 -0.279365
v 0.220044 0.484435 -0.223394
v 0.276731 0.446481 -0.249201
v 0.290965 0.455677 -0.199802
v 0.211019 0.289188 -0.622629
v 0.221772 0.310472 -0.576436
v 0.260020 0.356984 -0.451622
v 0.259091 0.401848 -0.372648
v 0.059303 0.419959 -0.442529
v 0.093994 0.413144 -0.464448
v 0.293183 0.384193 -0.351610
v 0.282020 0.398781 -0.343341
v 0.298483 0.405407 -0.302120
v 0.245300 0.400777 -0.393908
v 0.272758 0.408799 -0.338607
v 0.266774 0.430079 -0.302431
v 0.252038 0.419061 -0.348046
v 0.232292 0.418865 -0.373356
v 0.219844 0.433492 -0.355628
v 0.203329 0.419068 -0.402865
v 0.033027 0.410805 -0.439481
v 0.029830 0.375466 -0.525007
v 0.027852 0.389222 -0.486884
v 0.257378 0.383301 -0.409765
v 0.241170 0.341105 -0.503584
v 0.157168 0.050191 -0.756155
v 0.157061 0.041642 -0.738249
v 0.171054 0.070722 -0.761687
v 0.148262 0.052921 -0.766924
v 0.218887 0.273075 -0.382523
v 0.200371 0.298593 -0.368500
v 0.268710 0.457724 -0.233927
v 0.256433 0.477499 -0.197244
v 0.195848 0.291761 -0.386194
v 0.210241 0.269452 -0.401209
v 0.172892 0.262763 -0.458408
v 0.128527 0.199213 -0.585420
v 0.243574 0.485211 -0.190364
v 0.232729 0.490706 -0.188020
v 0.112527 0.152916 -0.652691
v 0.069942 0.177105 -0.659709
v 0.061010 0.164564 -0.680157
v 0.060904 0.146676 -0.699957
v 0.048607 0.148878 -0.704461
v 0.246241 0.478991 -0.208393
v 0.171161 0.510424 -0.185453
v 0.180172 0.509287 -0.180766
v 0.156709 0.514356 -0.177115
v 0.168501 0.511349 -0.177504
v 0.045130 0.130692 -0.724563
v 0.001285 0.121796 -0.743716
v 0.019920 0.113915 -0.748633
v 0.039831 0.116225 -0.739770
v 0.032027 0.054125 -0.785084
v 0.020647 0.306693 -0.654084
v 0.009106 0.277788 -0.680043
v 0.019556 0.288286 -0.674403
v 0.361894 0.378428 -0.213631
v 0.319735 0.397964 -0.227947
v 0.233845 0.292745 -0.587343
v 0.286047 0.294094 -0.506087
v 0.258889 0.292528 -0.551569
v 0.310199 0.355995 -0.370996
v 0.087942 0.480750 -0.288252
v 0.340322 0.377133 -0.277128
v 0.050849 0.483733 -0.258751
v 0.355828 0.369753 -0.257938
v 0.179370 0.043427 -0.654469
v 0.148166 0.458133 -0.347150
v 0.069442 0.482606 -0.276931
v 0.127168 0.473965 -0.309727
v -0.000581 0.140489 -0.724937
v 0.018438 0.168890 -0.692538
v 0.137019 0.491527 -0.256536
v 0.019576 0.158164 -0.704647
v -0.003390 0.213521 -0.633118
v 0.016271 0.178417 -0.680627
v 0.021148 0.197358 -0.655180
v 0.178536 0.419690 -0.422136
v 0.209258 0.458523 -0.306474
v 0.189001 0.441254 -0.366521
v 0.334320 0.406879 -0.232785
v 0.316870 0.412161 -0.255562
v 0.350991 0.397555 -0.213297
v 0.306327 0.424012 -0.214829
v 0.331759 0.417126 -0.207735
v 0.189529 0.079577 -0.621402
v 0.318702 0.425644 -0.207059
v 0.151104 0.032622 -0.698661
v 0.335666 0.406287 -0.211522
v 0.177168 0.089677 -0.754924
v 0.337664 0.409525 -0.219756
v 0.009906 0.304906 -0.491116
v 0.187963 0.254795 -0.670791
v 0.018902 0.289570 -0.517686
v 0.011622 0.319641 -0.464922
v -0.010533 0.381130 -0.330974
v 0.006772 0.387455 -0.321502
v 0.205912 0.283376 -0.636284
v -0.011217 0.394248 -0.312418
v 0.127122 0.033027 -0.747133
v -0.010143 0.386534 -0.321758
v -0.017746 0.387116 -0.322568
v 0.162912 0.035367 -0.717696
v -0.020456 0.387160 -0.326042
v -0.016890 0.368519 -0.360536
v 0.107207 0.030098 -0.753870
v 0.183894 0.290327 -0.404636
v 0.092802 0.202933 -0.611809
v -0.031596 0.263442 -0.554143
v -0.037729 0.268170 -0.553567
v 0.045362 0.440768 -0.378597
v 0.039656 0.437484 -0.379068
v 0.048654 0.455586 -0.340760
v 0.036335 0.167092 -0.689543
v 0.031579 0.461950 -0.288481
v 0.015242 0.433863 -0.330011
v 0.027705 0.467529 -0.235292
v 0.042739 0.482325 -0.215914
v 0.070720 0.515246 -0.171798
v 0.084884 0.517067 -0.171404
v 0.101291 0.517476 -0.169881
v 0.099272 0.515861 -0.171005
v 0.091803 0.512986 -0.174405
v 0.133778 0.515830 -0.180491
v 0.140224 0.515819 -0.173969
v 0.236735 0.403350 -0.268939
v 0.332359 0.374881 -0.237007
v 0.329493 0.359206 -0.329441
v 0.363096 0.370476 -0.217926
v 0.380203 0.357074 -0.216946
v -0.000309 0.194789 -0.659243
v 0.376119 0.362843 -0.223734
v 0.232586 0.229149 -0.663576
v 0.182176 0.429082 -0.264980
v 0.124517 0.514657 -0.174399
v 0.106689 0.507665 -0.184091
v 0.019591 0.318019 -0.635772
v 0.203623 0.501066 -0.182740
v 0.218999 0.056275 -0.706177
v 0.017343 0.352238 -0.554084
v 0.179064 0.028131 -0.680558
v 0.225833 0.076858 -0.567309
v 0.384021 0.318196 -0.236838
v 0.356845 0.333446 -0.249027
v 0.377173 0.299353 -0.254626
v 0.326110 0.353361 -0.257347
v 0.166659 0.349036 -0.332919
v 0.158432 0.345331 -0.338657
v 0.062181 0.433346 -0.410714
v 0.133455 0.345703 -0.357911
v 0.134667 0.422249 -0.438360
v 0.119980 0.436193 -0.407916
v 0.118016 0.461353 -0.345309
v 0.133376 0.352533 -0.345823
v 0.156278 0.340981 -0.346255
v 0.121954 0.319095 -0.423896
v 0.065511 0.467451 -0.319763
v 0.072955 0.474419 -0.302825
v 0.085491 0.311203 -0.462930
v 0.113203 0.490009 -0.263026
v 0.064483 0.501819 -0.214688
v 0.056762 0.494684 -0.231107
v 0.063076 0.490111 -0.250368
v 0.103624 0.473313 -0.312197
v 0.016762 0.455344 -0.270242
v 0.037963 0.483135 -0.237685
v 0.078105 0.488323 -0.262818
v 0.051631 0.497101 -0.217831
v 0.072409 0.498410 -0.229546
v 0.063581 0.300042 -0.491724
v 0.215077 0.494663 -0.199018
v 0.157567 0.470189 -0.312018
v 0.143369 0.476528 -0.299332
v 0.157871 0.482469 -0.277253
v 0.082579 0.498211 -0.233614
v 0.149918 0.490494 -0.256438
v 0.160317 0.462612 -0.331095
v 0.233351 0.484694 -0.190320
v 0.229487 0.471802 -0.205482
v 0.256115 0.473792 -0.193742
v 0.305975 0.430981 -0.235332
v 0.311482 0.436143 -0.211981
v 0.290543 0.430170 -0.263943
v 0.207693 0.471291 -0.273371
v 0.190634 0.461489 -0.315025
v 0.184983 0.449772 -0.349186
v 0.203642 0.449356 -0.334930
v 0.191139 0.470954 -0.288991
v 0.232504 0.467323 -0.257277
v 0.292231 0.447487 -0.221656
v 0.278140 0.446252 -0.209618
v 0.232815 0.454515 -0.222738
v 0.236800 0.487336 -0.187692
v 0.233684 0.489287 -0.193126
v 0.143365 0.029282 -0.717465
v 0.193902 0.060999 -0.742416
v 0.203303 0.272864 -0.649462
v 0.213828 0.252044 -0.659588
v 0.261813 0.324252 -0.500665
v 0.273387 0.344741 -0.451675
v 0.291015 0.356103 -0.404379
v 0.316089 0.383007 -0.312880
v 0.275929 0.370826 -0.403886
v 0.173366 0.287497 -0.421732
v 0.338852 0.389077 -0.258050
v 0.348191 0.395217 -0.227111
v 0.177744 0.310375 -0.378542
v 0.358768 0.387297 -0.218380
v 0.363271 0.383039 -0.213013
v 0.349683 0.399014 -0.209859
v 0.202459 0.501268 -0.190435
v 0.263574 0.462298 -0.201228
v 0.201795 0.075147 -0.745951
v 0.217293 0.073350 -0.736074
v 0.217122 0.313429 -0.339402
v 0.232102 0.318558 -0.329327
v 0.227699 0.289679 -0.351114
v 0.263442 0.296312 -0.328141
v 0.246715 0.211573 -0.419298
v 0.265704 0.192327 -0.406876
v 0.249508 0.183529 -0.444056
v 0.212246 0.101242 -0.571569
v 0.229760 0.173572 -0.484583
v 0.182362 0.064898 -0.640142
v 0.155544 0.030057 -0.710828
v 0.165494 0.035306 -0.678305
v 0.254434 0.259492 -0.355464
v 0.281383 0.269683 -0.334094
v 0.275194 0.249039 -0.348707
v 0.190637 0.335894 -0.334511
v 0.061910 0.425080 -0.285004
v 0.034021 0.402807 -0.305938
v -0.003844 0.412572 -0.294653
v -0.032361 0.312045 -0.481825
v -0.018678 0.321032 -0.458655
v -0.006654 0.301146 -0.495813
v -0.020446 0.279974 -0.529109
v -0.009257 0.240835 -0.592662
v -0.025076 0.217422 -0.624283
v 0.002576 0.164076 -0.698819
v 0.051000 0.214756 -0.622099
v 0.066732 0.196497 -0.637540
v 0.047198 0.195171 -0.649823
v -0.026776 0.286283 -0.518502
v -0.031564 0.298694 -0.500003
v -0.024296 0.302063 -0.492265
v 0.011402 0.366563 -0.503731
v 0.071594 0.510869 -0.189435
v 0.063618 0.509086 -0.190652
v 0.052767 0.505750 -0.190571
v 0.046349 0.500294 -0.198156
v 0.048275 0.503227 -0.188763
v 0.054797 0.509307 -0.179603
v -0.019324 0.392758 -0.325832
v -0.021657 0.381819 -0.347210
v -0.022484 0.377434 -0.348111
v -0.010303 0.411171 -0.313054
v -0.004485 0.385159 -0.409060
v -0.010338 0.413021 -0.298376
v 0.113056 0.512747 -0.192171
v 0.103969 0.517372 -0.175095
v 0.186997 0.485009 -0.252318
v -0.020045 0.380485 -0.361171
v -0.016062 0.378473 -0.385769
v 0.173260 0.463539 -0.321561
v 0.170529 0.493955 -0.236954
v 0.137864 0.516641 -0.175066
v 0.170889 0.506915 -0.197682
v 0.154147 0.512849 -0.185814
v 0.080494 0.514827 -0.170560
v 0.068382 0.514040 -0.171087
v 0.279500 0.463193 -0.201361
v 0.268377 0.467930 -0.207376
v 0.296296 0.450424 -0.198663
v 0.042979 0.267335 -0.550897
v 0.290061 0.453878 -0.208873
v 0.253377 0.478593 -0.191232
v 0.276092 0.464575 -0.195585
v 0.264005 0.473415 -0.195328
v 0.018999 0.216740 -0.628713
v 0.029704 0.254394 -0.572921
v 0.038703 0.235499 -0.598261
v 0.008857 0.237126 -0.600004
v 0.372230 0.356953 -0.243649
v 0.344152 0.359309 -0.300580
v 0.236230 0.091671 -0.540549
v 0.196678 0.025773 -0.652484
v 0.252118 0.050988 -0.655990
v 0.247323 0.211923 -0.664623
v 0.155570 0.181932 -0.725975
v 0.302848 0.177149 -0.367564
v 0.310493 0.179505 -0.361195
v 0.155324 0.511428 -0.177739
v 0.396304 0.330322 -0.221515
v 0.392457 0.266228 -0.262442
v 0.397302 0.314865 -0.227677
v 0.148087 0.505186 -0.186139
v 0.176639 0.502368 -0.185255
v 0.187971 0.499767 -0.208169
v 0.197614 0.500016 -0.183924
v 0.370565 0.346582 -0.229162
v 0.386460 0.341059 -0.221198
v 0.351330 0.297879 -0.378059
v 0.209541 0.499956 -0.184589
v 0.275913 0.404762 -0.249036
v 0.159799 0.465510 -0.233085
v 0.351034 0.393706 -0.210797
v 0.243013 0.200412 -0.674856
v 0.198302 0.086264 -0.746234
v 0.271360 0.228367 -0.617211
v 0.182507 0.061593 -0.752160
v 0.187394 0.026813 -0.657243
v 0.399332 0.318476 -0.224405
v 0.403456 0.298379 -0.232663
v 0.337710 0.227137 -0.324410
v 0.167712 0.028452 -0.683438
v 0.282564 0.095242 -0.456542
v 0.199098 0.029415 -0.634216
v 0.294888 0.110211 -0.422751
v 0.241200 0.067246 -0.547529
v 0.210296 0.024117 -0.623568
v 0.226202 0.022653 -0.598099
v 0.320523 0.258764 -0.489917
v 0.404846 0.276463 -0.284897
v 0.387406 0.326250 -0.257152
v 0.399428 0.297542 -0.270381
v 0.283184 0.150662 -0.667843
v 0.271820 0.173120 -0.668091
v 0.277406 0.181248 -0.655384
v 0.420367 0.248311 -0.281025
v 0.403770 0.318533 -0.225167
v 0.324312 0.184910 -0.350854
v 0.411543 0.298002 -0.226513
v 0.418369 0.288971 -0.227691
v 0.287546 0.089792 -0.686781
v 0.249085 0.070590 -0.704186
v 0.289232 0.188003 -0.374076
v 0.297241 0.078418 -0.661909
v 0.209975 0.062987 -0.600074
v 0.203732 0.047183 -0.617416
v 0.303473 0.103798 -0.660328
v 0.301245 0.086452 -0.665164
v 0.256680 0.117225 -0.487803
v 0.313789 0.087210 -0.644731
v 0.315639 0.092532 -0.640893
v 0.270121 0.142905 -0.445469
v 0.293411 0.071103 -0.652752
v 0.245508 0.153693 -0.477613
v 0.280325 0.054749 -0.632776
v 0.252461 0.038503 -0.626674
v 0.249017 0.031014 -0.550263
v 0.267904 0.083395 -0.490956
v 0.331082 0.134568 -0.365345
v 0.283257 0.328861 -0.299552
v 0.317857 0.286130 -0.304978
v 0.263834 0.229824 -0.370781
v 0.262887 0.242063 -0.361631
v 0.283960 0.171032 -0.395245
v 0.301575 0.211246 -0.352995
v 0.283021 0.217643 -0.361453
v 0.274826 0.219405 -0.367182
v 0.275710 0.199603 -0.382188
v 0.274704 0.363952 -0.280220
v 0.035356 0.195403 -0.654131
v 0.049023 0.251631 -0.571993
v 0.113931 0.308819 -0.448070
v 0.140188 0.321009 -0.403401
v 0.139160 0.306381 -0.429603
v 0.067371 0.261166 -0.550309
v 0.157757 0.320053 -0.385793
v 0.213224 0.345001 -0.319793
v 0.184306 0.351790 -0.325261
v 0.169377 0.337085 -0.343564
v 0.008863 0.365907 -0.368612
v -0.022381 0.337616 -0.427105
v -0.010540 0.347473 -0.407986
v 0.002732 0.381940 -0.330210
v 0.032555 0.370678 -0.357506
v 0.002815 0.334389 -0.436355
v 0.040703 0.359453 -0.384042
v 0.026637 0.333451 -0.439623
v -0.000400 0.281355 -0.529916
v 0.021574 0.344182 -0.418578
v 0.035453 0.351276 -0.403087
v 0.016508 0.357590 -0.389232
v 0.357595 0.067035 -0.560559
v 0.331111 0.064309 -0.595375
v 0.254646 0.023430 -0.587898
v 0.005139 0.401791 -0.304863
v -0.015916 0.376970 -0.340247
v -0.002023 0.392056 -0.314835
v -0.000963 0.373429 -0.348597
v 0.383530 0.226108 -0.292068
v 0.308680 0.111208 -0.396010
v 0.371999 0.141315 -0.336346
v 0.415659 0.240556 -0.256372
v -0.039271 0.234158 -0.610185
v -0.037060 0.227229 -0.631138
v -0.005830 0.286550 -0.631268
v -0.006542 0.361448 -0.377296
v -0.034800 0.275036 -0.538239
v 0.039098 0.418624 -0.429438
v 0.052861 0.453347 -0.351730
v 0.335903 0.199934 -0.523944
v 0.338300 0.052894 -0.563952
v 0.056977 0.446142 -0.374927
v 0.339925 0.121374 -0.577220
v 0.043620 0.449788 -0.350535
v 0.435998 0.247679 -0.238549
v 0.041925 0.464595 -0.302879
v 0.432127 0.253537 -0.243978
v 0.015300 0.458640 -0.253250
v 0.444811 0.215640 -0.251479
v 0.438340 0.239001 -0.238132
v 0.434295 0.235226 -0.260246
v 0.354234 0.247634 -0.435455
v 0.305374 0.148875 -0.630067
v 0.325496 0.079311 -0.621879
v 0.332615 0.083160 -0.609965
v 0.339384 0.070025 -0.592535
v 0.368730 0.183713 -0.322400
v 0.446073 0.213995 -0.243307
v 0.275989 0.054296 -0.491310
v 0.061493 0.512753 -0.174688
v 0.058939 0.511517 -0.174522
v 0.040721 0.491928 -0.203000
v 0.054399 0.503157 -0.185748
v 0.458890 0.158300 -0.266142
v 0.458246 0.171164 -0.255401
v 0.059527 0.500970 -0.189443
v 0.062127 0.510347 -0.175546
v 0.079301 0.516547 -0.168895
v 0.117014 0.517856 -0.172838
v 0.331988 0.318263 -0.276821
v 0.340132 0.392307 -0.218327
v 0.291597 0.335630 -0.436357
v 0.308659 0.334714 -0.407829
v 0.281551 0.316868 -0.481191
v 0.327093 0.142558 -0.590488
v 0.221312 0.272702 -0.633172
v 0.371367 0.081712 -0.531149
v 0.208777 0.116811 -0.730964
v 0.370261 0.070173 -0.536685
v 0.370435 0.061771 -0.534800
v 0.225333 0.083924 -0.732294
v 0.214726 0.068211 -0.734199
v 0.353301 0.045125 -0.528610
v 0.335895 0.023163 -0.491932
v 0.204660 0.059642 -0.729575
v 0.212271 0.043803 -0.684213
v 0.172880 0.027661 -0.682741
v 0.264543 0.165999 -0.435340
v 0.371684 0.356303 -0.221676
v 0.229742 0.372441 -0.295101
v 0.198512 0.382803 -0.299174
v 0.136898 0.330612 -0.387162
v 0.099016 0.323757 -0.432968
v 0.286078 0.009369 -0.497597
v 0.332814 0.066966 -0.384408
v 0.444101 0.163233 -0.265511
v 0.384226 0.198831 -0.418495
v 0.459109 0.159064 -0.253130
v 0.460129 0.165755 -0.252715
v 0.463569 0.148313 -0.258264
v 0.355860 0.219349 -0.462176
v 0.359638 0.139209 -0.523433
v 0.284403 0.009203 -0.509650
v 0.299390 0.006187 -0.478337
v 0.302697 0.044188 -0.443681
v 0.081092 0.294385 -0.493083
v 0.065664 0.238990 -0.581636
v 0.457383 0.143961 -0.260152
v 0.463223 0.134669 -0.271876
v 0.406577 0.175035 -0.387352
v 0.359228 0.165781 -0.504297
v 0.329473 0.168713 -0.565391
v 0.378070 0.066772 -0.520516
v 0.377188 0.052372 -0.511847
v 0.375847 0.045895 -0.499917
v 0.338115 0.029912 -0.507992
v 0.336803 0.013043 -0.462273
v 0.313643 0.029241 -0.426662
v 0.307025 0.012611 -0.497547
v 0.055278 0.285068 -0.519365
v 0.300367 0.016673 -0.459285
v 0.034349 0.287974 -0.519198
v 0.012890 0.266408 -0.555228
v 0.024965 0.269200 -0.550933
v 0.031739 0.311621 -0.478870
v 0.057941 0.350075 -0.400800
v 0.087426 0.336431 -0.416050
v 0.045637 0.339608 -0.425933
v 0.360982 0.194658 -0.474951
v 0.380642 0.058627 -0.513273
v 0.407502 0.107159 -0.434893
v 0.434523 0.084617 -0.380876
v 0.426017 0.069114 -0.410641
v 0.384682 0.136273 -0.470048
v 0.451333 0.119828 -0.275144
v 0.326608 0.000837 -0.418364
v 0.337773 0.026890 -0.391139
v 0.402088 0.144153 -0.423366
v 0.334167 -0.001200 -0.413718
v 0.392628 0.047100 -0.478219
v 0.396659 0.061103 -0.480819
v 0.469686 0.112672 -0.261534
v 0.022323 0.393374 -0.315267
v 0.033483 0.379587 -0.336628
v 0.111995 0.335111 -0.400971
v 0.115523 0.344551 -0.377588
v 0.072605 0.349171 -0.396778
v 0.042152 0.384243 -0.327917
v 0.471971 0.101600 -0.265918
v 0.376411 0.056400 -0.357221
v 0.323512 0.019843 -0.411176
v 0.329763 0.025606 -0.400180
v 0.303782 0.007033 -0.481803
v 0.412036 0.031900 -0.420910
v 0.419607 0.044276 -0.429435
v 0.406419 0.042147 -0.449531
v 0.406909 0.073519 -0.454402
v 0.386639 0.055349 -0.498982
v -0.030752 0.321566 -0.473119
v -0.024796 0.350842 -0.403246
v -0.016073 0.397212 -0.312239
v -0.020816 0.376382 -0.344686
v -0.019153 0.356806 -0.387683
v -0.028821 0.338401 -0.433573
v 0.378311 0.105707 -0.503320
v 0.394876 0.119458 -0.326516
v 0.454833 0.124330 -0.302485
v 0.388227 0.071969 -0.497632
v 0.387635 0.061956 -0.500156
v 0.376120 0.122882 -0.498209
v 0.387182 0.033066 -0.454579
v 0.423751 0.038903 -0.416638
v 0.401254 0.038633 -0.450045
v 0.416550 0.022522 -0.388202
v 0.305775 0.005799 -0.458227
v 0.467136 0.114915 -0.261606
v 0.344652 0.081089 -0.371736
v 0.314960 0.006895 -0.434928
v 0.363729 0.024214 -0.460862
v 0.327721 0.006318 -0.452931
v 0.317653 0.013858 -0.424502
v 0.409667 0.054565 -0.453334
v 0.387989 0.017811 -0.412534
v 0.376776 0.005522 -0.389206
v 0.094830 0.392883 -0.312986
v 0.133729 0.391336 -0.308631
v 0.115639 0.360129 -0.344939
v 0.126238 0.362560 -0.336070
v 0.131006 0.487942 -0.210982
v 0.058263 0.393172 -0.315911
v 0.067504 0.371538 -0.347531
v 0.072167 0.378206 -0.333388
v -0.017293 0.302066 -0.565933
v -0.007931 0.350018 -0.488046
v -0.038876 0.251006 -0.578560
v -0.023129 0.314019 -0.519680
v -0.032827 0.298446 -0.515400
v -0.034993 0.285932 -0.524920
v -0.032286 0.281711 -0.555983
v -0.035896 0.264473 -0.575672
v -0.025352 0.331570 -0.472582
v -0.001995 0.429554 -0.287765
v 0.011620 0.452387 -0.257197
v -0.000912 0.427507 -0.281592
v -0.013342 0.407874 -0.307699
v 0.013468 0.444202 -0.262760
v 0.096506 0.373280 -0.333753
v 0.004957 0.416970 -0.289945
v 0.093978 0.364772 -0.349257
v 0.080263 0.360197 -0.367636
v 0.097282 0.348101 -0.384504
v 0.058797 0.328529 -0.443476
v 0.050080 0.307222 -0.483497
v 0.060554 0.464328 -0.242232
v 0.098915 0.381132 -0.323698
v 0.072032 0.383652 -0.325510
v 0.025623 0.447197 -0.259586
v 0.073356 0.484828 -0.216094
v 0.016159 0.418179 -0.289412
v 0.346361 0.018771 -0.386456
v 0.360195 0.008413 -0.380880
v 0.368944 0.019576 -0.371248
v 0.420869 0.088556 -0.314322
v 0.355681 0.024764 -0.378404
v 0.343648 -0.000809 -0.407266
v 0.346918 0.002457 -0.392804
v 0.368540 0.004401 -0.379428
v 0.476377 0.069594 -0.267371
v 0.346541 -0.000634 -0.398360
v 0.337647 0.000112 -0.402757
v 0.473106 0.079677 -0.266366
v 0.443155 0.023459 -0.354578
v 0.432938 0.039231 -0.399170
v -0.024150 0.355002 -0.417681
v -0.022103 0.366410 -0.368598
v -0.024169 0.364982 -0.379191
v -0.028852 0.337143 -0.442311
v 0.444965 0.031241 -0.366433
v 0.476640 0.054623 -0.279743
v 0.458108 0.066396 -0.284751
v 0.389012 0.012895 -0.360565
v 0.403765 0.018645 -0.347267
v 0.472095 0.065777 -0.289006
v 0.473772 0.085696 -0.272039
v 0.455839 0.026641 -0.298520
v 0.473318 0.034761 -0.278649
v -0.002657 0.415156 -0.328880
v 0.446834 0.015117 -0.314494
v 0.463036 0.016129 -0.305259
v 0.459137 0.024716 -0.330039
v 0.456687 0.037249 -0.342193
v 0.442491 0.040818 -0.378072
v 0.074774 0.507009 -0.181805
v 0.437773 0.030345 -0.378264
v 0.474296 0.020338 -0.285993
v 0.475409 0.021582 -0.288193
v 0.472418 0.018707 -0.291462
v 0.472512 0.039150 -0.299084
v 0.473169 0.048663 -0.293785
v 0.477344 0.036901 -0.283590
v 0.477213 0.027311 -0.283920
v 0.468487 0.019282 -0.302849
v 0.335433 0.103358 -0.596897
v 0.446213 0.013750 -0.318539
v 0.413662 0.009709 -0.348390
v 0.466548 0.017356 -0.295246
v 0.414997 0.009904 -0.351745
v 0.429839 0.222460 -0.284626
v 0.288658 0.103713 -0.683730
v 0.032249 0.216600 -0.626451
v 0.376723 0.359587 -0.216549
v 0.311612 0.310342 -0.437864
v 0.350892 0.323167 -0.342678
v 0.331797 0.298100 -0.416817
v 0.325299 0.328085 -0.386836
v 0.316960 0.284428 -0.463790
v 0.298531 0.271721 -0.514654
v 0.275435 0.268335 -0.558632
v 0.197104 0.029312 -0.665426
v 0.254368 0.074574 -0.520634
v 0.283731 0.146298 -0.417864
v 0.281275 0.078886 -0.682664
v 0.276139 0.114226 -0.455944
v 0.306887 0.146585 -0.379031
v 0.292899 0.095669 -0.680060
v 0.284444 0.084255 -0.686418
v 0.220387 0.028498 -0.600786
v 0.302208 0.081524 -0.659472
v 0.302216 0.092973 -0.665433
v 0.388617 0.344545 -0.221936
v 0.353599 0.343579 -0.306505
v 0.368064 0.335571 -0.287578
v 0.065509 0.456968 -0.349558
v 0.076329 0.448744 -0.375477
v 0.227894 0.260573 -0.639867
v 0.380266 0.304876 -0.304895
v 0.242752 0.268729 -0.608983
v 0.367979 0.293856 -0.347508
v 0.284052 0.455941 -0.198265
v 0.314302 0.433935 -0.203846
v 0.301078 0.440903 -0.203220
v 0.304381 0.444415 -0.202945
v 0.097042 0.453360 -0.366228
v 0.254860 0.213540 -0.656647
v 0.119808 0.041873 -0.727024
v -0.026010 0.166084 -0.692572
v -0.029504 0.150806 -0.710935
v 0.015492 0.302785 -0.654296
v -0.039165 0.168575 -0.694738
v 0.034846 0.058338 -0.802937
v 0.064313 0.042674 -0.799916
v 0.072231 0.221853 -0.724599
v 0.250322 0.231488 -0.645326
v 0.038363 0.040679 -0.805594
v 0.260803 0.249218 -0.608006
v 0.251351 0.241304 -0.632732
v 0.263965 0.222502 -0.636192
v 0.313891 0.152236 -0.370453
v 0.296858 0.156142 -0.385840
v 0.262023 0.181264 -0.672217
v 0.267719 0.191869 -0.660035
v 0.302207 0.237210 -0.551618
v 0.268313 0.202849 -0.650203
v 0.297654 0.139309 -0.397167
v 0.238323 0.050031 -0.560582
v 0.269091 0.096244 -0.702984
v 0.246064 0.086882 -0.719360
v 0.249621 0.161550 -0.690617
v 0.256336 0.123059 -0.702615
v 0.245576 0.098512 -0.717527
v 0.253842 0.081908 -0.713418
v 0.403954 0.312164 -0.237863
v 0.238045 0.029302 -0.620694
v 0.268558 0.066151 -0.671109
v 0.305124 0.057537 -0.611318
v 0.216604 0.022656 -0.620637
v 0.250680 0.077892 -0.713355
v 0.288735 0.238315 -0.574686
v 0.269726 0.129791 -0.690964
v 0.278531 0.106343 -0.692957
v 0.269815 0.154184 -0.680113
v 0.285318 0.126791 -0.677773
v 0.295048 0.127017 -0.663348
v 0.367234 0.262854 -0.389246
v 0.340915 0.270642 -0.434971
v 0.277455 0.133015 -0.683401
v 0.276190 0.087397 -0.697285
v 0.283264 0.094456 -0.691755
v 0.293732 0.110788 -0.674043
v 0.255673 0.051916 -0.529818
v 0.320629 0.107970 -0.382255
v 0.414963 0.286377 -0.247488
v 0.415941 0.278572 -0.233886
v 0.415867 0.295791 -0.228012
v 0.421979 0.275959 -0.230704
v 0.337923 0.240894 -0.476598
v 0.318901 0.075517 -0.628583
v 0.403760 0.240087 -0.330360
v 0.429391 0.263540 -0.232891
v 0.427510 0.269778 -0.233552
v 0.421150 0.283069 -0.234862
v 0.413013 0.300409 -0.231060
v 0.431040 0.253172 -0.235808
v 0.289156 0.160282 -0.652433
v 0.243384 0.019039 -0.570256
v 0.246150 0.023696 -0.559629
v 0.247086 0.016967 -0.573357
v 0.360539 0.061675 -0.551402
v 0.356835 0.058481 -0.552228
v 0.331709 0.041647 -0.546709
v 0.299903 0.033131 -0.562854
v 0.304689 0.025117 -0.537689
v 0.269715 0.012439 -0.541031
v 0.268851 0.011893 -0.532076
v 0.275383 0.014919 -0.543728
v 0.286837 0.011706 -0.520283
v 0.280338 0.013393 -0.502561
v 0.461915 0.154668 -0.253629
v 0.332042 0.091483 -0.377791
v 0.454979 0.183302 -0.248568
v 0.451775 0.181905 -0.250433
v 0.427019 0.179732 -0.332234
v 0.440892 0.199608 -0.278479
v 0.452054 0.164422 -0.280130
v 0.418613 0.208407 -0.326878
v 0.362018 0.053320 -0.536014
v 0.300001 0.018533 -0.525095
v 0.324691 0.062554 -0.394397
v 0.417920 0.156273 -0.293695
v 0.310241 0.055754 -0.422834
v 0.402395 0.202734 -0.372123
v 0.387915 0.084132 -0.493274
v 0.370709 0.056889 -0.529479
v 0.360498 0.037286 -0.498266
v 0.468322 0.105174 -0.276750
v 0.445082 0.152019 -0.308828
v 0.320584 0.047354 -0.406228
v 0.370709 0.034618 -0.478379
v 0.425416 0.055794 -0.417674
v 0.421062 0.050430 -0.428414
v 0.410759 0.011081 -0.347138
v 0.428115 0.027875 -0.387503
v 0.430120 0.014293 -0.347823
v 0.360900 0.001380 -0.390910
v 0.422949 0.034293 -0.410766
v 0.326171 0.001778 -0.437742
v 0.391179 0.006398 -0.367919
v 0.336437 0.008217 -0.398258
v 0.328129 0.005298 -0.410338
v 0.343716 0.005954 -0.392761
v 0.436527 0.018624 -0.351172
v 0.453279 0.015976 -0.321606
v 0.420734 0.049343 -0.324830
v 0.447941 0.037231 -0.303035
v 0.466153 0.037674 -0.284544
v 0.478280 0.050103 -0.272723
v 0.471132 0.056550 -0.274115
v 0.417941 0.131578 -0.393866
v 0.431713 0.139222 -0.353054
v 0.447180 0.046099 -0.365879
v 0.413439 0.028514 -0.336451
v 0.476098 0.029368 -0.279255
v 0.469221 0.023150 -0.287402
v 0.471886 0.022314 -0.299051
v 0.472590 0.027789 -0.299513
v 0.460194 0.046737 -0.330583
v 0.463714 0.031564 -0.323733
v 0.464037 0.025956 -0.320863
v 0.447470 0.211149 -0.246428
v 0.321862 0.427699 -0.207963
v 0.210597 0.232024 -0.674362
v 0.056570 0.047928 -0.801423
v 0.227848 0.022283 -0.611701
v 0.478318 0.037092 -0.276166
v 0.451050 0.032530 -0.354559
v 0.452544 0.024188 -0.341529
v 0.447051 0.019797 -0.310342
v 0.476879 0.067013 -0.271623
v 0.436866 0.105327 -0.362525
v 0.440538 0.013302 -0.329685
v 0.431120 0.045734 -0.405251
v 0.434462 0.059801 -0.393726
v 0.476392 0.049205 -0.272022
v 0.437095 0.047556 -0.391188
v 0.459968 0.084693 -0.312656
v 0.447790 0.065098 -0.356299
v 0.460005 0.019323 -0.319411
v 0.419578 0.017046 -0.335717
v 0.412618 0.059268 -0.446770
v 0.397604 0.025781 -0.423324
v 0.465631 0.096501 -0.268146
v 0.385717 0.012081 -0.398335
v 0.382937 0.163356 -0.453184
v 0.320220 0.001328 -0.437004
v 0.398485 0.049303 -0.472161
v 0.344844 0.049977 -0.379716
v 0.401387 0.053901 -0.469966
v 0.441951 0.217608 -0.243861
v 0.431276 0.206083 -0.259068
v 0.444180 0.195015 -0.251630
v 0.452526 0.186295 -0.259204
v 0.446633 0.202252 -0.260754
v 0.369641 0.231068 -0.419833
v 0.310611 0.223146 -0.551449
v 0.298281 0.178766 -0.620064
v 0.312615 0.196400 -0.575739
v 0.339977 0.066177 -0.586939
v 0.283003 0.040847 -0.598838
v 0.263614 0.016852 -0.532269
v 0.291839 0.067386 -0.454908
v 0.274478 0.027464 -0.505176
v 0.256364 0.017102 -0.568684
v 0.356944 0.098416 -0.359455
v 0.354069 0.083462 -0.567161
v 0.357356 0.074129 -0.562648
v 0.364589 0.096100 -0.538688
v 0.325989 0.120870 -0.606691
v 0.314476 0.117133 -0.632048
v 0.312810 0.155798 -0.610291
v 0.426978 0.243474 -0.244139
v 0.384704 0.234779 -0.381686
v 0.289581 0.208416 -0.607856
v 0.327546 0.094579 -0.617411
v 0.342107 0.075076 -0.591278
v 0.406842 0.311769 -0.223717
v 0.382257 0.264903 -0.352582
v 0.352287 0.277322 -0.403361
v 0.275795 0.206327 -0.635300
v 0.281183 0.191478 -0.640860
v 0.420948 0.263812 -0.261664
v 0.263250 0.088045 -0.707953
v 0.237674 0.071619 -0.718179
v 0.263111 0.077382 -0.700951
v 0.221859 0.036956 -0.657239
v 0.236697 0.235294 -0.655710
v 0.066481 0.338043 -0.423052
v 0.078988 0.326906 -0.438786
v 0.160345 0.368451 -0.320662
v 0.147425 0.349976 -0.340193
v 0.058431 0.364299 -0.367804
v 0.182322 0.488777 -0.200465
v 0.021967 0.465355 -0.238913
v 0.110361 0.493760 -0.204838
v 0.062864 0.489208 -0.208243
v 0.151565 0.356106 -0.332475
v 0.132447 0.370043 -0.326920
v 0.214412 0.488334 -0.191988
v 0.385744 0.346246 -0.228644
v 0.324894 0.344010 -0.363059
v 0.024485 0.426434 -0.377488
v -0.035245 0.280010 -0.545442
v -0.028395 0.327549 -0.448493
v -0.037919 0.262252 -0.569993
v -0.037182 0.250945 -0.575128
v -0.039685 0.210893 -0.638386
v 0.154971 0.312247 -0.403150
v 0.372241 0.370684 -0.216195
v 0.362753 0.378259 -0.227306
v 0.049788 0.469967 -0.299241
v 0.040447 0.492186 -0.213546
v 0.090784 0.507763 -0.205746
v 0.073289 0.506063 -0.205739
v 0.037856 0.446629 -0.349249
v 0.017070 0.145292 -0.719049
v 0.255355 0.221661 -0.392076
v 0.264938 0.433727 -0.228607
v 0.361550 0.383803 -0.211733
v 0.156577 0.286222 -0.442791
v 0.082852 0.441011 -0.396351
v -0.032267 0.135189 -0.729462
v 0.209915 0.124638 -0.556726
v 0.212797 0.173465 -0.509753
v 0.229609 0.203336 -0.455591
v 0.212270 0.233787 -0.446620
v 0.031744 0.365898 -0.551211
v 0.047539 0.403983 -0.475615
v 0.255209 0.449990 -0.272769
v 0.219772 0.442702 -0.334678
v 0.229451 0.453229 -0.298184
v 0.201461 0.432582 -0.375581
v 0.196784 0.402371 -0.443020
v 0.087659 0.394672 -0.506098
v 0.168854 0.410603 -0.447516
v 0.016354 0.034186 -0.807203
v 0.002399 0.044811 -0.802319
v -0.007616 0.048576 -0.804019
v 0.035150 0.028212 -0.799021
v 0.017267 0.032977 -0.803511
v -0.000717 0.089764 -0.771729
v 0.028283 0.028017 -0.806505
v 0.094285 0.032899 -0.774961
v 0.161804 0.065757 -0.667322
v 0.167026 0.076841 -0.654352
v 0.170962 0.098749 -0.634023
v 0.185527 0.107975 -0.606221
v 0.182746 0.134888 -0.587227
v 0.041411 0.343051 -0.610289
v 0.037476 0.334207 -0.625308
v 0.063498 0.329683 -0.636186
v 0.082669 0.255168 -0.700254
v 0.004296 0.241306 -0.712734
v -0.002284 0.271465 -0.670285
v -0.004064 0.252228 -0.695691
v 0.044617 0.331025 -0.632317
v 0.204939 0.327098 -0.570221
v 0.032603 0.323069 -0.639834
v 0.175033 0.305428 -0.633524
v 0.189541 0.299766 -0.629377
v 0.184349 0.290308 -0.644878
v 0.152018 0.236837 -0.695777
v 0.137854 0.071913 -0.774830
v 0.169078 0.062474 -0.761388
v 0.113459 0.045525 -0.781144
v 0.036169 0.389819 -0.499642
v 0.040694 0.413563 -0.445048
v 0.178148 0.391391 -0.479237
v 0.233500 0.393257 -0.422896
v 0.221511 0.387723 -0.447028
v 0.246858 0.369936 -0.447891
v 0.043356 0.370662 -0.550854
v 0.069308 0.370155 -0.558607
v 0.127265 0.052974 -0.778905
v -0.015116 0.052876 -0.804752
v -0.027914 0.056348 -0.803028
v -0.027914 0.056348 -0.803028
v -0.027914 0.056348 -0.803028
v -0.029140 0.058462 -0.800736
v -0.029140 0.058462 -0.800736
v -0.021727 0.053464 -0.802334
v 0.003562 0.046104 -0.806103
v 0.003562 0.046104 -0.806103
v 0.022538 0.027249 -0.806480
v 0.022538 0.027249 -0.806480
v 0.009531 0.038650 -0.804690
v 0.331759 0.417126 -0.207735
v 0.236800 0.487336 -0.187692
v 0.349683 0.399014 -0.209859
v -0.031564 0.298694 -0.500003
v 0.253377 0.478593 -0.191232
v 0.396304 0.330322 -0.221515
v 0.287546 0.089792 -0.686781
v 0.446073 0.213995 -0.243307
v 0.058939 0.511517 -0.174522
v 0.370435 0.061771 -0.534800
v -0.024796 0.350842 -0.403246
v 0.472095 0.065777 -0.289006
v 0.475409 0.021582 -0.288193
v 0.472512 0.039150 -0.299084
v 0.473169 0.048663 -0.293785
v 0.314302 0.433935 -0.203846
v 0.034846 0.058338 -0.802937
v 0.064313 0.042674 -0.799916
v 0.256336 0.123059 -0.702615
v 0.269726 0.129791 -0.690964
v 0.277455 0.133015 -0.683401
v 0.471886 0.022314 -0.299051
v 0.056570 0.047928 -0.801423
v -0.028395 0.327549 -0.448493
v 0.016354 0.034186 -0.807203
v -0.007616 0.048576 -0.804019
v 0.028283 0.028017 -0.806505
v 0.028283 0.028017 -0.806505
f 2 9 10
f 34 33 19
f 185 69 156
f 970 1092 971
f 1271 1272 974
f 32 17 196
f 17 1271 196
f 1271 35 1277
f 1277 35 1272
f 66 207 64
f 66 65 207
f 65 198 207
f 1272 64 197
f 974 1272 197
f 208 974 197
f 1271 974 208
f 196 1271 208
f 194 196 209
f 32 196 194
f 20 32 194
f 20 194 18
f 213 219 237
f 219 213 192
f 271 972 272
f 77 25 47
f 77 47 1224
f 1240 293 78
f 50 96 1240
f 58 1202 57
f 1202 58 49
f 1239 54 1238
f 59 60 142
f 59 1229 60
f 1214 68 167
f 224 72 223
f 227 232 332
f 226 232 227
f 230 229 228
f 267 260 91
f 1209 129 211
f 193 211 129
f 1218 1226 266
f 1236 1203 1201
f 1197 151 1199
f 313 81 315
f 313 303 309
f 312 303 313
f 310 307 303
f 1228 394 1229
f 1228 300 394
f 396 1211 94
f 1212 154 104
f 1214 167 156
f 326 330 325
f 338 115 337
f 318 436 543
f 1200 315 147
f 314 1200 376
f 314 376 483
f 483 1198 314
f 375 1198 483
f 152 1199 151
f 152 1198 1199
f 488 430 1186
f 586 1230 1091
f 1230 61 389
f 1230 389 1091
f 326 163 164
f 110 335 106
f 107 110 106
f 404 107 231
f 123 117 346
f 279 121 969
f 278 279 177
f 121 1190 967
f 966 967 172
f 966 175 121
f 121 967 966
f 177 274 192
f 447 144 149
f 447 448 144
f 181 144 448
f 366 182 460
f 411 461 462
f 502 1178 501
f 301 495 355
f 1212 363 520
f 382 1213 520
f 518 1215 382
f 98 1193 515
f 539 111 538
f 538 537 539
f 133 172 967
f 531 541 542
f 531 1172 541
f 181 448 963
f 181 963 449
f 182 963 954
f 183 182 954
f 704 706 1179
f 546 252 464
f 464 249 546
f 249 547 546
f 249 1180 547
f 290 369 289
f 295 565 290
f 297 485 480
f 570 960 962
f 1270 570 961
f 1270 961 383
f 1090 478 962
f 960 1090 962
f 961 570 959
f 487 380 961
f 487 961 508
f 961 959 508
f 570 574 959
f 508 959 476
f 476 959 574
f 569 340 328
f 379 506 1187
f 603 1187 1257
f 1177 504 505
f 504 1177 1178
f 389 494 1091
f 516 658 1185
f 514 651 650
f 666 503 164
f 536 133 367
f 372 169 536
f 536 368 372
f 660 373 372
f 674 688 670
f 858 1171 406
f 248 183 954
f 953 183 248
f 407 409 699
f 407 704 409
f 708 461 862
f 426 1187 353
f 1187 426 1177
f 635 520 636
f 748 644 642
f 1169 933 935
f 738 586 988
f 738 988 989
f 586 738 35
f 386 738 605
f 955 957 976
f 976 606 977
f 738 989 990
f 1091 604 988
f 741 605 990
f 635 636 1026
f 636 614 947
f 636 947 1026
f 1026 985 635
f 438 635 985
f 985 616 438
f 582 438 616
f 616 940 582
f 597 609 598
f 609 590 598
f 992 1168 627
f 992 621 1168
f 1146 958 620
f 991 1151 1007
f 987 986 1151
f 609 610 629
f 1008 631 1007
f 638 631 945
f 643 994 942
f 637 641 949
f 641 638 949
f 641 640 638
f 942 634 643
f 942 994 632
f 634 942 946
f 634 946 948
f 946 638 948
f 1261 638 946
f 945 631 1008
f 945 1008 929
f 945 949 638
f 637 949 945
f 1009 637 945
f 945 929 1009
f 1009 929 1002
f 1024 623 625
f 684 1093 993
f 1022 1014 1021
f 1021 1014 1020
f 1018 620 626
f 715 1144 714
f 703 923 1137
f 735 1137 1138
f 1138 1137 923
f 772 1139 1125
f 1125 1139 713
f 718 1041 1040
f 1262 1089 710
f 707 709 711
f 1262 1040 1089
f 1126 772 1125
f 1040 759 725
f 1089 1040 725
f 928 1122 1043
f 1122 1121 1043
f 1089 725 1121
f 1037 781 1131
f 719 1131 765
f 1130 765 1050
f 701 743 1030
f 1047 776 744
f 776 1047 1032
f 1036 1047 779
f 724 760 769
f 744 777 779
f 1042 1044 1056
f 1115 774 818
f 833 775 800
f 800 816 833
f 815 832 816
f 831 833 814
f 1067 925 1061
f 927 925 1067
f 1100 927 844
f 908 1061 924
f 1061 908 1097
f 921 916 1085
f 919 918 1086
f 918 920 1085
f 1087 1086 918
f 918 1085 1087
f 1087 1085 1088
f 1085 1084 1088
f 924 926 908
f 1267 915 917
f 915 926 917
f 1083 926 915
f 1097 926 1083
f 908 926 1097
f 924 1100 909
f 926 924 909
f 909 917 926
f 922 917 909
f 917 922 1276
f 910 922 1107
f 922 910 1276
f 1088 1276 910
f 910 1107 1096
f 1088 910 1095
f 1087 1088 1095
f 1105 1086 1106
f 1099 1079 827
f 827 1105 1099
f 1105 903 1086
f 903 919 1086
f 1266 1268 1269
f 903 899 918
f 899 920 918
f 1076 1094 920
f 920 1094 921
f 921 1094 1082
f 921 1085 920
f 1085 916 1084
f 1267 917 1276
f 915 1267 921
f 921 1082 915
f 1083 915 1082
f 906 1083 1082
f 1082 1094 1103
f 1082 1103 906
f 1083 906 1075
f 905 1083 1075
f 1097 1083 905
f 1097 905 1074
f 1074 1081 1097
f 1081 1074 1073
f 1108 1097 1081
f 1100 924 927
f 1063 1072 1100
f 1100 1072 909
f 909 1107 922
f 909 1072 1107
f 1071 892 1107
f 892 1096 1107
f 911 1087 1095
f 1086 1087 911
f 1095 910 898
f 1086 911 1080
f 1080 1095 912
f 1080 911 1095
f 1095 898 893
f 912 1095 893
f 1106 1086 1080
f 1105 1106 1099
f 899 1076 920
f 1094 1076 1103
f 1077 906 1103
f 1075 1077 900
f 1075 906 1077
f 905 1075 1074
f 1073 1074 883
f 902 1108 1081
f 1061 1097 1108
f 1072 1063 1071
f 1071 1107 1072
f 892 1071 834
f 1096 898 910
f 1096 914 898
f 1096 892 914
f 892 1062 914
f 1062 1065 914
f 914 832 898
f 893 898 832
f 1104 912 893
f 1080 912 1104
f 1102 1080 1104
f 1102 1106 1080
f 1055 903 1105
f 903 1098 899
f 899 1098 1076
f 1076 1098 888
f 888 1103 1076
f 888 891 1103
f 891 1077 1103
f 1074 1075 900
f 883 1074 900
f 901 902 1081
f 901 1061 902
f 1061 1108 902
f 924 1061 925
f 927 924 925
f 1100 844 1063
f 844 1112 1063
f 892 834 1062
f 1104 893 1101
f 1102 1104 1101
f 1059 1101 1060
f 1102 1101 1059
f 793 1102 1059
f 1099 1078 1079
f 1079 1078 798
f 1079 798 770
f 1056 827 1079
f 827 1055 1105
f 888 809 802
f 888 1098 809
f 904 809 1098
f 1055 904 903
f 904 1098 903
f 1077 891 1111
f 900 1077 1111
f 900 1111 795
f 883 900 795
f 927 1067 844
f 844 1067 1064
f 1064 1067 887
f 885 1064 889
f 799 889 890
f 796 799 890
f 796 890 1069
f 890 889 886
f 889 799 885
f 885 799 1066
f 1066 844 885
f 840 844 1066
f 844 1064 885
f 1064 887 889
f 887 886 889
f 1070 890 886
f 890 1070 1068
f 1068 1069 890
f 1068 812 1069
f 797 812 1068
f 1116 880 884
f 1116 884 810
f 884 882 810
f 883 810 1073
f 797 1116 755
f 880 1116 797
f 1048 812 797
f 811 1069 812
f 811 841 1069
f 841 838 1069
f 796 1069 838
f 1114 799 796
f 881 887 901
f 881 901 882
f 880 881 882
f 886 887 881
f 881 1070 886
f 881 880 1070
f 1068 1070 880
f 797 1068 880
f 880 882 884
f 810 882 1081
f 810 1081 1073
f 882 901 1081
f 887 1061 901
f 887 1067 1061
f 1063 1112 1071
f 834 1110 1062
f 1065 1062 814
f 1065 832 914
f 893 832 815
f 1101 893 815
f 1060 1101 815
f 791 1102 793
f 792 1102 791
f 792 1106 1102
f 1099 1106 792
f 1078 1099 791
f 1078 791 798
f 798 791 794
f 792 791 1099
f 791 793 817
f 794 791 825
f 794 1113 798
f 757 798 1113
f 757 1113 789
f 770 798 757
f 1042 1056 1079
f 809 904 1055
f 836 891 802
f 891 888 802
f 891 836 1111
f 826 810 883
f 797 755 1048
f 811 812 1057
f 796 838 835
f 835 1114 796
f 1114 1066 799
f 1112 777 843
f 777 1112 840
f 844 840 1112
f 843 1071 1112
f 1071 843 834
f 1062 1110 814
f 814 833 1065
f 817 793 1059
f 817 1059 1109
f 1060 1109 1059
f 1060 815 842
f 1109 1060 842
f 817 1109 842
f 815 816 1115
f 1115 1117 815
f 842 815 1117
f 1115 816 800
f 1117 1115 818
f 801 1117 818
f 801 842 1117
f 817 842 801
f 801 828 817
f 794 825 830
f 762 794 830
f 1042 1079 770
f 1133 810 826
f 1133 837 810
f 837 1116 810
f 812 1048 1057
f 1057 778 811
f 841 811 778
f 841 781 838
f 764 813 1066
f 1066 813 840
f 777 839 843
f 1110 839 831
f 839 1058 831
f 814 1110 831
f 833 816 1065
f 832 1065 816
f 775 833 1058
f 774 800 775
f 774 1115 800
f 1052 817 828
f 817 1052 791
f 825 791 1052
f 801 818 829
f 829 818 790
f 828 801 829
f 771 794 762
f 794 771 1113
f 789 1113 771
f 769 1055 827
f 841 778 781
f 781 835 838
f 835 764 1114
f 764 1066 1114
f 779 840 813
f 1110 834 843
f 839 1110 843
f 1058 839 744
f 744 776 1054
f 1054 1058 744
f 831 1058 833
f 1058 1054 775
f 1053 818 774
f 818 1053 790
f 773 829 790
f 828 829 773
f 737 828 773
f 1052 828 737
f 762 830 825
f 762 825 1136
f 762 772 771
f 757 789 761
f 1051 1042 770
f 1056 1044 827
f 1044 769 827
f 769 809 1055
f 1111 836 768
f 795 1111 768
f 1039 1116 837
f 1039 755 1116
f 778 1057 1050
f 1050 765 778
f 765 781 778
f 754 764 835
f 813 764 763
f 779 777 840
f 743 776 1032
f 775 1054 743
f 1046 774 775
f 1046 1053 774
f 825 1052 737
f 825 737 1136
f 1123 757 761
f 1051 770 757
f 1043 1044 1042
f 724 769 1044
f 769 760 809
f 802 809 760
f 802 760 1038
f 836 802 1038
f 759 1038 760
f 836 1038 758
f 768 836 758
f 795 768 756
f 883 795 1049
f 826 883 1049
f 755 1011 1048
f 781 1037 835
f 754 835 1037
f 754 763 764
f 763 1036 813
f 1036 779 813
f 1047 744 779
f 1030 743 1032
f 1054 776 743
f 743 1046 775
f 1053 1046 1029
f 740 790 1053
f 773 790 1264
f 739 773 1264
f 737 773 739
f 1136 703 762
f 735 762 703
f 772 762 735
f 700 771 772
f 789 771 700
f 789 700 761
f 1045 1042 1051
f 725 760 724
f 759 760 725
f 768 758 1041
f 756 768 1041
f 1049 795 756
f 1119 1049 756
f 691 1049 717
f 691 826 1049
f 691 1133 826
f 1011 755 1039
f 1057 1048 690
f 690 1050 1057
f 765 1131 781
f 1037 1034 754
f 1034 763 754
f 1035 1047 1036
f 1032 1047 1035
f 839 777 744
f 1032 1031 1030
f 701 683 1029
f 701 1046 743
f 701 1029 1046
f 1053 1029 1028
f 740 1053 1028
f 1136 737 1134
f 1141 757 1123
f 1141 1051 757
f 928 1042 1045
f 928 1043 1042
f 1043 1121 1044
f 1121 724 1044
f 1121 725 724
f 1038 759 1040
f 1040 758 1038
f 1041 758 1040
f 756 1041 1120
f 756 1120 1119
f 649 837 1133
f 649 1039 837
f 1039 649 1011
f 1011 690 1048
f 1050 690 615
f 615 1130 1050
f 1130 719 765
f 1131 1129 1037
f 1034 1037 1129
f 1034 1033 763
f 1035 1036 1033
f 1036 763 1033
f 1035 1033 1132
f 1031 1128 701
f 995 701 1128
f 1031 701 1030
f 737 739 1134
f 1126 700 772
f 1126 1142 1124
f 1124 700 1126
f 1016 700 1124
f 761 700 1016
f 1123 761 1016
f 1123 1016 712
f 1123 712 1004
f 1051 1141 1018
f 1018 928 1045
f 711 709 928
f 709 1122 928
f 709 1121 1122
f 709 1089 1121
f 1041 1118 1120
f 1041 718 1118
f 718 710 1118
f 705 710 1089
f 1023 1118 710
f 1023 1140 1118
f 1119 1118 1140
f 1119 1120 1118
f 717 1049 689
f 691 649 1133
f 613 648 1130
f 719 1130 648
f 1131 719 1010
f 1010 647 1131
f 684 1035 1132
f 1033 1027 1132
f 1025 1129 1026
f 647 1026 1129
f 647 1129 1131
f 1130 615 613
f 1129 1025 1034
f 1025 1027 1034
f 1033 1034 1027
f 684 1032 1035
f 1032 684 1031
f 1128 645 995
f 1127 716 1028
f 1028 1029 1127
f 683 1127 1029
f 682 740 1028
f 739 1264 682
f 1134 739 1135
f 772 735 1139
f 1126 1125 1142
f 1139 735 713
f 1138 713 735
f 735 703 1137
f 703 1136 923
f 1136 1134 923
f 1135 739 682
f 1028 716 682
f 1144 1135 682
f 1144 1134 1135
f 715 1134 1144
f 715 923 1134
f 1143 923 715
f 1138 923 1143
f 714 1144 716
f 1138 1003 713
f 1003 1024 713
f 998 1124 1142
f 619 1016 1124
f 1005 712 1016
f 1004 712 1005
f 1141 1123 1004
f 1146 1018 1141
f 1018 1045 1051
f 626 711 928
f 709 707 1089
f 705 1089 707
f 1020 705 707
f 1020 1019 705
f 710 705 1019
f 710 1019 1023
f 1119 1140 692
f 1049 1119 689
f 649 691 717
f 944 690 1011
f 984 615 690
f 985 647 1010
f 684 1132 1093
f 1128 684 993
f 684 1128 1031
f 1128 993 646
f 701 995 683
f 1144 682 716
f 1017 716 1127
f 1017 714 716
f 714 641 715
f 1143 715 641
f 641 637 1138
f 1138 1143 641
f 1125 1149 1142
f 982 1124 998
f 982 619 1124
f 1016 619 1005
f 1004 1005 1147
f 1146 1141 1004
f 626 928 1018
f 1150 711 626
f 1150 707 711
f 1023 1019 1015
f 1020 707 1021
f 1022 1021 1012
f 992 1022 1012
f 1022 627 1014
f 1145 1014 627
f 630 1014 1145
f 629 1013 1015
f 629 1015 630
f 630 1020 1014
f 630 1019 1020
f 630 1015 1019
f 1023 1015 1013
f 1013 1140 1023
f 692 1140 591
f 689 1119 692
f 717 689 611
f 689 692 591
f 628 717 611
f 628 649 717
f 978 649 628
f 978 1011 649
f 944 1011 978
f 979 690 944
f 690 979 984
f 615 943 613
f 985 1010 616
f 940 616 1010
f 940 719 648
f 940 1010 719
f 1025 618 1027
f 1027 618 996
f 1027 1093 1132
f 1027 996 1093
f 1128 646 584
f 645 1128 584
f 683 1017 1127
f 683 634 1017
f 683 643 634
f 1017 948 638
f 714 1017 638
f 640 714 638
f 641 714 640
f 1138 637 1003
f 1024 1003 623
f 1125 713 1024
f 624 981 625
f 1149 1125 625
f 625 1125 1024
f 623 1003 1002
f 1003 1009 1002
f 1003 637 1009
f 1017 634 948
f 994 435 632
f 1153 942 632
f 1152 997 1153
f 1153 946 942
f 1153 997 946
f 946 997 1007
f 1261 946 1007
f 1007 986 1008
f 1000 1008 986
f 1000 929 1008
f 1000 1002 929
f 1000 1006 1002
f 1001 1006 999
f 1006 623 1002
f 1006 1001 623
f 1001 980 624
f 1001 624 623
f 624 625 623
f 980 981 624
f 983 625 981
f 983 1149 625
f 1148 1149 983
f 1148 1142 1149
f 938 937 998
f 982 998 937
f 982 937 619
f 1005 934 1147
f 1004 1147 599
f 1147 934 599
f 1004 599 958
f 958 1146 1004
f 1146 620 1018
f 626 620 1150
f 1150 620 1012
f 1012 707 1150
f 1021 707 1012
f 992 1012 622
f 621 992 622
f 627 1022 992
f 609 629 1145
f 630 1145 629
f 610 1013 629
f 591 1013 610
f 591 1140 1013
f 651 689 591
f 611 689 651
f 978 628 588
f 978 588 587
f 978 587 944
f 941 615 984
f 582 940 648
f 985 1026 647
f 1025 1026 947
f 947 618 1025
f 617 996 618
f 583 1093 996
f 939 1093 583
f 993 1093 939
f 993 1154 646
f 683 995 643
f 632 1152 1153
f 991 1007 997
f 1151 986 1007
f 986 989 1000
f 989 1006 1000
f 1273 1274 1275
f 989 988 999
f 988 1001 999
f 988 980 1001
f 988 604 980
f 585 980 604
f 980 585 964
f 964 981 980
f 964 983 981
f 977 1148 983
f 977 1142 1148
f 606 1142 977
f 606 998 1142
f 936 1005 619
f 622 1012 620
f 1145 627 1260
f 590 609 1145
f 610 609 592
f 441 591 610
f 628 611 655
f 944 587 633
f 941 642 615
f 642 943 615
f 639 613 943
f 639 648 613
f 947 617 618
f 947 614 617
f 1154 993 939
f 1154 746 584
f 646 1154 584
f 645 584 994
f 995 645 643
f 645 994 643
f 632 435 745
f 742 997 1152
f 742 510 997
f 741 990 987
f 510 741 987
f 510 987 991
f 991 997 510
f 987 1151 991
f 987 990 986
f 990 989 986
f 983 964 977
f 998 975 938
f 998 606 975
f 976 977 973
f 975 606 976
f 973 964 1155
f 1155 964 585
f 1155 976 973
f 938 975 957
f 975 976 957
f 936 619 937
f 934 1005 936
f 932 934 936
f 620 956 622
f 956 620 958
f 933 956 958
f 956 952 621
f 621 622 956
f 952 933 951
f 952 956 933
f 580 621 952
f 951 933 424
f 951 424 581
f 952 951 581
f 580 952 362
f 1168 621 580
f 1168 950 627
f 1260 627 950
f 590 426 598
f 1260 950 426
f 426 931 598
f 749 598 931
f 749 597 598
f 439 609 597
f 439 592 609
f 439 610 592
f 441 610 439
f 441 651 591
f 611 524 655
f 587 588 655
f 588 628 655
f 979 944 633
f 654 984 979
f 654 941 984
f 748 642 941
f 642 639 943
f 639 582 648
f 518 438 582
f 614 608 617
f 614 636 363
f 617 608 996
f 583 996 608
f 583 437 939
f 747 437 583
f 747 583 608
f 994 584 435
f 632 745 1152
f 509 741 510
f 738 990 605
f 586 1091 988
f 1091 429 604
f 973 977 964
f 1155 585 604
f 604 429 1155
f 955 976 1155
f 736 957 955
f 356 937 938
f 356 936 937
f 932 936 356
f 935 933 934
f 933 599 934
f 933 958 599
f 935 934 932
f 935 932 733
f 733 932 732
f 497 733 732
f 935 358 1169
f 933 1169 424
f 362 952 581
f 749 931 425
f 440 730 441
f 667 512 659
f 659 512 650
f 659 650 442
f 750 667 659
f 422 750 601
f 782 783 784
f 577 576 578
f 579 576 577
f 579 534 535
f 535 371 579
f 371 576 579
f 660 930 576
f 576 930 578
f 577 578 661
f 577 661 571
f 782 571 780
f 782 784 571
f 391 388 785
f 820 1172 671
f 858 530 857
f 819 861 857
f 414 1164 726
f 566 913 419
f 728 567 566
f 727 723 726
f 721 567 720
f 567 1263 727
f 566 567 727
f 727 913 566
f 727 726 913
f 726 1164 913
f 913 1164 432
f 419 913 432
f 450 1159 848
f 446 164 451
f 852 869 867
f 413 1162 866
f 865 862 553
f 554 894 560
f 907 559 553
f 554 861 894
f 897 824 894
f 894 559 560
f 896 895 552
f 896 552 559
f 552 551 559
f 907 560 559
f 553 559 550
f 866 864 529
f 529 868 866
f 865 555 862
f 461 907 553
f 554 560 907
f 854 861 554
f 819 897 861
f 894 861 897
f 559 894 824
f 1265 896 824
f 559 824 896
f 895 896 1265
f 895 823 401
f 895 401 822
f 822 552 895
f 400 551 552
f 551 400 550
f 550 559 551
f 865 553 550
f 865 550 821
f 865 821 555
f 864 555 821
f 529 864 821
f 879 528 527
f 877 879 527
f 877 868 879
f 866 868 877
f 874 1164 414
f 877 874 414
f 413 866 877
f 878 874 1163
f 1164 874 878
f 527 846 430
f 875 850 876
f 845 850 875
f 1161 849 602
f 852 808 851
f 808 852 876
f 875 876 867
f 527 845 846
f 446 806 752
f 867 869 847
f 847 869 446
f 869 870 871
f 869 871 806
f 446 869 806
f 450 847 446
f 848 847 450
f 867 847 848
f 848 875 867
f 848 1166 875
f 1166 845 875
f 602 527 430
f 593 1161 594
f 1163 874 849
f 874 602 849
f 602 874 527
f 528 845 527
f 850 845 528
f 803 808 850
f 850 808 876
f 851 808 804
f 851 674 1160
f 674 851 804
f 869 852 851
f 867 876 852
f 870 869 851
f 851 1160 870
f 807 870 1160
f 1160 786 807
f 870 807 871
f 805 806 871
f 785 782 873
f 766 466 780
f 785 873 872
f 787 1156 1157
f 872 1157 1156
f 753 452 805
f 805 787 753
f 787 807 1156
f 786 788 1156
f 786 1156 807
f 788 872 1156
f 788 677 872
f 872 677 785
f 677 391 785
f 766 455 466
f 872 466 1157
f 872 873 466
f 1157 753 787
f 663 752 452
f 805 452 752
f 846 845 1166
f 846 1166 1158
f 1166 1165 1158
f 1166 848 1165
f 848 1159 1165
f 451 444 1159
f 443 1165 444
f 1165 1159 444
f 1158 1165 443
f 594 1161 1167
f 593 849 1161
f 431 417 418
f 431 418 419
f 419 432 431
f 432 1164 878
f 722 251 1162
f 1162 413 722
f 251 863 1162
f 413 877 414
f 864 1162 863
f 1162 864 866
f 863 708 862
f 864 863 555
f 863 862 555
f 862 461 553
f 412 907 461
f 412 554 907
f 854 856 861
f 856 857 861
f 244 856 854
f 860 693 1173
f 860 859 853
f 853 694 860
f 693 860 694
f 693 855 1173
f 697 1174 405
f 697 855 1174
f 855 697 406
f 406 1173 855
f 860 1173 859
f 859 1173 1171
f 1171 853 859
f 856 244 853
f 853 857 856
f 853 1171 857
f 1258 858 697
f 1258 530 858
f 819 857 530
f 1278 1265 824
f 895 820 823
f 401 823 696
f 686 822 401
f 398 822 686
f 822 400 552
f 822 398 400
f 550 400 821
f 529 821 395
f 529 395 685
f 868 529 685
f 879 868 685
f 685 528 879
f 808 673 804
f 808 393 673
f 808 803 393
f 874 877 527
f 528 803 850
f 1160 674 676
f 786 1160 676
f 786 676 680
f 805 752 806
f 871 787 805
f 871 807 787
f 680 788 786
f 680 679 788
f 679 677 788
f 785 388 782
f 388 390 782
f 783 782 390
f 784 577 571
f 784 783 577
f 236 534 783
f 783 579 577
f 783 534 579
f 660 576 373
f 537 578 930
f 578 537 767
f 571 661 218
f 218 780 571
f 873 782 780
f 873 780 466
f 1157 466 455
f 753 1157 455
f 753 662 452
f 452 662 664
f 164 752 666
f 164 446 752
f 164 669 451
f 446 1159 450
f 446 451 1159
f 444 451 669
f 669 443 444
f 1158 443 668
f 751 1158 668
f 430 846 751
f 846 1158 751
f 430 751 422
f 751 750 422
f 650 730 442
f 442 423 659
f 730 651 441
f 440 441 439
f 442 440 597
f 442 597 423
f 423 425 731
f 423 597 425
f 597 749 425
f 440 439 597
f 653 652 657
f 657 656 653
f 656 523 653
f 656 525 523
f 653 523 161
f 653 161 652
f 657 652 658
f 524 611 651
f 524 525 655
f 587 655 656
f 587 656 633
f 979 633 658
f 979 658 654
f 654 748 941
f 518 635 438
f 608 612 747
f 1154 939 399
f 746 1154 399
f 435 584 746
f 745 742 1152
f 745 492 742
f 607 510 742
f 509 605 741
f 494 1155 1091
f 429 1091 1155
f 357 938 957
f 356 938 357
f 734 932 356
f 932 734 732
f 496 732 734
f 358 935 733
f 1169 358 424
f 424 498 581
f 498 360 581
f 362 581 360
f 1178 580 362
f 1178 428 580
f 428 1168 580
f 428 950 1168
f 428 1177 950
f 426 950 1177
f 426 353 931
f 425 931 353
f 731 425 353
f 731 353 603
f 423 731 354
f 730 440 442
f 659 423 354
f 601 750 659
f 1161 475 1167
f 602 475 1161
f 596 594 1167
f 342 434 600
f 344 434 342
f 344 596 434
f 593 1163 849
f 432 878 1163
f 1163 593 432
f 432 593 431
f 417 431 421
f 729 563 420
f 420 557 729
f 417 421 729
f 421 563 729
f 420 295 556
f 557 420 556
f 557 556 291
f 418 566 419
f 418 417 566
f 728 566 417
f 416 728 417
f 416 261 415
f 262 261 416
f 416 415 728
f 567 728 415
f 415 720 567
f 415 261 720
f 261 252 720
f 720 252 549
f 253 721 549
f 721 720 549
f 727 1263 253
f 253 723 727
f 253 722 723
f 253 548 722
f 722 548 251
f 461 250 1180
f 723 722 414
f 723 414 726
f 722 413 414
f 708 250 461
f 708 251 250
f 251 708 863
f 411 412 461
f 1170 554 412
f 412 411 1170
f 706 1170 411
f 186 953 699
f 699 953 702
f 953 248 702
f 699 702 246
f 246 407 699
f 408 1183 704
f 408 1170 1183
f 704 407 408
f 247 407 246
f 408 316 1170
f 408 407 316
f 698 316 407
f 407 247 698
f 1170 316 178
f 854 554 178
f 178 554 1170
f 244 854 543
f 695 853 436
f 853 695 241
f 853 241 694
f 177 694 174
f 177 173 694
f 694 173 1175
f 1175 693 694
f 234 855 1175
f 693 1175 855
f 1174 855 234
f 238 1174 234
f 405 1174 238
f 405 238 236
f 1173 406 1171
f 697 858 406
f 1171 858 857
f 541 697 540
f 542 541 540
f 542 540 532
f 819 530 824
f 897 819 824
f 671 1172 531
f 823 820 671
f 823 671 672
f 823 672 696
f 688 401 696
f 686 401 688
f 392 686 688
f 398 686 392
f 398 392 397
f 397 393 687
f 803 685 687
f 803 687 393
f 687 395 397
f 398 397 395
f 398 821 400
f 398 395 821
f 687 685 395
f 803 528 685
f 393 397 673
f 397 392 673
f 673 392 688
f 696 670 688
f 671 531 672
f 672 531 675
f 681 696 672
f 670 696 681
f 674 670 681
f 673 688 804
f 804 688 674
f 676 674 681
f 681 672 679
f 679 672 675
f 681 679 680
f 681 680 676
f 679 675 677
f 675 391 677
f 675 531 391
f 388 678 390
f 533 236 678
f 678 783 390
f 678 236 783
f 371 427 576
f 427 373 576
f 367 370 536
f 367 1184 370
f 370 368 536
f 410 372 368
f 537 930 660
f 767 661 578
f 661 767 665
f 665 218 661
f 218 766 780
f 215 766 217
f 766 215 216
f 216 455 766
f 662 455 216
f 662 753 455
f 214 662 168
f 664 662 214
f 1188 664 214
f 663 452 664
f 666 663 1176
f 666 752 663
f 663 664 1176
f 666 1176 503
f 668 526 667
f 669 162 526
f 526 443 669
f 526 668 443
f 751 668 750
f 750 668 667
f 514 650 512
f 650 651 730
f 1185 161 160
f 1185 652 161
f 1185 658 652
f 644 517 519
f 516 654 658
f 657 658 633
f 656 655 525
f 657 633 656
f 516 748 654
f 516 517 748
f 517 644 748
f 639 642 644
f 100 582 639
f 100 518 582
f 518 382 635
f 382 520 635
f 520 363 636
f 363 522 614
f 608 614 522
f 522 612 608
f 522 384 612
f 521 437 747
f 521 939 437
f 521 399 939
f 399 322 746
f 607 742 492
f 323 605 509
f 323 386 605
f 35 738 1231
f 1155 494 493
f 955 1155 493
f 300 957 736
f 355 957 300
f 355 357 957
f 734 356 495
f 495 356 357
f 495 496 734
f 496 497 732
f 358 733 497
f 358 306 424
f 424 306 498
f 1178 1177 428
f 1177 505 1187
f 1187 603 353
f 385 731 603
f 601 659 354
f 1186 422 601
f 475 474 1167
f 474 475 508
f 507 342 600
f 595 341 507
f 341 342 507
f 344 589 596
f 594 596 589
f 589 593 594
f 431 593 589
f 421 431 589
f 344 421 589
f 421 344 343
f 341 343 342
f 595 562 564
f 565 341 564
f 565 343 341
f 344 342 343
f 341 595 564
f 507 467 595
f 490 328 340
f 297 340 485
f 490 467 507
f 490 340 297
f 297 467 490
f 333 334 489
f 334 333 490
f 575 333 573
f 575 490 333
f 575 328 490
f 476 574 1259
f 574 575 573
f 569 328 575
f 575 574 299
f 299 568 575
f 486 298 327
f 327 572 486
f 569 572 327
f 568 572 569
f 575 568 569
f 574 570 299
f 570 962 299
f 572 299 962
f 962 478 572
f 572 478 486
f 572 568 299
f 311 298 479
f 1197 327 298
f 485 327 1197
f 297 558 595
f 595 467 297
f 595 558 562
f 558 484 296
f 470 296 468
f 483 482 481
f 561 481 482
f 561 468 296
f 470 468 469
f 562 296 470
f 562 558 296
f 290 564 562
f 290 565 564
f 565 563 343
f 563 421 343
f 563 565 420
f 565 295 420
f 557 291 262
f 557 416 729
f 416 417 729
f 557 262 416
f 291 556 262
f 556 289 288
f 556 288 1181
f 556 295 289
f 295 290 289
f 472 369 290
f 1181 262 556
f 262 1181 1182
f 544 262 1182
f 261 262 544
f 261 544 545
f 545 252 261
f 546 549 252
f 546 548 549
f 548 253 549
f 250 251 548
f 548 547 250
f 548 546 547
f 1182 1181 471
f 1182 471 465
f 544 1182 457
f 545 544 457
f 545 457 458
f 252 545 458
f 458 464 252
f 249 464 361
f 249 462 1180
f 1180 250 547
f 1180 462 461
f 187 460 182
f 143 453 188
f 699 409 188
f 188 186 699
f 453 953 186
f 179 702 248
f 246 702 179
f 84 247 246
f 246 179 84
f 247 84 1235
f 698 247 1235
f 543 245 244
f 245 853 244
f 695 436 1222
f 134 1222 436
f 174 694 241
f 241 177 174
f 177 241 120
f 969 173 177
f 279 969 177
f 242 175 243
f 371 243 427
f 535 242 243
f 238 233 535
f 233 242 535
f 233 234 1175
f 233 238 234
f 534 236 238
f 405 236 533
f 533 540 405
f 540 697 405
f 540 533 532
f 542 532 531
f 1258 1278 530
f 1278 824 530
f 531 388 391
f 531 532 388
f 532 678 388
f 532 533 678
f 238 535 534
f 535 243 371
f 427 372 373
f 427 169 372
f 536 169 172
f 133 536 172
f 171 1184 346
f 171 170 1184
f 1184 170 370
f 410 368 370
f 660 372 410
f 539 537 660
f 111 539 660
f 537 220 767
f 537 538 220
f 665 767 165
f 218 665 217
f 766 218 217
f 662 216 215
f 215 168 662
f 500 664 1188
f 664 500 1176
f 1176 500 403
f 503 1176 403
f 526 512 667
f 526 511 512
f 526 162 511
f 513 163 158
f 511 513 159
f 511 163 513
f 511 159 512
f 512 159 514
f 514 159 524
f 524 651 514
f 524 159 525
f 525 159 523
f 160 97 1185
f 98 515 97
f 1185 97 515
f 1185 515 516
f 515 517 516
f 515 1193 517
f 1193 519 517
f 519 100 644
f 105 1191 100
f 100 1191 518
f 639 644 100
f 104 522 363
f 384 93 612
f 612 93 491
f 491 747 612
f 747 491 521
f 402 95 491
f 396 521 95
f 396 399 521
f 521 491 95
f 321 607 492
f 321 492 745
f 510 607 1232
f 1232 509 510
f 1232 323 509
f 1231 386 323
f 386 1231 738
f 389 493 494
f 389 60 493
f 736 955 493
f 736 493 394
f 300 736 394
f 358 497 306
f 499 306 497
f 497 496 499
f 302 499 496
f 360 498 501
f 501 362 360
f 362 501 1178
f 377 502 501
f 504 1178 502
f 379 505 504
f 1187 505 379
f 504 502 379
f 385 603 1257
f 381 506 379
f 1257 1255 385
f 422 1186 430
f 602 430 488
f 600 434 334
f 489 334 434
f 1256 434 474
f 474 596 1167
f 474 434 596
f 490 507 600
f 600 334 490
f 489 573 333
f 1256 474 1259
f 474 476 1259
f 474 508 476
f 488 475 602
f 475 487 508
f 475 488 487
f 488 1186 487
f 1186 380 487
f 961 380 383
f 1270 383 1255
f 298 477 479
f 478 150 477
f 1090 150 478
f 960 381 1090
f 478 477 486
f 477 298 486
f 311 1197 298
f 485 569 327
f 485 340 569
f 558 480 484
f 558 297 480
f 296 484 561
f 484 481 561
f 483 481 375
f 483 376 482
f 482 376 148
f 148 376 147
f 148 561 482
f 364 561 148
f 473 561 364
f 468 561 473
f 473 364 468
f 469 468 364
f 472 470 469
f 472 562 470
f 562 472 290
f 1181 288 471
f 288 289 456
f 289 369 456
f 1182 465 457
f 458 457 459
f 457 465 459
f 465 463 459
f 465 471 463
f 471 288 463
f 456 369 366
f 459 463 365
f 458 361 464
f 249 361 146
f 146 462 249
f 146 411 462
f 411 146 706
f 146 1179 706
f 365 359 454
f 359 460 187
f 454 359 187
f 365 454 143
f 145 143 188
f 188 1179 145
f 143 454 453
f 182 449 963
f 187 182 183
f 454 187 453
f 188 453 186
f 1179 188 409
f 409 704 1179
f 1183 706 704
f 1170 706 1183
f 453 187 953
f 187 183 953
f 364 181 449
f 135 180 149
f 180 447 149
f 1203 149 374
f 1203 135 149
f 180 136 447
f 137 448 447
f 448 137 138
f 963 448 1189
f 954 963 1189
f 954 1189 140
f 248 954 140
f 248 140 445
f 179 248 445
f 294 139 134
f 134 436 294
f 134 139 433
f 264 350 968
f 433 264 968
f 433 968 134
f 177 120 274
f 176 121 175
f 176 969 121
f 1175 173 969
f 969 176 1175
f 1175 176 233
f 176 242 233
f 176 175 242
f 243 175 966
f 243 169 427
f 243 966 169
f 966 172 169
f 123 367 133
f 346 367 123
f 346 1184 367
f 170 410 370
f 410 170 339
f 410 339 337
f 111 660 410
f 220 538 404
f 220 404 231
f 767 220 231
f 217 665 165
f 215 217 168
f 166 214 168
f 329 503 403
f 326 164 503
f 164 162 669
f 164 163 162
f 163 511 162
f 523 159 513
f 513 158 523
f 158 161 523
f 158 160 161
f 1193 98 1194
f 1193 73 99
f 99 519 1193
f 99 1192 519
f 519 1192 100
f 1191 1215 518
f 1213 1212 520
f 104 363 1212
f 104 384 522
f 104 103 384
f 103 102 384
f 102 93 384
f 402 491 93
f 94 322 396
f 94 321 322
f 396 322 399
f 435 746 322
f 435 322 745
f 321 745 322
f 1232 607 324
f 61 60 389
f 355 300 301
f 75 300 1228
f 75 301 300
f 495 357 355
f 302 495 320
f 302 496 495
f 302 319 499
f 303 319 309
f 303 499 319
f 306 499 303
f 498 306 308
f 378 498 308
f 378 501 498
f 387 502 377
f 387 379 502
f 377 501 378
f 378 308 157
f 1090 379 387
f 1090 381 379
f 354 731 385
f 385 380 354
f 601 354 380
f 1186 601 380
f 380 385 383
f 1255 383 385
f 387 150 1090
f 387 377 150
f 377 378 150
f 150 378 477
f 378 479 477
f 378 157 479
f 311 152 151
f 152 311 312
f 1197 311 151
f 480 485 1199
f 1199 375 480
f 484 480 375
f 481 484 375
f 147 374 149
f 374 147 315
f 1200 147 376
f 148 147 149
f 149 144 148
f 364 148 144
f 366 469 364
f 369 469 366
f 369 472 469
f 456 366 460
f 458 145 361
f 458 459 145
f 361 1179 146
f 361 145 1179
f 459 143 145
f 459 365 143
f 463 359 365
f 463 288 359
f 288 456 359
f 456 460 359
f 366 449 182
f 366 364 449
f 181 364 144
f 180 55 136
f 55 57 136
f 447 136 137
f 137 305 138
f 448 140 1189
f 448 138 140
f 445 140 304
f 179 445 304
f 1196 179 304
f 84 179 1196
f 854 316 543
f 854 178 316
f 436 245 543
f 245 436 853
f 294 436 292
f 78 293 263
f 78 263 79
f 264 139 79
f 264 79 263
f 292 79 139
f 139 294 292
f 264 433 139
f 350 264 266
f 1226 350 266
f 1226 265 352
f 1226 352 350
f 352 265 268
f 268 271 272
f 268 272 352
f 350 352 351
f 350 351 273
f 118 968 273
f 350 273 968
f 134 968 118
f 118 1222 134
f 1222 241 695
f 241 1222 120
f 275 192 274
f 192 119 177
f 177 119 278
f 121 279 122
f 1190 121 122
f 122 123 1190
f 122 276 123
f 276 122 279
f 967 123 133
f 967 1190 123
f 123 129 117
f 283 132 282
f 130 277 132
f 130 124 1209
f 127 124 130
f 127 130 125
f 116 125 349
f 127 116 258
f 127 125 116
f 128 124 127
f 347 128 127
f 347 127 348
f 347 117 128
f 117 129 1209
f 1209 128 117
f 1209 124 128
f 130 1209 277
f 132 277 211
f 283 1206 132
f 1206 1205 132
f 131 132 1205
f 131 1205 1208
f 131 130 132
f 349 131 260
f 349 130 131
f 349 125 130
f 116 349 267
f 258 116 205
f 348 127 258
f 348 258 259
f 117 347 346
f 347 171 346
f 347 348 171
f 171 348 345
f 170 171 345
f 339 170 345
f 338 339 112
f 339 345 112
f 338 337 339
f 337 111 410
f 336 538 111
f 111 337 336
f 538 110 404
f 538 336 110
f 336 337 110
f 337 115 110
f 257 115 338
f 115 257 109
f 107 404 110
f 110 109 335
f 110 115 109
f 109 257 89
f 89 257 202
f 257 113 202
f 113 114 202
f 254 203 255
f 203 254 114
f 203 114 113
f 335 109 89
f 335 89 189
f 189 106 335
f 108 332 107
f 108 106 189
f 332 108 240
f 107 106 108
f 107 332 231
f 232 231 332
f 231 165 767
f 165 231 229
f 217 165 230
f 230 168 217
f 166 168 230
f 166 230 228
f 331 214 166
f 331 1188 214
f 1188 331 500
f 330 500 225
f 330 403 500
f 329 403 330
f 330 225 97
f 330 326 329
f 326 503 329
f 163 326 158
f 325 158 326
f 160 158 325
f 160 325 330
f 330 97 160
f 97 1194 98
f 225 1194 97
f 1194 225 223
f 1194 73 1193
f 73 72 99
f 72 1192 99
f 72 74 1192
f 74 101 1192
f 1192 101 105
f 1192 105 100
f 105 1215 1191
f 1215 1214 382
f 1214 1213 382
f 1214 156 1213
f 154 103 104
f 154 965 103
f 102 103 965
f 102 153 93
f 153 402 93
f 396 95 1211
f 88 321 94
f 324 607 321
f 87 323 1232
f 87 1231 323
f 586 972 1230
f 493 60 1229
f 1229 394 493
f 1225 320 301
f 320 495 301
f 302 76 1239
f 302 1239 319
f 319 1237 309
f 303 307 306
f 306 307 308
f 308 307 310
f 310 303 312
f 312 311 310
f 157 308 479
f 308 311 479
f 308 310 311
f 313 152 312
f 152 313 314
f 314 315 1200
f 313 315 314
f 152 314 1198
f 485 1197 1199
f 1199 1198 375
f 315 81 1201
f 1201 374 315
f 1201 1203 374
f 1203 1236 135
f 180 135 53
f 53 55 180
f 1202 136 57
f 1202 305 136
f 137 136 305
f 82 138 305
f 140 138 82
f 140 82 304
f 304 82 126
f 1196 304 126
f 316 1235 83
f 316 698 1235
f 316 83 318
f 316 318 543
f 317 436 318
f 1234 317 83
f 1234 80 317
f 1195 317 80
f 78 1195 80
f 292 436 317
f 317 1195 292
f 1195 78 79
f 1195 79 292
f 48 1217 293
f 1217 263 293
f 1217 1218 263
f 1218 266 263
f 266 264 263
f 1224 265 1226
f 1224 287 265
f 265 287 269
f 268 265 269
f 269 287 270
f 287 1219 270
f 271 269 43
f 269 271 268
f 1223 1222 273
f 118 273 1222
f 274 120 275
f 280 279 278
f 278 119 280
f 280 119 41
f 212 279 280
f 276 279 212
f 276 129 123
f 212 129 276
f 212 193 129
f 1209 211 277
f 211 282 132
f 36 281 282
f 1247 36 19
f 19 18 1248
f 18 194 210
f 1244 1248 18
f 1280 1249 195
f 195 1249 1245
f 282 281 1246
f 1246 283 282
f 284 1280 195
f 286 1250 1204
f 1254 1280 284
f 286 1205 1206
f 1205 286 1208
f 286 1204 1208
f 285 1279 1210
f 1208 1204 1252
f 208 197 1279
f 1210 1279 197
f 1207 1253 198
f 92 1253 1207
f 1281 207 198
f 198 1253 1281
f 1253 92 1208
f 131 1208 92
f 260 131 92
f 260 92 1207
f 91 1207 206
f 260 1207 91
f 349 260 267
f 199 91 206
f 199 267 91
f 116 267 200
f 200 205 116
f 258 205 259
f 348 259 112
f 348 112 345
f 257 112 256
f 257 338 112
f 257 256 113
f 256 203 113
f 254 69 114
f 69 202 114
f 89 202 185
f 189 89 184
f 189 184 240
f 108 189 240
f 240 227 332
f 229 231 232
f 229 230 165
f 226 228 229
f 229 232 226
f 222 226 227
f 228 226 224
f 224 166 228
f 224 331 166
f 222 224 226
f 225 500 331
f 223 331 224
f 331 223 225
f 224 222 72
f 227 240 221
f 221 222 227
f 67 221 240
f 72 222 221
f 72 73 1194
f 1194 223 72
f 72 221 74
f 221 67 74
f 101 74 67
f 67 105 101
f 1215 1216 68
f 1216 1215 105
f 68 1214 1215
f 156 1212 1213
f 156 155 1212
f 155 154 1212
f 102 965 204
f 204 153 102
f 204 199 153
f 1211 95 62
f 95 402 62
f 63 62 402
f 153 199 63
f 63 402 153
f 94 1211 88
f 324 321 88
f 324 88 1233
f 88 86 1233
f 85 27 87
f 27 1231 87
f 324 1233 1242
f 1232 324 1242
f 85 87 1232
f 239 586 35
f 972 61 1230
f 972 1220 61
f 1229 1227 1228
f 1229 59 1227
f 1228 141 75
f 1225 75 141
f 301 75 1225
f 76 302 320
f 1239 1237 319
f 1239 1238 1237
f 1239 76 54
f 1201 81 1238
f 1237 1238 81
f 309 1237 81
f 81 313 309
f 53 1236 39
f 53 135 1236
f 55 56 57
f 305 1202 49
f 49 82 305
f 49 126 82
f 1235 1234 83
f 1235 84 1234
f 80 1234 84
f 84 1196 80
f 80 126 50
f 1196 126 80
f 83 317 318
f 50 1240 80
f 1240 78 80
f 25 77 48
f 77 1217 48
f 77 1218 1217
f 77 1224 1218
f 1224 1226 1218
f 1224 1219 287
f 1224 47 1219
f 1219 47 38
f 271 43 1220
f 1220 972 271
f 352 272 1221
f 352 1221 71
f 351 352 71
f 71 273 351
f 1223 273 71
f 272 972 239
f 272 239 190
f 1221 272 70
f 1222 275 120
f 1222 1223 275
f 1223 219 275
f 1223 71 219
f 1221 235 71
f 1221 70 235
f 71 235 237
f 237 219 71
f 219 192 275
f 235 70 191
f 70 272 191
f 272 190 191
f 44 191 45
f 90 213 237
f 237 44 90
f 237 191 44
f 235 191 237
f 192 213 24
f 192 41 119
f 192 24 42
f 42 41 192
f 34 212 33
f 212 34 36
f 36 193 212
f 19 36 34
f 211 193 36
f 36 282 211
f 210 194 209
f 209 1243 210
f 209 196 1243
f 1251 1243 196
f 196 208 1251
f 1251 208 1279
f 197 64 1210
f 64 207 1282
f 206 1207 198
f 62 206 198
f 198 65 62
f 206 62 63
f 267 199 204
f 200 267 204
f 205 200 203
f 205 203 259
f 256 259 203
f 256 112 259
f 200 204 201
f 201 203 200
f 255 203 201
f 254 255 154
f 254 154 155
f 69 254 155
f 184 89 185
f 240 184 67
f 184 185 68
f 202 69 185
f 156 69 155
f 185 156 167
f 185 167 68
f 184 68 67
f 67 1216 105
f 67 68 1216
f 255 965 154
f 255 201 965
f 965 201 204
f 199 206 63
f 1211 86 88
f 15 1242 1233
f 15 27 85
f 43 61 1220
f 40 61 43
f 60 61 142
f 30 59 7
f 1227 59 30
f 1228 1227 51
f 141 1228 51
f 76 1225 52
f 320 1225 76
f 54 76 29
f 1236 1201 54
f 54 1201 1238
f 39 1236 28
f 55 53 56
f 58 57 1241
f 48 58 1241
f 49 58 96
f 126 49 96
f 126 96 50
f 58 1240 96
f 58 48 1240
f 48 293 1240
f 1241 25 48
f 25 26 46
f 47 25 46
f 47 46 38
f 14 38 46
f 1219 38 37
f 270 1219 37
f 269 270 40
f 269 40 43
f 191 190 17
f 191 17 45
f 44 45 90
f 212 280 41
f 41 33 212
f 41 42 33
f 21 42 22
f 21 33 42
f 1272 35 16
f 86 65 66
f 86 1211 65
f 1211 62 65
f 1233 86 66
f 27 35 1231
f 37 31 12
f 11 270 37
f 270 11 40
f 11 61 40
f 11 142 61
f 7 142 11
f 142 7 59
f 8 30 7
f 30 8 5
f 1227 30 51
f 1225 141 13
f 52 1225 13
f 52 29 76
f 28 54 29
f 28 1236 54
f 56 53 9
f 57 56 26
f 26 1241 57
f 1241 26 25
f 239 35 1271
f 190 239 1271
f 45 17 32
f 45 32 20
f 23 45 20
f 90 45 23
f 23 22 90
f 22 213 90
f 24 213 22
f 42 24 22
f 23 21 22
f 18 21 23
f 21 19 33
f 21 18 19
f 18 23 20
f 190 1271 17
f 1272 16 15
f 64 1272 15
f 15 66 64
f 1233 66 15
f 15 16 27
f 16 35 27
f 239 972 586
f 37 38 31
f 38 14 31
f 14 2 31
f 2 5 31
f 5 12 31
f 11 37 12
f 12 7 11
f 7 5 8
f 5 7 12
f 30 5 4
f 6 30 4
f 51 30 6
f 6 141 51
f 29 52 13
f 29 3 28
f 29 13 3
f 39 28 3
f 53 39 9
f 1 46 26
f 46 1 14
f 1 2 14
f 6 13 141
f 6 10 13
f 3 10 9
f 3 13 10
f 3 9 39
f 1 26 56
f 1 9 2
f 2 4 5
f 2 10 4
f 10 6 4
f 56 9 1