v 0.479457 0.296388 -0.037972
v 0.444649 0.301306 -0.139311
v 0.434842 0.285277 -0.191587
v 0.358822 0.395382 -0.194297
v 0.346614 0.234872 -0.314559
v 0.314022 0.136846 -0.367320
v 0.284696 0.218885 -0.354974
v 0.255586 0.293532 -0.335610
v 0.219808 0.310822 -0.337551
v 0.433287 0.437166 0.114785
v 0.298767 0.365334 -0.267151
v 0.339461 0.392250 -0.218864
v 0.381269 0.429131 -0.065958
v 0.360385 0.197553 -0.176494
v 0.415962 0.056379 -0.327951
v 0.348314 0.039894 -0.378097
v 0.368809 0.029032 -0.366610
v 0.318073 0.242995 -0.222851
v 0.319288 0.214343 -0.265466
v 0.210955 0.326022 -0.296486
v 0.203761 0.374356 -0.206293
v 0.307034 0.446375 -0.178545
v 0.317992 0.434981 -0.190455
v 0.533516 0.246151 0.086921
v 0.506202 0.237234 -0.030373
v 0.539147 0.153077 -0.004185
v 0.438227 0.214562 -0.247434
v 0.440557 0.015596 -0.284398
v 0.386735 0.008953 -0.312313
v 0.404551 0.004503 -0.216526
v 0.370218 0.019302 -0.308324
v 0.423254 0.413035 0.015501
v 0.394546 0.392737 -0.113473
v 0.326904 0.306053 -0.288195
v 0.326330 0.126801 -0.370743
v 0.396040 0.294499 -0.242488
v 0.408821 0.314856 -0.211462
v 0.470137 0.384862 0.108802
v 0.503594 0.286462 0.031105
v 0.445164 0.332902 -0.084694
v 0.432029 0.380661 -0.032427
v 0.469093 0.343998 0.012819
v 0.470012 0.262208 -0.117342
v 0.508478 0.309771 0.094544
v 0.358405 0.022337 -0.363557
v 0.339336 0.144642 -0.298507
v 0.399585 0.355971 -0.173752
v 0.378566 0.144453 -0.192045
v 0.346582 0.470780 0.213774
v 0.368625 0.499578 0.244348
v 0.350985 0.499708 0.222219
v 0.441406 0.163194 -0.268866
v 0.467971 0.082928 -0.268344
v 0.415809 -0.009085 -0.210251
v 0.238310 0.283483 -0.338659
v 0.183658 0.343601 -0.320866
v 0.221970 0.371302 -0.166210
v 0.454114 0.037657 -0.022968
v 0.396239 0.186355 -0.072860
v 0.356061 0.237134 -0.121495
v 0.383161 0.512581 0.257857
v 0.383845 0.514653 0.244577
v 0.405196 0.499864 0.233809
v 0.324869 0.372787 0.148700
v 0.304916 0.472628 0.168696
v 0.283572 0.450605 0.168074
v 0.345518 0.429007 -0.156373
v 0.499094 0.353383 0.237177
v 0.354798 0.433412 0.194638
v 0.461501 0.219420 -0.198335
v 0.489397 0.387942 0.240450
v 0.365786 0.078447 -0.285802
v 0.425473 0.455933 0.246640
v 0.435464 -0.007924 -0.118577
v 0.335843 0.341965 0.140468
v 0.283879 0.288707 -0.225944
v 0.552844 0.070349 -0.011367
v 0.519130 0.109575 -0.112575
v 0.311009 0.185654 -0.322035
v 0.271984 0.256515 -0.309663
v 0.241649 0.307628 -0.280345
v 0.246911 0.329997 -0.220298
v 0.253007 0.359965 -0.129379
v 0.251211 0.383679 -0.278061
v 0.294342 0.428269 -0.216397
v 0.327153 0.454320 -0.132142
v 0.541598 0.183575 0.036219
v 0.261496 0.432914 0.144647
v 0.324620 0.358253 0.130185
v 0.447206 0.225092 -0.226288
v 0.355110 0.503920 0.175431
v 0.417071 0.029072 -0.328178
v 0.444644 0.124468 0.040490
v 0.423534 0.057811 -0.128586
v 0.277423 0.378351 -0.003694
v 0.242629 0.404012 -0.022513
v 0.469550 0.027082 -0.276290
v 0.544670 0.233871 0.226894
v 0.565577 0.130169 0.085227
v 0.246749 0.405944 -0.252223
v 0.288045 0.321691 -0.142268
v 0.190389 0.356895 -0.313867
v 0.393334 0.128118 -0.325231
v 0.468859 0.143242 -0.241386
v 0.492771 0.190720 -0.129635
v 0.296700 0.446370 -0.174783
v 0.248560 0.399282 -0.264497
v 0.200045 0.372813 -0.255665
v 0.424406 0.109516 -0.080678
v 0.327590 0.274432 -0.135102
v 0.321964 0.465806 -0.096465
v 0.382275 0.506249 0.181389
v 0.387387 0.455544 0.021075
v 0.245780 0.412198 -0.210728
v 0.351348 0.477404 -0.009208
v 0.553115 0.025800 -0.029603
v 0.551381 -0.008991 -0.040893
v 0.552732 -0.029143 -0.020210
v 0.485574 0.025081 -0.251789
v 0.350430 0.457584 -0.072420
v 0.508568 0.000568 -0.169590
v 0.392140 0.485168 0.128136
v 0.517340 0.320856 0.162369
v 0.528968 0.141689 -0.053336
v 0.458974 -0.032627 -0.056543
v 0.489823 -0.051736 0.086369
v 0.482553 -0.041998 0.104720
v 0.477717 0.014681 0.116707
v 0.406338 0.201684 0.004013
v 0.258411 0.410575 0.061360
v 0.262663 0.441688 0.108955
v 0.394156 0.294837 0.150511
v 0.542999 -0.032148 -0.031326
v 0.500419 -0.028534 0.159933
v 0.484324 0.010402 0.143454
v 0.459501 0.103748 0.119131
v 0.444738 -0.000417 -0.231202
v 0.536088 0.300188 0.224425
v 0.483228 0.151010 -0.198341
v 0.459349 0.434498 0.225291
v 0.398111 0.505537 0.261817
v 0.354478 0.500191 0.109581
v 0.427648 0.472970 0.216976
v 0.303278 0.459140 -0.102237
v 0.355041 0.493157 0.059972
v 0.330450 0.481981 -0.008561
v 0.296064 0.462002 -0.010575
v 0.239305 0.417425 -0.021318
v 0.422669 0.482580 0.257926
v 0.337330 0.320804 0.024221
v 0.554942 0.183451 0.094190
v 0.431016 0.132919 -0.022724
v 0.503374 -0.050468 0.055005
v 0.498122 0.369676 0.199095
v 0.526090 0.048826 0.179210
v 0.517616 -0.059714 0.165606
v 0.436749 0.352564 0.196000
v 0.473448 0.131812 0.152735
v 0.494097 0.094710 -0.206130
v 0.453342 0.158554 0.143517
v 0.462777 0.073836 0.063221
v 0.584007 -0.045208 0.234189
v 0.587489 0.050256 0.147969
v 0.584570 -0.072294 0.201536
v 0.573525 0.048770 0.220010
v 0.596593 0.055427 0.226564
v 0.543662 -0.062665 0.140613
v 0.579188 0.018187 0.091141
v 0.574870 0.164920 0.177745
v 0.567279 0.080543 0.056632
v 0.307801 0.474392 0.109818
v 0.576848 -0.043075 0.088002
v 0.570014 -0.058746 0.111894
v 0.506929 0.021786 -0.196503
v 0.251921 0.427831 0.081822
v 0.474773 -0.017980 0.063195
v 0.549223 0.263043 0.234399
v 0.402202 0.042902 -0.204897
v 0.341402 0.289530 -0.052255
v 0.461827 0.052376 0.028494
v 0.381336 0.101691 -0.227691
v 0.454086 -0.026280 -0.122006
v 0.461811 -0.018724 -0.013610
v 0.489377 0.058199 -0.238117
v 0.477560 0.037100 -0.268738
v 0.572419 0.197088 0.226402
v 0.494342 -0.018614 -0.125553
v 0.241395 0.420554 -0.061066
v 0.279158 0.423213 0.153828
v 0.414726 0.199589 0.057061
v 0.413099 0.230768 0.134924
v 0.319878 0.353327 0.071688
v 0.283208 0.397904 0.109657
v 0.366506 0.309259 0.138771
v 0.552651 0.243236 0.180813
v 0.375603 0.282776 0.112386
v 0.486541 0.222684 0.180839
v 0.490493 -0.053335 0.144060
v 0.433488 0.168110 0.105052
v 0.377259 0.274684 0.076915
v 0.371656 0.270408 0.021413
v 0.588786 0.123143 0.220849
v 0.581784 0.146141 0.236201
v 0.570450 -0.071457 0.216018
v 0.587680 0.096881 0.178567
v 0.589877 -0.031797 0.167868
v 0.586262 -0.069067 0.236433
v 0.593487 0.047734 0.237679
v 0.596911 -0.010677 0.220045
v 0.591124 -0.057415 0.223011
v 0.581848 -0.075888 0.220485
v 0.524651 0.047478 -0.129952
v 0.527447 -0.000719 -0.129203
v 0.339237 0.045110 -0.371550
v 0.291479 0.345197 -0.071548
v 0.341482 0.080934 -0.340902
v 0.541628 -0.047446 0.039581
v 0.584968 -0.059759 0.161804
v 0.543916 -0.045001 0.194783
v 0.594503 -0.026978 0.236741
v 0.571827 -0.017293 0.050447
v 0.358822 0.395382 -0.194297
v 0.314022 0.136846 -0.367320
v 0.284696 0.218885 -0.354974
v 0.284696 0.218885 -0.354974
v 0.255586 0.293532 -0.335610
v 0.219808 0.310822 -0.337551
v 0.348314 0.039894 -0.378097
v 0.368809 0.029032 -0.366610
v 0.368809 0.029032 -0.366610
v 0.203761 0.374356 -0.206293
v 0.307034 0.446375 -0.178545
v 0.317992 0.434981 -0.190455
v 0.386735 0.008953 -0.312313
v 0.326330 0.126801 -0.370743
v 0.408821 0.314856 -0.211462
v 0.358405 0.022337 -0.363557
v 0.368625 0.499578 0.244348
v 0.415809 -0.009085 -0.210251
v 0.183658 0.343601 -0.320866
v 0.183658 0.343601 -0.320866
v 0.183658 0.343601 -0.320866
v 0.383161 0.512581 0.257857
v 0.383161 0.512581 0.257857
v 0.383845 0.514653 0.244577
v 0.383845 0.514653 0.244577
v 0.324869 0.372787 0.148700
v 0.283572 0.450605 0.168074
v 0.335843 0.341965 0.140468
v 0.335843 0.341965 0.140468
v 0.294342 0.428269 -0.216397
v 0.261496 0.432914 0.144647
v 0.261496 0.432914 0.144647
v 0.324620 0.358253 0.130185
v 0.417071 0.029072 -0.328178
v 0.469550 0.027082 -0.276290
v 0.190389 0.356895 -0.313867
v 0.248560 0.399282 -0.264497
v 0.382275 0.506249 0.181389
v 0.485574 0.025081 -0.251789
v 0.485574 0.025081 -0.251789
v 0.485574 0.025081 -0.251789
v 0.458974 -0.032627 -0.056543
v 0.482553 -0.041998 0.104720
v 0.484324 0.010402 0.143454
v 0.398111 0.505537 0.261817
v 0.239305 0.417425 -0.021318
v 0.422669 0.482580 0.257926
v 0.517616 -0.059714 0.165606
v 0.453342 0.158554 0.143517
v 0.584570 -0.072294 0.201536
v 0.506929 0.021786 -0.196503
v 0.251921 0.427831 0.081822
v 0.477560 0.037100 -0.268738
v 0.279158 0.423213 0.153828
v 0.413099 0.230768 0.134924
v 0.413099 0.230768 0.134924
v 0.366506 0.309259 0.138771
v 0.366506 0.309259 0.138771
v 0.490493 -0.053335 0.144060
v 0.490493 -0.053335 0.144060
v 0.490493 -0.053335 0.144060
v 0.581784 0.146141 0.236201
v 0.570450 -0.071457 0.216018
v 0.570450 -0.071457 0.216018
v 0.586262 -0.069067 0.236433
v 0.586262 -0.069067 0.236433
v 0.586262 -0.069067 0.236433
v 0.586262 -0.069067 0.236433
v 0.593487 0.047734 0.237679
v 0.581848 -0.075888 0.220485
v 0.581848 -0.075888 0.220485
v 0.527447 -0.000719 -0.129203
v 0.584968 -0.059759 0.161804
v 0.594503 -0.026978 0.236741
f 3 47 2
f 2 47 40
f 43 1 25
f 43 105 70
f 3 43 70
f 7 8 35
f 33 13 41
f 38 42 32
f 52 36 27
f 46 216 72
f 181 46 72
f 48 46 181
f 31 216 214
f 85 23 12
f 233 86 67
f 233 22 86
f 15 235 103
f 76 18 110
f 22 106 111
f 86 22 111
f 25 151 87
f 25 87 26
f 181 178 94
f 48 181 94
f 49 73 50
f 28 92 97
f 58 180 109
f 83 101 215
f 101 110 179
f 179 215 101
f 154 140 71
f 68 71 73
f 161 180 128
f 93 152 180
f 179 110 60
f 89 196 194
f 192 196 89
f 87 99 26
f 58 94 183
f 176 58 183
f 150 215 179
f 177 203 186
f 121 213 118
f 212 293 174
f 212 117 293
f 272 213 121
f 183 74 125
f 173 211 167
f 211 204 167
f 208 166 203
f 156 284 219
f 202 166 205
f 207 162 284
f 209 220 210
f 220 209 166
f 208 220 166
f 286 210 220
f 218 210 164
f 210 206 209
f 163 166 209
f 290 165 162
f 162 295 290
f 287 295 162
f 285 291 288
f 210 292 164
f 210 289 292
f 173 271 211
f 206 163 209
f 206 210 218
f 163 205 166
f 219 162 165
f 162 219 284
f 203 166 202
f 219 165 155
f 173 294 271
f 163 206 168
f 218 172 206
f 173 167 217
f 118 294 173
f 172 294 118
f 221 206 172
f 168 206 221
f 163 168 170
f 99 163 170
f 151 169 205
f 202 205 169
f 133 173 217
f 133 118 173
f 217 187 133
f 77 170 168
f 205 163 99
f 151 205 99
f 155 165 197
f 158 155 197
f 290 283 165
f 165 283 98
f 191 136 160
f 276 199 136
f 158 134 155
f 134 219 155
f 167 204 269
f 134 156 219
f 153 217 167
f 153 187 217
f 221 172 117
f 172 118 117
f 168 221 116
f 77 168 116
f 186 202 169
f 203 202 186
f 158 197 132
f 270 135 158
f 160 136 265
f 158 135 134
f 198 156 134
f 126 263 153
f 116 221 117
f 197 165 98
f 277 158 132
f 277 270 158
f 199 276 196
f 95 150 192
f 200 150 201
f 190 200 201
f 200 190 196
f 196 190 199
f 128 265 136
f 127 265 128
f 128 176 127
f 269 153 167
f 153 269 126
f 280 264 126
f 127 281 265
f 135 198 134
f 282 126 269
f 137 187 182
f 26 99 170
f 195 186 169
f 278 277 132
f 196 150 200
f 131 188 148
f 188 131 171
f 131 148 175
f 273 96 130
f 130 95 193
f 96 95 130
f 150 179 201
f 129 190 201
f 93 199 190
f 93 136 199
f 183 127 176
f 183 125 127
f 263 126 264
f 263 182 153
f 182 187 153
f 54 125 74
f 263 239 182
f 78 116 212
f 78 77 116
f 212 159 78
f 117 212 116
f 117 118 293
f 133 121 118
f 119 28 97
f 119 121 28
f 260 272 121
f 184 261 185
f 184 174 261
f 159 212 174
f 159 174 184
f 78 159 139
f 151 99 87
f 177 98 283
f 138 177 186
f 138 186 195
f 197 98 157
f 276 194 196
f 196 192 150
f 192 193 95
f 193 89 189
f 189 89 64
f 147 188 171
f 273 267 96
f 95 215 150
f 179 129 201
f 179 59 129
f 180 161 93
f 93 161 136
f 136 161 128
f 180 176 128
f 121 133 187
f 187 28 121
f 255 274 256
f 274 15 53
f 274 262 256
f 184 185 53
f 26 77 124
f 26 170 77
f 138 195 123
f 132 197 157
f 75 254 279
f 193 192 89
f 193 189 88
f 130 193 88
f 88 273 130
f 175 252 131
f 252 66 131
f 66 65 131
f 171 131 65
f 147 171 91
f 83 95 96
f 83 215 95
f 179 60 59
f 190 129 93
f 180 58 176
f 94 74 183
f 74 30 54
f 178 30 74
f 182 239 137
f 28 187 137
f 255 15 274
f 139 159 104
f 105 78 139
f 124 77 78
f 24 169 151
f 247 132 157
f 278 132 247
f 247 249 278
f 64 89 250
f 68 98 177
f 177 138 71
f 71 68 177
f 247 157 69
f 71 138 154
f 157 68 73
f 69 157 73
f 149 73 71
f 49 248 69
f 248 275 69
f 253 275 248
f 275 247 69
f 51 65 66
f 62 91 51
f 62 51 61
f 238 61 51
f 243 141 245
f 245 141 63
f 62 142 91
f 246 112 142
f 142 146 147
f 142 145 146
f 114 147 144
f 144 147 146
f 59 152 129
f 152 93 129
f 152 109 180
f 94 178 74
f 104 184 53
f 104 159 184
f 104 53 52
f 124 78 105
f 157 98 68
f 171 65 91
f 51 91 65
f 50 73 266
f 73 149 266
f 266 244 50
f 268 63 141
f 268 143 63
f 63 143 122
f 245 63 259
f 145 142 112
f 142 147 91
f 146 145 111
f 144 146 111
f 147 114 188
f 267 21 57
f 57 96 267
f 57 83 96
f 60 14 59
f 59 109 152
f 58 109 94
f 29 137 239
f 137 29 28
f 103 53 15
f 52 53 103
f 139 104 90
f 139 90 70
f 195 169 24
f 154 138 123
f 71 140 268
f 66 238 51
f 248 49 50
f 49 69 73
f 10 143 140
f 122 143 10
f 259 63 122
f 145 259 122
f 115 145 122
f 111 145 115
f 113 115 122
f 113 122 10
f 120 115 113
f 120 86 115
f 115 86 111
f 144 111 106
f 56 231 108
f 108 102 56
f 102 114 100
f 102 108 114
f 188 114 108
f 188 231 148
f 82 101 83
f 76 101 82
f 14 48 59
f 48 109 59
f 30 31 54
f 90 104 27
f 70 105 139
f 26 124 105
f 140 154 38
f 143 268 140
f 10 140 38
f 120 67 86
f 144 106 114
f 251 100 22
f 106 22 100
f 100 114 106
f 107 84 257
f 258 102 100
f 231 188 108
f 82 83 57
f 224 80 55
f 19 80 79
f 80 76 81
f 82 81 76
f 101 76 110
f 18 60 110
f 18 14 60
f 181 72 178
f 31 178 72
f 30 178 31
f 48 94 109
f 54 31 234
f 45 28 29
f 27 104 52
f 25 26 105
f 24 151 25
f 24 44 195
f 10 32 113
f 13 120 113
f 13 67 120
f 107 85 84
f 85 12 84
f 85 232 23
f 251 258 100
f 84 11 226
f 9 84 226
f 240 84 9
f 240 257 84
f 241 55 20
f 21 241 20
f 57 21 20
f 57 20 82
f 80 81 20
f 20 55 80
f 80 224 79
f 224 6 79
f 19 18 80
f 76 80 18
f 72 216 31
f 214 237 31
f 237 234 31
f 17 237 16
f 15 228 235
f 15 229 228
f 45 230 92
f 45 92 28
f 229 15 255
f 90 3 70
f 36 90 27
f 44 123 195
f 123 38 154
f 67 13 33
f 32 13 113
f 13 32 41
f 233 67 4
f 222 12 23
f 84 12 11
f 242 227 55
f 20 81 82
f 226 11 34
f 224 55 227
f 9 226 225
f 226 34 5
f 235 226 5
f 79 6 46
f 48 79 46
f 214 223 35
f 6 214 216
f 48 14 19
f 18 19 14
f 35 16 214
f 237 214 16
f 103 5 52
f 5 36 52
f 36 37 90
f 3 90 236
f 39 24 25
f 44 24 39
f 38 123 44
f 32 10 38
f 33 41 40
f 34 36 5
f 235 5 103
f 223 7 35
f 19 79 48
f 46 6 216
f 43 3 2
f 43 25 105
f 40 41 42
f 47 33 40
f 47 67 33
f 4 67 47
f 34 11 36
f 12 222 37
f 36 12 37
f 39 42 44
f 38 44 42
f 32 42 41
f 40 42 1
f 43 2 40
f 47 3 236
f 36 11 12
f 47 236 4
f 40 1 43
f 39 25 1
f 42 39 1