v 0.088124 -0.191784 -0.796007
v -0.084558 -0.202163 -0.799871
v -0.133869 0.091881 -0.854305
v -0.140364 0.068415 -0.861223
v 0.205155 0.045169 -0.824137
v 0.281170 0.039313 -0.714503
v -0.217120 0.135607 -0.705685
v 0.062163 -0.207023 -0.787608
v 0.017258 -0.049200 -0.918714
v 0.254591 0.167328 -0.708489
v 0.265080 0.169074 -0.688656
v -0.140757 0.039636 -0.872089
v -0.145758 0.048175 -0.864811
v 0.174736 -0.145628 -0.785814
v 0.144811 -0.119664 -0.825502
v 0.127082 -0.157011 -0.808718
v 0.015085 0.082111 -0.936914
v 0.022541 0.068639 -0.938718
v 0.141822 0.151140 -0.856228
v -0.103639 0.252369 -0.672381
v -0.022355 -0.029413 -0.926635
v 0.138903 0.196845 -0.819251
v 0.086676 -0.057306 -0.893658
v 0.099933 -0.196218 -0.786192
v 0.148299 0.024110 -0.877740
v -0.241312 -0.048100 -0.779039
v -0.240039 -0.035048 -0.781372
v 0.238434 -0.055914 -0.768322
v 0.126566 0.311194 -0.660636
v -0.107374 0.095919 -0.876520
v -0.175496 -0.156337 -0.784172
v 0.242353 -0.066412 -0.744427
v 0.027930 -0.195436 -0.808832
v -0.043079 -0.180365 -0.825892
v -0.240080 -0.089305 -0.767582
v 0.143861 -0.156311 -0.799424
v -0.187623 -0.153890 -0.790090
v 0.273472 -0.001085 -0.730124
v -0.141759 -0.197449 -0.784628
v -0.126825 -0.201603 -0.788151
v 0.020236 0.273720 -0.741288
v 0.271052 0.153765 -0.690243
v 0.017534 0.250205 -0.782780
v 0.144146 0.285359 -0.665089
v -0.073918 0.097246 -0.902141
v -0.265428 -0.001480 -0.740627
v -0.263456 0.009153 -0.741262
v -0.103231 0.160997 -0.824522
v -0.103581 0.126846 -0.858091
v -0.054972 -0.001864 -0.927013
v -0.111265 0.008238 -0.899797
v 0.013115 0.097692 -0.932410
v 0.262940 -0.020973 -0.730799
v 0.230808 0.067321 -0.790926
v 0.235401 0.198555 -0.679628
v 0.277978 0.072210 -0.705213
v 0.185052 0.282186 -0.655897
v -0.120251 -0.035970 -0.890493
v 0.140671 0.236289 -0.768268
v -0.080511 -0.120801 -0.867322
v 0.281642 0.062727 -0.707845
v 0.048923 -0.206879 -0.792039
v 0.044089 -0.203128 -0.797677
v 0.192067 0.076756 -0.837166
v -0.017753 0.146548 -0.899274
v 0.145181 -0.170742 -0.786388
v 0.166713 0.007920 -0.860030
v 0.131001 0.095318 -0.888594
v 0.150157 0.098341 -0.873027
v 0.134589 -0.141726 -0.816405
v -0.014236 0.066209 -0.938131
v 0.219551 0.185286 -0.695217
v 0.013866 0.319748 -0.642302
v -0.182048 0.172153 -0.712984
v 0.195477 -0.051144 -0.817784
v -0.238615 0.072380 -0.743901
v -0.204617 0.146908 -0.716073
v -0.105371 -0.207759 -0.788235
v -0.029019 -0.133289 -0.866302
v 0.252283 -0.066784 -0.746164
v 0.162114 -0.170876 -0.774005
v -0.202183 0.144313 -0.710192
v 0.053443 -0.024167 -0.920546
v 0.249185 0.201964 -0.671150
v -0.224522 0.100542 -0.740129
v -0.158755 -0.004112 -0.864227
v 0.091412 0.325167 -0.643304
v 0.212527 -0.109434 -0.775225
v 0.093630 -0.035366 -0.899069
v 0.106791 -0.017260 -0.897662
v 0.107210 -0.095976 -0.863097
v 0.216294 -0.128486 -0.758864
v 0.225555 -0.117734 -0.755362
v 0.225494 -0.098056 -0.752151
v 0.189540 -0.079902 -0.811966
v 0.264636 0.144105 -0.687953
v 0.269698 0.163701 -0.682380
v -0.252412 0.082073 -0.714562
v 0.081798 0.298772 -0.699174
v -0.241207 0.005226 -0.754728
v -0.075107 0.278108 -0.659085
v -0.216846 0.005451 -0.770156
v 0.068546 0.303640 -0.691773
v -0.133163 0.121425 -0.832774
v 0.231128 0.130023 -0.770134
v 0.067294 -0.066958 -0.897146
v -0.024259 0.001643 -0.934910
v -0.009265 -0.001128 -0.935892
v 0.031741 0.101210 -0.929931
v -0.002762 0.206975 -0.841281
v 0.269892 0.076690 -0.731474
v 0.275837 0.026596 -0.717335
v 0.131667 -0.188317 -0.776663
v 0.035421 0.325016 -0.645238
v -0.089786 0.121411 -0.775454
v 0.008572 0.001013 -0.936499
v 0.008916 0.018368 -0.939453
v 0.255693 0.164613 -0.684432
v 0.080223 0.254379 -0.774379
v 0.095689 0.285781 -0.718130
v 0.052571 -0.162477 -0.834281
v 0.071857 -0.182991 -0.810148
v -0.038826 0.157691 -0.880104
v -0.118265 -0.196853 -0.788028
v 0.028147 -0.095585 -0.890994
v -0.259204 0.019593 -0.743844
v -0.265253 0.022841 -0.732748
v 0.038370 0.326281 -0.640709
v -0.015688 0.098601 -0.928752
v -0.034402 0.128756 -0.905951
v -0.236250 0.096364 -0.717716
v -0.230565 -0.104893 -0.770053
v -0.197741 0.083074 -0.789681
v 0.121680 -0.189763 -0.782019
v 0.171858 -0.012872 -0.851370
v 0.168236 0.158901 -0.827215
v 0.198937 0.269372 -0.658544
v 0.274402 -0.004685 -0.724957
v -0.015224 -0.063809 -0.912425
v 0.053362 0.284931 -0.726239
v 0.181714 0.285446 -0.657675
v -0.064279 -0.195400 -0.809808
v -0.213325 -0.102830 -0.796221
v 0.189765 -0.104895 -0.799391
v -0.056251 0.145863 -0.880294
v 0.143731 -0.092108 -0.842873
v -0.091614 0.267079 -0.666758
v 0.098926 -0.079276 -0.876713
v 0.268308 -0.018779 -0.728160
v -0.059860 0.288019 -0.659523
v 0.264046 0.179601 -0.678614
v -0.153965 -0.150550 -0.793570
v 0.211010 -0.127928 -0.765487
v -0.168065 -0.179240 -0.781131
v -0.237794 -0.055747 -0.766237
v 0.111714 -0.171852 -0.804181
v 0.067376 0.224977 -0.821848
v 0.021349 -0.149493 -0.851505
v -0.160852 -0.069085 -0.855447
v -0.143412 -0.054500 -0.871737
v -0.199820 0.122118 -0.752010
v -0.058206 0.209974 -0.802818
v -0.180988 0.046562 -0.830474
v -0.177174 0.025017 -0.842359
v -0.042198 -0.139940 -0.815536
v -0.084887 -0.206216 -0.789947
v -0.094201 0.264659 -0.664558
v 0.233159 0.051115 -0.788979
v -0.106835 -0.086341 -0.815268
v -0.118489 0.243517 -0.674059
v 0.189684 0.272712 -0.658920
v -0.046662 0.288975 -0.670881
v 0.106897 0.321056 -0.650282
v -0.054107 0.161646 -0.866688
v -0.065699 0.165995 -0.853566
v 0.220942 0.119182 -0.790029
v 0.215561 0.101587 -0.803622
v -0.236748 0.109483 -0.713199
v -0.184821 -0.048507 -0.839741
v -0.169846 -0.172171 -0.781949
v 0.242911 -0.090225 -0.748515
v 0.184080 -0.148210 -0.764916
v -0.001014 0.223284 -0.819624
v -0.230484 0.052286 -0.767503
v 0.278386 0.087676 -0.712447
v 0.165358 -0.065790 -0.839472
v 0.054154 0.041764 -0.933172
v -0.244808 -0.074259 -0.768292
v -0.251096 -0.062988 -0.761133
v -0.168006 -0.150891 -0.808084
v 0.185028 0.145759 -0.819289
v 0.191158 0.159740 -0.801768
v -0.109022 0.032193 -0.899174
v -0.110458 0.115111 -0.860889
v 0.172576 -0.160584 -0.775381
v 0.235259 0.220348 -0.668754
v 0.244958 0.138671 -0.744638
v 0.231842 0.150514 -0.756281
v -0.249908 0.053493 -0.740485
v 0.022377 -0.013974 -0.931304
v 0.086846 -0.198827 -0.782784
v -0.006930 0.314640 -0.646892
v 0.001998 0.122492 -0.920221
v -0.009415 0.130266 -0.913454
v -0.166132 -0.083556 -0.846604
v -0.091899 0.117812 -0.875584
v 0.225191 0.168277 -0.751069
v -0.224592 0.130027 -0.707592
v 0.254573 0.077088 -0.755629
v -0.250534 -0.050339 -0.758326
v -0.093908 0.213944 -0.760397
v 0.087202 -0.202051 -0.782437
v -0.190446 0.086396 -0.754921
v 0.162405 0.227639 -0.698416
v -0.064847 0.079104 -0.915963
v -0.000024 0.153682 -0.898246
v -0.136204 -0.173842 -0.792106
v 0.001495 0.312621 -0.646951
v 0.167451 0.014252 -0.775974
v 0.274337 0.007984 -0.721702
v -0.048090 -0.208630 -0.792601
v -0.062570 0.045698 -0.925236
v 0.050958 -0.053569 -0.909626
v 0.247145 -0.083661 -0.744263
v -0.068259 -0.012682 -0.920418
v -0.190180 -0.159557 -0.778688
v 0.109918 -0.196121 -0.778626
v 0.205446 0.132350 -0.803301
v 0.034597 0.223258 -0.827800
v 0.089365 0.232275 -0.804146
v 0.107531 0.245274 -0.776816
v -0.177099 -0.169497 -0.786291
v -0.136525 -0.181456 -0.802772
v -0.143395 -0.158654 -0.817525
v -0.152051 -0.175901 -0.799201
v 0.101981 0.185791 -0.855680
v -0.006950 -0.181909 -0.825157
v -0.048993 0.205095 -0.817341
v 0.044504 -0.119154 -0.871127
v 0.270865 0.141985 -0.685874
v 0.228160 -0.112894 -0.750537
v -0.025680 0.050915 -0.808062
v 0.262352 -0.045883 -0.737775
v -0.259469 0.031911 -0.732198
v -0.264168 -0.017115 -0.745597
v -0.235168 -0.064843 -0.783919
v 0.206425 -0.140012 -0.759376
v -0.136983 0.001368 -0.881521
v -0.132360 -0.023651 -0.884381
v -0.232416 -0.006214 -0.787597
v -0.227065 -0.053744 -0.795454
v 0.252199 0.151223 -0.724864
v 0.197144 0.272698 -0.660307
v -0.060538 -0.075995 -0.899039
v -0.035637 0.106391 -0.918725
v 0.222867 -0.122454 -0.753956
v 0.100255 0.209200 -0.829614
v 0.183932 0.129109 -0.830068
v -0.024869 0.307430 -0.649750
v -0.116755 0.241658 -0.685400
v -0.173066 0.186579 -0.703707
v -0.084785 0.179181 -0.821119
v -0.090946 0.228326 -0.739443
v 0.240352 -0.087618 -0.745514
v -0.045168 -0.086133 -0.821868
v -0.178053 -0.060002 -0.796029
v 0.215993 0.234601 -0.670213
v -0.149347 -0.192964 -0.782565
v 0.054202 0.327666 -0.642451
v -0.251505 0.029671 -0.750453
v 0.147621 0.076299 -0.879185
v 0.168038 0.086839 -0.859937
v -0.092593 -0.027516 -0.906936
v -0.072275 0.280714 -0.661257
v -0.059710 0.067974 -0.922414
v 0.038561 0.324430 -0.641407
v 0.033886 -0.206289 -0.789968
v -0.234223 -0.084579 -0.768400
v 0.222864 -0.069105 -0.782239
v 0.052138 0.324091 -0.651158
v 0.162876 -0.026578 -0.855655
v -0.103119 -0.114627 -0.864525
v -0.129844 -0.123679 -0.848081
v 0.117087 0.168568 -0.861718
v -0.159659 0.203115 -0.695703
v 0.180404 0.282743 -0.655912
v -0.143606 0.179762 -0.719128
v -0.086867 0.105751 -0.887701
v 0.191730 0.239466 -0.714500
v -0.014776 -0.210892 -0.794702
v -0.205541 0.035303 -0.807336
v 0.016662 0.322742 -0.640766
v -0.195832 -0.027527 -0.786809
v 0.112111 -0.111995 -0.850284
v 0.141834 0.305101 -0.651223
v 0.166357 0.283643 -0.659539
v 0.150318 -0.179559 -0.771766
v 0.176848 0.182364 -0.798132
v 0.275338 0.139428 -0.686086
v -0.092238 0.001131 -0.911276
v 0.041146 0.315503 -0.666854
v 0.068206 -0.097343 -0.879143
v 0.233372 -0.082802 -0.765025
v 0.262512 -0.034015 -0.741614
v 0.240609 0.160577 -0.695174
v -0.203140 -0.126235 -0.779665
v -0.027039 0.087202 -0.929787
v -0.032480 0.268201 -0.723221
v 0.195353 -0.080993 -0.768884
v -0.093683 0.086197 -0.893158
v 0.206789 0.115194 -0.810074
v 0.030995 0.325675 -0.641538
v -0.260337 -0.023214 -0.752864
v 0.074571 -0.201320 -0.790851
v 0.105916 0.301431 -0.687724
v 0.119188 0.060750 -0.900807
v -0.185277 0.178899 -0.697510
v -0.167470 0.199753 -0.688305
v 0.102927 0.314131 -0.650286
v 0.254648 -0.054008 -0.737597
v -0.215502 0.144717 -0.701189
v 0.256882 0.194882 -0.675086
v -0.171470 0.078009 -0.823794
v -0.144019 0.104053 -0.835297
v 0.000013 -0.195956 -0.811299
v 0.133269 -0.187437 -0.774759
v 0.070989 0.327097 -0.645133
v -0.202369 0.111299 -0.759819
v -0.149613 -0.116285 -0.842163
v 0.129343 0.216426 -0.803022
v -0.018091 0.206417 -0.835217
v -0.169197 0.044578 -0.843705
v 0.042986 0.207258 -0.848226
v 0.093035 0.325056 -0.645085
v 0.271051 0.051847 -0.713984
v -0.162350 0.064170 -0.841640
v -0.160840 -0.025552 -0.862695
v -0.262090 0.036690 -0.731832
v 0.066290 0.055883 -0.928774
v -0.031988 -0.210587 -0.793145
v 0.096577 0.321062 -0.645382
v -0.207016 0.153242 -0.703469
v -0.038320 -0.208569 -0.798021
v -0.176410 -0.034899 -0.848745
v 0.165961 0.296264 -0.652541
v 0.091165 0.166296 -0.877607
v 0.235835 0.228488 -0.669104
v 0.217922 0.194221 -0.735476
v -0.147647 0.217606 -0.687009
v -0.090915 -0.192349 -0.808039
v -0.103917 -0.177816 -0.817690
v -0.141018 -0.193601 -0.783930
v 0.105894 -0.198060 -0.780689
v 0.148815 -0.003078 -0.872729
v -0.104760 0.193213 -0.780324
v -0.114203 -0.140833 -0.843231
v 0.113276 0.143886 -0.880565
v 0.018269 0.215928 -0.835516
v 0.187445 0.205684 -0.760956
v 0.016494 -0.077447 -0.904008
v 0.098039 -0.104230 -0.803595
v 0.019130 0.295378 -0.667964
v 0.070685 0.269748 -0.691278
v 0.148929 -0.036322 -0.863523
v 0.183420 -0.149121 -0.776066
v 0.079025 0.101891 -0.916186
v -0.110159 -0.174237 -0.798497
v -0.211261 0.060708 -0.787469
v -0.006701 0.161578 -0.889902
v 0.094024 0.196502 -0.847845
v -0.221083 -0.088417 -0.775180
v 0.067365 -0.195897 -0.799156
v 0.196309 -0.131612 -0.777320
v 0.154897 -0.105248 -0.827490
v -0.086831 0.142119 -0.860030
v -0.131035 0.136160 -0.821095
v 0.151907 0.179992 -0.825055
v 0.151127 -0.176132 -0.771464
v 0.223144 -0.116317 -0.759793
v -0.103585 0.255882 -0.674685
v -0.171685 -0.166098 -0.793826
v 0.123034 -0.181292 -0.778699
v 0.222267 0.041794 -0.803455
v -0.122691 0.241041 -0.678184
v 0.051744 0.005050 -0.929093
v -0.024603 0.118477 -0.916333
v -0.031451 0.048927 -0.936455
v 0.259793 0.114589 -0.733844
v -0.153124 -0.187436 -0.788233
v -0.141853 0.149949 -0.793671
v 0.006445 0.140784 -0.909217
v 0.270926 -0.019415 -0.730925
v -0.085436 -0.047112 -0.904332
v -0.189162 0.060984 -0.814078
v -0.173117 0.100613 -0.805549
v 0.012153 -0.166422 -0.837941
v 0.148281 0.042608 -0.879353
v 0.135929 0.111118 -0.880225
v -0.198579 0.133281 -0.741201
v 0.090811 -0.125004 -0.851256
v -0.065652 -0.026626 -0.917963
v -0.125742 -0.166329 -0.819702
v 0.280363 0.067653 -0.714387
v -0.098920 0.050753 -0.902492
v 0.050356 -0.207912 -0.787707
v -0.001905 0.104335 -0.928828
v -0.124308 0.204994 -0.738638
v -0.035273 0.204469 -0.827950
v 0.058626 -0.044613 -0.911042
v -0.109413 0.217842 -0.735789
v -0.123520 0.218364 -0.717751
v 0.045210 0.053664 -0.935776
v 0.210365 0.255639 -0.670695
v 0.243761 -0.077331 -0.754058
v 0.190610 -0.002388 -0.835368
v 0.176702 -0.056311 -0.833622
v -0.069995 0.229386 -0.760298
v -0.242582 -0.076045 -0.764411
v 0.116256 0.200059 -0.832044
v -0.017863 -0.156402 -0.847930
v -0.204256 0.010672 -0.817407
v -0.081797 -0.210129 -0.790947
v -0.219493 0.137820 -0.702642
v 0.261230 0.095188 -0.739692
v 0.281882 0.082216 -0.705446
v 0.192207 0.273367 -0.666780
v -0.062453 0.017548 -0.926374
v -0.221561 -0.104787 -0.773612
v 0.239906 0.221908 -0.667275
v 0.092821 0.000829 -0.910437
v -0.180512 -0.088958 -0.832956
v 0.251522 -0.043102 -0.755129
v -0.192812 0.025103 -0.825907
v -0.189736 -0.018084 -0.836767
v -0.202326 -0.144716 -0.782371
v 0.126025 -0.178794 -0.790603
v 0.246932 0.212270 -0.672145
v 0.175224 -0.165138 -0.768049
v 0.019034 0.314757 -0.661428
v 0.020802 0.113398 -0.925835
v -0.089627 0.165265 -0.833391
v -0.263358 0.042148 -0.726223
v 0.056202 0.253617 -0.780867
v 0.194607 0.022149 -0.834532
v 0.173863 0.285034 -0.668335
v -0.182303 0.158323 -0.731904
v 0.070886 -0.040029 -0.908161
v 0.070131 0.280242 -0.733952
v 0.121017 -0.086197 -0.860799
v 0.214668 0.150801 -0.779686
v -0.110141 -0.045979 -0.893730
v -0.013808 0.018483 -0.938893
v -0.021844 0.031730 -0.938864
v 0.001082 0.175541 -0.878500
v 0.000882 0.260047 -0.759261
v 0.075557 0.148339 -0.896048
v -0.222838 0.125550 -0.716187
v 0.055913 -0.140984 -0.851354
v -0.153088 -0.176509 -0.786013
v 0.258853 0.183760 -0.685751
v 0.242944 0.191290 -0.703353
v 0.065975 0.120148 -0.914274
v -0.059184 -0.041869 -0.914930
v 0.049509 0.155631 -0.897842
v -0.073156 0.000453 -0.920580
v -0.040454 0.011075 -0.933133
v -0.049541 0.037846 -0.931417
v 0.134812 0.311546 -0.653560
v 0.111050 0.275703 -0.727811
v 0.278121 0.051206 -0.710838
v 0.161061 -0.141284 -0.799241
v -0.001049 -0.052176 -0.918553
v -0.003798 -0.034260 -0.926199
v 0.203032 -0.084099 -0.797343
v -0.042534 0.279100 -0.693970
v -0.120217 0.156661 -0.811099
v 0.179703 0.264066 -0.668071
v 0.034984 0.318169 -0.646796
v -0.146071 -0.133750 -0.833508
v -0.088685 -0.083937 -0.886931
v 0.027453 -0.182771 -0.821138
v 0.076660 0.013270 -0.921006
v 0.140126 -0.181409 -0.779483
v -0.085098 0.207308 -0.780827
v -0.079100 0.244766 -0.723359
v -0.110630 -0.204736 -0.790691
v 0.081674 0.323853 -0.651694
v 0.278293 0.094011 -0.698597
v -0.196117 0.168377 -0.696303
v 0.158858 -0.157533 -0.788478
v -0.022877 0.159870 -0.885696
v -0.031399 0.175109 -0.866140
v 0.267545 0.167937 -0.678905
v -0.200161 -0.054460 -0.824152
v -0.202148 -0.037549 -0.824085
v 0.027875 -0.209955 -0.791978
v -0.248820 -0.063731 -0.765838
v -0.006211 0.306397 -0.665750
v 0.104983 -0.184640 -0.795660
v 0.253067 0.181837 -0.678142
v 0.000495 0.079970 -0.937272
v -0.136332 0.225744 -0.688537
v 0.002742 0.063242 -0.940252
v 0.123627 0.313246 -0.648696
v 0.018855 0.163704 -0.892454
v 0.020619 0.177944 -0.879574
v -0.193886 -0.070615 -0.826799
v -0.189591 -0.099091 -0.820900
v 0.171230 -0.165944 -0.767505
v -0.056501 0.098828 -0.912318
v -0.256802 0.039559 -0.738396
v -0.217292 -0.128935 -0.775423
v -0.228833 -0.107594 -0.775528
v 0.272929 0.024914 -0.733032
v 0.281027 0.104939 -0.697476
v 0.278388 0.111129 -0.702109
v 0.255216 0.057011 -0.758060
v 0.265412 0.155290 -0.699998
v 0.217022 -0.128711 -0.754662
v -0.009974 0.312149 -0.645006
v 0.107097 0.099692 -0.902707
v 0.003345 0.035847 -0.941166
v 0.001322 -0.064250 -0.912526
v 0.043676 0.296006 -0.704657
v 0.003726 0.249801 -0.778869
v 0.018819 0.295877 -0.698564
v -0.157114 -0.042027 -0.864065
v -0.159125 0.206223 -0.686647
v -0.253185 0.063866 -0.722446
v 0.090549 0.180846 -0.865662
v -0.072972 0.200581 -0.803313
v -0.200781 -0.131200 -0.793731
v -0.006199 0.290212 -0.697924
v -0.161023 -0.136483 -0.822608
v -0.087911 0.258592 -0.688211
v -0.079116 -0.199496 -0.793342
v -0.000913 0.193446 -0.858669
v 0.029296 0.001405 -0.934101
v 0.037614 -0.016444 -0.927598
v 0.133137 0.178732 -0.842009
v 0.150142 0.213269 -0.790822
v 0.017148 -0.209983 -0.791299
v 0.072833 -0.010544 -0.917202
v -0.260806 -0.033579 -0.751537
v -0.259757 -0.004006 -0.750477
v -0.011235 -0.080517 -0.903398
v -0.154589 0.207361 -0.687980
v 0.186528 0.255528 -0.699152
v -0.044085 -0.031072 -0.922516
v 0.027313 -0.121288 -0.872995
v -0.256024 0.067354 -0.718769
v -0.147217 -0.074610 -0.863273
v 0.006749 0.236623 -0.802224
v 0.164435 -0.087181 -0.830065
v 0.137984 -0.063208 -0.861060
v -0.188995 0.169280 -0.699192
v 0.210012 0.080944 -0.815589
v -0.262694 -0.017880 -0.745838
v 0.268626 0.010344 -0.723740
v 0.034141 0.251304 -0.784191
v -0.264031 -0.005306 -0.744374
v -0.072130 -0.163984 -0.836486
v -0.215901 0.123765 -0.728321
v 0.235482 0.014119 -0.784808
v 0.248559 -0.078046 -0.742218
v 0.091046 0.135166 -0.897058
v 0.003369 -0.204264 -0.802391
v -0.074665 0.055385 -0.917201
v 0.090690 -0.155068 -0.796212
v 0.210365 0.258262 -0.661143
v 0.227191 0.238639 -0.664753
v -0.104057 0.178309 -0.802063
v -0.194304 -0.121955 -0.805302
v -0.089466 0.191116 -0.800274
v 0.152276 0.259084 -0.725871
v 0.122090 0.187585 -0.841627
v 0.094439 0.119087 -0.902812
v -0.129218 0.032969 -0.883496
v -0.190584 0.004053 -0.833651
v 0.065326 0.316359 -0.667869
v 0.131324 -0.010530 -0.883781
v -0.233367 0.118817 -0.706624
v 0.272518 0.093984 -0.701284
v 0.039633 0.185079 -0.872872
v -0.219535 0.013168 -0.798425
v 0.084137 -0.145711 -0.838060
v -0.220132 -0.020995 -0.804710
v -0.032912 -0.083496 -0.899838
v -0.036325 0.301179 -0.649262
v -0.032754 0.198237 -0.740815
v -0.082656 0.025733 -0.916754
v 0.062494 0.309329 -0.657002
v -0.007712 0.088185 -0.934062
v -0.137234 -0.193445 -0.791669
v 0.239996 0.218546 -0.677238
v 0.190878 -0.149927 -0.768454
v -0.167908 0.150748 -0.760449
v -0.153055 0.194479 -0.718498
v 0.221563 0.239454 -0.665405
v -0.163100 -0.107157 -0.838340
v -0.094619 -0.013438 -0.908568
v -0.175919 0.004307 -0.848034
v 0.001842 -0.020377 -0.930901
v -0.182963 -0.141916 -0.802819
v 0.157437 -0.176044 -0.771914
v 0.162930 0.297092 -0.657759
v 0.134814 0.131054 -0.872759
v -0.259293 0.061364 -0.720193
v 0.205442 -0.138501 -0.763159
v 0.200316 0.165990 -0.785995
v 0.267722 -0.001813 -0.739748
v 0.280125 0.040354 -0.719002
v 0.179407 0.012076 -0.848977
v 0.263829 -0.038672 -0.732429
v 0.238192 0.210575 -0.671943
v 0.038814 -0.170137 -0.830677
v -0.234835 0.019829 -0.776464
v -0.162934 -0.184281 -0.783204
v 0.131305 0.022927 -0.890243
v 0.151167 0.305236 -0.651616
v 0.209209 -0.008129 -0.814050
v 0.278192 0.127316 -0.691658
v -0.063439 0.284274 -0.657087
v 0.227747 0.235474 -0.673913
v -0.006607 0.315300 -0.643663
v 0.177124 -0.121545 -0.800369
v 0.053759 0.270708 -0.751833
v -0.118425 0.076814 -0.877160
v 0.272322 0.103727 -0.717654
v 0.251466 0.116719 -0.706453
v 0.282131 0.059003 -0.711316
v -0.215250 0.074892 -0.773490
v -0.176464 -0.117221 -0.822982
v 0.177465 0.268001 -0.690780
v -0.085775 0.248675 -0.684863
v 0.167796 0.031444 -0.861937
v -0.064844 -0.095712 -0.886979
v 0.214558 -0.122511 -0.755286
v 0.067890 0.327465 -0.641609
v -0.124702 -0.203783 -0.786114
v 0.258081 -0.038949 -0.734917
v -0.249808 0.072986 -0.727283
v -0.073368 0.181586 -0.828571
v -0.015024 -0.044936 -0.921373
v 0.231077 -0.103418 -0.757693
v 0.097603 0.317340 -0.661350
v 0.034849 0.082414 -0.934658
v -0.123322 -0.203244 -0.785096
v -0.017864 0.262823 -0.743739
v -0.104157 0.242837 -0.698636
v 0.277719 0.017959 -0.723693
v -0.015217 0.050119 -0.939761
v 0.035548 0.270167 -0.751338
v -0.092558 0.036614 -0.909740
v 0.031367 0.159823 -0.896167
v 0.010636 -0.098105 -0.891590
v 0.127370 0.148496 -0.868686
v -0.024486 0.291793 -0.683155
v 0.146308 0.059414 -0.881334
v 0.228036 0.224100 -0.688221
v 0.240299 0.108134 -0.767184
v 0.090419 -0.168870 -0.816158
v 0.071795 -0.158820 -0.831688
v 0.051254 0.220892 -0.830360
v -0.214124 0.142064 -0.708347
v -0.235695 0.055979 -0.740119
v -0.012286 0.249283 -0.772069
v -0.233528 0.106413 -0.721561
v 0.060740 0.029111 -0.929964
v 0.086289 -0.202817 -0.783966
v -0.061844 0.223640 -0.777911
v -0.237186 -0.023086 -0.784321
v 0.132576 0.285709 -0.699687
v 0.200305 0.261510 -0.661721
v 0.066078 -0.076484 -0.813102
v 0.047787 -0.190881 -0.809419
v -0.214744 -0.124239 -0.774874
v -0.015649 0.237532 -0.790127
v -0.089882 -0.206937 -0.793670
v -0.131253 -0.099509 -0.861385
v 0.014281 0.321660 -0.643618
v 0.119805 0.305516 -0.674278
v 0.178713 0.071918 -0.852038
v -0.079894 -0.062282 -0.900228
v -0.134156 0.172135 -0.774972
v 0.188730 -0.155129 -0.764866
v -0.081724 0.275277 -0.660136
v 0.215647 -0.091387 -0.781075
v 0.092485 -0.097857 -0.869062
v 0.118435 0.229961 -0.792227
v 0.117909 0.127511 -0.885787
v 0.027102 0.024987 -0.938395
v 0.190121 0.107235 -0.832169
v 0.116170 0.080521 -0.901270
v -0.232455 -0.104897 -0.770631
v -0.154751 -0.094526 -0.850213
v 0.010275 -0.175123 -0.804113
v -0.264367 0.014305 -0.735445
v -0.250935 -0.010299 -0.764170
v 0.001778 0.276275 -0.729258
v -0.183278 0.083262 -0.806934
v 0.038128 0.138895 -0.910836
v -0.097366 -0.208249 -0.787836
v 0.160123 0.195495 -0.802062
v -0.256173 -0.042876 -0.758915
v -0.244748 0.098641 -0.711182
v -0.083812 0.158725 -0.846116
v 0.231125 0.088458 -0.786519
v -0.114531 -0.099128 -0.869235
v 0.257728 -0.004485 -0.732236
v -0.202770 -0.008213 -0.822733
v 0.145911 0.307432 -0.649951
v 0.190194 -0.152989 -0.762854
v 0.274650 0.145973 -0.686767
v -0.041752 0.030539 -0.934119
v -0.262516 0.042589 -0.725750
v 0.039815 -0.078266 -0.899361
v 0.159234 0.231091 -0.759465
v -0.119723 -0.191402 -0.800847
v 0.165471 0.142495 -0.841315
v 0.025133 0.049805 -0.939808
v 0.281196 0.089379 -0.700264
v 0.212212 0.243505 -0.685204
v 0.159250 0.128019 -0.854564
v -0.134537 0.220116 -0.700886
v 0.250865 0.204883 -0.670309
v -0.130460 -0.064076 -0.877123
v 0.072617 0.241010 -0.797556
v -0.219351 -0.124226 -0.773470
v 0.191685 -0.149232 -0.762068
v -0.226060 -0.094318 -0.785563
v 0.020227 0.234430 -0.809457
v 0.208180 -0.136783 -0.757208
v -0.127922 0.224855 -0.687121
v 0.040831 0.122371 -0.919550
v -0.118715 -0.074199 -0.879435
v -0.255609 0.068967 -0.721141
v -0.007039 -0.006068 -0.818422
v -0.032357 0.304788 -0.647636
v 0.263723 -0.044266 -0.734373
v -0.049602 0.246532 -0.749438
v -0.056568 0.184155 -0.839378
v 0.050572 0.134924 -0.911195
v -0.196577 0.163496 -0.704638
v -0.040844 0.300056 -0.651877
v -0.073549 -0.183054 -0.800801
v 0.265982 0.133749 -0.713289
v 0.276449 0.112613 -0.693387
v 0.013359 0.194785 -0.860476
v -0.067372 0.278009 -0.672871
v 0.039879 -0.145706 -0.851458
v 0.171782 0.109199 -0.850563
v 0.205015 0.174156 -0.772708
v -0.032467 0.221989 -0.804353
v -0.040450 0.233415 -0.780211
v 0.065319 -0.194211 -0.789079
v 0.119854 -0.127906 -0.835061
v 0.036129 0.235676 -0.809771
v -0.258361 -0.012296 -0.746917
v 0.256569 -0.011472 -0.754285
v 0.198711 0.259106 -0.680652
v 0.151098 0.298617 -0.666148
v -0.069064 0.118330 -0.892991
v -0.239596 -0.079482 -0.774081
v 0.089387 0.043854 -0.918268
v -0.081845 0.072723 -0.907475
v 0.065133 0.190758 -0.863796
v 0.164631 0.293145 -0.653914
v -0.099959 -0.150047 -0.841168
v 0.079538 0.319363 -0.647337
v 0.116462 -0.061753 -0.875592
v 0.019570 -0.208267 -0.796013
v 0.255994 -0.063665 -0.739532
v -0.223592 -0.035389 -0.801070
v -0.041312 -0.013912 -0.928175
v 0.001069 -0.203218 -0.794305
v 0.071230 0.200286 -0.738214
v 0.261990 0.022328 -0.749570
v 0.255328 0.061801 -0.720998
v -0.111334 0.059047 -0.890464
v -0.029401 -0.193967 -0.813838
v -0.156162 0.196840 -0.696669
v -0.218373 -0.005262 -0.804685
v 0.253616 -0.064064 -0.739104
v -0.206157 -0.141452 -0.776428
v -0.007335 -0.096421 -0.893530
v 0.167300 0.065373 -0.863254
v -0.246643 -0.005244 -0.753528
v -0.240421 0.105188 -0.709238
v 0.038856 -0.040544 -0.918676
v -0.137414 0.181820 -0.757410
v 0.118836 0.318100 -0.646818
v -0.191405 -0.153019 -0.779126
v -0.045971 0.088896 -0.922099
v -0.205967 0.097965 -0.767357
v -0.171672 0.193190 -0.694697
v -0.213877 -0.076727 -0.805031
v 0.142706 0.166220 -0.844978
v 0.260215 0.187601 -0.673833
v 0.186651 0.052839 -0.844795
v 0.050392 -0.101592 -0.881987
v -0.015462 0.223392 -0.812694
v -0.056217 -0.210823 -0.793387
v 0.269797 -0.025554 -0.729523
v -0.014775 0.185850 -0.862124
v 0.108651 -0.150585 -0.823477
v 0.192600 0.237535 -0.679569
v 0.273942 0.135363 -0.697513
v 0.126056 -0.039062 -0.878641
v -0.008504 -0.117233 -0.879063
v 0.164102 -0.147511 -0.773437
v -0.057234 0.291251 -0.653318
v 0.040243 0.031240 -0.936405
v -0.158529 0.020374 -0.861159
v 0.235946 -0.103328 -0.749304
v 0.238786 -0.019578 -0.776317
v 0.070397 0.205140 -0.846241
v 0.153270 0.287769 -0.682104
v 0.115370 0.264814 -0.742704
v 0.036835 -0.061122 -0.909587
v 0.068601 0.324789 -0.642930
v -0.250137 -0.035567 -0.768168
v -0.035037 0.298469 -0.652114
v 0.122982 0.302209 -0.657194
v 0.069132 0.264314 -0.761526
v -0.044123 0.183325 -0.849003
v 0.130054 -0.104599 -0.844695
v -0.031821 -0.107167 -0.885068
v -0.252151 -0.056860 -0.758632
v 0.068322 -0.118722 -0.864512
v 0.052865 0.073462 -0.931708
v -0.049305 -0.203461 -0.803208
v -0.202151 -0.098941 -0.809237
v -0.053032 0.280470 -0.665240
v -0.025164 0.304011 -0.657398
v -0.243363 -0.062083 -0.774137
v -0.217154 -0.120920 -0.782562
v -0.135119 0.223521 -0.684269
v 0.102839 0.151784 -0.881814
v 0.053834 0.238230 -0.805339
v -0.106255 0.256529 -0.668150
v 0.266302 0.059656 -0.741158
v 0.214817 0.211319 -0.683960
v -0.073237 -0.210374 -0.790520
v 0.195229 -0.032928 -0.769058
v -0.081196 0.271198 -0.671254
v -0.041246 0.065482 -0.930942
v -0.200069 0.162127 -0.697750
v -0.062706 0.271773 -0.689681
v -0.071052 -0.135859 -0.858866
v 0.005554 -0.127923 -0.870452
v 0.248104 0.178423 -0.708540
v 0.260853 0.176071 -0.677205
v -0.060730 0.253717 -0.725707
v -0.246217 0.090282 -0.717922
v 0.113334 0.013349 -0.900871
v 0.278711 0.020274 -0.718957
v 0.226918 -0.109786 -0.750701
v 0.202525 -0.136058 -0.759055
v -0.213947 -0.055238 -0.809828
v -0.178473 0.114690 -0.786749
v -0.253733 -0.022904 -0.762499
v -0.048973 0.293466 -0.659145
v 0.276214 0.059719 -0.724499
v -0.140842 -0.088621 -0.861532
v 0.206186 -0.037530 -0.810615
v 0.023566 -0.033120 -0.924726
v -0.053762 0.114496 -0.905250
v 0.096528 0.021739 -0.912340
v -0.041052 -0.055299 -0.913286
v 0.216576 0.251883 -0.665567
v -0.175223 -0.064480 -0.845154
v -0.077613 0.133696 -0.875077
v -0.072491 0.150848 -0.863946
v -0.250585 0.009544 -0.759190
v -0.055956 0.131328 -0.892423
v -0.185072 -0.165958 -0.780840
v -0.222816 0.086957 -0.754410
v 0.185372 -0.034974 -0.832902
v 0.279868 0.110845 -0.693760
v 0.084436 0.069181 -0.919991
v 0.070639 0.171742 -0.880638
v 0.211611 0.224008 -0.709897
v -0.198855 0.121416 -0.729497
v 0.029923 0.202719 -0.853634
v 0.009534 0.317665 -0.650825
v 0.053507 0.100576 -0.925542
v -0.106584 0.141411 -0.841980
v 0.022308 0.138940 -0.911390
v 0.086593 0.086696 -0.916574
v 0.050615 0.170573 -0.885856
v 0.056671 -0.014873 -0.812207
v -0.238804 0.101714 -0.712346
v 0.273575 0.041137 -0.731548
v 0.126296 0.251925 -0.755941
v -0.035618 0.141021 -0.896285
v 0.249314 0.201041 -0.683012
v -0.032421 0.248103 -0.760826
v 0.121751 -0.188880 -0.776884
v 0.112855 0.039733 -0.904565
v -0.239391 0.089522 -0.729080
v -0.249483 -0.046408 -0.768576
v -0.135097 0.231059 -0.678472
v 0.169200 0.216669 -0.768329
v 0.228292 -0.034445 -0.786320
v -0.258580 0.053775 -0.727468
v 0.181103 0.149270 -0.730718
v -0.200555 -0.150323 -0.778363
v -0.115399 -0.199613 -0.794543
v 0.281170 0.039313 -0.714503
v -0.240080 -0.089305 -0.767582
v -0.265428 -0.001480 -0.740627
v 0.185052 0.282186 -0.655897
v 0.281642 0.062727 -0.707845
v -0.105371 -0.207759 -0.788235
v 0.091412 0.325167 -0.643304
v -0.252412 0.082073 -0.714562
v 0.131667 -0.188317 -0.776663
v -0.265253 0.022841 -0.732748
v 0.038370 0.326281 -0.640709
v 0.038370 0.326281 -0.640709
v 0.038370 0.326281 -0.640709
v -0.236250 0.096364 -0.717716
v 0.198937 0.269372 -0.658544
v 0.274402 -0.004685 -0.724957
v -0.251096 -0.062988 -0.761133
v 0.247145 -0.083661 -0.744263
v -0.264168 -0.017115 -0.745597
v -0.014776 -0.210892 -0.794702
v 0.016662 0.322742 -0.640766
v 0.016662 0.322742 -0.640766
v 0.275338 0.139428 -0.686086
v 0.030995 0.325675 -0.641538
v -0.167470 0.199753 -0.688305
v -0.215502 0.144717 -0.701189
v 0.165961 0.296264 -0.652541
v 0.165961 0.296264 -0.652541
v 0.105894 -0.198060 -0.780689
v -0.081797 -0.210129 -0.790947
v 0.239906 0.221908 -0.667275
v 0.175224 -0.165138 -0.768049
v -0.263358 0.042148 -0.726223
v -0.196117 0.168377 -0.696303
v 0.267545 0.167937 -0.678905
v -0.217292 -0.128935 -0.775423
v -0.260806 -0.033579 -0.751537
v 0.210365 0.258262 -0.661143
v 0.227191 0.238639 -0.664753
v -0.233367 0.118817 -0.706624
v 0.157437 -0.176044 -0.771914
v -0.259293 0.061364 -0.720193
v -0.006607 0.315300 -0.643663
v 0.067890 0.327465 -0.641609
v -0.124702 -0.203783 -0.786114
v 0.086289 -0.202817 -0.783966
v 0.188730 -0.155129 -0.764866
v -0.081724 0.275277 -0.660136
v -0.232455 -0.104897 -0.770631
v -0.244748 0.098641 -0.711182
v 0.145911 0.307432 -0.649951
v 0.281196 0.089379 -0.700264
v 0.250865 0.204883 -0.670309
v -0.032357 0.304788 -0.647636
v 0.263723 -0.044266 -0.734373
v 0.255994 -0.063665 -0.739532
v -0.240421 0.105188 -0.709238
v 0.118836 0.318100 -0.646818
v 0.260215 0.187601 -0.673833
v -0.056217 -0.210823 -0.793387
v 0.269797 -0.025554 -0.729523
v -0.057234 0.291251 -0.653318
v 0.235946 -0.103328 -0.749304
v -0.106255 0.256529 -0.668150
v 0.278711 0.020274 -0.718957
v -0.185072 -0.165958 -0.780840
v 0.279868 0.110845 -0.693760
v -0.238804 0.101714 -0.712346
v -0.135097 0.231059 -0.678472
v -0.200555 -0.150323 -0.778363
f 305 96 118
f 583 56 488
f 618 39 268
f 899 382 201
f 166 124 703
f 618 154 877
f 722 488 56
f 353 212 670
f 98 789 706
f 214 44 824
f 695 512 132
f 880 299 748
f 478 770 821
f 226 785 908
f 542 496 405
f 78 422 703
f 305 500 55
f 470 56 335
f 843 267 807
f 221 536 166
f 623 101 834
f 893 7 789
f 899 378 382
f 556 547 528
f 378 297 509
f 309 811 94
f 478 73 218
f 713 509 686
f 730 859 182
f 853 96 240
f 7 82 556
f 210 759 558
f 196 84 429
f 152 169 266
f 196 429 599
f 547 782 734
f 418 35 132
f 371 306 266
f 565 773 784
f 639 128 276
f 31 180 152
f 101 687 167
f 362 834 590
f 907 777 115
f 180 459 152
f 733 859 730
f 82 7 884
f 100 666 788
f 292 625 73
f 823 218 520
f 500 305 118
f 811 382 378
f 276 821 639
f 166 844 221
f 571 570 599
f 132 278 418
f 149 559 710
f 639 821 87
f 293 102 788
f 779 583 630
f 784 320 32
f 589 812 623
f 716 551 608
f 201 382 756
f 240 748 299
f 677 306 428
f 703 422 844
f 224 773 565
f 306 371 428
f 137 57 171
f 824 44 296
f 635 590 834
f 256 241 519
f 777 907 214
f 361 569 811
f 493 240 299
f 137 674 570
f 352 180 154
f 240 493 853
f 341 821 770
f 843 907 72
f 843 615 196
f 459 217 152
f 201 212 227
f 218 73 520
f 265 165 675
f 218 834 362
f 127 46 698
f 286 768 296
f 84 615 500
f 442 127 716
f 320 740 614
f 583 335 56
f 171 674 137
f 6 112 857
f 792 504 712
f 326 113 297
f 20 167 170
f 488 748 583
f 547 838 528
f 712 295 768
f 478 218 362
f 94 858 264
f 641 32 320
f 477 807 267
f 72 305 55
f 966 131 977
f 726 84 799
f 748 488 880
f 268 154 618
f 834 823 623
f 733 730 247
f 811 378 509
f 155 278 371
f 363 592 362
f 371 266 155
f 789 423 582
f 478 276 73
f 100 102 666
f 504 341 319
f 589 823 520
f 734 170 838
f 227 326 899
f 220 857 112
f 8 405 496
f 703 844 166
f 697 165 746
f 903 318 528
f 558 544 829
f 240 630 583
f 363 824 592
f 784 740 320
f 559 470 335
f 569 756 382
f 305 72 907
f 542 277 776
f 666 242 213
f 213 923 666
f 675 892 265
f 286 171 57
f 220 149 138
f 703 648 78
f 789 551 923
f 528 848 556
f 777 590 115
f 675 219 892
f 256 815 241
f 227 113 326
f 519 241 638
f 556 782 547
f 319 770 592
f 630 907 242
f 768 286 57
f 793 31 306
f 152 266 306
f 189 35 418
f 296 214 477
f 362 590 363
f 189 829 544
f 98 551 789
f 729 512 785
f 565 784 264
f 509 730 182
f 367 124 746
f 666 102 242
f 53 710 641
f 730 713 247
f 648 352 268
f 214 824 363
f 625 520 73
f 361 845 675
f 438 509 605
f 892 219 242
f 165 152 367
f 857 220 138
f 504 824 295
f 217 459 124
f 884 213 115
f 739 812 589
f 264 241 815
f 214 363 777
f 61 470 6
f 321 848 489
f 784 32 264
f 528 170 903
f 697 536 776
f 788 759 155
f 8 670 212
f 265 266 169
f 686 247 713
f 556 848 7
f 512 908 785
f 182 859 811
f 112 559 220
f 565 264 224
f 221 803 340
f 405 277 542
f 923 884 7
f 698 46 558
f 848 321 423
f 213 242 115
f 845 309 710
f 630 96 305
f 571 599 429
f 843 72 55
f 841 170 167
f 558 829 210
f 738 242 266
f 730 509 713
f 843 55 615
f 115 590 287
f 712 768 345
f 113 227 353
f 677 132 729
f 582 423 321
f 422 803 844
f 804 149 614
f 341 504 792
f 551 716 244
f 297 605 509
f 799 84 853
f 276 292 73
f 226 877 154
f 94 32 309
f 776 756 697
f 124 367 217
f 152 217 367
f 277 201 756
f 423 789 7
f 405 8 212
f 213 884 923
f 295 296 768
f 353 227 212
f 779 335 583
f 841 903 170
f 785 226 793
f 101 623 812
f 605 297 113
f 853 500 118
f 290 496 542
f 210 155 759
f 268 352 154
f 536 221 776
f 293 155 266
f 189 418 829
f 641 710 32
f 352 648 124
f 470 112 6
f 196 267 843
f 695 132 35
f 733 247 519
f 734 287 635
f 212 201 405
f 811 859 638
f 569 382 811
f 559 335 710
f 614 149 641
f 165 265 152
f 858 241 264
f 267 196 599
f 438 686 509
f 245 544 558
f 504 295 712
f 267 599 674
f 648 268 39
f 674 599 570
f 242 102 293
f 892 242 738
f 710 219 845
f 614 641 320
f 697 675 165
f 635 834 20
f 20 834 101
f 210 829 418
f 378 899 326
f 297 378 326
f 782 556 287
f 428 371 278
f 32 710 309
f 559 112 470
f 892 738 265
f 697 569 361
f 793 180 31
f 698 558 759
f 648 703 124
f 20 170 734
f 807 477 214
f 87 341 792
f 115 287 884
f 335 779 710
f 118 96 853
f 277 405 201
f 32 94 264
f 734 635 20
f 78 648 640
f 812 687 101
f 53 149 710
f 740 784 773
f 838 547 734
f 305 907 630
f 244 698 759
f 470 61 56
f 287 82 884
f 841 167 687
f 793 226 180
f 100 788 102
f 124 166 536
f 290 340 803
f 756 776 277
f 759 788 244
f 569 697 756
f 844 803 221
f 219 779 630
f 201 227 899
f 500 853 84
f 923 551 529
f 746 124 536
f 815 224 264
f 478 592 770
f 319 592 824
f 908 877 226
f 361 675 697
f 838 170 528
f 306 785 793
f 785 677 729
f 859 733 638
f 155 293 788
f 219 630 242
f 821 341 87
f 777 363 590
f 726 429 84
f 418 155 210
f 46 245 558
f 542 340 290
f 152 306 31
f 630 240 96
f 519 638 733
f 101 167 20
f 219 675 845
f 824 296 295
f 843 214 907
f 256 519 247
f 722 56 61
f 716 698 244
f 893 923 7
f 362 592 478
f 428 132 677
f 608 442 716
f 352 124 459
f 729 132 512
f 746 536 697
f 318 848 528
f 493 799 853
f 226 154 180
f 740 804 614
f 698 716 127
f 804 138 149
f 244 666 529
f 278 132 428
f 529 666 923
f 361 811 309
f 128 292 276
f 738 266 265
f 582 706 789
f 309 845 361
f 509 182 811
f 489 848 318
f 615 84 196
f 169 152 265
f 220 559 149
f 504 319 824
f 776 221 340
f 589 520 625
f 57 345 768
f 53 641 149
f 590 635 287
f 674 171 477
f 807 214 843
f 44 214 296
f 746 165 367
f 722 880 488
f 459 180 352
f 823 834 218
f 244 529 551
f 583 748 240
f 287 556 82
f 306 677 785
f 98 608 551
f 638 858 94
f 770 319 341
f 500 615 55
f 638 241 858
f 278 155 418
f 287 734 782
f 171 286 296
f 266 242 293
f 739 589 625
f 811 638 94
f 340 542 776
f 115 242 907
f 478 821 276
f 788 666 244
f 296 477 171
f 477 267 674
f 589 623 823
f 779 219 710
f 640 648 39
f 848 423 7
f 40 909 486
f 486 2 679
f 909 350 2
f 909 2 486
f 719 351 350
f 719 350 909
f 594 719 909
f 594 909 40
f 594 233 719
f 402 351 719
f 235 233 594
f 235 234 233
f 234 283 402
f 234 235 534
f 479 283 234
f 190 534 235
f 633 534 190
f 508 431 633
f 872 159 205
f 431 508 507
f 872 179 344
f 495 587 711
f 495 711 434
f 579 602 434
f 587 783 711
f 711 783 421
f 433 164 579
f 433 579 421
f 585 421 783
f 585 291 421
f 433 291 163
f 617 291 585
f 291 394 163
f 291 368 394
f 617 184 368
f 617 368 291
f 368 701 394
f 133 701 368
f 632 878 795
f 632 795 133
f 795 861 395
f 795 395 133
f 85 328 795
f 85 795 878
f 328 161 861
f 85 161 328
f 563 399 161
f 563 161 85
f 563 457 77
f 563 77 399
f 665 77 457
f 342 77 665
f 342 744 77
f 943 934 317
f 934 978 349
f 317 796 261
f 934 285 796
f 934 349 285
f 679 343 939
f 939 343 969
f 969 343 929
f 978 502 349
f 978 384 502
f 973 380 384
f 973 147 380
f 973 957 147
f 971 150 274
f 190 381 604
f 232 37 381
f 604 381 37
f 37 532 604
f 573 604 532
f 573 532 833
f 143 833 532
f 833 143 797
f 507 797 494
f 797 251 860
f 251 774 860
f 774 672 587
f 672 783 587
f 672 250 783
f 250 617 585
f 901 878 76
f 901 85 878
f 668 85 901
f 178 457 668
f 208 457 178
f 963 259 745
f 952 202 259
f 955 8 314
f 855 959 178
f 855 178 668
f 855 668 901
f 855 901 642
f 596 956 195
f 642 901 76
f 941 195 956
f 199 642 76
f 941 81 195
f 338 906 511
f 199 76 184
f 269 953 327
f 199 184 270
f 511 270 126
f 270 184 617
f 338 511 126
f 875 270 617
f 47 126 545
f 47 545 561
f 545 875 699
f 875 617 699
f 699 617 250
f 313 545 699
f 313 699 862
f 672 699 250
f 313 862 822
f 313 822 705
f 902 26 836
f 774 27 672
f 26 27 774
f 26 774 251
f 26 251 246
f 967 468 173
f 731 246 251
f 797 731 251
f 731 797 143
f 960 936 620
f 937 606 620
f 837 731 143
f 645 972 93
f 837 143 532
f 837 532 435
f 92 93 256
f 965 927 80
f 181 927 972
f 181 972 645
f 705 822 902
f 243 964 965
f 497 705 902
f 497 902 836
f 188 497 836
f 188 836 764
f 243 970 964
f 37 435 532
f 243 392 970
f 392 925 970
f 651 925 38
f 910 974 612
f 612 974 651
f 914 910 631
f 961 914 425
f 425 914 631
f 515 961 425
f 837 513 731
f 513 764 731
f 731 764 246
f 764 836 246
f 836 26 246
f 902 822 27
f 902 27 26
f 822 862 672
f 822 672 27
f 672 862 699
f 126 875 545
f 126 270 875
f 511 199 270
f 511 906 199
f 906 737 642
f 906 642 199
f 737 855 642
f 944 151 968
f 962 437 940
f 962 968 322
f 948 871 947
f 208 665 457
f 457 563 668
f 85 668 563
f 76 878 632
f 76 632 184
f 184 632 368
f 250 585 783
f 774 587 495
f 774 495 860
f 860 495 494
f 860 494 797
f 833 797 507
f 833 507 508
f 573 833 508
f 573 508 633
f 573 633 604
f 604 633 190
f 381 190 235
f 381 235 389
f 389 235 594
f 940 347 948
f 924 253 913
f 141 913 253
f 937 141 606
f 937 913 141
f 871 948 347
f 924 947 253
f 349 502 725
f 349 725 285
f 285 725 598
f 285 598 261
f 446 791 597
f 701 395 323
f 323 336 163
f 164 814 602
f 86 602 814
f 337 86 248
f 527 344 337
f 159 160 552
f 696 600 205
f 552 727 865
f 329 600 696
f 283 709 282
f 283 282 356
f 351 562 350
f 253 947 871
f 2 350 142
f 2 142 832
f 2 832 343
f 962 322 437
f 347 940 437
f 142 34 781
f 142 781 832
f 34 350 562
f 769 850 562
f 769 60 850
f 709 480 282
f 160 58 727
f 249 58 160
f 527 248 249
f 86 814 578
f 86 578 248
f 814 12 578
f 13 332 4
f 332 336 4
f 336 3 4
f 395 104 324
f 395 376 104
f 598 407 791
f 598 411 407
f 725 411 598
f 384 260 502
f 322 968 151
f 151 944 97
f 97 944 932
f 714 97 932
f 832 325 567
f 832 567 343
f 781 325 832
f 34 237 781
f 562 420 34
f 282 637 60
f 480 637 282
f 684 736 393
f 451 393 736
f 451 58 273
f 58 249 51
f 58 51 300
f 578 12 780
f 12 13 780
f 4 628 13
f 3 30 4
f 407 211 791
f 407 410 211
f 411 263 410
f 650 263 411
f 260 725 502
f 380 535 650
f 380 650 260
f 380 846 535
f 147 846 380
f 622 714 932
f 622 932 976
f 515 622 976
f 150 863 172
f 150 172 750
f 750 172 849
f 849 854 535
f 650 535 485
f 650 485 263
f 263 417 211
f 211 417 484
f 211 355 791
f 685 791 355
f 685 355 572
f 685 572 390
f 390 572 476
f 572 262 48
f 48 262 441
f 376 476 48
f 48 441 707
f 48 707 888
f 104 376 888
f 888 707 375
f 49 888 375
f 104 49 324
f 324 49 194
f 3 324 194
f 194 49 206
f 30 194 206
f 30 206 288
f 628 4 30
f 628 30 310
f 780 13 628
f 780 628 310
f 404 780 766
f 578 193 248
f 404 654 193
f 248 193 51
f 51 654 591
f 300 51 591
f 300 601 58
f 300 465 601
f 58 601 273
f 273 601 465
f 273 465 225
f 401 273 225
f 451 273 393
f 684 393 463
f 684 463 870
f 684 254 480
f 254 588 637
f 637 588 828
f 562 79 420
f 34 420 237
f 420 396 237
f 781 237 325
f 237 396 481
f 237 481 325
f 325 481 33
f 343 567 772
f 325 33 567
f 567 33 63
f 567 63 772
f 772 63 62
f 976 961 515
f 612 631 910
f 63 372 314
f 63 314 62
f 676 372 63
f 481 616 676
f 396 616 481
f 158 616 396
f 851 158 396
f 828 786 810
f 588 546 786
f 588 786 828
f 684 870 254
f 463 549 870
f 401 775 549
f 401 549 463
f 225 50 775
f 225 775 401
f 225 465 50
f 465 427 50
f 427 591 222
f 591 568 222
f 766 215 568
f 766 310 45
f 310 288 45
f 288 763 45
f 206 763 288
f 206 873 763
f 375 874 873
f 707 175 874
f 707 874 375
f 707 643 175
f 572 574 262
f 531 162 643
f 671 162 531
f 417 741 671
f 485 417 263
f 854 308 741
f 475 308 854
f 172 658 475
f 651 974 925
f 202 681 886
f 38 925 392
f 202 886 835
f 658 172 835
f 308 898 741
f 755 754 162
f 162 754 238
f 238 742 643
f 742 826 175
f 175 826 174
f 763 876 868
f 868 510 45
f 510 794 215
f 215 794 275
f 275 794 847
f 222 275 847
f 222 847 467
f 466 107 775
f 775 107 21
f 139 644 472
f 139 472 523
f 139 523 546
f 546 523 360
f 546 360 786
f 786 360 656
f 550 239 751
f 751 458 121
f 121 663 122
f 314 372 1
f 314 1 24
f 24 134 938
f 920 114 312
f 950 483 81
f 950 918 483
f 609 153 92
f 609 596 373
f 365 373 596
f 365 14 373
f 626 373 14
f 15 374 626
f 449 555 146
f 771 555 449
f 809 771 89
f 869 856 430
f 430 90 543
f 482 430 543
f 869 430 482
f 187 669 813
f 813 669 385
f 669 482 385
f 482 543 385
f 385 543 83
f 543 90 89
f 83 543 447
f 447 543 89
f 89 771 23
f 771 148 23
f 771 449 148
f 148 449 91
f 146 374 15
f 146 15 827
f 827 15 757
f 827 757 294
f 15 70 757
f 15 626 471
f 70 15 471
f 70 471 36
f 36 471 490
f 14 490 471
f 626 14 471
f 14 195 490
f 930 312 681
f 931 921 933
f 80 927 181
f 243 965 80
f 66 81 483
f 16 36 66
f 16 70 36
f 757 70 16
f 689 91 294
f 689 148 91
f 106 148 689
f 23 148 106
f 447 23 106
f 447 106 409
f 409 223 790
f 867 539 790
f 385 83 539
f 385 539 538
f 692 385 538
f 117 538 116
f 813 385 692
f 721 813 692
f 652 503 522
f 71 501 503
f 593 501 71
f 129 406 593
f 406 440 52
f 203 406 129
f 203 440 406
f 386 203 129
f 204 203 386
f 391 889 203
f 65 216 204
f 216 505 391
f 369 216 65
f 454 505 216
f 491 454 369
f 805 537 454
f 110 537 805
f 183 110 331
f 43 553 525
f 524 103 140
f 524 580 103
f 524 526 301
f 269 280 114
f 92 256 247
f 646 99 580
f 99 103 580
f 99 140 103
f 448 627 140
f 140 627 653
f 627 560 653
f 443 560 627
f 443 840 560
f 560 758 732
f 560 732 43
f 840 758 560
f 758 229 732
f 229 358 732
f 229 333 358
f 885 749 358
f 749 506 454
f 506 505 454
f 584 655 505
f 584 505 506
f 505 889 391
f 702 735 889
f 889 440 203
f 52 17 501
f 109 647 17
f 17 647 18
f 647 831 18
f 831 412 721
f 412 813 721
f 443 119 840
f 646 580 487
f 334 487 327
f 972 256 93
f 960 468 967
f 960 620 468
f 967 173 334
f 682 315 99
f 682 99 646
f 315 120 99
f 120 448 99
f 120 119 448
f 119 825 448
f 825 119 443
f 119 728 840
f 119 230 728
f 728 157 840
f 230 157 728
f 157 664 840
f 157 817 664
f 817 333 664
f 817 767 333
f 767 584 333
f 767 891 584
f 882 891 767
f 882 456 464
f 464 743 702
f 456 462 743
f 743 462 735
f 462 887 735
f 366 890 831
f 890 881 831
f 831 881 339
f 881 316 765
f 366 521 890
f 456 566 462
f 456 839 566
f 967 334 916
f 468 620 606
f 468 606 762
f 762 818 673
f 469 673 819
f 916 334 953
f 468 762 29
f 762 682 29
f 762 673 682
f 895 231 819
f 690 257 230
f 690 330 257
f 419 576 370
f 419 370 257
f 576 236 370
f 236 530 370
f 236 284 530
f 284 346 530
f 284 839 346
f 839 456 346
f 357 566 839
f 691 577 566
f 577 521 366
f 521 694 890
f 694 881 890
f 694 316 881
f 619 581 856
f 619 354 581
f 25 67 354
f 25 354 619
f 900 856 869
f 316 900 765
f 765 900 869
f 900 619 856
f 354 364 581
f 135 281 354
f 354 67 135
f 879 416 281
f 879 281 135
f 281 416 364
f 75 95 416
f 279 474 95
f 95 866 279
f 474 688 144
f 474 144 95
f 688 88 144
f 645 379 88
f 688 303 645
f 334 327 953
f 88 379 153
f 953 269 922
f 269 114 920
f 941 950 81
f 414 80 181
f 28 414 303
f 28 303 279
f 688 279 303
f 28 279 866
f 432 760 304
f 432 816 760
f 28 816 432
f 816 28 905
f 816 905 621
f 760 611 304
f 304 392 243
f 609 956 596
f 609 247 956
f 681 312 114
f 681 114 886
f 886 114 439
f 886 498 835
f 439 526 533
f 533 658 498
f 533 649 308
f 533 308 658
f 308 649 898
f 649 667 898
f 238 408 826
f 238 826 742
f 408 331 826
f 826 805 492
f 123 491 896
f 896 130 876
f 130 386 255
f 794 255 307
f 847 794 307
f 847 307 71
f 847 71 387
f 387 71 652
f 387 453 715
f 107 452 108
f 473 9 472
f 472 9 523
f 360 717 125
f 125 550 656
f 125 717 801
f 125 239 550
f 801 302 830
f 830 458 239
f 751 239 458
f 830 400 586
f 121 458 663
f 122 663 662
f 586 806 662
f 122 1 372
f 122 662 499
f 122 499 1
f 662 806 156
f 1 499 24
f 499 156 436
f 609 92 247
f 436 66 483
f 16 156 806
f 806 757 16
f 806 400 757
f 294 757 400
f 689 294 400
f 689 400 302
f 106 689 302
f 125 801 239
f 801 717 302
f 223 409 106
f 820 717 360
f 9 820 360
f 9 360 523
f 9 790 820
f 9 867 790
f 603 9 473
f 200 539 867
f 116 538 200
f 387 652 453
f 71 503 652
f 491 369 65
f 492 491 123
f 805 454 491
f 826 331 805
f 331 408 754
f 802 331 754
f 754 678 802
f 455 41 43
f 455 43 525
f 649 455 667
f 700 455 649
f 526 700 533
f 524 41 526
f 134 483 918
f 280 301 439
f 280 439 114
f 301 526 439
f 700 526 41
f 700 41 455
f 525 667 455
f 667 525 678
f 678 525 553
f 553 183 678
f 183 802 678
f 802 183 331
f 331 110 805
f 492 805 491
f 491 65 896
f 896 65 130
f 130 65 204
f 130 204 386
f 386 129 255
f 255 129 307
f 129 593 307
f 593 71 307
f 652 522 453
f 453 522 452
f 452 522 117
f 452 117 108
f 108 117 116
f 108 116 603
f 603 116 200
f 603 200 867
f 603 867 9
f 790 83 409
f 820 790 223
f 820 223 106
f 820 106 717
f 106 302 717
f 830 302 400
f 400 806 586
f 436 156 16
f 436 16 66
f 134 436 483
f 499 436 134
f 24 499 134
f 662 156 499
f 663 586 662
f 663 458 586
f 830 586 458
f 239 801 830
f 656 360 125
f 644 473 472
f 21 473 644
f 21 603 473
f 21 108 603
f 107 108 21
f 466 452 107
f 466 453 452
f 715 453 466
f 715 467 387
f 467 847 387
f 794 510 255
f 510 868 255
f 868 130 255
f 876 130 868
f 145 123 896
f 145 896 876
f 174 123 145
f 174 492 123
f 826 492 174
f 238 754 408
f 755 678 754
f 898 667 678
f 898 678 755
f 533 700 649
f 498 439 533
f 886 439 498
f 938 134 918
f 955 24 938
f 59 330 690
f 330 419 257
f 22 419 330
f 22 576 419
f 540 284 576
f 284 657 839
f 657 357 839
f 657 691 357
f 357 691 566
f 691 521 577
f 398 521 691
f 68 271 694
f 659 397 316
f 659 787 397
f 271 787 659
f 787 636 397
f 787 800 636
f 636 67 25
f 397 636 25
f 135 613 415
f 415 444 621
f 444 564 621
f 444 5 564
f 800 64 5
f 272 787 271
f 683 787 272
f 272 69 752
f 64 272 693
f 64 557 5
f 564 760 816
f 564 778 760
f 760 778 611
f 611 778 514
f 611 514 38
f 314 24 955
f 952 259 963
f 952 681 202
f 952 930 681
f 517 778 168
f 517 894 778
f 842 894 517
f 894 612 514
f 864 894 842
f 612 864 403
f 612 403 631
f 62 314 8
f 496 62 8
f 772 62 496
f 929 772 496
f 343 772 929
f 185 403 864
f 629 185 111
f 629 111 424
f 516 425 185
f 516 185 629
f 957 846 147
f 957 274 846
f 808 622 516
f 808 516 747
f 957 971 274
f 971 863 150
f 971 745 863
f 971 963 745
f 42 714 808
f 42 808 518
f 11 97 42
f 11 42 518
f 978 973 384
f 151 97 11
f 322 151 460
f 347 437 595
f 595 897 660
f 322 897 437
f 660 897 461
f 198 197 105
f 176 228 105
f 105 661 176
f 661 708 177
f 661 424 708
f 176 177 311
f 177 557 693
f 724 258 752
f 720 258 724
f 298 192 136
f 192 298 610
f 704 359 298
f 904 359 704
f 904 289 359
f 548 761 289
f 426 871 413
f 426 413 761
f 253 871 426
f 413 871 624
f 413 624 723
f 723 883 289
f 289 883 359
f 348 753 359
f 228 176 311
f 192 450 228
f 348 207 753
f 871 347 624
f 975 232 618
f 445 141 426
f 718 59 575
f 718 541 330
f 718 330 59
f 540 576 22
f 657 607 691
f 607 398 691
f 398 68 521
f 398 69 68
f 69 272 271
f 607 724 398
f 19 720 724
f 19 724 607
f 798 136 19
f 657 19 607
f 377 298 136
f 704 298 377
f 377 540 22
f 540 377 798
f 541 704 22
f 541 904 704
f 575 289 718
f 575 548 289
f 634 548 575
f 634 761 548
f 426 761 634
f 541 22 330
f 445 426 634
f 141 253 426
f 289 904 718
f 904 541 718
f 704 377 22
f 377 136 798
f 720 19 136
f 724 752 69
f 724 69 398
f 69 271 68
f 284 19 657
f 798 19 284
f 798 284 540
f 634 575 818
f 445 634 818
f 445 606 141
f 618 389 39
f 389 594 39
f 347 595 624
f 595 660 624
f 461 883 660
f 461 207 348
f 461 348 883
f 753 207 450
f 753 450 610
f 610 450 192
f 450 105 228
f 311 693 228
f 258 228 693
f 191 228 258
f 228 191 192
f 136 192 191
f 298 753 610
f 359 753 298
f 883 348 359
f 660 883 723
f 624 660 723
f 935 665 208
f 935 342 665
f 413 723 761
f 723 289 761
f 191 720 136
f 258 720 191
f 258 693 752
f 752 693 272
f 168 564 383
f 168 383 5
f 557 168 5
f 54 168 557
f 693 557 64
f 177 693 311
f 177 708 557
f 557 708 54
f 424 209 708
f 111 864 842
f 209 842 517
f 209 111 842
f 424 111 209
f 105 388 661
f 197 388 105
f 197 747 388
f 198 252 197
f 207 252 198
f 11 518 10
f 10 518 252
f 518 747 252
f 518 808 747
f 747 516 629
f 747 629 388
f 388 629 424
f 252 747 197
f 852 11 10
f 460 11 852
f 460 151 11
f 943 342 935
f 897 322 460
f 897 460 461
f 461 460 852
f 10 252 207
f 10 207 852
f 388 424 661
f 54 209 517
f 708 209 54
f 176 661 177
f 450 198 105
f 207 198 450
f 461 852 207
f 595 437 897
f 917 959 855
f 714 42 97
f 622 808 714
f 515 516 622
f 515 425 516
f 737 917 855
f 945 513 837
f 185 425 403
f 111 185 864
f 425 631 403
f 837 435 945
f 945 435 979
f 612 651 514
f 864 612 894
f 778 894 514
f 517 168 54
f 564 168 778
f 975 979 435
f 651 38 514
f 975 435 37
f 945 958 513
f 38 392 304
f 38 304 611
f 383 564 5
f 683 64 800
f 272 64 683
f 683 800 787
f 800 5 444
f 800 444 636
f 636 444 613
f 613 444 415
f 866 415 621
f 75 879 866
f 75 866 95
f 905 28 866
f 879 415 866
f 135 415 879
f 67 613 135
f 67 636 613
f 271 659 316
f 694 271 316
f 521 68 694
f 236 576 284
f 59 690 895
f 575 59 895
f 818 575 673
f 445 818 762
f 606 445 762
f 958 911 513
f 497 926 705
f 564 816 621
f 866 621 905
f 304 243 80
f 304 80 432
f 432 80 414
f 432 414 28
f 414 181 645
f 414 645 303
f 705 926 946
f 188 926 497
f 188 911 926
f 88 153 373
f 88 373 144
f 95 144 554
f 186 95 554
f 186 554 555
f 364 186 555
f 581 364 809
f 581 809 90
f 354 281 364
f 364 416 186
f 186 416 95
f 92 153 379
f 92 379 93
f 93 379 645
f 688 645 88
f 279 688 474
f 879 75 416
f 397 25 619
f 316 397 619
f 316 619 900
f 690 230 231
f 895 690 231
f 575 895 819
f 673 575 819
f 513 911 764
f 764 911 188
f 682 673 315
f 673 120 315
f 673 469 120
f 819 119 469
f 819 231 119
f 231 230 119
f 230 257 157
f 257 817 157
f 257 370 817
f 370 767 817
f 370 530 767
f 767 530 882
f 530 346 882
f 882 346 456
f 566 577 462
f 577 366 462
f 881 765 339
f 887 366 831
f 462 366 887
f 464 456 743
f 891 882 464
f 469 119 120
f 29 682 646
f 468 29 646
f 468 646 173
f 334 173 487
f 173 646 487
f 99 448 140
f 448 825 627
f 627 825 443
f 758 840 664
f 758 664 229
f 664 333 229
f 333 584 885
f 584 891 655
f 655 891 464
f 655 464 889
f 464 702 889
f 743 735 702
f 440 735 109
f 735 887 109
f 109 887 647
f 887 831 647
f 831 339 412
f 339 187 412
f 412 187 813
f 18 831 721
f 52 109 17
f 440 109 52
f 889 735 440
f 505 655 889
f 749 584 506
f 885 584 749
f 358 333 885
f 487 580 280
f 327 487 280
f 47 919 126
f 338 126 919
f 269 327 280
f 280 580 301
f 301 580 524
f 524 140 41
f 140 653 41
f 653 560 43
f 653 43 41
f 43 732 553
f 732 183 553
f 183 732 358
f 183 358 110
f 110 358 749
f 110 749 537
f 537 749 454
f 454 216 369
f 216 391 204
f 391 203 204
f 406 52 593
f 593 52 501
f 503 501 17
f 503 17 18
f 18 721 503
f 503 721 522
f 721 692 522
f 522 692 117
f 117 692 538
f 200 538 539
f 539 83 790
f 83 447 409
f 89 23 447
f 449 827 294
f 449 294 91
f 66 36 490
f 66 490 195
f 66 195 81
f 338 942 906
f 951 906 942
f 951 737 906
f 365 596 195
f 14 365 195
f 449 146 827
f 809 555 771
f 339 765 669
f 339 669 187
f 765 482 669
f 869 482 765
f 856 90 430
f 856 581 90
f 90 809 89
f 809 364 555
f 555 554 146
f 554 374 146
f 626 374 554
f 626 554 144
f 144 373 626
f 609 373 153
f 917 737 951
f 949 178 959
f 676 122 372
f 616 121 122
f 616 122 676
f 616 751 121
f 158 751 616
f 158 550 751
f 851 550 158
f 851 656 550
f 810 656 851
f 786 656 810
f 546 588 139
f 870 139 588
f 870 644 139
f 870 21 644
f 549 21 870
f 549 775 21
f 50 466 775
f 427 715 466
f 427 466 50
f 427 467 715
f 222 467 427
f 222 568 275
f 215 275 568
f 766 510 215
f 766 45 510
f 45 763 868
f 763 873 876
f 873 145 876
f 873 874 145
f 874 174 145
f 175 174 874
f 643 742 175
f 162 238 643
f 671 755 162
f 741 898 755
f 741 755 671
f 475 658 308
f 835 498 658
f 259 202 835
f 949 208 178
f 935 208 949
f 745 259 835
f 745 835 863
f 863 835 172
f 475 849 172
f 849 475 854
f 854 741 485
f 485 741 417
f 417 671 484
f 484 671 531
f 484 531 574
f 574 531 643
f 574 643 262
f 262 643 441
f 441 643 707
f 375 873 49
f 206 49 873
f 30 288 310
f 780 310 766
f 404 766 568
f 404 568 654
f 591 654 568
f 591 427 300
f 300 427 465
f 401 463 393
f 254 870 588
f 828 810 79
f 79 810 851
f 79 851 420
f 420 851 396
f 33 481 676
f 33 676 63
f 618 381 389
f 618 232 381
f 232 975 37
f 850 79 562
f 850 828 79
f 60 828 850
f 637 828 60
f 480 254 637
f 273 401 393
f 193 654 51
f 193 578 404
f 578 780 404
f 30 3 194
f 49 104 888
f 376 48 888
f 572 48 476
f 355 574 572
f 355 484 574
f 211 484 355
f 410 263 211
f 485 535 854
f 846 750 849
f 846 849 535
f 274 150 750
f 274 750 846
f 946 313 705
f 946 928 313
f 928 545 313
f 928 561 545
f 928 912 561
f 384 380 260
f 260 650 725
f 725 650 411
f 411 410 407
f 376 390 476
f 248 51 249
f 58 451 727
f 727 451 736
f 736 684 480
f 736 480 709
f 912 47 561
f 912 919 47
f 598 791 446
f 791 685 597
f 597 685 390
f 861 390 376
f 861 376 395
f 395 324 323
f 323 324 3
f 336 323 3
f 332 163 336
f 164 332 13
f 814 164 13
f 814 13 12
f 527 337 248
f 527 249 160
f 160 727 552
f 727 736 865
f 680 865 736
f 680 736 709
f 680 709 283
f 356 282 60
f 356 60 769
f 769 562 351
f 142 350 34
f 942 338 919
f 679 2 343
f 402 769 351
f 402 356 769
f 283 356 402
f 329 680 283
f 329 283 479
f 329 696 865
f 329 865 680
f 696 552 865
f 696 205 552
f 159 552 205
f 159 872 527
f 159 527 160
f 344 527 872
f 344 86 337
f 344 434 86
f 434 602 86
f 579 164 602
f 164 433 332
f 163 332 433
f 394 323 163
f 701 323 394
f 701 133 395
f 161 390 861
f 399 597 390
f 399 390 161
f 446 597 399
f 74 598 446
f 74 261 598
f 796 285 261
f 934 796 317
f 943 744 342
f 943 317 744
f 486 679 915
f 939 915 679
f 954 486 915
f 317 261 74
f 317 74 744
f 744 74 77
f 77 74 446
f 399 77 446
f 795 328 861
f 368 632 133
f 291 433 421
f 711 421 579
f 711 579 434
f 434 344 495
f 495 344 179
f 495 179 494
f 494 179 507
f 507 179 872
f 431 507 872
f 431 872 205
f 431 205 600
f 431 600 633
f 633 600 534
f 534 600 329
f 534 329 479
f 234 534 479
f 234 402 233
f 233 402 719
f 40 486 954
f 39 40 954
f 39 594 40