v -0.390029 -0.004403 -0.546393
v -0.018439 0.246387 -0.662871
v -0.073495 0.100590 -0.748627
v -0.043088 0.267927 -0.548539
v -0.245009 0.181416 -0.605573
v -0.218834 0.137729 -0.546087
v -0.455062 0.084507 -0.328066
v 0.028791 0.367596 -0.549641
v -0.358242 -0.174160 -0.430120
v -0.265297 0.220635 -0.363477
v -0.046812 0.394835 -0.303707
v -0.438890 -0.198422 -0.425055
v 0.017023 0.362995 -0.558085
v -0.125105 0.239629 -0.673234
v -0.098708 0.088331 -0.788257
v -0.473671 -0.225007 -0.270694
v -0.448577 -0.014229 -0.424880
v -0.293107 0.131182 -0.413548
v -0.515853 -0.014203 -0.263079
v -0.262022 -0.063904 -0.745181
v -0.183596 -0.064992 -0.728429
v -0.318252 -0.148571 -0.481717
v -0.311576 -0.001877 -0.477400
v -0.373496 -0.124327 -0.563988
v -0.000774 0.279333 -0.657847
v -0.323887 -0.149723 -0.532003
v 0.036348 0.418744 -0.435977
v -0.277986 -0.082807 -0.714931
v -0.203162 0.257562 -0.398434
v -0.039366 0.304329 -0.488781
v -0.215781 0.164935 -0.674898
v -0.351854 0.088755 -0.539202
v -0.073081 0.445773 -0.273049
v -0.239083 0.219141 -0.553018
v -0.094502 0.271265 -0.653981
v -0.193268 0.393787 -0.252108
v -0.226651 0.387903 -0.213771
v 0.049605 0.501799 -0.200495
v 0.007271 0.438300 -0.290572
v -0.254614 -0.005634 -0.589786
v -0.032582 0.360855 -0.376754
v 0.041575 0.466835 -0.310182
v -0.230204 -0.003156 -0.634031
v -0.404451 0.240382 -0.199033
v -0.261562 -0.122564 -0.584045
v -0.266211 -0.070409 -0.736820
v -0.259769 0.126763 -0.658437
v -0.246108 0.049672 -0.590144
v -0.041178 0.053862 -0.804469
v -0.070197 0.375146 -0.319426
v -0.205731 0.284624 -0.351215
v -0.181148 0.055515 -0.773143
v -0.126041 0.069361 -0.748205
v -0.028258 0.170967 -0.733072
v -0.250317 0.378040 -0.198322
v -0.477442 -0.010443 -0.291452
v -0.500594 -0.000610 -0.295967
v -0.502381 0.062464 -0.233622
v -0.108708 0.266351 -0.648583
v -0.048214 0.301576 -0.640969
v -0.242849 -0.015710 -0.759685
v -0.293599 -0.018152 -0.519982
v -0.434378 -0.185407 -0.462344
v -0.063178 0.464651 -0.229576
v -0.033877 0.230196 -0.634400
v 0.045601 0.460198 -0.329217
v -0.398458 0.187831 -0.309690
v -0.276562 0.059012 -0.697526
v -0.492550 -0.176222 -0.284574
v -0.377450 -0.134936 -0.376652
v -0.095594 0.307822 -0.438475
v -0.137231 0.228743 -0.531797
v -0.337491 -0.004347 -0.419362
v -0.476548 -0.134371 -0.356008
v 0.012397 0.382678 -0.510759
v -0.191777 0.177308 -0.688503
v -0.208685 -0.026483 -0.673162
v -0.027431 0.360122 -0.389073
v -0.405243 -0.172734 -0.506288
v -0.337623 0.038682 -0.403729
v -0.481764 0.136353 -0.191641
v -0.322638 0.074565 -0.606558
v -0.419628 -0.061866 -0.492162
v -0.267449 -0.077438 -0.572408
v -0.176900 0.120047 -0.641491
v -0.124989 0.016655 -0.781437
v -0.532658 0.008433 -0.201063
v -0.332722 -0.088295 -0.643158
v -0.329976 -0.031697 -0.448319
v -0.224275 -0.078366 -0.713421
v 0.024175 0.447672 -0.312526
v -0.405725 0.232181 -0.209992
v -0.087959 0.026400 -0.801235
v -0.289351 0.041453 -0.690002
v -0.036092 0.056215 -0.802714
v 0.025870 0.368279 -0.548998
v -0.177839 0.334318 -0.418511
v -0.399744 -0.015698 -0.532822
v -0.360963 0.258935 -0.258257
v -0.319107 -0.069066 -0.670114
v -0.427722 -0.180343 -0.474412
v -0.046621 0.227090 -0.607713
v -0.308676 -0.124186 -0.624273
v -0.386466 -0.188992 -0.376565
v -0.486295 -0.047620 -0.343453
v -0.079622 0.261683 -0.529967
v -0.217519 -0.046167 -0.775285
v 0.009573 0.305318 -0.655780
v -0.462323 -0.223558 -0.311165
v -0.401677 0.119848 -0.404696
v -0.285519 0.234309 -0.449183
v -0.467277 -0.060927 -0.393382
v -0.298537 -0.095105 -0.688846
v -0.417321 -0.104999 -0.490878
v 0.042518 0.446056 -0.359228
v -0.397384 0.052523 -0.486023
v -0.278123 -0.131966 -0.562560
v -0.310107 0.049241 -0.650333
v -0.497792 -0.102563 -0.302517
v -0.415044 0.228787 -0.197732
v -0.207791 -0.084672 -0.687941
v -0.342287 -0.164522 -0.473413
v -0.041400 0.208754 -0.643270
v -0.222897 -0.090755 -0.643703
v -0.015872 0.216926 -0.719714
v 0.023833 0.365918 -0.534079
v -0.326039 0.316581 -0.205256
v -0.128360 0.123121 -0.688312
v -0.099061 0.235450 -0.557068
v -0.271423 -0.035994 -0.565428
v -0.483180 0.013144 -0.330436
v -0.476249 -0.052976 -0.370262
v -0.178764 -0.036526 -0.722884
v -0.349793 0.014486 -0.606403
v -0.484376 -0.223742 -0.261478
v -0.419880 -0.170495 -0.481524
v -0.079949 0.265334 -0.670788
v -0.032961 0.316875 -0.624131
v -0.094203 0.002751 -0.810269
v -0.177217 0.051951 -0.711833
v -0.217674 0.402103 -0.190198
v -0.260062 0.084764 -0.701245
v -0.365173 0.273998 -0.214227
v -0.309396 -0.132989 -0.497321
v -0.138529 0.447065 -0.186823
v -0.104622 0.446872 -0.232442
v -0.032986 0.372656 -0.346680
v -0.076810 0.395920 -0.401048
v -0.505328 0.021747 -0.266599
v -0.522461 -0.058269 -0.243455
v -0.452359 -0.195611 -0.386808
v -0.328589 0.040749 -0.419040
v -0.284292 0.123783 -0.438847
v -0.339990 0.109121 -0.374293
v -0.346835 -0.009847 -0.404128
v -0.272436 -0.125187 -0.592607
v -0.223512 0.173023 -0.651734
v -0.179912 0.294359 -0.500766
v -0.150976 0.328832 -0.467879
v -0.128898 -0.000111 -0.782043
v -0.216732 0.102371 -0.602139
v 0.036638 0.430264 -0.407911
v -0.386694 -0.140228 -0.539946
v -0.282923 0.023378 -0.709532
v -0.103703 0.337745 -0.507354
v -0.034148 0.097305 -0.788706
v -0.429686 -0.185406 -0.471796
v -0.008350 0.268904 -0.689047
v -0.098298 0.272392 -0.498324
v -0.364942 -0.115454 -0.579854
v -0.357722 -0.002113 -0.601855
v -0.256840 -0.094167 -0.585672
v -0.247255 0.093579 -0.549902
v -0.466319 0.128766 -0.243143
v -0.473174 -0.157626 -0.291050
v -0.530776 -0.002481 -0.206303
v -0.373042 -0.173832 -0.374322
v 0.035571 0.430250 -0.389518
v -0.223528 0.056451 -0.636141
v -0.404035 -0.038371 -0.531245
v -0.271474 0.290723 -0.364036
v -0.039144 0.102424 -0.789496
v -0.183189 0.041605 -0.709887
v 0.002811 0.436328 -0.371090
v -0.520453 0.050319 -0.194909
v -0.252749 -0.105785 -0.651317
v -0.165705 0.084823 -0.697521
v -0.425215 -0.195462 -0.436510
v -0.081051 0.024601 -0.808053
v -0.323249 -0.156141 -0.490447
v -0.303293 0.337414 -0.201053
v -0.422686 0.035126 -0.449727
v -0.360379 -0.164474 -0.391413
v -0.255574 0.277860 -0.417431
v -0.092891 0.003729 -0.808038
v -0.476515 -0.180941 -0.328019
v -0.374647 -0.090656 -0.570502
v 0.034043 0.504396 -0.192255
v -0.448681 0.014293 -0.409766
v -0.298190 0.313967 -0.265447
v -0.493661 -0.172649 -0.263326
v -0.102864 0.367788 -0.439635
v -0.027243 0.404637 -0.299078
v -0.520939 -0.064411 -0.242411
v 0.045066 0.453373 -0.344932
v -0.503159 -0.166248 -0.256146
v -0.285566 0.126685 -0.615294
v -0.303483 0.141687 -0.565120
v -0.219230 0.397887 -0.199950
v -0.171173 0.006642 -0.738955
v -0.414632 -0.075108 -0.357261
v -0.176725 -0.055285 -0.724126
v -0.393566 -0.071397 -0.541391
v -0.384893 -0.009247 -0.559216
v -0.062000 0.056091 -0.792256
v 0.022932 0.330778 -0.624695
v -0.138394 0.171711 -0.614831
v -0.333827 0.207046 -0.408944
v -0.059249 0.242020 -0.701714
v -0.053393 0.219069 -0.612164
v -0.102942 0.442300 -0.221148
v -0.444353 -0.205165 -0.397325
v -0.149684 0.252786 -0.622941
v -0.315070 0.153035 -0.528582
v -0.309132 -0.079455 -0.683056
v -0.292131 -0.102629 -0.530804
v -0.437817 0.200408 -0.196263
v -0.311768 0.327508 -0.205760
v -0.205629 0.353545 -0.332615
v -0.284925 -0.067321 -0.717811
v 0.047685 0.476691 -0.278664
v -0.516685 -0.095909 -0.250328
v 0.043101 0.440883 -0.381265
v 0.001172 0.276513 -0.680615
v -0.174152 0.429549 -0.184342
v -0.430183 0.016582 -0.447214
v 0.025771 0.393618 -0.491967
v -0.156158 0.166612 -0.601388
v -0.434845 0.202376 -0.200274
v -0.067872 0.434377 -0.310366
v 0.040541 0.425838 -0.418341
v -0.265930 0.099546 -0.678946
v -0.151141 0.095744 -0.700056
v -0.160383 0.428217 -0.200891
v -0.324551 -0.107610 -0.473971
v -0.020639 0.285268 -0.587398
v 0.006808 0.396033 -0.414216
v -0.428879 -0.143204 -0.460675
v -0.407853 -0.195593 -0.346848
v -0.372079 -0.164705 -0.518023
v -0.436641 -0.185121 -0.464993
v -0.159223 -0.026381 -0.797410
v 0.028145 0.418130 -0.434702
v -0.395373 0.028770 -0.509290
v -0.398260 0.243618 -0.207577
v -0.265863 0.178097 -0.410383
v -0.267361 -0.047282 -0.742550
v -0.256072 0.162085 -0.447188
v -0.394197 -0.019788 -0.546512
v -0.296593 0.050685 -0.672032
v -0.016518 0.219201 -0.724185
v -0.000043 0.395564 -0.472141
v -0.165393 0.021941 -0.741768
v -0.160486 0.047467 -0.733504
v -0.409907 0.221629 -0.223677
v -0.029427 0.299040 -0.525537
v -0.183018 0.301569 -0.350620
v -0.389964 -0.037499 -0.558557
v -0.421494 -0.197699 -0.416201
v 0.045433 0.497544 -0.203053
v -0.213906 0.238441 -0.558014
v -0.014502 0.496809 -0.173951
v -0.504666 0.074694 -0.208018
v -0.034675 0.453109 -0.292223
v -0.352585 -0.076801 -0.612142
v -0.290320 -0.054512 -0.713311
v -0.418494 -0.042192 -0.494879
v -0.016536 0.410181 -0.298892
v -0.260052 0.156544 -0.618463
v -0.176975 0.248096 -0.594407
v -0.394761 -0.181682 -0.355327
v -0.508165 -0.059079 -0.258959
v -0.153521 -0.029863 -0.762684
v -0.040263 0.114014 -0.754963
v 0.032924 0.461354 -0.322170
v -0.145832 0.423069 -0.244209
v -0.063940 0.197762 -0.634751
v -0.334573 -0.123267 -0.624080
v -0.038436 0.369372 -0.502852
v -0.327113 0.127941 -0.540128
v -0.259160 0.210981 -0.381123
v -0.254226 0.334915 -0.296779
v -0.411002 -0.141062 -0.495929
v 0.022484 0.447465 -0.354835
v -0.006805 0.421501 -0.402594
v -0.267320 -0.088664 -0.702285
v -0.203230 -0.082798 -0.685766
v -0.095120 0.082175 -0.756891
v -0.107889 0.069487 -0.761299
v -0.460870 -0.032416 -0.404396
v -0.450907 0.047925 -0.377192
v -0.107211 0.098682 -0.732539
v -0.409721 -0.036643 -0.516946
v -0.419008 0.052772 -0.442537
v -0.537371 -0.020614 -0.205385
v -0.538287 -0.008595 -0.194063
v -0.210462 0.125524 -0.576824
v -0.156038 0.323249 -0.343432
v -0.181031 0.250082 -0.443245
v -0.539536 -0.010071 -0.193328
v -0.379411 -0.015281 -0.571591
v -0.240656 0.142889 -0.668188
v -0.451179 -0.218584 -0.305246
v 0.029236 0.499025 -0.186610
v -0.472137 -0.227716 -0.276732
v -0.367018 -0.111453 -0.390038
v 0.044944 0.484892 -0.244469
v -0.363244 -0.150606 -0.388689
v -0.041051 0.385934 -0.315521
v -0.439088 -0.205622 -0.400349
v -0.356594 -0.141965 -0.581233
v -0.408209 -0.168747 -0.503955
v -0.295574 0.010263 -0.696676
v -0.435984 -0.096067 -0.457553
v -0.445356 0.027682 -0.407467
v -0.244863 0.196909 -0.423905
v -0.154956 0.001006 -0.759073
v -0.466243 -0.097299 -0.309310
v -0.361063 -0.172263 -0.391658
v -0.421720 -0.180629 -0.485093
v -0.480774 -0.220024 -0.279306
v -0.484370 0.123769 -0.203549
v -0.478942 -0.030371 -0.361812
v -0.250646 -0.057710 -0.601294
v -0.426292 0.114827 -0.357372
v -0.231086 0.095652 -0.580243
v -0.034472 0.097270 -0.777139
v -0.466741 0.054684 -0.332984
v -0.423951 -0.186370 -0.472642
v -0.267943 0.002894 -0.734991
v -0.114075 0.458756 -0.182316
v -0.392348 -0.061245 -0.547405
v -0.336661 0.071986 -0.392369
v -0.346949 0.023245 -0.396954
v -0.047532 0.478234 -0.205518
v 0.013892 0.502868 -0.183233
v -0.306538 -0.048648 -0.691476
v -0.353214 -0.100822 -0.603613
v -0.247520 0.123779 -0.681368
v -0.021743 0.493794 -0.182406
v -0.534004 0.016551 -0.189867
v -0.456613 0.118059 -0.256741
v -0.036386 0.260890 -0.575714
v -0.032259 0.106379 -0.778669
v 0.048127 0.511178 -0.174313
v -0.033090 0.178006 -0.753070
v -0.348534 -0.167581 -0.423040
v 0.033472 0.480056 -0.267339
v -0.503486 -0.136876 -0.260218
v -0.292168 -0.139143 -0.535561
v -0.500428 -0.114920 -0.267591
v -0.088700 0.206827 -0.606807
v -0.405153 -0.087263 -0.516352
v -0.443731 -0.195468 -0.412009
v -0.093221 0.403374 -0.280257
v -0.367637 0.141510 -0.445239
v -0.367749 -0.019201 -0.591801
v 0.027794 0.403792 -0.445244
v -0.290632 0.206166 -0.355442
v -0.362035 -0.032905 -0.602309
v -0.508268 -0.065657 -0.280889
v -0.426964 0.085890 -0.391071
v -0.139684 0.023742 -0.767013
v -0.085835 0.043764 -0.805629
v -0.433055 -0.196330 -0.438314
v -0.446874 -0.214155 -0.352895
v -0.185246 -0.054829 -0.755892
v -0.099816 0.322206 -0.406609
v -0.517559 -0.078588 -0.253785
v -0.497605 -0.046559 -0.312676
v -0.001005 0.472412 -0.265806
v -0.040008 0.064669 -0.794145
v 0.012949 0.408636 -0.449374
v -0.343408 0.285459 -0.239365
v -0.406079 -0.027856 -0.524072
v -0.225402 0.305529 -0.409437
v -0.440564 -0.169129 -0.429911
v -0.451033 -0.157020 -0.410695
v -0.476706 0.145469 -0.190616
v -0.100109 0.425277 -0.297862
v -0.150865 0.366655 -0.381252
v 0.004359 0.503571 -0.170817
v -0.101185 0.370672 -0.313488
v -0.484942 -0.215445 -0.259739
v -0.238532 -0.058080 -0.760888
v -0.066798 0.356532 -0.357716
v -0.098511 -0.008507 -0.808471
v -0.164042 -0.034677 -0.748321
v -0.196204 0.406817 -0.213431
v -0.455893 0.172656 -0.200438
v -0.139070 0.447985 -0.182129
v 0.025839 0.345075 -0.595947
v -0.234445 0.063651 -0.609906
v -0.165133 0.287027 -0.401190
v -0.024120 0.342996 -0.445358
v -0.226136 0.087510 -0.605436
v -0.240130 -0.107664 -0.634416
v -0.490075 -0.062963 -0.330675
v -0.153173 0.027141 -0.752994
v -0.255290 -0.052912 -0.753964
v -0.104357 0.343388 -0.356150
v -0.301437 0.237515 -0.325632
v -0.115796 0.206246 -0.586834
v -0.437485 0.044439 -0.410671
v -0.293858 -0.033044 -0.709550
v 0.009603 0.362974 -0.506652
v 0.048621 0.498191 -0.216418
v -0.132761 0.242711 -0.662084
v -0.006544 0.482014 -0.202802
v -0.450178 0.113633 -0.303538
v -0.315517 0.026147 -0.656593
v -0.231317 -0.037111 -0.770005
v -0.368886 0.003884 -0.580536
v -0.476491 -0.198968 -0.274242
v -0.257669 0.137114 -0.477106
v -0.224809 -0.058433 -0.644199
v 0.006233 0.327010 -0.628355
v -0.191342 0.088299 -0.664230
v -0.474661 -0.002882 -0.361461
v -0.316813 -0.111289 -0.655538
v -0.294526 -0.064431 -0.528534
v -0.335820 0.034373 -0.617078
v -0.353710 -0.153297 -0.405461
v -0.355533 -0.018841 -0.397532
v -0.034328 0.492702 -0.172715
v -0.497244 -0.020656 -0.314100
v 0.004544 0.337485 -0.607297
v -0.255106 -0.039568 -0.754282
v -0.429941 -0.179374 -0.459990
v -0.524238 -0.036530 -0.230800
v -0.285556 0.163171 -0.393641
v -0.506523 -0.086791 -0.282646
v -0.483616 -0.101202 -0.344017
v 0.047905 0.489740 -0.237138
v -0.175535 0.133488 -0.622721
v 0.047332 0.478089 -0.277530
v -0.150401 0.319796 -0.355806
v -0.377729 0.237361 -0.248571
v -0.015736 0.482520 -0.222679
v -0.067109 0.480809 -0.174635
v -0.197899 0.115655 -0.615976
v -0.217347 0.090064 -0.621206
v -0.433643 0.137520 -0.309449
v -0.513098 -0.022580 -0.273254
v -0.241490 0.076780 -0.581169
v -0.101488 -0.003552 -0.810447
v -0.193796 0.282851 -0.368323
v -0.020022 0.376696 -0.368537
v -0.446409 0.170498 -0.227765
v -0.457799 0.027627 -0.379495
v -0.018220 0.320608 -0.521644
v -0.188023 0.018457 -0.710640
v -0.006531 0.309885 -0.648307
v -0.139427 0.045102 -0.756091
v -0.301674 -0.101602 -0.678546
v -0.366951 -0.177421 -0.384011
v -0.469129 0.158039 -0.190601
v -0.299399 0.076023 -0.460638
v -0.099540 0.052656 -0.779852
v -0.378354 -0.183534 -0.373218
v -0.230650 -0.071465 -0.732292
v -0.424102 -0.201001 -0.392574
v -0.166630 -0.039100 -0.783483
v -0.198099 0.097143 -0.643867
v -0.112225 -0.012645 -0.807621
v -0.131505 0.305581 -0.407473
v -0.149580 0.247295 -0.488645
v -0.063324 0.287731 -0.652083
v 0.024119 0.335324 -0.610299
v -0.415251 0.152829 -0.328667
v -0.071751 0.356189 -0.501145
v -0.044653 0.368858 -0.344772
v 0.018421 0.317467 -0.639975
v -0.238978 0.276099 -0.335538
v -0.408204 -0.152983 -0.501304
v -0.529047 -0.042379 -0.230140
v -0.147680 0.346703 -0.432302
v -0.071111 0.477889 -0.180745
v -0.199154 0.337933 -0.378838
v -0.267827 0.143858 -0.623145
v -0.296870 0.158957 -0.382379
v -0.100662 0.040048 -0.787484
v -0.176881 0.075721 -0.693871
v -0.340621 0.008754 -0.404938
v -0.467257 -0.212939 -0.279972
v -0.004987 0.314185 -0.578470
v -0.460159 0.170166 -0.193215
v -0.262018 0.050300 -0.721426
v -0.360695 0.027544 -0.578774
v -0.347046 -0.014271 -0.622477
v 0.028524 0.485735 -0.210290
v 0.039563 0.441029 -0.381204
v -0.411712 -0.199822 -0.361322
v -0.488897 0.057536 -0.274688
v -0.325542 -0.025124 -0.659344
v 0.041299 0.462315 -0.306952
v -0.124443 0.054610 -0.762089
v -0.114019 0.118153 -0.705666
v -0.387551 -0.163456 -0.531382
v -0.435588 -0.189125 -0.449590
v -0.413511 0.207729 -0.231634
v -0.334641 -0.144249 -0.448275
v -0.184400 0.152786 -0.581725
v -0.152956 0.274422 -0.439240
v 0.042835 0.508797 -0.174820
v 0.037765 0.509935 -0.174680
v -0.234218 -0.046816 -0.768095
v -0.082468 0.136786 -0.769720
v -0.098848 0.466846 -0.180736
v -0.008461 0.446713 -0.333876
v -0.278572 0.071763 -0.509590
v -0.215428 -0.091046 -0.659902
v 0.005003 0.282905 -0.671809
v -0.325202 0.000723 -0.652521
v -0.120198 0.377672 -0.394830
v 0.044832 0.484860 -0.257904
v -0.139206 0.411677 -0.283828
v -0.269966 0.364084 -0.197371
v -0.092801 0.139842 -0.693535
v -0.376847 -0.057665 -0.575586
v -0.255950 0.320069 -0.327559
v -0.234463 0.126077 -0.696657
v -0.184055 0.198189 -0.669808
v -0.312500 0.115193 -0.396717
v -0.221910 0.361826 -0.286875
v -0.480563 -0.228055 -0.262969
v -0.153168 0.219540 -0.674865
v -0.329621 0.315564 -0.199617
v -0.400716 -0.172879 -0.509604
v -0.319648 -0.122765 -0.631897
v -0.233472 0.247025 -0.369811
v -0.394820 -0.187862 -0.414954
v -0.229004 -0.101884 -0.641785
v -0.475378 -0.225884 -0.283914
v -0.459332 -0.079115 -0.411990
v -0.499456 -0.179337 -0.261202
v -0.444206 -0.054077 -0.443288
v 0.000269 0.359146 -0.556910
v -0.505719 0.084167 -0.197296
v -0.168952 0.113402 -0.660638
v -0.159776 -0.045779 -0.762487
v -0.465459 0.162326 -0.193201
v -0.476637 0.110246 -0.242677
v -0.528701 0.024916 -0.195060
v -0.040513 0.446233 -0.244839
v -0.205397 0.213698 -0.464622
v -0.204478 0.027247 -0.679851
v -0.412396 -0.183756 -0.475850
v -0.256140 -0.068419 -0.743832
v -0.265391 0.351778 -0.237185
v -0.020361 0.355242 -0.550433
v -0.366066 -0.064094 -0.392686
v -0.247841 0.094860 -0.708358
v -0.473899 -0.099430 -0.373737
v -0.248362 -0.056952 -0.757871
v -0.108615 0.157204 -0.660579
v -0.167836 0.323395 -0.333714
v -0.391504 -0.051476 -0.553428
v -0.098454 0.007147 -0.802270
v -0.507834 -0.038523 -0.287306
v -0.116086 0.255827 -0.510164
v -0.104812 0.464778 -0.178442
v -0.339693 -0.111926 -0.622409
v -0.436614 -0.191197 -0.452993
v -0.191583 -0.072016 -0.700581
v -0.367685 -0.139298 -0.568593
v -0.199148 0.065588 -0.673813
v -0.223525 0.131757 -0.703225
v -0.238941 0.094274 -0.717484
v -0.419338 -0.001172 -0.479332
v -0.275813 -0.117672 -0.553024
v 0.002509 0.502972 -0.173083
v -0.432980 -0.008533 -0.454688
v -0.052841 0.162459 -0.689080
v -0.398621 -0.001574 -0.525655
v -0.444097 0.188349 -0.201218
v -0.273118 0.209816 -0.513335
v -0.148855 0.434114 -0.209505
v -0.074723 0.379035 -0.444629
v -0.436825 -0.194160 -0.441922
v -0.526681 -0.028756 -0.237971
v 0.034293 0.487054 -0.213545
v -0.251673 0.374337 -0.202081
v -0.088733 0.173511 -0.652903
v -0.275319 0.012147 -0.724058
v -0.118106 0.347728 -0.467868
v -0.508679 0.031055 -0.230878
v -0.053014 0.116006 -0.784467
v -0.392989 0.016808 -0.523526
v -0.041269 0.240347 -0.596781
v 0.039612 0.495674 -0.222646
v -0.528884 -0.045198 -0.226939
v -0.358224 -0.050576 -0.607418
v -0.339956 0.082761 -0.384802
v -0.163342 0.433598 -0.187109
v -0.366299 -0.173631 -0.457152
v -0.255192 -0.062851 -0.750935
v -0.040506 0.168352 -0.698296
v 0.020926 0.465241 -0.247253
v -0.320232 0.080812 -0.411793
v -0.364666 0.217549 -0.329458
v -0.282175 -0.007381 -0.721390
v -0.438319 -0.129619 -0.445788
v -0.390496 -0.158937 -0.530580
v -0.269805 0.046960 -0.542213
v -0.511522 0.066683 -0.203372
v -0.230682 0.139150 -0.687397
v -0.213544 0.402353 -0.194422
v -0.090466 0.298287 -0.606826
v -0.351675 -0.122891 -0.597949
v -0.306950 -0.091506 -0.682341
v -0.526558 0.024537 -0.204914
v -0.163578 0.382986 -0.323515
v -0.090840 0.410439 -0.348140
v -0.025777 0.374734 -0.353882
v -0.302457 0.311007 -0.245782
v -0.073732 0.290944 -0.639211
v -0.366796 0.277592 -0.207026
v -0.222832 0.025213 -0.643780
v -0.323493 0.311966 -0.221010
v -0.260726 0.371594 -0.195785
v -0.223292 0.173596 -0.492409
v -0.426528 -0.029387 -0.475335
v -0.348988 0.129663 -0.496798
v 0.005501 0.286017 -0.663837
v 0.046060 0.470390 -0.293043
v -0.050440 0.485997 -0.178416
v -0.060033 0.045591 -0.806818
v -0.171608 0.430224 -0.186836
v -0.489840 -0.090429 -0.327277
v -0.048933 0.388789 -0.447346
v -0.020256 0.399931 -0.445817
v -0.513216 0.010763 -0.254324
v -0.282659 0.160638 -0.574836
v -0.118244 -0.019007 -0.802020
v -0.034196 0.075145 -0.793262
v -0.235481 -0.089765 -0.620889
v -0.061332 0.413927 -0.371908
v -0.278194 -0.034823 -0.730157
v -0.359412 -0.175699 -0.409231
v -0.194797 -0.045735 -0.778611
v -0.203682 -0.045794 -0.778559
v -0.480517 -0.077825 -0.356848
v -0.495234 -0.076411 -0.313986
v 0.034319 0.447787 -0.360982
v -0.028763 0.143638 -0.766147
v -0.463882 0.011211 -0.377841
v -0.042676 0.051990 -0.802278
v -0.439138 -0.202624 -0.312814
v -0.049380 0.292948 -0.498625
v -0.248867 -0.106681 -0.596361
v -0.041895 0.093139 -0.771123
v -0.286975 0.093231 -0.650350
v -0.175974 0.381966 -0.263022
v -0.495197 0.096756 -0.211599
v -0.047340 0.348398 -0.391278
v -0.406188 -0.161069 -0.505989
v -0.382213 -0.044151 -0.380396
v -0.074776 0.321874 -0.427396
v -0.038526 0.333474 -0.431759
v -0.121389 0.325830 -0.377017
v -0.311888 -0.049070 -0.493144
v -0.303353 -0.106938 -0.666955
v 0.036245 0.405769 -0.461807
v -0.068518 0.367516 -0.332294
v -0.204544 0.052135 -0.672705
v -0.372332 -0.069951 -0.579742
v -0.084418 0.068740 -0.774238
v -0.109640 0.433835 -0.262797
v -0.385033 0.011628 -0.544689
v -0.319699 -0.045760 -0.671189
v -0.009693 0.445376 -0.255685
v -0.460970 -0.201796 -0.355676
v 0.045598 0.504617 -0.196859
v -0.230274 0.279859 -0.454583
v -0.397932 -0.041753 -0.544057
v -0.102499 0.352465 -0.338894
v -0.336607 -0.131993 -0.610819
v -0.395239 -0.118093 -0.366732
v -0.401014 -0.027790 -0.535803
v -0.412557 0.014370 -0.350827
v -0.028642 0.143219 -0.762394
v -0.492162 -0.138517 -0.306633
v -0.110442 0.219286 -0.702395
v -0.131171 -0.011477 -0.806037
v -0.050878 0.320860 -0.446173
v -0.483664 0.127423 -0.198234
v -0.124480 0.282736 -0.597745
v -0.456436 0.147426 -0.240006
v -0.084623 0.120961 -0.721173
v -0.205490 -0.076288 -0.711507
v -0.288472 -0.082292 -0.707734
v -0.308666 0.269039 -0.341332
v -0.418087 -0.177275 -0.489988
v -0.310254 0.075717 -0.627079
v -0.011082 0.322241 -0.628462
v -0.519287 0.046164 -0.204265
v -0.485961 -0.130503 -0.328140
v -0.348752 0.299368 -0.197527
v -0.206113 -0.014067 -0.780750
v -0.189506 -0.028835 -0.789246
v -0.154622 0.284466 -0.555334
v -0.265824 -0.121533 -0.569950
v -0.142412 0.357069 -0.310572
v -0.156428 -0.006248 -0.799676
v -0.212948 0.404866 -0.191409
v -0.382092 0.153825 -0.398395
v -0.343830 -0.159187 -0.428255
v -0.539107 -0.022748 -0.200078
v -0.026878 0.388196 -0.320593
v -0.408619 -0.196160 -0.383116
v 0.046407 0.506091 -0.182452
v -0.387812 -0.102900 -0.544513
v -0.153935 0.304196 -0.383117
v -0.014322 0.314588 -0.639455
v 0.036830 0.480810 -0.238240
v -0.502133 -0.059751 -0.298112
v -0.456765 -0.215494 -0.345989
v 0.008668 0.465742 -0.233370
v -0.431847 -0.182992 -0.472764
v -0.383810 0.264220 -0.197814
v -0.502976 -0.136361 -0.277794
v -0.320620 -0.154095 -0.482319
v -0.479178 0.030181 -0.326357
v -0.487115 -0.013762 -0.336938
v -0.142987 0.241162 -0.652709
v -0.249371 0.035868 -0.739309
v -0.023790 0.428509 -0.370071
v -0.400818 -0.051294 -0.535533
v 0.032141 0.397760 -0.472000
v -0.034139 0.192345 -0.688164
v -0.458865 -0.001300 -0.396752
v -0.489596 -0.211733 -0.261561
v -0.340343 0.006241 -0.625839
v 0.018780 0.464333 -0.304393
v -0.050818 0.348382 -0.539570
v -0.483177 0.088426 -0.253842
v -0.300893 -0.129013 -0.602295
v -0.130120 0.093340 -0.721320
v -0.147958 -0.036194 -0.770585
v -0.169544 0.097595 -0.679802
v 0.020009 0.339086 -0.610421
v -0.203774 -0.073266 -0.677397
v -0.390884 0.085233 -0.467234
v -0.494151 -0.192709 -0.257401
v -0.187867 0.217432 -0.633128
v -0.051436 0.137605 -0.719646
v -0.466856 -0.146290 -0.378016
v -0.131543 0.286005 -0.443677
v -0.267751 0.181882 -0.567833
v -0.383836 -0.049285 -0.566982
v -0.214199 0.272476 -0.494105
v -0.297954 0.170547 -0.373220
v -0.508775 0.077821 -0.197591
v -0.137696 -0.018621 -0.777164
v -0.048183 0.189506 -0.658418
v -0.189829 0.307565 -0.459288
v -0.111589 -0.011795 -0.797390
v -0.503312 0.035054 -0.259813
v -0.313385 -0.102727 -0.668145
v -0.456903 0.155902 -0.218912
v -0.006202 0.401982 -0.352533
v -0.122099 0.348582 -0.331036
v -0.409679 0.087199 -0.427032
v -0.348597 -0.117805 -0.421508
v -0.192227 0.418130 -0.187348
v -0.020890 0.291546 -0.665139
v -0.494005 -0.199844 -0.257173
v -0.490460 0.119795 -0.192350
v -0.047181 0.073316 -0.800268
v -0.251825 0.107835 -0.692142
v -0.357458 -0.104051 -0.403608
v -0.337590 -0.094496 -0.447031
v -0.148628 0.208243 -0.691515
v -0.321010 -0.101197 -0.658448
v -0.287810 0.016022 -0.519437
v 0.040894 0.427395 -0.410381
v -0.457760 -0.113558 -0.410372
v -0.450900 -0.215232 -0.300672
v -0.292748 -0.014018 -0.708661
v -0.496197 -0.032353 -0.318409
v -0.284785 0.074393 -0.672256
v -0.230743 0.264863 -0.351334
v -0.197037 0.113570 -0.736356
v -0.023135 0.182372 -0.745113
v -0.377649 0.009317 -0.561128
v -0.374662 -0.161920 -0.374067
v 0.034263 0.401226 -0.475494
v -0.249994 0.025917 -0.590645
v -0.199269 0.304575 -0.333870
v -0.470062 -0.212867 -0.317288
v -0.508919 -0.134166 -0.261882
v 0.011822 0.482104 -0.208675
v -0.066267 0.155992 -0.688365
v -0.352191 -0.044850 -0.406240
v -0.395272 -0.030252 -0.547977
v -0.237964 0.222708 -0.398931
v -0.189420 -0.055459 -0.701839
v -0.427249 -0.162755 -0.461670
v -0.480982 -0.202473 -0.297156
v -0.027966 0.239618 -0.711553
v -0.197213 -0.014611 -0.693879
v -0.289565 0.104973 -0.450893
v -0.312520 0.287924 -0.295158
v 0.041988 0.451754 -0.353084
v -0.059404 0.258282 -0.548793
v -0.415043 -0.014595 -0.495481
v -0.111719 0.457468 -0.192731
v -0.523398 0.044566 -0.193580
v -0.535717 -0.032264 -0.211903
v -0.308991 -0.023742 -0.686044
v 0.030878 0.508570 -0.171289
v 0.050226 0.509860 -0.180327
v -0.458558 -0.223018 -0.305349
v -0.178207 0.423723 -0.195230
v -0.350165 0.054978 -0.575266
v -0.408121 0.003903 -0.500339
v -0.027880 0.164605 -0.758306
v -0.133003 0.307441 -0.536768
v -0.189191 0.070836 -0.683575
v -0.410871 0.021025 -0.483376
v -0.438576 -0.182978 -0.432285
v -0.153060 -0.029295 -0.795300
v -0.030275 0.340804 -0.430033
v -0.378020 0.063697 -0.513711
v -0.034936 0.133748 -0.747218
v -0.022463 0.331288 -0.602161
v -0.318391 0.107857 -0.579929
v -0.437755 -0.187077 -0.460698
v -0.066456 0.304047 -0.620645
v -0.238938 0.137224 -0.512879
v -0.450531 -0.182340 -0.400905
v -0.431712 -0.188001 -0.322757
v -0.470944 -0.227274 -0.289041
v -0.407445 -0.014692 -0.513901
v 0.018402 0.330836 -0.603864
v -0.375117 0.033792 -0.546277
v -0.069951 0.297478 -0.476085
v -0.268269 -0.018823 -0.739482
v -0.354773 -0.148670 -0.569638
v -0.377163 -0.172279 -0.485840
v -0.103735 0.021902 -0.794193
v -0.289962 -0.132709 -0.531085
v -0.043225 0.433326 -0.338982
v -0.311927 0.175035 -0.501683
v -0.309023 0.004807 -0.677562
v -0.101458 0.008877 -0.810405
v -0.043072 0.140905 -0.724105
v -0.408725 -0.125485 -0.502582
v -0.148400 0.071562 -0.726651
v -0.406956 -0.059070 -0.518831
v 0.030672 0.375745 -0.528957
v -0.534388 0.014297 -0.189571
v -0.425710 -0.078816 -0.479081
v -0.059235 0.042187 -0.805309
v -0.120894 0.038576 -0.775239
v -0.272190 0.041308 -0.714674
v -0.471150 0.147873 -0.201856
v -0.086213 0.335606 -0.389927
v -0.112539 0.298372 -0.440742
v -0.367018 -0.151922 -0.561222
v -0.403099 0.134623 -0.381801
v -0.258344 0.108091 -0.513687
v -0.041256 0.417202 -0.281144
v -0.226591 0.074810 -0.619472
v -0.037863 0.407344 -0.411945
v -0.518279 -0.046005 -0.258671
v -0.209154 0.137274 -0.711343
v -0.512988 -0.120830 -0.254240
v -0.380034 -0.027400 -0.573965
v -0.079315 0.469024 -0.198504
v -0.225794 0.073423 -0.739404
v -0.163361 0.215414 -0.521272
v -0.124383 -0.023532 -0.792302
v -0.164203 -0.011587 -0.750152
v -0.075389 0.038028 -0.800438
v -0.227334 -0.059789 -0.758307
v -0.429130 -0.208192 -0.338358
v -0.104759 0.277762 -0.631660
v -0.395473 -0.115844 -0.528472
v -0.190680 0.035854 -0.701967
v -0.360040 0.003036 -0.390574
v -0.241362 0.372098 -0.219195
v -0.373891 0.091677 -0.493203
v -0.019726 0.391936 -0.325307
v -0.502414 -0.160760 -0.256943
v -0.371984 0.120491 -0.464138
v 0.027296 0.362941 -0.550944
v 0.020085 0.492667 -0.220148
v -0.490824 -0.201059 -0.269784
v -0.362190 0.095332 -0.511701
v -0.531749 -0.004304 -0.213081
v -0.049812 0.325752 -0.590578
v -0.276951 0.095735 -0.490267
v -0.322256 0.115305 -0.385400
v -0.033323 0.308406 -0.492644
v 0.017125 0.325953 -0.632750
v 0.014711 0.501437 -0.177244
v -0.437593 -0.191024 -0.436838
v -0.001904 0.430352 -0.285336
v -0.036076 0.380512 -0.325919
v -0.122866 0.396186 -0.345462
v -0.534780 -0.029145 -0.210298
v -0.255651 -0.074190 -0.732458
v -0.065752 0.478588 -0.179293
v -0.146565 -0.035358 -0.782638
v -0.082039 0.325655 -0.558265
v -0.062150 0.175570 -0.751240
v -0.404722 -0.159929 -0.351469
v -0.049597 0.479335 -0.187831
v -0.444600 0.072389 -0.366292
v -0.410046 -0.046930 -0.515228
v -0.058461 0.118814 -0.736165
v -0.344529 -0.031730 -0.629289
v -0.311960 0.033273 -0.460761
v -0.391010 -0.132607 -0.533606
v -0.345621 -0.058408 -0.421484
v -0.140953 0.133258 -0.664332
v -0.513564 -0.101946 -0.252572
v -0.337879 -0.050321 -0.640978
v -0.269910 -0.064176 -0.736679
v -0.243201 -0.109854 -0.610448
v -0.537872 0.001916 -0.190198
v -0.000335 0.443532 -0.262850
v 0.025081 0.431453 -0.399190
v -0.278351 -0.103007 -0.669971
v -0.526801 -0.012784 -0.232275
v -0.177923 -0.011458 -0.729090
v -0.495317 0.108733 -0.195047
v -0.265764 0.363066 -0.208775
v -0.379300 -0.155116 -0.546714
v -0.208342 0.077011 -0.650505
v -0.516475 -0.059542 -0.260304
v -0.111835 0.176951 -0.735832
v -0.374987 -0.042213 -0.582325
v -0.171051 -0.055561 -0.737731
v -0.261769 0.078699 -0.537091
v -0.180210 0.185437 -0.542561
v -0.373605 0.274009 -0.199029
v -0.412648 -0.027891 -0.506936
v -0.054003 0.080493 -0.775328
v -0.434697 -0.189390 -0.459954
v -0.438890 -0.198422 -0.425055
v -0.438890 -0.198422 -0.425055
v -0.473671 -0.225007 -0.270694
v -0.262022 -0.063904 -0.745181
v -0.041178 0.053862 -0.804469
v -0.041178 0.053862 -0.804469
v -0.405243 -0.172734 -0.506288
v -0.405243 -0.172734 -0.506288
v -0.481764 0.136353 -0.191641
v -0.036092 0.056215 -0.802714
v -0.036092 0.056215 -0.802714
v -0.036092 0.056215 -0.802714
v -0.415044 0.228787 -0.197732
v -0.484376 -0.223742 -0.261478
v -0.094203 0.002751 -0.810269
v -0.346835 -0.009847 -0.404128
v -0.081051 0.024601 -0.808053
v -0.081051 0.024601 -0.808053
v -0.081051 0.024601 -0.808053
v -0.092891 0.003729 -0.808038
v -0.520939 -0.064411 -0.242411
v -0.503159 -0.166248 -0.256146
v -0.444353 -0.205165 -0.397325
v -0.437817 0.200408 -0.196263
v -0.516685 -0.095909 -0.250328
v -0.436641 -0.185121 -0.464993
v -0.159223 -0.026381 -0.797410
v -0.016518 0.219201 -0.724185
v -0.539536 -0.010071 -0.193328
v -0.356594 -0.141965 -0.581233
v -0.408209 -0.168747 -0.503955
v -0.421720 -0.180629 -0.485093
v -0.421720 -0.180629 -0.485093
v -0.534004 0.016551 -0.189867
v 0.048127 0.511178 -0.174313
v 0.048127 0.511178 -0.174313
v 0.004359 0.503571 -0.170817
v -0.098511 -0.008507 -0.808471
v -0.098511 -0.008507 -0.808471
v -0.098511 -0.008507 -0.808471
v -0.139070 0.447985 -0.182129
v -0.034328 0.492702 -0.172715
v -0.067109 0.480809 -0.174635
v -0.366951 -0.177421 -0.384011
v -0.469129 0.158039 -0.190601
v -0.378354 -0.183534 -0.373218
v -0.112225 -0.012645 -0.807621
v -0.340621 0.008754 -0.404938
v 0.028524 0.485735 -0.210290
v -0.387551 -0.163456 -0.531382
v 0.042835 0.508797 -0.174820
v -0.480563 -0.228055 -0.262969
v -0.480563 -0.228055 -0.262969
v -0.400716 -0.172879 -0.509604
v -0.475378 -0.225884 -0.283914
v -0.505719 0.084167 -0.197296
v -0.104812 0.464778 -0.178442
v -0.436614 -0.191197 -0.452993
v -0.436825 -0.194160 -0.441922
v -0.528884 -0.045198 -0.226939
v -0.255192 -0.062851 -0.750935
v -0.390496 -0.158937 -0.530580
v -0.390496 -0.158937 -0.530580
v -0.060033 0.045591 -0.806818
v -0.034196 0.075145 -0.793262
v -0.042676 0.051990 -0.802278
v -0.038526 0.333474 -0.431759
v -0.418087 -0.177275 -0.489988
v -0.418087 -0.177275 -0.489988
v -0.418087 -0.177275 -0.489988
v -0.348752 0.299368 -0.197527
v -0.539107 -0.022748 -0.200078
v -0.456765 -0.215494 -0.345989
v -0.431847 -0.182992 -0.472764
v -0.431847 -0.182992 -0.472764
v -0.383810 0.264220 -0.197814
v -0.147958 -0.036194 -0.770585
v -0.508775 0.077821 -0.197591
v -0.490460 0.119795 -0.192350
v -0.523398 0.044566 -0.193580
v -0.535717 -0.032264 -0.211903
v 0.030878 0.508570 -0.171289
v 0.050226 0.509860 -0.180327
v -0.437755 -0.187077 -0.460698
v -0.101458 0.008877 -0.810405
v -0.043072 0.140905 -0.724105
v -0.059235 0.042187 -0.805309
v -0.059235 0.042187 -0.805309
v -0.512988 -0.120830 -0.254240
v -0.124383 -0.023532 -0.792302
v -0.437593 -0.191024 -0.436838
v -0.437593 -0.191024 -0.436838
v -0.537872 0.001916 -0.190198
v -0.000335 0.443532 -0.262850
v -0.495317 0.108733 -0.195047
f 26 190 122
f 329 466 357
f 296 914 471
f 713 45 932
f 376 109 728
f 320 222 375
f 688 430 540
f 222 320 728
f 466 470 650
f 558 339 539
f 186 936 90
f 543 407 121
f 79 330 704
f 952 375 574
f 544 844 315
f 536 315 16
f 430 113 465
f 375 188 320
f 522 932 543
f 122 851 26
f 376 721 888
f 916 473 645
f 471 377 90
f 104 249 888
f 540 430 673
f 186 90 701
f 360 45 713
f 21 701 377
f 339 558 375
f 558 851 188
f 509 941 871
f 542 721 472
f 730 167 839
f 21 121 701
f 851 558 250
f 28 296 673
f 315 789 16
f 932 45 407
f 28 702 46
f 360 156 117
f 701 407 186
f 156 45 117
f 377 701 90
f 733 190 360
f 339 167 539
f 839 952 574
f 539 984 959
f 851 269 188
f 946 21 551
f 888 249 313
f 887 559 395
f 360 190 156
f 297 21 946
f 109 824 315
f 952 839 167
f 688 540 850
f 673 936 540
f 839 251 730
f 269 542 472
f 853 733 360
f 288 770 430
f 376 320 269
f 297 522 543
f 851 122 606
f 650 470 104
f 614 509 960
f 540 936 103
f 9 721 542
f 28 673 465
f 770 702 113
f 20 46 702
f 357 466 650
f 90 936 296
f 188 375 558
f 916 884 551
f 430 688 288
f 888 721 503
f 104 503 721
f 190 9 122
f 430 465 673
f 397 884 645
f 395 607 565
f 12 375 222
f 614 941 509
f 297 543 121
f 750 551 1042
f 28 465 113
f 844 544 728
f 645 884 916
f 914 559 887
f 748 26 250
f 321 688 850
f 607 395 559
f 650 9 190
f 315 844 109
f 888 824 376
f 28 46 559
f 941 321 871
f 651 652 833
f 117 45 360
f 871 321 850
f 702 28 113
f 748 156 26
f 888 313 824
f 575 297 946
f 688 321 288
f 121 21 297
f 472 376 269
f 952 167 339
f 606 542 269
f 376 728 320
f 252 475 833
f 156 190 26
f 375 590 574
f 853 360 713
f 652 887 395
f 296 936 673
f 984 167 730
f 650 733 357
f 833 645 473
f 536 544 315
f 645 833 475
f 844 728 109
f 539 850 558
f 824 109 376
f 377 887 473
f 850 250 558
f 853 22 733
f 156 186 407
f 376 472 721
f 315 824 313
f 377 916 551
f 750 946 551
f 539 871 850
f 651 887 652
f 377 551 21
f 1002 539 959
f 252 652 107
f 186 103 936
f 269 851 606
f 932 407 543
f 789 313 249
f 167 984 539
f 956 565 1013
f 430 770 113
f 471 914 887
f 28 559 914
f 833 473 651
f 395 107 652
f 107 395 565
f 407 701 121
f 104 888 503
f 575 522 297
f 156 748 186
f 12 590 375
f 188 269 320
f 652 252 833
f 721 9 104
f 103 748 850
f 296 471 90
f 339 375 952
f 156 407 45
f 26 851 250
f 606 122 9
f 186 748 103
f 914 296 28
f 871 1006 509
f 397 645 475
f 9 650 104
f 357 733 22
f 313 789 315
f 46 20 607
f 887 651 473
f 103 850 540
f 471 887 377
f 46 607 559
f 473 916 377
f 606 9 542
f 850 748 250
f 733 650 190
f 470 249 104
f 263 210 327
f 199 325 192
f 990 456 139
f 672 62 23
f 816 220 4
f 812 462 557
f 687 773 411
f 81 779 389
f 51 267 567
f 134 171 423
f 76 617 31
f 653 408 132
f 695 456 999
f 782 805 316
f 695 999 979
f 925 23 786
f 822 908 314
f 495 843 424
f 938 462 812
f 739 686 568
f 592 270 722
f 501 934 910
f 741 123 608
f 39 609 910
f 636 115 205
f 479 846 483
f 787 178 740
f 670 78 41
f 361 359 175
f 126 416 846
f 846 496 2
f 523 125 261
f 444 231 417
f 483 846 635
f 501 910 592
f 656 692 166
f 635 846 25
f 479 483 216
f 371 442 379
f 528 538 228
f 83 547 633
f 862 674 740
f 431 84 130
f 741 2 65
f 416 740 368
f 405 906 266
f 846 479 898
f 247 91 772
f 895 625 458
f 446 417 231
f 382 646 662
f 692 54 354
f 368 247 416
f 609 592 910
f 600 102 123
f 416 247 461
f 123 65 353
f 569 189 93
f 497 389 697
f 772 91 39
f 906 405 834
f 768 1042 991
f 461 246 416
f 723 363 197
f 898 402 862
f 744 500 171
f 246 461 266
f 608 54 741
f 836 284 337
f 795 261 125
f 546 778 206
f 44 120 227
f 95 166 1017
f 625 78 458
f 1017 166 354
f 4 353 906
f 354 337 1017
f 91 247 178
f 38 444 417
f 858 836 608
f 175 424 843
f 962 646 382
f 943 877 727
f 569 768 195
f 86 160 569
f 86 569 852
f 852 93 492
f 126 740 416
f 492 469 866
f 507 469 299
f 299 469 678
f 299 678 298
f 53 507 299
f 302 298 3
f 3 700 302
f 529 302 700
f 529 700 804
f 594 529 287
f 816 287 220
f 526 446 42
f 526 417 446
f 446 231 205
f 25 2 54
f 895 910 278
f 246 65 2
f 834 30 906
f 661 581 713
f 523 261 234
f 4 102 600
f 834 670 30
f 78 670 834
f 496 846 416
f 358 526 42
f 823 417 684
f 358 42 745
f 285 655 294
f 294 520 745
f 184 294 935
f 295 383 642
f 295 642 876
f 481 746 917
f 903 917 746
f 917 903 840
f 917 840 619
f 619 840 889
f 889 840 627
f 35 59 627
f 14 35 478
f 794 944 518
f 518 15 52
f 52 374 715
f 715 374 857
f 212 946 398
f 886 93 189
f 700 3 923
f 726 91 317
f 287 804 584
f 287 584 766
f 515 314 722
f 314 729 1001
f 147 666 41
f 65 246 353
f 337 662 646
f 517 107 565
f 674 862 798
f 266 906 353
f 898 479 402
f 355 722 1035
f 38 1035 722
f 2 741 54
f 178 368 740
f 278 720 895
f 482 147 911
f 319 911 720
f 203 319 720
f 692 656 795
f 42 655 285
f 203 720 278
f 655 815 502
f 655 502 935
f 642 383 262
f 642 262 289
f 746 561 903
f 35 60 478
f 14 478 137
f 740 126 898
f 944 918 518
f 722 355 515
f 15 374 52
f 63 978 1036
f 405 266 461
f 139 857 969
f 374 15 598
f 15 518 598
f 87 351 622
f 886 189 865
f 317 636 231
f 951 662 923
f 682 203 278
f 678 951 3
f 1046 682 278
f 729 682 1046
f 951 382 662
f 720 911 147
f 804 923 757
f 353 246 266
f 798 862 8
f 584 804 757
f 666 1019 41
f 772 405 247
f 317 444 38
f 91 178 506
f 765 327 283
f 91 506 317
f 720 625 895
f 795 656 828
f 8 862 402
f 319 11 50
f 720 147 625
f 906 30 4
f 722 270 38
f 345 881 488
f 458 910 895
f 166 828 656
f 216 402 479
f 506 178 115
f 82 838 705
f 119 442 654
f 340 612 595
f 233 66 205
f 262 561 289
f 729 1046 1001
f 935 502 162
f 927 89 73
f 162 253 935
f 162 27 253
f 253 27 237
f 38 270 317
f 935 253 383
f 561 75 548
f 561 548 903
f 903 548 837
f 138 840 903
f 442 802 379
f 840 138 627
f 138 60 627
f 627 60 35
f 219 918 944
f 681 821 347
f 772 39 910
f 123 353 600
f 674 241 787
f 691 56 328
f 706 725 60
f 48 799 629
f 138 437 706
f 837 437 138
f 368 178 247
f 836 858 284
f 75 237 13
f 237 75 383
f 2 25 846
f 237 383 253
f 722 314 1001
f 674 787 740
f 1035 38 417
f 247 405 461
f 934 278 910
f 458 78 834
f 234 483 523
f 810 801 331
f 608 123 766
f 635 54 125
f 846 898 126
f 91 726 39
f 125 54 692
f 246 496 416
f 618 244 605
f 795 125 692
f 696 30 1019
f 446 205 66
f 635 125 523
f 317 506 636
f 458 772 910
f 766 123 102
f 351 819 622
f 898 862 740
f 382 951 215
f 696 660 30
f 215 886 865
f 49 658 1039
f 638 374 780
f 374 598 780
f 780 598 182
f 115 787 205
f 523 483 635
f 636 205 231
f 811 918 219
f 205 787 233
f 706 427 725
f 96 13 237
f 467 552 961
f 834 405 458
f 772 458 405
f 600 353 4
f 284 662 337
f 766 858 608
f 828 261 795
f 836 354 54
f 444 317 231
f 270 726 317
f 635 25 54
f 501 592 722
f 123 741 65
f 608 836 54
f 241 233 787
f 241 674 798
f 787 115 178
f 601 684 417
f 491 10 763
f 726 270 592
f 246 2 496
f 354 836 337
f 78 625 41
f 726 609 39
f 726 592 609
f 147 41 625
f 166 692 354
f 115 636 506
f 997 497 227
f 755 778 394
f 1016 957 1040
f 932 661 713
f 575 753 522
f 392 272 822
f 50 393 773
f 601 417 526
f 1003 987 1034
f 463 168 777
f 168 356 811
f 811 356 918
f 584 757 1038
f 233 162 502
f 356 182 598
f 27 798 237
f 777 168 811
f 434 562 805
f 168 234 980
f 13 96 752
f 13 752 437
f 437 752 427
f 427 706 437
f 108 234 168
f 1031 549 697
f 764 939 665
f 344 343 604
f 605 776 618
f 402 752 96
f 8 402 96
f 752 907 427
f 427 907 463
f 463 907 108
f 463 108 168
f 798 8 96
f 782 318 433
f 379 150 943
f 897 894 754
f 864 114 324
f 743 546 900
f 305 820 719
f 547 864 324
f 997 389 497
f 438 410 257
f 333 735 300
f 351 87 933
f 305 310 902
f 440 913 602
f 991 195 768
f 702 230 931
f 359 929 896
f 752 402 216
f 423 311 214
f 752 216 907
f 548 13 437
f 548 437 837
f 219 777 811
f 918 356 518
f 982 941 576
f 356 598 518
f 638 780 958
f 215 1018 382
f 168 980 356
f 182 166 963
f 739 342 861
f 13 548 75
f 706 60 138
f 60 725 478
f 725 463 478
f 478 463 137
f 463 777 137
f 137 777 219
f 694 137 219
f 903 837 138
f 262 75 561
f 262 383 75
f 828 166 182
f 356 828 182
f 3 951 923
f 633 817 277
f 374 638 857
f 456 857 139
f 944 694 219
f 289 561 746
f 383 295 935
f 184 935 295
f 935 294 655
f 42 815 655
f 529 804 287
f 804 700 923
f 469 215 678
f 215 469 886
f 492 886 469
f 93 886 492
f 189 569 195
f 569 93 852
f 1016 1040 970
f 913 1024 1033
f 980 828 356
f 255 239 965
f 1016 970 1037
f 875 452 406
f 488 519 450
f 170 24 723
f 435 272 392
f 518 52 794
f 137 694 784
f 736 59 418
f 736 889 59
f 698 619 889
f 641 289 481
f 641 642 289
f 738 295 876
f 520 184 738
f 520 294 184
f 745 42 285
f 483 234 108
f 907 483 108
f 816 362 287
f 362 594 287
f 566 529 594
f 566 128 529
f 529 128 508
f 128 749 508
f 508 302 529
f 860 53 749
f 53 299 302
f 464 866 507
f 464 373 866
f 373 86 866
f 768 160 765
f 216 483 907
f 316 318 782
f 694 944 794
f 784 694 878
f 736 418 537
f 418 14 537
f 14 137 784
f 736 223 889
f 698 889 223
f 829 619 698
f 829 165 619
f 165 917 619
f 165 481 917
f 876 641 589
f 854 738 648
f 274 745 520
f 274 381 745
f 745 381 358
f 1018 962 382
f 198 601 899
f 198 684 601
f 516 823 684
f 1034 987 516
f 823 516 988
f 528 593 141
f 964 658 49
f 766 102 220
f 666 696 1019
f 848 660 696
f 169 106 848
f 798 96 237
f 169 129 106
f 106 129 816
f 129 362 816
f 129 413 362
f 780 182 963
f 780 963 958
f 241 27 162
f 848 106 816
f 848 816 660
f 362 413 566
f 217 928 413
f 413 928 566
f 128 566 928
f 928 243 128
f 128 243 749
f 860 464 53
f 464 507 53
f 464 409 373
f 409 327 373
f 160 86 373
f 1029 765 283
f 1032 863 185
f 820 486 1012
f 718 22 512
f 711 715 695
f 878 694 794
f 76 14 784
f 76 537 14
f 533 537 76
f 756 736 533
f 533 736 537
f 280 712 223
f 712 698 223
f 159 165 829
f 596 165 159
f 202 165 596
f 202 589 165
f 240 274 854
f 274 520 854
f 274 449 381
f 449 899 381
f 346 899 449
f 516 684 198
f 516 198 346
f 582 989 516
f 908 822 272
f 241 798 27
f 803 729 314
f 233 241 162
f 502 815 233
f 482 396 666
f 482 666 147
f 815 66 233
f 669 71 848
f 71 169 848
f 72 413 571
f 238 217 72
f 413 72 217
f 238 85 217
f 550 217 85
f 751 928 550
f 751 187 243
f 243 187 860
f 183 263 264
f 885 327 210
f 885 398 283
f 1020 985 1026
f 133 398 938
f 885 938 398
f 210 938 885
f 183 210 263
f 140 183 264
f 830 183 140
f 830 140 493
f 428 493 751
f 550 428 751
f 883 238 72
f 870 571 169
f 870 169 71
f 378 71 669
f 669 869 378
f 675 396 482
f 482 911 675
f 682 874 203
f 803 419 682
f 350 582 346
f 449 350 346
f 274 64 449
f 64 274 33
f 33 274 240
f 525 148 202
f 829 158 159
f 157 533 31
f 797 177 193
f 794 52 882
f 998 177 281
f 718 433 193
f 1032 185 1030
f 925 786 615
f 1036 1010 63
f 1024 306 981
f 63 1010 510
f 422 517 410
f 61 422 438
f 579 882 737
f 563 578 579
f 563 532 578
f 47 349 242
f 47 312 349
f 312 31 617
f 312 617 349
f 490 157 312
f 31 312 157
f 762 158 271
f 712 271 158
f 767 159 158
f 391 525 487
f 525 391 912
f 623 912 391
f 527 390 912
f 679 390 527
f 488 637 345
f 450 994 637
f 272 915 920
f 675 773 687
f 671 724 476
f 476 378 671
f 759 476 514
f 477 759 514
f 309 948 883
f 81 389 997
f 307 451 513
f 161 406 452
f 942 676 577
f 179 629 557
f 557 629 812
f 426 753 808
f 343 534 905
f 975 683 151
f 183 577 676
f 942 577 830
f 942 830 428
f 477 883 72
f 759 72 571
f 870 759 571
f 671 378 869
f 411 869 396
f 319 675 911
f 319 203 11
f 874 393 11
f 310 933 902
f 874 11 203
f 874 682 555
f 419 555 682
f 134 432 744
f 272 920 419
f 350 449 345
f 624 390 240
f 912 624 525
f 525 202 487
f 712 158 829
f 617 76 532
f 578 878 579
f 579 878 794
f 710 711 422
f 953 975 364
f 909 953 364
f 3 298 678
f 882 579 794
f 582 350 994
f 33 240 390
f 271 280 756
f 882 52 737
f 737 52 61
f 52 710 61
f 61 710 422
f 996 329 177
f 532 76 578
f 76 31 533
f 271 712 280
f 487 596 159
f 596 487 202
f 624 148 525
f 64 345 449
f 920 221 419
f 221 555 419
f 555 365 874
f 365 393 874
f 85 445 451
f 637 488 450
f 812 808 133
f 808 812 77
f 942 428 474
f 474 85 451
f 445 513 451
f 477 72 759
f 476 759 870
f 476 870 378
f 869 411 671
f 687 411 396
f 675 687 396
f 393 50 11
f 328 56 282
f 272 419 908
f 50 675 319
f 870 71 378
f 883 948 238
f 948 513 238
f 513 445 238
f 474 550 85
f 474 428 550
f 428 830 493
f 577 183 830
f 133 212 398
f 938 812 133
f 808 212 133
f 183 676 891
f 942 875 179
f 179 875 403
f 6 307 513
f 556 948 309
f 514 404 309
f 404 514 476
f 773 308 447
f 773 447 411
f 555 664 365
f 488 881 818
f 489 391 97
f 685 767 762
f 271 760 34
f 5 760 271
f 207 490 47
f 207 47 242
f 207 242 663
f 68 242 142
f 142 563 498
f 142 867 68
f 142 498 867
f 341 572 401
f 595 867 498
f 595 498 340
f 737 61 849
f 438 422 410
f 249 281 843
f 316 562 668
f 879 896 929
f 507 866 469
f 124 753 426
f 124 426 647
f 790 323 612
f 43 629 799
f 179 48 629
f 632 841 6
f 457 29 404
f 457 404 724
f 447 457 724
f 567 308 773
f 393 567 773
f 714 567 393
f 221 664 555
f 341 244 915
f 484 800 714
f 714 365 664
f 567 267 308
f 307 173 336
f 173 455 336
f 947 48 455
f 455 48 403
f 40 43 799
f 495 955 789
f 40 426 43
f 686 806 268
f 55 716 209
f 661 172 581
f 334 130 84
f 615 947 521
f 904 468 521
f 904 521 947
f 425 904 873
f 425 153 813
f 258 153 425
f 326 256 258
f 29 541 807
f 793 541 51
f 800 793 51
f 793 484 10
f 637 994 350
f 394 955 495
f 626 664 893
f 618 893 244
f 235 141 776
f 141 235 716
f 716 825 209
f 209 825 399
f 209 399 37
f 36 37 399
f 560 36 535
f 812 629 77
f 218 111 855
f 634 224 290
f 676 557 462
f 290 838 32
f 838 82 826
f 499 826 432
f 826 82 432
f 171 134 744
f 524 500 744
f 500 524 924
f 924 524 505
f 924 505 930
f 275 930 88
f 88 930 100
f 1007 135 331
f 1007 1004 135
f 193 329 718
f 226 245 144
f 245 226 431
f 863 1045 306
f 245 431 672
f 783 245 672
f 925 468 152
f 154 905 763
f 412 369 484
f 1043 364 832
f 593 893 618
f 631 141 716
f 209 37 940
f 940 37 560
f 200 292 531
f 200 531 814
f 814 181 703
f 703 181 218
f 366 218 855
f 634 366 224
f 14 418 35
f 835 32 847
f 32 838 826
f 796 499 423
f 311 367 880
f 500 367 171
f 880 367 370
f 367 500 370
f 441 291 491
f 603 677 530
f 603 530 945
f 677 603 275
f 723 197 170
f 945 530 761
f 530 568 761
f 568 530 342
f 213 677 197
f 926 890 163
f 163 576 1014
f 955 394 1005
f 683 1025 801
f 1007 801 1025
f 785 573 88
f 197 348 620
f 573 288 620
f 348 573 620
f 930 275 603
f 370 924 603
f 412 664 626
f 10 491 291
f 23 89 672
f 226 144 581
f 144 853 581
f 495 789 659
f 257 649 849
f 62 431 130
f 813 468 904
f 441 18 256
f 256 326 291
f 62 130 786
f 431 226 84
f 709 949 538
f 226 581 172
f 226 172 84
f 615 521 925
f 925 521 468
f 425 813 904
f 807 291 326
f 10 541 793
f 793 800 484
f 412 484 664
f 610 534 343
f 920 244 221
f 484 714 664
f 244 341 605
f 605 341 401
f 825 588 399
f 527 36 286
f 535 229 292
f 292 229 531
f 531 489 386
f 111 194 685
f 855 587 224
f 224 587 644
f 224 208 290
f 224 644 208
f 290 208 838
f 227 497 586
f 432 421 744
f 744 421 524
f 524 856 505
f 505 856 821
f 505 821 681
f 100 347 225
f 659 249 843
f 100 785 88
f 930 505 681
f 100 930 681
f 100 225 785
f 785 225 621
f 249 998 281
f 875 455 403
f 276 649 257
f 612 849 649
f 612 164 595
f 94 68 164
f 260 68 94
f 644 5 279
f 760 5 644
f 587 271 34
f 762 271 587
f 489 97 386
f 229 391 489
f 818 881 146
f 766 584 1038
f 588 145 818
f 685 194 386
f 327 765 160
f 663 792 118
f 118 792 260
f 118 260 421
f 323 856 421
f 856 323 821
f 821 323 790
f 821 790 415
f 347 415 276
f 347 276 225
f 276 257 230
f 415 649 276
f 415 790 612
f 415 612 649
f 323 164 612
f 323 94 164
f 792 68 260
f 279 490 644
f 588 146 286
f 818 146 588
f 519 818 145
f 36 527 623
f 762 587 685
f 760 587 34
f 838 207 663
f 838 663 705
f 260 94 421
f 421 94 323
f 1044 510 1011
f 582 994 989
f 621 230 702
f 225 230 621
f 230 225 276
f 415 347 821
f 524 421 856
f 705 663 118
f 208 490 207
f 208 644 490
f 587 760 644
f 111 685 587
f 489 531 229
f 535 623 229
f 36 623 535
f 825 145 588
f 993 1009 145
f 244 664 221
f 51 457 267
f 632 425 841
f 947 455 173
f 947 615 48
f 40 799 615
f 40 615 786
f 334 84 172
f 647 426 334
f 172 661 647
f 661 124 647
f 177 998 996
f 647 334 172
f 130 334 40
f 947 173 873
f 873 173 841
f 841 425 873
f 258 425 632
f 326 258 632
f 326 632 556
f 807 556 29
f 800 51 567
f 567 714 800
f 763 10 369
f 341 995 572
f 450 519 1009
f 519 488 818
f 146 679 286
f 286 679 527
f 229 623 391
f 767 386 97
f 386 767 685
f 663 242 792
f 639 145 825
f 792 242 68
f 164 867 595
f 340 849 612
f 931 230 257
f 322 960 1021
f 68 867 164
f 421 432 118
f 432 705 118
f 82 705 432
f 208 207 838
f 587 855 111
f 181 386 194
f 386 181 531
f 36 399 286
f 286 399 588
f 235 993 145
f 401 235 605
f 10 291 541
f 256 18 258
f 18 153 258
f 23 62 786
f 672 431 62
f 22 718 357
f 813 610 468
f 610 813 153
f 18 610 153
f 534 18 441
f 141 618 776
f 560 37 36
f 560 535 292
f 218 181 111
f 366 855 224
f 32 901 634
f 499 432 423
f 134 423 432
f 370 500 924
f 275 88 573
f 275 573 348
f 614 960 322
f 778 743 966
f 145 639 235
f 620 576 170
f 24 170 576
f 982 576 620
f 293 926 163
f 114 723 890
f 864 363 114
f 213 197 363
f 686 268 568
f 180 686 739
f 861 922 739
f 303 385 180
f 180 806 686
f 180 690 806
f 303 950 385
f 845 98 385
f 585 845 817
f 827 599 585
f 236 192 831
f 774 897 754
f 774 366 897
f 366 110 872
f 872 717 366
f 480 67 717
f 611 99 814
f 814 99 384
f 538 631 191
f 228 626 893
f 892 604 154
f 892 434 344
f 562 434 892
f 927 775 783
f 775 245 783
f 775 512 245
f 433 718 512
f 344 80 343
f 775 433 512
f 143 626 228
f 448 626 143
f 56 691 412
f 689 70 668
f 797 193 318
f 329 193 177
f 193 433 318
f 667 136 485
f 809 293 485
f 613 114 859
f 817 950 277
f 580 817 633
f 831 580 583
f 583 236 831
f 372 110 774
f 335 872 110
f 628 630 384
f 127 630 628
f 628 1023 127
f 611 265 99
f 453 480 872
f 335 453 872
f 301 372 774
f 325 414 304
f 192 325 304
f 236 199 192
f 583 580 633
f 583 633 547
f 633 277 83
f 613 859 248
f 439 136 101
f 136 983 1022
f 931 410 956
f 510 439 63
f 1043 439 510
f 248 293 809
f 388 613 248
f 17 583 547
f 17 742 199
f 583 17 236
f 17 199 236
f 325 460 414
f 338 921 301
f 774 414 301
f 921 372 301
f 372 7 335
f 259 690 98
f 459 67 480
f 265 384 99
f 255 384 265
f 628 384 255
f 709 731 949
f 949 143 538
f 352 56 448
f 668 691 211
f 919 70 689
f 797 70 919
f 843 281 919
f 291 441 256
f 661 932 124
f 832 439 1043
f 387 809 832
f 388 387 842
f 388 248 387
f 788 324 613
f 545 547 788
f 112 547 545
f 300 547 112
f 17 300 742
f 300 429 742
f 429 657 742
f 199 657 325
f 657 131 460
f 7 921 338
f 420 335 7
f 174 453 420
f 699 459 480
f 67 459 265
f 92 143 949
f 785 621 770
f 112 545 788
f 112 132 333
f 300 735 429
f 734 460 131
f 338 301 734
f 699 453 174
f 155 344 434
f 965 1028 255
f 731 120 44
f 257 849 438
f 621 702 770
f 758 683 196
f 1022 101 136
f 333 132 105
f 105 132 408
f 653 132 112
f 653 112 564
f 443 653 564
f 758 74 564
f 149 734 131
f 769 338 734
f 338 769 504
f 58 747 504
f 553 174 420
f 553 420 747
f 868 459 699
f 400 459 868
f 976 239 552
f 400 552 239
f 771 352 511
f 931 257 410
f 713 581 853
f 175 201 424
f 273 352 771
f 697 273 771
f 868 961 552
f 400 868 552
f 868 699 174
f 697 586 497
f 697 771 586
f 913 306 1024
f 352 597 56
f 843 495 659
f 175 843 919
f 361 175 328
f 467 976 552
f 332 553 665
f 769 734 149
f 131 643 149
f 735 19 57
f 570 791 380
f 943 727 371
f 371 727 442
f 442 727 654
f 732 693 69
f 693 708 196
f 693 196 810
f 785 288 573
f 408 727 380
f 708 443 74
f 640 443 708
f 380 791 105
f 408 380 105
f 727 408 654
f 119 654 640
f 119 640 693
f 693 640 708
f 196 683 801
f 982 620 288
f 331 900 810
f 900 732 69
f 802 442 732
f 943 371 379
f 727 877 570
f 570 877 591
f 454 570 591
f 937 57 19
f 937 902 57
f 58 504 769
f 616 665 58
f 665 553 747
f 549 273 697
f 597 440 282
f 282 204 929
f 973 379 232
f 204 977 929
f 977 879 929
f 879 974 896
f 896 201 359
f 201 175 359
f 755 974 778
f 896 755 201
f 618 141 593
f 201 755 424
f 778 966 394
f 424 394 495
f 941 614 576
f 144 22 853
f 1030 1008 1047
f 462 891 676
f 32 634 290
f 900 331 743
f 288 785 770
f 802 732 546
f 877 943 150
f 1012 150 973
f 1012 486 150
f 591 877 486
f 643 57 902
f 622 769 149
f 622 149 643
f 58 769 707
f 616 707 819
f 616 819 764
f 554 273 185
f 622 819 707
f 591 305 937
f 19 454 591
f 591 486 820
f 591 820 305
f 900 546 732
f 534 441 491
f 1033 602 913
f 597 176 440
f 554 306 176
f 273 176 597
f 87 902 933
f 719 310 305
f 1005 394 966
f 306 913 176
f 863 306 554
f 863 986 1045
f 1045 981 306
f 305 902 937
f 554 185 863
f 273 554 176
f 176 913 440
f 591 937 19
f 902 87 643
f 622 643 87
f 707 769 622
f 185 273 549
f 707 616 58
f 486 877 150
f 379 802 1041
f 802 206 1041
f 206 802 546
f 528 141 631
f 743 778 546
f 604 905 154
f 755 394 424
f 929 359 361
f 929 361 282
f 440 204 282
f 81 1047 779
f 332 939 961
f 939 332 665
f 665 747 58
f 735 436 19
f 454 19 436
f 69 810 900
f 124 932 522
f 1007 331 801
f 693 810 69
f 693 732 119
f 732 442 119
f 380 727 570
f 791 570 454
f 791 454 436
f 643 131 57
f 332 174 553
f 868 174 332
f 273 597 352
f 597 282 56
f 361 328 282
f 919 328 175
f 691 328 211
f 771 511 586
f 586 511 92
f 227 586 44
f 976 965 239
f 265 400 239
f 400 265 459
f 747 7 504
f 57 131 429
f 57 429 735
f 333 436 735
f 436 333 791
f 791 333 105
f 408 653 640
f 640 653 443
f 443 564 74
f 196 708 74
f 74 758 196
f 683 758 151
f 1022 1027 101
f 410 517 565
f 586 92 44
f 265 239 255
f 747 420 7
f 504 7 338
f 333 300 112
f 788 564 112
f 564 788 758
f 758 388 842
f 212 575 946
f 63 1027 978
f 212 808 575
f 753 575 808
f 422 107 517
f 842 387 832
f 842 832 364
f 422 711 107
f 842 364 151
f 758 788 388
f 758 842 151
f 683 975 1025
f 919 689 328
f 328 689 211
f 511 352 448
f 92 511 143
f 44 92 949
f 1028 628 255
f 699 480 453
f 734 301 460
f 657 460 325
f 199 742 657
f 788 613 388
f 101 1027 63
f 711 979 107
f 281 177 797
f 281 797 919
f 511 448 143
f 67 265 611
f 435 995 915
f 301 414 460
f 300 17 547
f 613 324 114
f 387 248 809
f 439 832 809
f 439 809 136
f 439 101 63
f 283 946 1029
f 983 136 667
f 809 485 136
f 414 774 304
f 372 335 110
f 191 127 1023
f 709 538 191
f 480 717 872
f 580 827 817
f 950 303 922
f 277 950 922
f 277 922 861
f 864 83 363
f 114 890 859
f 248 859 293
f 291 807 541
f 275 197 677
f 711 695 979
f 783 672 89
f 927 783 89
f 927 73 805
f 152 494 73
f 494 968 73
f 494 152 80
f 925 89 23
f 89 925 73
f 73 925 152
f 610 80 152
f 80 610 343
f 691 154 412
f 412 154 369
f 974 755 896
f 379 1041 232
f 283 398 946
f 1023 628 1028
f 155 1000 344
f 1000 80 344
f 604 892 344
f 191 631 55
f 127 191 940
f 630 560 200
f 200 814 384
f 611 703 218
f 611 218 67
f 717 218 366
f 897 366 634
f 897 634 894
f 894 901 835
f 894 634 901
f 254 847 599
f 599 847 680
f 680 1 585
f 680 847 796
f 796 423 214
f 259 214 311
f 880 806 311
f 259 311 806
f 259 806 690
f 1 214 259
f 385 98 690
f 845 585 98
f 599 680 585
f 827 254 599
f 831 254 827
f 254 835 847
f 254 116 835
f 228 893 593
f 228 593 528
f 940 560 630
f 831 116 254
f 98 585 1
f 98 1 259
f 268 761 568
f 268 945 761
f 945 880 370
f 268 880 945
f 214 1 796
f 1 680 796
f 116 894 835
f 754 894 116
f 814 703 611
f 191 55 940
f 512 144 245
f 768 750 1042
f 512 22 144
f 318 316 797
f 70 316 668
f 211 689 668
f 448 412 626
f 56 412 448
f 668 562 892
f 316 805 562
f 135 743 331
f 782 433 775
f 927 782 775
f 782 927 805
f 434 805 155
f 668 892 154
f 668 154 691
f 631 538 528
f 127 940 630
f 630 200 384
f 67 218 717
f 110 366 774
f 774 754 304
f 304 754 116
f 304 116 192
f 192 116 831
f 580 831 827
f 817 827 585
f 950 845 385
f 385 690 180
f 303 180 922
f 739 922 180
f 861 213 83
f 83 213 363
f 739 568 342
f 342 213 861
f 293 859 926
f 859 890 926
f 485 293 163
f 485 163 667
f 667 163 1014
f 667 1015 983
f 956 410 565
f 1011 510 1010
f 1044 1011 954
f 163 24 576
f 890 24 163
f 890 723 24
f 342 530 213
f 530 677 213
f 197 275 348
f 945 370 603
f 311 171 367
f 423 171 311
f 847 499 796
f 847 826 499
f 32 826 847
f 901 32 835
f 905 604 343
f 814 531 181
f 560 292 200
f 55 209 940
f 55 631 716
f 154 763 369
f 763 905 491
f 905 534 491
f 534 610 18
f 610 152 468
f 131 657 429
f 124 522 753
f 181 194 111
f 235 639 716
f 893 664 244
f 357 718 329
f 519 145 1009
f 369 10 484
f 228 538 143
f 541 457 51
f 541 29 457
f 807 326 556
f 904 947 873
f 786 130 40
f 725 427 463
f 215 951 678
f 332 961 868
f 389 1031 697
f 284 1038 757
f 515 822 314
f 949 731 44
f 975 151 364
f 654 408 640
f 334 426 40
f 6 173 307
f 173 6 841
f 29 556 309
f 267 457 447
f 267 447 308
f 215 865 1018
f 864 547 83
f 920 915 244
f 341 915 995
f 309 404 29
f 406 336 455
f 336 406 161
f 875 406 455
f 48 179 403
f 426 77 43
f 849 61 438
f 340 737 849
f 498 737 340
f 242 781 142
f 242 349 781
f 490 312 47
f 279 157 490
f 279 5 157
f 767 158 762
f 527 912 623
f 881 64 146
f 447 671 411
f 447 724 671
f 404 476 724
f 883 514 309
f 556 632 948
f 632 513 948
f 632 6 513
f 336 161 307
f 808 77 426
f 863 1032 986
f 557 676 179
f 179 676 942
f 452 875 942
f 452 942 474
f 474 451 452
f 161 452 451
f 307 161 451
f 514 883 477
f 773 675 50
f 365 714 393
f 435 915 272
f 345 637 350
f 881 345 64
f 146 64 33
f 679 146 33
f 679 33 390
f 912 390 624
f 391 487 97
f 767 97 159
f 487 159 97
f 756 5 271
f 157 5 756
f 781 349 617
f 781 617 532
f 142 781 532
f 142 532 563
f 563 579 498
f 579 737 498
f 972 992 967
f 788 547 324
f 880 268 806
f 710 715 711
f 76 878 578
f 157 756 533
f 756 280 223
f 148 624 648
f 648 624 854
f 240 854 624
f 419 314 908
f 419 803 314
f 803 682 729
f 757 923 284
f 923 662 284
f 42 66 815
f 446 66 42
f 4 220 102
f 869 666 396
f 869 669 666
f 445 85 238
f 751 493 187
f 140 264 493
f 891 462 183
f 183 462 210
f 210 462 938
f 999 456 990
f 885 283 327
f 263 327 409
f 263 409 264
f 493 264 860
f 187 493 860
f 243 928 751
f 550 928 217
f 571 413 129
f 129 169 571
f 669 848 696
f 666 669 696
f 1034 516 989
f 582 516 346
f 346 198 899
f 202 148 589
f 712 829 698
f 223 736 756
f 76 784 878
f 327 160 373
f 409 464 264
f 860 264 464
f 243 860 749
f 220 287 766
f 601 358 899
f 899 358 381
f 854 520 738
f 876 648 738
f 648 876 148
f 148 876 589
f 589 641 481
f 589 481 165
f 52 715 710
f 659 789 249
f 86 852 866
f 749 53 302
f 749 302 508
f 566 594 362
f 660 4 30
f 660 816 4
f 601 526 358
f 738 184 295
f 876 642 641
f 746 481 289
f 35 418 59
f 715 857 695
f 857 456 695
f 889 627 59
f 114 363 723
f 745 285 294
f 299 298 302
f 852 492 866
f 768 569 160
f 768 765 1029
f 702 931 20
f 197 620 170
f 921 7 372
f 810 196 801
f 1008 779 1047
f 639 825 716
f 70 797 316
f 1008 1030 185
f 603 924 930
f 235 776 605
f 629 43 77
f 602 204 440
f 453 335 420
f 616 764 665
f 805 73 968
f 379 973 150
f 48 615 799
f 347 100 681
f 972 967 971
f 817 845 950
f 861 83 277