v -0.004935 0.489882 0.098457
v -0.190164 0.450546 0.162235
v -0.188463 0.472099 0.181329
v -0.113942 0.561587 0.250174
v -0.178557 0.545969 0.257699
v 0.001326 0.524938 0.186255
v 0.063479 0.506568 0.167069
v -0.323946 0.455578 0.239636
v 0.076652 0.492921 0.134837
v -0.336611 0.443751 0.213319
v -0.334942 0.456773 0.241914
v 0.009631 0.481009 0.037216
v -0.330082 0.459329 0.247417
v -0.332119 0.402199 0.185855
v -0.208017 0.396456 -0.052198
v -0.089814 0.402763 -0.213988
v -0.037891 0.415548 -0.215811
v -0.313139 0.475981 0.245515
v -0.316854 0.462453 0.200643
v -0.325707 0.447563 0.180895
v -0.307149 0.363256 0.108740
v -0.316534 0.473692 0.255085
v -0.310722 0.478615 0.253102
v -0.327350 0.463693 0.237095
v -0.295780 0.486703 0.256446
v -0.126241 0.467195 0.134182
v -0.132968 0.482157 0.172004
v -0.244176 0.510436 0.250408
v -0.302406 0.477212 0.218884
v -0.275468 0.499775 0.255721
v -0.260393 0.508409 0.251309
v -0.242153 0.516161 0.255568
v -0.216263 0.506200 0.227135
v -0.027983 0.427349 -0.180249
v -0.006158 0.468975 -0.018168
v -0.031108 0.456331 -0.062754
v -0.118813 0.463750 0.083530
v -0.060039 0.469031 0.022635
v -0.074604 0.474037 0.068091
v -0.250152 0.404785 0.124236
v -0.256989 0.408586 0.152502
v -0.199972 0.433643 0.123916
v -0.089102 0.476113 0.109121
v -0.157208 0.452127 0.108976
v -0.028172 0.479893 0.050608
v -0.215933 0.428656 0.142838
v -0.262678 0.400580 0.141787
v 0.009826 0.455458 -0.084299
v 0.001141 0.440794 -0.141774
v -0.065309 0.422196 -0.171532
v -0.205918 0.410728 0.002372
v -0.262093 0.383810 0.042411
v -0.064673 0.449398 -0.065025
v -0.222232 0.417062 0.088197
v -0.184771 0.436360 0.082538
v -0.152699 0.448249 0.064848
v -0.043421 0.466312 -0.007588
v 0.035537 0.491115 0.098755
v -0.095782 0.451907 -0.016728
v -0.115333 0.458709 0.046180
v -0.260560 0.392358 0.085635
v -0.203731 0.421577 0.050545
v -0.143812 0.438565 -0.002638
v -0.167564 0.435375 0.029994
v 0.050827 0.515262 0.176154
v 0.025134 0.496426 0.137502
v 0.054095 0.500358 0.155101
v -0.263260 0.454959 0.199126
v -0.334787 0.434478 0.219389
v -0.304029 0.381685 0.158126
v -0.330661 0.379471 0.163199
v -0.324223 0.375073 0.092813
v -0.337222 0.414654 0.195225
v -0.335376 0.395688 0.163338
v -0.323514 0.406557 0.188565
v -0.284857 0.369658 0.054700
v -0.154758 0.418381 -0.070057
v -0.180403 0.413984 -0.040420
v -0.123215 0.416032 -0.128066
v -0.158081 0.401975 -0.126644
v -0.086092 0.436677 -0.095554
v -0.185583 0.390972 -0.116940
v -0.324038 0.379546 0.165384
v -0.091460 0.386714 -0.259440
v -0.301995 0.358099 0.053974
v -0.122754 0.439120 -0.035857
v -0.118692 0.429941 -0.080917
v 0.087475 0.464498 -0.025463
v 0.118369 0.476905 0.074760
v 0.050726 0.468418 -0.025382
v 0.118893 0.482396 0.116650
v 0.149106 0.470783 0.090755
v 0.155899 0.474504 0.133549
v 0.107687 0.496063 0.160091
v -0.131703 0.565930 0.242295
v -0.151075 0.380391 -0.207374
v -0.154526 0.391087 -0.169094
v -0.067646 0.585166 0.266053
v -0.033824 0.577974 0.248069
v 0.115025 0.488776 0.146381
v 0.042397 0.481882 0.042296
v 0.073286 0.486631 0.087929
v 0.091640 0.474863 0.032668
v 0.029255 0.471190 -0.015680
v -0.218114 0.375470 -0.105799
v -0.193646 0.370329 -0.168245
v -0.019804 0.408749 -0.245679
v 0.122224 0.462286 -0.002860
v -0.026282 0.505296 0.169718
v -0.040102 0.510697 0.177606
v 0.001820 0.503785 0.163443
v -0.095349 0.546210 0.223112
v -0.183332 0.546632 0.253384
v -0.111731 0.575188 0.261978
v -0.069326 0.587618 0.267523
v -0.120573 0.570480 0.263275
v 0.247700 0.441315 0.149320
v 0.164721 0.450143 0.005020
v -0.181514 0.545030 0.236980
v 0.232973 0.436351 0.110047
v -0.289465 0.349827 -0.041932
v -0.270360 0.351579 -0.072222
v -0.245369 0.332456 -0.180864
v 0.242254 0.437359 0.132241
v 0.257583 0.439823 0.146210
v -0.042878 0.485344 0.099923
v -0.108330 0.477761 0.154063
v -0.003124 0.498305 0.151771
v -0.202855 0.528066 0.202263
v -0.271451 0.494531 0.212563
v -0.276018 0.498140 0.240880
v -0.222518 0.526064 0.237785
v 0.006895 0.602065 0.238034
v -0.032444 0.597928 0.262550
v -0.052404 0.593036 0.264996
v 0.035371 0.605539 0.272973
v 0.013888 0.607000 0.270449
v -0.073788 0.569404 0.161376
v -0.112935 0.553848 0.148916
v -0.289082 0.462516 0.130045
v -0.300978 0.455636 0.135074
v -0.055652 0.493216 0.157998
v -0.060279 0.487087 0.139971
v -0.119446 0.520159 0.201901
v -0.306344 0.373031 0.011287
v -0.298274 0.355042 -0.024130
v -0.328299 0.454492 0.208554
v -0.331838 0.420040 0.159467
v -0.093606 0.488616 0.165918
v -0.267359 0.342447 -0.111137
v -0.217999 0.315168 -0.271055
v -0.245195 0.353359 -0.119746
v -0.250432 0.327659 -0.188150
v 0.254214 0.436489 0.122333
v -0.000156 0.394334 -0.293554
v 0.269241 0.446943 0.156202
v 0.291064 0.465834 0.179747
v 0.093778 0.605941 0.271188
v -0.300911 0.375945 0.145968
v -0.197282 0.506242 0.100268
v -0.245722 0.383849 -0.009695
v -0.036504 0.578432 0.155908
v -0.220458 0.310281 -0.282408
v -0.274715 0.341192 -0.113104
v -0.270615 0.341044 -0.136485
v -0.086134 0.371627 -0.307336
v -0.054694 0.381892 -0.312321
v -0.019347 0.389274 -0.305844
v 0.027891 0.409410 -0.251622
v 0.060947 0.426700 -0.186547
v 0.124950 0.436729 -0.106434
v 0.173126 0.434598 -0.046930
v 0.234582 0.425490 0.023041
v -0.289987 0.411378 0.001161
v -0.277717 0.433877 0.015321
v -0.254332 0.446470 0.002769
v -0.298908 0.439451 0.082045
v -0.050569 0.560621 0.090530
v 0.057100 0.609123 0.241698
v 0.073567 0.613066 0.272466
v 0.177719 0.598209 0.269846
v 0.136444 0.612062 0.275809
v 0.331381 0.490198 0.209033
v 0.290979 0.461211 0.164345
v -0.286990 0.357121 -0.004995
v -0.318622 0.356954 0.084552
v -0.318188 0.358527 0.065863
v -0.319204 0.360217 0.127373
v -0.315649 0.365114 0.142255
v -0.320359 0.438400 0.142795
v -0.013455 0.594341 0.266312
v 0.210924 0.453151 0.141132
v 0.183981 0.459466 0.108810
v -0.236343 0.378720 -0.054270
v 0.005295 0.423644 -0.205321
v 0.092760 0.452596 -0.074082
v 0.173108 0.457459 0.061351
v 0.158041 0.504409 0.178922
v 0.036239 0.597028 0.262882
v -0.147684 0.551742 0.200429
v -0.303198 0.466469 0.178821
v -0.325275 0.363155 0.139237
v -0.316254 0.391418 0.063755
v -0.304586 0.352642 0.016680
v 0.241876 0.432759 0.087207
v 0.329300 0.493440 0.217165
v -0.195802 0.359191 -0.196427
v 0.247946 0.545222 0.234527
v -0.294899 0.444120 0.084375
v -0.125661 0.394675 -0.198376
v -0.107232 0.372048 -0.283062
v -0.223419 0.468229 0.013937
v -0.270881 0.361932 -0.123815
v -0.244145 0.321267 -0.223349
v -0.017794 0.390129 -0.310682
v -0.202520 0.318500 -0.285903
v -0.157635 0.344480 -0.290298
v -0.114241 0.359524 -0.310862
v 0.065425 0.409951 -0.300973
v -0.036193 0.390980 -0.309946
v 0.205821 0.444171 0.075007
v 0.217143 0.445315 0.123401
v 0.143194 0.463148 0.031612
v 0.016276 0.392189 -0.309709
v 0.036687 0.418300 -0.223279
v 0.211163 0.421196 -0.028269
v 0.223476 0.422619 -0.001472
v 0.315404 0.478008 0.168328
v 0.247310 0.432825 0.066122
v 0.228035 0.453116 0.155552
v 0.260777 0.439914 0.096071
v -0.011756 0.599714 0.272031
v -0.113448 0.386980 -0.291696
v -0.157041 0.335215 -0.315813
v -0.248571 0.337008 -0.211093
v -0.009805 0.601772 0.272263
v -0.286068 0.395135 -0.035451
v -0.265939 0.400048 -0.087882
v -0.266397 0.439133 0.005061
v 0.030703 0.608969 0.263522
v 0.124214 0.614234 0.263078
v 0.136662 0.613265 0.272810
v -0.036284 0.595334 0.249019
v 0.147439 0.607789 0.274917
v 0.209350 0.603619 0.255204
v 0.197721 0.606078 0.272537
v -0.310253 0.449838 0.140811
v -0.240228 0.493451 0.137185
v -0.289572 0.448967 0.086224
v 0.207389 0.601952 0.274871
v 0.220554 0.595880 0.274334
v 0.286517 0.566448 0.267632
v 0.365219 0.508268 0.233314
v 0.357759 0.506383 0.237096
v 0.343749 0.518848 0.249757
v -0.141898 0.513689 0.033178
v -0.328715 0.398350 0.127105
v -0.314222 0.361372 0.039934
v 0.138890 0.451319 -0.031495
v -0.314912 0.422601 0.096265
v 0.116275 0.451096 -0.059052
v 0.095883 0.439209 -0.122025
v 0.249846 0.452054 0.163561
v 0.248621 0.473671 0.179767
v 0.231831 0.510880 0.200657
v -0.025489 0.591348 0.211094
v -0.165782 0.532302 0.146569
v -0.211549 0.408930 -0.180640
v -0.198139 0.415150 -0.185496
v -0.278156 0.476245 0.155007
v -0.302246 0.404137 0.028262
v 0.047620 0.396383 -0.311966
v 0.051876 0.390993 -0.313899
v -0.069752 0.432272 -0.253361
v -0.163358 0.427092 -0.200935
v -0.125500 0.429546 -0.227975
v -0.053846 0.386254 -0.291623
v -0.047906 0.383306 -0.307371
v -0.129444 0.375343 -0.249418
v 0.227289 0.432679 0.061973
v 0.243261 0.595666 0.270027
v 0.236977 0.574863 0.259759
v 0.319181 0.542944 0.260285
v 0.376162 0.523201 0.257676
v 0.278799 0.452430 0.124692
v 0.276127 0.450580 0.062669
v 0.040883 0.391483 -0.303136
v 0.071329 0.408008 -0.242975
v 0.096261 0.410154 -0.221633
v 0.266142 0.442763 0.136713
v 0.143883 0.596337 0.263725
v 0.039841 0.609278 0.274748
v -0.294427 0.428981 0.045827
v -0.286504 0.360399 -0.069267
v -0.245426 0.384629 -0.164050
v -0.025814 0.559114 0.056145
v -0.063474 0.541128 0.026768
v -0.099554 0.532445 0.040677
v -0.239955 0.321223 -0.241749
v -0.223922 0.309886 -0.283883
v -0.151894 0.347708 -0.316065
v -0.193532 0.312925 -0.315232
v 0.014490 0.401114 -0.275972
v -0.156539 0.336974 -0.322813
v -0.221488 0.353261 -0.259967
v -0.184150 0.318858 -0.324770
v 0.208588 0.435422 0.033430
v -0.202243 0.314105 -0.319490
v -0.213937 0.371539 -0.245825
v -0.219896 0.383756 -0.218490
v -0.217481 0.426149 -0.125069
v -0.223846 0.407291 -0.163642
v -0.224518 0.418471 -0.133934
v -0.179323 0.452647 -0.110486
v -0.120659 0.455412 -0.182943
v -0.148554 0.444479 -0.178326
v -0.093695 0.462849 -0.190882
v -0.294675 0.383529 -0.020226
v -0.102052 0.366487 -0.315066
v 0.122252 0.404774 -0.216990
v -0.079507 0.487054 -0.142779
v -0.090260 0.473493 -0.169484
v -0.088807 0.478391 -0.157891
v -0.000954 0.395233 -0.310407
v 0.061556 0.387719 -0.312600
v 0.169695 0.416557 -0.118812
v 0.147816 0.433614 -0.091180
v 0.340598 0.493674 0.201204
v -0.071769 0.387390 -0.306012
v -0.203394 0.342772 -0.292210
v 0.255825 0.435625 0.045670
v 0.177946 0.390545 -0.188264
v -0.202178 0.368607 -0.261736
v 0.213689 0.399794 -0.124657
v -0.180039 0.377777 -0.266837
v -0.202111 0.392448 -0.225950
v 0.195205 0.419090 -0.066532
v 0.223023 0.413366 -0.051373
v 0.364611 0.529509 0.211741
v -0.191294 0.409863 -0.205649
v 0.374830 0.525171 0.237053
v 0.363235 0.537219 0.246501
v 0.378172 0.520229 0.245848
v 0.350306 0.533223 0.264739
v 0.366793 0.524978 0.262521
v 0.322288 0.555300 0.270604
v 0.333738 0.556664 0.267984
v 0.329310 0.505023 0.019182
v 0.325398 0.477429 -0.052137
v 0.317786 0.513622 0.021960
v 0.321538 0.475027 -0.078656
v 0.312413 0.462739 -0.122948
v 0.123382 0.374001 -0.323580
v 0.254959 0.484571 -0.174941
v 0.316227 0.495453 -0.040365
v 0.281639 0.520899 -0.019927
v 0.248779 0.492218 -0.164096
v -0.208685 0.401899 -0.200251
v 0.174282 0.411156 -0.284357
v 0.051216 0.395643 -0.286874
v 0.170739 0.453263 -0.244409
v 0.085871 0.384254 -0.317616
v 0.213796 0.521254 -0.114553
v 0.203173 0.508188 -0.163654
v 0.113301 0.432990 -0.275134
v 0.190748 0.493210 -0.193839
v 0.124789 0.461761 -0.243448
v 0.260351 0.541447 0.019520
v 0.049632 0.579669 0.085727
v 0.089736 0.589950 0.118473
v 0.006578 0.568335 0.064986
v -0.200038 0.459657 -0.055022
v -0.167842 0.482159 -0.035450
v -0.052538 0.484473 -0.175693
v 0.045622 0.506083 -0.178702
v 0.085825 0.513858 -0.171885
v -0.002664 0.500454 -0.171392
v 0.038830 0.548137 -0.040274
v 0.190418 0.534144 -0.089515
v -0.007819 0.502492 -0.163381
v 0.045956 0.517781 -0.152163
v 0.173687 0.610293 0.265064
v 0.156499 0.610386 0.245182
v 0.128169 0.611652 0.241610
v 0.047971 0.513016 -0.164983
v 0.137832 0.528952 -0.134348
v 0.067160 0.544570 -0.068080
v 0.038773 0.590629 0.145411
v 0.100173 0.610927 0.235687
v 0.088424 0.613742 0.262793
v 0.031902 0.531944 -0.096326
v -0.008606 0.522892 -0.097650
v -0.021507 0.509316 -0.132578
v 0.105006 0.528948 -0.134872
v 0.104554 0.523130 -0.152690
v 0.021753 0.519140 -0.134438
v 0.070982 0.524371 -0.142443
v -0.243587 0.438302 -0.042993
v -0.245435 0.361403 -0.196215
v 0.198458 0.583063 0.122735
v -0.227770 0.323767 -0.275903
v 0.301051 0.569962 0.228663
v -0.220125 0.310318 -0.298013
v 0.238504 0.591863 0.222594
v 0.153328 0.602828 0.193192
v 0.146096 0.591899 0.130226
v 0.220982 0.580873 0.137436
v 0.093827 0.392313 -0.276123
v 0.189921 0.385106 -0.192119
v 0.225123 0.407339 -0.094497
v 0.329166 0.487253 0.155073
v -0.212318 0.338479 -0.288589
v 0.239887 0.419358 -0.046326
v -0.198413 0.420695 -0.171322
v 0.208164 0.407075 -0.092675
v 0.364403 0.509956 0.162776
v 0.323491 0.553442 0.198881
v -0.211023 0.416226 -0.163059
v -0.198929 0.426299 -0.155462
v 0.317706 0.468813 -0.076501
v 0.310129 0.462773 -0.137865
v 0.248081 0.481776 -0.184588
v 0.277704 0.479193 -0.161087
v -0.121611 0.469086 -0.145007
v 0.287824 0.483767 -0.131414
v -0.230927 0.434200 -0.078429
v -0.202968 0.443511 -0.099439
v -0.139020 0.472008 -0.111798
v 0.101503 0.421991 -0.178575
v 0.196791 0.399330 -0.136273
v -0.238692 0.426737 -0.085579
v 0.226853 0.451733 -0.229583
v 0.160883 0.352890 -0.324305
v 0.162503 0.356502 -0.326090
v 0.125899 0.368672 -0.324273
v 0.164311 0.377249 -0.314794
v 0.297974 0.467076 0.103613
v 0.363263 0.507273 0.191250
v 0.331078 0.529166 0.109131
v 0.347672 0.516909 0.107269
v 0.373268 0.518382 0.212160
v 0.334118 0.517368 0.072201
v 0.341840 0.503079 0.047462
v 0.370932 0.531567 0.257344
v 0.373943 0.514125 0.229697
v 0.354365 0.512620 0.114211
v 0.301487 0.464373 -0.159085
v 0.302051 0.452935 -0.175237
v 0.297096 0.451681 -0.188024
v 0.163489 0.353448 -0.312859
v 0.351354 0.504376 0.086746
v 0.352113 0.501658 0.093725
v 0.338979 0.491218 0.026080
v 0.362852 0.512003 0.148515
v 0.356892 0.503607 0.134633
v 0.363267 0.519236 0.167534
v 0.328621 0.557905 0.271550
v 0.202672 0.388111 -0.176117
v 0.262106 0.437491 0.002398
v 0.340788 0.493035 0.106957
v 0.303045 0.465427 -0.021177
v 0.131412 0.364953 -0.318404
v 0.122732 0.389959 -0.260129
v 0.149681 0.388652 -0.233034
v 0.272602 0.442380 -0.217175
v 0.255829 0.470642 -0.195768
v 0.209812 0.498235 -0.179332
v 0.196485 0.478431 -0.210474
v 0.119020 0.386264 -0.316416
v 0.194865 0.365273 -0.285694
v 0.255663 0.423667 -0.241554
v 0.180025 0.356628 -0.298093
v 0.165891 0.568520 0.031902
v 0.141392 0.539352 -0.095085
v 0.078558 0.558014 -0.019494
v 0.151751 0.520847 -0.155989
v 0.161805 0.508960 -0.178198
v 0.096493 0.387453 -0.317235
v -0.036800 0.420396 -0.279638
v -0.048641 0.495103 -0.151303
v 0.117903 0.597301 0.152255
v 0.090188 0.603060 0.188005
v 0.255167 0.495412 -0.147823
v 0.272311 0.583273 0.273800
v 0.205726 0.552297 -0.006025
v 0.305083 0.569867 0.272724
v 0.303574 0.531356 0.057156
v 0.289474 0.578996 0.269604
v 0.270652 0.551245 0.074934
v 0.305096 0.547287 0.124406
v 0.231844 0.560502 0.056605
v 0.309520 0.570138 0.259183
v 0.189259 0.570481 0.056758
v 0.187813 0.604998 0.234222
v 0.122946 0.604791 0.194891
v 0.071555 0.595533 0.152581
v -0.087735 0.517893 -0.029010
v 0.088207 0.504292 -0.189136
v 0.034538 0.564872 0.029763
v 0.124564 0.570496 0.027463
v 0.125181 0.513304 -0.175090
v -0.113137 0.495702 -0.071591
v -0.062808 0.462940 -0.210814
v 0.112074 0.485139 -0.217177
v 0.206113 0.515898 -0.140377
v 0.253106 0.505274 -0.118686
v 0.153027 0.558251 -0.017226
v -0.086014 0.494317 -0.111630
v 0.071779 0.574917 0.054372
v -0.022596 0.542371 -0.013508
v -0.053084 0.531798 -0.020888
v 0.341212 0.492381 0.066091
v 0.327312 0.480675 -0.011596
v 0.360840 0.537669 0.266097
v -0.241629 0.404709 -0.135283
v -0.217721 0.401448 -0.187873
v -0.228076 0.389579 -0.193394
v -0.249383 0.416535 -0.092097
v -0.242264 0.419308 -0.099046
v 0.110647 0.519165 -0.163048
v 0.166088 0.528607 -0.126320
v 0.167754 0.522061 -0.147254
v 0.162365 0.514151 -0.168549
v -0.007861 0.506960 -0.151239
v -0.210448 0.304949 -0.316468
v -0.212974 0.316431 -0.307689
v -0.166330 0.442354 -0.160296
v -0.132579 0.457697 -0.163579
v -0.170650 0.447092 -0.140436
v 0.085536 0.611530 0.275251
v 0.303354 0.516957 0.231158
v 0.280662 0.470347 0.185609
v -0.265033 0.459728 0.067386
v 0.314298 0.498419 0.219178
v -0.042849 0.517033 -0.084861
v -0.244597 0.469327 0.058161
v 0.263113 0.447754 0.161264
v -0.326684 0.365337 0.116811
v -0.184136 0.545746 0.258052
v 0.173812 0.475102 0.154585
v -0.128326 0.568903 0.253919
v 0.057698 0.456348 -0.077798
v 0.065942 0.529592 -0.122829
v -0.033088 0.441176 -0.124629
v 0.123694 0.586078 0.096810
v 0.099296 0.576937 0.056090
v 0.005412 0.534470 -0.067947
v 0.008196 0.551841 -0.004593
v 0.152319 0.582627 0.088192
v 0.269068 0.583496 0.231266
v 0.267234 0.576177 0.186096
v 0.182189 0.595176 0.169679
v 0.172078 0.587585 0.122671
v 0.083555 0.383636 -0.309964
v 0.146594 0.406212 -0.184823
v 0.342885 0.531886 0.151333
v 0.331846 0.495303 -0.002142
v 0.333046 0.488872 -0.010511
v 0.308327 0.482468 -0.096006
v 0.297605 0.496651 -0.073454
v 0.320517 0.483015 -0.065939
v 0.188649 0.363283 -0.313445
v 0.180270 0.367187 -0.316192
v 0.177499 0.352261 -0.321817
v 0.154862 0.363458 -0.325483
v 0.347845 0.539022 0.198723
v 0.294764 0.450599 -0.124070
v 0.310949 0.471640 -0.118637
v 0.288018 0.459604 -0.187488
v 0.220980 0.404865 -0.273788
v 0.192375 0.362658 -0.304641
v 0.172097 0.349678 -0.320926
v 0.152789 0.362953 -0.296335
v 0.171730 0.369014 -0.259689
v 0.197357 0.375060 -0.234503
v 0.238961 0.416177 -0.086234
v 0.239264 0.413398 -0.132125
v 0.323179 0.482977 0.102864
v 0.304664 0.455129 -0.135203
v 0.304940 0.454115 -0.153599
v 0.291918 0.444664 -0.198249
v 0.286452 0.446410 -0.203517
v 0.256290 0.459437 -0.208950
v 0.283603 0.436822 -0.209248
v 0.226088 0.393126 -0.242611
v 0.223715 0.389187 -0.269054
v 0.255288 0.424541 -0.140772
v 0.265030 0.422200 -0.218156
v 0.233079 0.402584 -0.204515
v 0.263435 0.424584 -0.192337
v 0.214422 0.388112 -0.210481
v 0.185311 0.370600 -0.245706
v 0.216350 0.394746 -0.163402
v 0.270680 0.441858 -0.055372
v 0.288542 0.440255 -0.182837
v 0.296812 0.445979 -0.183582
v 0.350203 0.547121 0.262489
v 0.343433 0.547870 0.230453
v 0.223820 0.393136 -0.276537
v 0.260559 0.422574 -0.237516
v 0.253119 0.440293 -0.229853
v 0.271424 0.427138 -0.221090
v 0.303066 0.467712 0.031354
v 0.144959 0.379535 -0.263311
v 0.332806 0.556902 0.249218
v 0.117989 0.374797 -0.303611
v 0.350790 0.540704 0.268807
v -0.220642 0.324306 -0.290605
v -0.227990 0.365003 -0.233190
v -0.204221 0.305385 -0.321787
v -0.187547 0.331788 -0.314132
v -0.140655 0.344819 -0.319558
v 0.298245 0.459039 -0.176309
v 0.281231 0.470185 -0.176803
v 0.281732 0.455369 -0.198464
v 0.299363 0.472410 -0.143449
v 0.357217 0.527712 0.176824
v 0.310346 0.466610 -0.056472
v -0.008584 0.492644 -0.184576
v 0.101651 0.542969 -0.083062
v 0.118396 0.553695 -0.042633
v 0.234978 0.532989 -0.046848
v 0.133906 0.502559 -0.192179
v 0.037412 0.476599 -0.223652
v 0.172434 0.542559 -0.070160
v 0.015831 0.488152 -0.201408
v -0.050215 0.502028 -0.127982
v 0.025143 0.434304 -0.275265
v 0.207506 0.597885 0.212128
v 0.264392 0.566566 0.132333
v 0.258699 0.590603 0.258058
v 0.298716 0.559452 0.165436
v 0.234524 0.418400 -0.027614
v 0.244120 0.426879 0.013941
v -0.177649 0.428060 -0.182069
v -0.202052 0.433099 -0.131339
v 0.136384 0.420756 -0.149657
v 0.375362 0.516351 0.249684
v 0.364787 0.514069 0.250320
v -0.133459 0.400618 -0.265176
v -0.233127 0.449937 -0.027007
v -0.264426 0.427501 -0.032116
v -0.272181 0.419657 -0.033157
v 0.004612 0.584739 0.143089
v -0.016596 0.571592 0.100648
v 0.125860 0.584742 0.248411
v 0.053265 0.602462 0.201331
v 0.259302 0.582184 0.271964
v -0.096906 0.546355 0.092195
v -0.181854 0.494055 0.028231
v -0.148914 0.528900 0.102535
v -0.278259 0.453828 0.076132
v -0.193629 0.331700 -0.268365
v -0.227186 0.336525 -0.201071
v -0.185104 0.351284 -0.234583
v -0.162781 0.365882 -0.230758
v 0.211074 0.469370 0.164726
v -0.265402 0.361466 -0.046721
v -0.322907 0.367881 0.153086
v -0.116445 0.565096 0.208892
v 0.139493 0.495123 0.167073
v -0.331081 0.373244 0.150321
v -0.312846 0.356426 0.079671
v -0.296558 0.483213 0.253438
v -0.081535 0.582404 0.242249
v 0.095483 0.549134 0.207953
v 0.032144 0.439047 -0.150254
v 0.062477 0.447715 -0.110489
v -0.099546 0.415553 -0.160059
v -0.056844 0.402540 -0.243254
v -0.295405 0.374710 0.129332
v -0.310809 0.390810 0.170854
v -0.280958 0.411446 0.172076
v -0.329994 0.463831 0.250224
v -0.179005 0.451049 0.155116
v -0.327967 0.437904 0.221202
v -0.338636 0.438856 0.220484
v -0.313322 0.430609 0.205387
v -0.160091 0.455522 0.144018
v -0.231830 0.433601 0.166040
v -0.020962 0.493536 0.138210
v -0.294395 0.471977 0.237772
v -0.165372 0.546755 0.252828
v -0.233517 0.402213 0.039190
v -0.330082 0.459329 0.247417
v -0.316534 0.473692 0.255085
v -0.327350 0.463693 0.237095
v -0.250432 0.327659 -0.188150
v -0.054694 0.381892 -0.312321
v -0.319204 0.360217 0.127373
v -0.315649 0.365114 0.142255
v -0.315649 0.365114 0.142255
v -0.017794 0.390129 -0.310682
v -0.114241 0.359524 -0.310862
v 0.016276 0.392189 -0.309709
v -0.157041 0.335215 -0.315813
v 0.376162 0.523201 0.257676
v -0.156539 0.336974 -0.322813
v -0.184150 0.318858 -0.324770
v -0.102052 0.366487 -0.315066
v 0.213689 0.399794 -0.124657
v 0.085871 0.384254 -0.317616
v 0.302051 0.452935 -0.175237
v 0.297096 0.451681 -0.188024
v 0.297096 0.451681 -0.188024
v 0.305083 0.569867 0.272724
v 0.188649 0.363283 -0.313445
v 0.177499 0.352261 -0.321817
v 0.177499 0.352261 -0.321817
v 0.172097 0.349678 -0.320926
v 0.172097 0.349678 -0.320926
v 0.291918 0.444664 -0.198249
v 0.223820 0.393136 -0.276537
v -0.204221 0.305385 -0.321787
v -0.322907 0.367881 0.153086
v -0.329994 0.463831 0.250224
v -0.329994 0.463831 0.250224
v -0.329994 0.463831 0.250224
f 39 59 38
f 55 56 44
f 53 36 57
f 36 53 544
f 36 544 48
f 65 111 7
f 45 57 35
f 45 35 12
f 26 44 37
f 66 128 681
f 674 13 22
f 48 49 667
f 48 667 542
f 100 9 91
f 94 661 7
f 65 7 661
f 198 666 6
f 5 683 116
f 113 539 114
f 539 5 116
f 119 113 541
f 113 114 541
f 119 541 95
f 93 193 192
f 540 93 192
f 129 119 200
f 74 538 662
f 189 202 188
f 189 659 202
f 202 659 71
f 71 662 202
f 186 202 538
f 538 72 187
f 161 658 194
f 194 105 15
f 230 540 192
f 661 657 198
f 248 129 267
f 130 248 270
f 29 130 270
f 29 270 201
f 146 258 145
f 198 657 264
f 232 236 98
f 247 209 177
f 122 121 150
f 152 654 106
f 261 262 171
f 532 537 157
f 264 263 532
f 263 537 532
f 117 537 263
f 117 125 537
f 125 156 537
f 157 537 156
f 266 162 138
f 665 266 138
f 660 138 139
f 533 270 248
f 140 270 533
f 141 652 249
f 140 652 141
f 140 533 652
f 248 536 533
f 248 160 536
f 153 150 164
f 277 278 168
f 264 532 534
f 264 534 265
f 265 534 531
f 157 206 532
f 532 206 534
f 136 158 530
f 158 291 181
f 244 530 158
f 292 136 530
f 137 236 292
f 649 139 138
f 649 138 178
f 160 267 651
f 536 160 650
f 177 209 175
f 239 175 209
f 249 239 209
f 652 239 249
f 652 533 239
f 166 167 278
f 215 224 168
f 224 155 168
f 531 534 255
f 180 240 137
f 388 644 133
f 651 256 650
f 643 237 174
f 438 253 328
f 250 281 246
f 281 631 245
f 306 612 234
f 329 220 319
f 479 329 233
f 612 700 218
f 234 612 218
f 304 700 612
f 698 301 319
f 301 329 319
f 233 329 301
f 335 611 330
f 333 335 330
f 335 233 301
f 611 335 301
f 699 301 698
f 301 699 611
f 315 275 316
f 517 609 399
f 403 526 525
f 526 403 608
f 608 305 526
f 308 526 412
f 525 526 308
f 525 308 610
f 714 306 302
f 300 403 525
f 401 608 403
f 609 608 401
f 608 609 305
f 295 517 399
f 269 268 414
f 418 414 268
f 312 418 268
f 313 431 311
f 636 311 427
f 635 316 275
f 316 635 527
f 529 424 527
f 424 528 527
f 322 316 528
f 316 527 528
f 529 427 314
f 518 519 312
f 515 518 312
f 313 312 519
f 312 268 516
f 312 516 517
f 310 609 517
f 295 515 517
f 517 515 312
f 431 313 519
f 515 295 238
f 643 515 238
f 643 518 515
f 315 322 374
f 315 374 317
f 554 360 287
f 337 326 430
f 367 468 361
f 430 326 332
f 326 555 332
f 578 460 411
f 438 411 460
f 598 342 339
f 598 417 605
f 605 492 347
f 347 597 605
f 347 514 597
f 347 607 514
f 344 346 283
f 344 607 346
f 597 514 444
f 342 597 444
f 605 597 342
f 417 598 566
f 487 490 439
f 420 352 349
f 354 422 364
f 467 364 422
f 362 554 325
f 555 320 464
f 464 332 555
f 578 411 437
f 420 567 579
f 568 447 616
f 366 467 422
f 366 422 466
f 468 366 466
f 562 570 599
f 563 570 562
f 606 463 408
f 463 606 604
f 554 462 606
f 463 604 464
f 592 458 409
f 448 421 352
f 448 352 580
f 571 707 713
f 472 574 450
f 461 512 460
f 512 453 452
f 513 512 461
f 453 512 513
f 461 460 603
f 460 578 603
f 603 459 594
f 603 594 461
f 577 594 576
f 461 594 587
f 587 618 461
f 579 595 596
f 600 581 584
f 570 465 471
f 570 601 465
f 583 465 601
f 602 600 584
f 600 602 713
f 586 713 602
f 588 586 602
f 596 584 712
f 602 584 596
f 596 595 602
f 588 602 595
f 590 588 595
f 591 585 589
f 589 587 591
f 587 577 591
f 577 593 591
f 592 472 575
f 591 575 470
f 585 591 470
f 586 585 470
f 588 585 586
f 585 587 589
f 585 590 587
f 590 595 567
f 590 567 587
f 587 567 618
f 594 577 587
f 576 593 577
f 591 593 575
f 592 574 472
f 472 470 575
f 470 571 586
f 713 586 571
f 359 432 601
f 359 601 570
f 570 471 599
f 588 590 585
f 599 471 600
f 432 583 601
f 466 569 615
f 583 466 615
f 583 615 465
f 582 471 465
f 582 600 471
f 581 600 582
f 465 615 582
f 582 615 569
f 582 569 449
f 581 582 449
f 712 704 448
f 596 712 448
f 448 580 596
f 579 596 580
f 579 567 595
f 513 461 618
f 452 453 451
f 578 437 603
f 454 452 451
f 452 454 416
f 416 455 452
f 512 455 460
f 512 452 455
f 575 593 458
f 458 592 575
f 574 592 409
f 604 573 574
f 604 606 573
f 462 573 606
f 573 462 450
f 573 450 574
f 462 433 450
f 450 433 572
f 433 564 710
f 572 472 450
f 711 708 472
f 571 472 708
f 571 470 472
f 708 707 571
f 432 468 583
f 468 466 583
f 422 569 466
f 614 569 422
f 423 616 447
f 569 614 613
f 447 613 614
f 614 423 447
f 613 447 703
f 703 705 613
f 569 613 449
f 703 447 421
f 559 568 616
f 561 568 559
f 447 568 421
f 579 352 420
f 580 352 579
f 567 420 618
f 513 349 453
f 558 453 349
f 617 566 339
f 617 339 456
f 556 617 456
f 556 440 439
f 617 556 566
f 440 456 446
f 440 556 456
f 442 439 440
f 350 442 348
f 442 440 443
f 348 442 443
f 443 557 348
f 443 558 557
f 558 443 451
f 451 453 558
f 443 440 451
f 440 446 451
f 446 454 451
f 446 456 454
f 441 454 456
f 441 416 454
f 576 594 459
f 413 410 576
f 593 410 334
f 593 576 410
f 593 334 458
f 458 430 409
f 332 574 409
f 332 464 574
f 464 604 574
f 464 320 463
f 289 408 320
f 320 408 463
f 408 554 606
f 353 702 478
f 435 702 353
f 435 554 362
f 435 462 554
f 435 565 434
f 565 436 563
f 563 434 565
f 565 469 436
f 565 353 469
f 565 435 353
f 433 462 435
f 435 434 433
f 709 434 563
f 564 433 434
f 709 563 562
f 436 570 563
f 436 359 570
f 483 423 357
f 506 425 483
f 560 356 355
f 506 560 425
f 354 357 614
f 423 483 425
f 354 614 422
f 423 614 357
f 423 425 616
f 425 559 616
f 559 425 560
f 560 355 559
f 559 355 561
f 568 561 351
f 568 351 421
f 351 352 421
f 420 513 618
f 349 513 420
f 558 349 351
f 487 442 350
f 487 439 442
f 439 490 556
f 490 417 556
f 417 566 556
f 598 339 566
f 455 416 438
f 460 455 438
f 603 437 286
f 603 286 459
f 331 634 459
f 459 286 331
f 413 576 459
f 430 415 337
f 410 413 633
f 410 633 338
f 458 701 430
f 332 409 430
f 637 320 555
f 288 408 289
f 346 486 648
f 484 706 488
f 281 250 484
f 245 629 494
f 551 550 402
f 552 629 407
f 552 405 629
f 495 405 481
f 552 406 405
f 552 553 406
f 400 553 552
f 406 553 549
f 481 405 406
f 407 629 404
f 404 551 407
f 551 404 550
f 402 550 631
f 631 492 402
f 407 551 630
f 407 400 552
f 491 407 630
f 493 407 491
f 400 407 493
f 493 553 400
f 493 549 553
f 549 545 406
f 481 406 545
f 370 545 546
f 370 481 545
f 297 178 296
f 369 370 509
f 499 371 369
f 369 509 499
f 497 298 297
f 274 624 479
f 621 500 507
f 378 475 387
f 548 371 499
f 371 548 510
f 499 378 548
f 391 378 387
f 510 547 392
f 497 511 535
f 620 386 394
f 543 387 620
f 543 394 397
f 547 391 392
f 392 391 396
f 391 387 543
f 543 620 394
f 397 394 395
f 395 520 385
f 397 396 543
f 391 543 396
f 524 396 381
f 524 381 380
f 392 393 535
f 392 396 393
f 524 393 396
f 627 535 393
f 508 497 535
f 510 392 535
f 378 391 547
f 621 474 620
f 386 620 474
f 474 521 386
f 376 385 520
f 375 385 376
f 381 395 385
f 381 397 395
f 396 397 381
f 381 385 380
f 375 619 377
f 377 385 375
f 377 380 385
f 374 380 377
f 535 627 508
f 502 497 508
f 510 535 511
f 510 548 547
f 548 378 547
f 475 620 387
f 505 379 363
f 521 379 505
f 625 379 521
f 521 474 625
f 386 521 522
f 386 522 476
f 501 523 477
f 501 520 523
f 520 476 523
f 376 520 501
f 476 520 395
f 395 386 476
f 395 394 386
f 375 376 498
f 626 375 498
f 619 375 626
f 374 377 619
f 317 374 619
f 393 524 480
f 627 393 480
f 627 480 321
f 256 502 373
f 256 497 502
f 497 297 511
f 511 297 510
f 297 296 510
f 296 371 510
f 509 475 499
f 499 475 378
f 473 493 485
f 473 485 507
f 500 473 507
f 500 621 475
f 475 621 620
f 621 507 474
f 363 622 506
f 522 521 505
f 476 522 364
f 364 523 476
f 623 501 477
f 376 501 498
f 626 498 624
f 479 624 628
f 503 619 626
f 626 624 274
f 624 504 628
f 624 498 504
f 504 498 623
f 503 317 619
f 322 380 374
f 380 322 480
f 480 524 380
f 508 627 321
f 650 256 373
f 298 497 256
f 546 475 509
f 546 500 475
f 493 491 485
f 507 485 625
f 507 625 474
f 505 506 483
f 505 363 506
f 364 467 523
f 364 522 505
f 623 477 366
f 504 623 366
f 498 501 623
f 628 504 367
f 503 626 274
f 322 323 480
f 321 480 323
f 373 502 428
f 372 373 428
f 372 428 314
f 212 373 372
f 650 373 212
f 388 371 644
f 388 369 371
f 388 496 369
f 496 370 369
f 482 370 496
f 370 482 481
f 495 481 482
f 482 179 389
f 384 405 495
f 495 389 384
f 384 383 405
f 405 383 494
f 405 494 629
f 629 245 404
f 631 404 245
f 631 550 404
f 281 484 488
f 282 283 252
f 486 484 648
f 346 648 252
f 252 283 346
f 457 486 346
f 457 347 706
f 347 488 706
f 488 347 492
f 281 488 631
f 488 492 631
f 551 402 632
f 551 632 630
f 545 549 500
f 370 546 509
f 545 500 546
f 500 549 473
f 549 493 473
f 491 630 489
f 630 490 489
f 630 632 490
f 402 417 632
f 368 491 489
f 485 491 368
f 622 485 368
f 356 368 487
f 368 489 487
f 622 368 356
f 485 622 379
f 485 379 625
f 379 622 363
f 357 505 483
f 364 505 357
f 477 523 467
f 366 477 467
f 504 366 468
f 367 504 468
f 628 367 365
f 365 367 361
f 469 353 478
f 365 361 359
f 365 359 219
f 469 219 359
f 469 359 436
f 361 432 359
f 361 468 432
f 354 364 357
f 622 356 506
f 506 356 560
f 356 487 350
f 356 350 355
f 355 350 348
f 351 349 352
f 561 558 351
f 561 557 558
f 561 355 557
f 355 348 557
f 489 490 487
f 632 417 490
f 417 402 605
f 402 492 605
f 457 607 347
f 457 346 607
f 283 255 344
f 255 345 344
f 255 639 345
f 345 639 284
f 638 343 284
f 607 344 345
f 345 514 607
f 345 697 514
f 444 514 697
f 638 445 343
f 445 438 416
f 416 441 445
f 343 445 441
f 441 341 343
f 341 697 343
f 444 697 341
f 342 444 341
f 342 598 605
f 339 342 341
f 339 441 456
f 339 341 441
f 411 228 437
f 228 285 437
f 286 437 285
f 633 634 173
f 413 459 634
f 413 634 633
f 226 415 338
f 226 337 415
f 430 701 415
f 338 415 701
f 334 410 338
f 637 555 326
f 429 289 637
f 320 637 289
f 288 360 408
f 360 554 408
f 325 273 362
f 272 702 273
f 272 478 702
f 272 469 478
f 219 628 365
f 329 479 628
f 276 317 503
f 502 508 428
f 372 427 641
f 398 641 426
f 641 427 426
f 314 427 372
f 424 428 508
f 508 321 424
f 424 321 323
f 426 431 398
f 431 239 398
f 431 519 239
f 426 311 431
f 426 427 311
f 314 428 529
f 428 424 529
f 323 528 424
f 323 322 528
f 275 315 317
f 315 316 322
f 427 529 636
f 636 529 419
f 527 419 529
f 414 527 635
f 414 419 527
f 311 419 418
f 636 419 311
f 311 418 313
f 418 312 313
f 414 418 419
f 414 635 269
f 268 358 516
f 516 358 310
f 310 517 516
f 358 309 310
f 358 336 309
f 336 335 333
f 336 333 309
f 310 305 609
f 412 305 309
f 309 330 412
f 412 526 305
f 330 308 412
f 330 611 308
f 611 699 308
f 308 699 610
f 612 306 304
f 306 234 302
f 151 302 216
f 151 163 302
f 163 714 302
f 163 525 714
f 300 525 163
f 401 403 299
f 300 299 403
f 401 299 235
f 401 235 609
f 235 399 609
f 295 399 213
f 295 213 238
f 238 213 237
f 518 643 642
f 518 642 519
f 176 398 239
f 519 642 239
f 398 176 641
f 372 641 212
f 649 297 298
f 649 178 297
f 645 371 296
f 371 645 644
f 647 496 388
f 647 482 496
f 495 482 389
f 240 390 179
f 389 390 241
f 389 179 390
f 389 241 384
f 250 246 242
f 250 182 244
f 250 242 182
f 241 382 383
f 242 382 241
f 241 383 384
f 494 382 245
f 494 383 382
f 251 484 250
f 251 648 484
f 646 208 282
f 208 283 282
f 208 531 283
f 531 255 283
f 254 253 638
f 639 254 638
f 284 639 638
f 253 445 638
f 253 438 445
f 438 328 411
f 328 228 411
f 331 286 231
f 231 286 285
f 331 229 634
f 173 338 633
f 173 227 338
f 227 226 338
f 637 326 327
f 171 637 327
f 429 171 262
f 429 637 171
f 170 429 262
f 289 429 170
f 169 303 360
f 169 288 225
f 170 288 289
f 169 360 288
f 303 287 360
f 303 155 287
f 287 155 224
f 325 695 273
f 325 287 224
f 554 287 325
f 272 219 469
f 273 695 272
f 324 272 695
f 324 219 272
f 220 628 219
f 329 628 220
f 220 324 693
f 503 274 276
f 276 274 640
f 317 276 275
f 335 275 276
f 340 275 335
f 275 340 635
f 635 340 269
f 358 269 340
f 268 269 358
f 358 340 336
f 340 335 336
f 335 276 640
f 305 310 309
f 333 330 309
f 640 233 335
f 274 233 640
f 274 479 233
f 319 220 689
f 694 217 696
f 696 217 302
f 216 302 217
f 217 653 216
f 299 300 214
f 300 163 214
f 237 271 174
f 643 175 642
f 238 237 643
f 175 239 642
f 533 536 176
f 641 176 536
f 536 212 641
f 651 649 256
f 649 298 256
f 645 296 178
f 162 644 645
f 647 388 133
f 647 179 482
f 180 390 240
f 390 242 241
f 390 180 242
f 530 242 180
f 530 182 242
f 291 282 181
f 244 251 250
f 181 251 244
f 382 242 246
f 382 246 245
f 281 245 246
f 252 648 282
f 181 282 648
f 648 251 181
f 534 639 255
f 534 206 639
f 639 206 254
f 183 254 206
f 254 183 253
f 183 328 253
f 184 328 183
f 184 183 157
f 328 184 228
f 228 184 285
f 290 285 184
f 290 231 285
f 205 229 154
f 231 154 229
f 331 231 229
f 173 229 205
f 280 173 205
f 229 173 634
f 226 227 307
f 337 226 172
f 326 337 172
f 172 327 326
f 170 225 288
f 695 693 324
f 220 219 324
f 215 168 278
f 215 278 167
f 689 220 693
f 700 167 166
f 166 218 700
f 694 166 211
f 217 694 211
f 163 153 214
f 235 213 399
f 165 294 213
f 237 213 294
f 294 318 237
f 271 237 318
f 643 174 293
f 176 239 533
f 177 175 293
f 212 536 650
f 160 651 650
f 139 649 651
f 162 178 138
f 162 645 178
f 266 644 162
f 644 266 133
f 133 179 647
f 180 137 292
f 292 530 180
f 182 530 244
f 158 181 244
f 646 282 291
f 265 531 208
f 206 157 183
f 156 290 184
f 231 290 154
f 120 280 205
f 280 227 173
f 307 227 280
f 172 226 307
f 118 172 307
f 195 169 225
f 195 107 169
f 107 303 169
f 107 155 303
f 277 168 155
f 166 278 277
f 211 166 277
f 279 217 211
f 654 151 216
f 151 688 163
f 299 165 213
f 213 235 299
f 299 214 165
f 214 153 164
f 164 165 214
f 294 146 145
f 121 146 164
f 146 294 164
f 165 164 294
f 174 271 293
f 293 175 643
f 260 293 271
f 190 293 260
f 190 177 293
f 651 267 139
f 240 179 133
f 135 137 134
f 137 240 134
f 136 236 232
f 136 292 236
f 199 158 136
f 199 646 158
f 646 291 158
f 666 208 646
f 666 265 208
f 157 156 184
f 290 125 154
f 125 290 156
f 124 205 154
f 124 120 205
f 193 221 222
f 221 120 222
f 280 120 221
f 221 307 280
f 118 259 172
f 327 172 259
f 261 327 259
f 261 171 327
f 667 225 170
f 667 195 225
f 107 277 155
f 84 211 277
f 656 217 279
f 96 656 279
f 655 217 656
f 655 653 217
f 654 216 653
f 653 655 654
f 654 688 151
f 654 123 688
f 152 150 654
f 122 150 152
f 150 121 164
f 146 121 204
f 145 318 294
f 318 145 271
f 203 271 145
f 203 260 271
f 201 270 140
f 248 267 160
f 660 665 138
f 665 243 266
f 243 133 266
f 133 243 240
f 243 134 240
f 137 135 236
f 136 232 191
f 191 199 136
f 198 264 265
f 657 263 264
f 230 263 657
f 117 230 192
f 230 117 263
f 117 124 125
f 124 154 125
f 222 120 124
f 222 124 192
f 117 192 124
f 197 307 221
f 197 118 307
f 223 259 118
f 108 261 259
f 196 262 261
f 196 668 262
f 668 170 262
f 96 279 210
f 655 207 654
f 123 150 688
f 654 150 123
f 106 654 207
f 658 152 105
f 658 122 152
f 658 121 122
f 185 121 658
f 185 204 121
f 258 72 145
f 260 203 257
f 148 260 257
f 247 190 20
f 247 177 190
f 249 247 141
f 249 209 247
f 201 140 141
f 19 201 141
f 141 247 19
f 247 147 19
f 267 200 139
f 200 660 139
f 134 243 665
f 236 135 115
f 236 115 98
f 232 98 191
f 540 230 657
f 192 193 222
f 193 197 221
f 197 223 118
f 223 108 259
f 88 108 103
f 88 261 108
f 88 196 261
f 668 667 170
f 49 195 667
f 34 107 195
f 34 17 107
f 17 670 107
f 670 277 107
f 279 211 84
f 16 279 84
f 210 279 16
f 97 96 210
f 96 97 106
f 106 656 96
f 106 207 656
f 207 655 656
f 97 82 106
f 105 106 82
f 152 106 105
f 105 82 15
f 194 658 105
f 161 185 658
f 85 204 185
f 204 258 146
f 204 187 258
f 203 145 72
f 258 187 72
f 187 204 186
f 663 186 204
f 186 538 187
f 188 186 663
f 202 186 188
f 715 691 70
f 83 715 70
f 83 71 659
f 662 538 202
f 203 72 257
f 74 148 257
f 190 260 148
f 20 147 247
f 19 29 201
f 129 248 130
f 129 200 267
f 135 134 665
f 191 98 4
f 4 99 191
f 99 199 191
f 99 646 199
f 265 666 198
f 540 657 661
f 93 92 193
f 197 193 92
f 89 223 92
f 223 197 92
f 89 103 223
f 223 103 108
f 88 542 196
f 542 668 196
f 49 34 195
f 670 84 277
f 80 82 97
f 80 77 82
f 80 79 77
f 87 77 79
f 97 79 80
f 97 210 79
f 210 669 79
f 78 82 77
f 78 15 82
f 86 77 87
f 76 185 161
f 663 204 85
f 21 85 76
f 21 663 85
f 21 690 663
f 692 690 21
f 692 21 671
f 692 671 159
f 70 691 159
f 83 70 672
f 75 83 672
f 71 73 662
f 74 662 73
f 538 74 72
f 72 74 257
f 18 716 23
f 142 149 127
f 30 25 32
f 23 686 30
f 30 686 25
f 664 32 25
f 68 144 33
f 68 3 144
f 143 142 127
f 126 681 143
f 128 143 681
f 128 142 143
f 142 128 111
f 142 111 109
f 149 142 109
f 149 109 110
f 149 110 27
f 33 683 28
f 31 30 539
f 32 539 30
f 664 28 32
f 132 119 129
f 132 129 130
f 131 132 130
f 131 130 29
f 31 131 18
f 31 23 30
f 31 18 23
f 131 29 18
f 18 29 24
f 24 29 19
f 95 200 119
f 95 660 200
f 95 665 660
f 95 541 665
f 541 135 665
f 541 114 135
f 135 114 115
f 65 661 198
f 94 540 661
f 93 91 92
f 88 103 90
f 90 542 88
f 542 667 668
f 16 84 670
f 669 210 16
f 78 77 63
f 161 194 15
f 52 76 161
f 76 85 185
f 76 61 21
f 671 21 61
f 47 159 671
f 159 47 41
f 70 41 680
f 159 41 70
f 673 672 70
f 83 75 14
f 14 71 83
f 14 73 71
f 10 148 74
f 74 677 10
f 73 69 677
f 10 190 148
f 10 147 20
f 19 147 687
f 716 18 24
f 717 687 11
f 147 11 687
f 686 23 716
f 22 664 25
f 8 682 664
f 13 8 664
f 664 22 13
f 682 28 664
f 682 68 33
f 2 675 27
f 27 675 149
f 33 28 682
f 143 127 26
f 26 43 143
f 143 43 126
f 126 1 681
f 27 110 6
f 27 6 3
f 33 144 112
f 33 4 683
f 31 539 113
f 31 132 131
f 31 113 132
f 119 132 113
f 112 144 666
f 144 6 666
f 112 666 99
f 4 112 99
f 683 4 98
f 98 116 683
f 539 116 114
f 115 114 116
f 116 98 115
f 666 646 99
f 6 65 198
f 7 67 94
f 94 67 100
f 67 9 100
f 102 91 9
f 104 101 12
f 104 48 90
f 104 35 48
f 101 104 90
f 101 90 103
f 102 101 103
f 102 103 89
f 91 102 89
f 100 91 93
f 540 94 100
f 100 93 540
f 89 92 91
f 90 48 542
f 544 34 49
f 50 17 34
f 50 670 17
f 669 16 50
f 81 669 50
f 79 669 81
f 87 79 81
f 59 87 81
f 87 59 86
f 63 77 86
f 51 15 78
f 51 161 15
f 684 161 51
f 684 52 161
f 61 76 52
f 40 671 61
f 47 671 40
f 70 680 673
f 672 673 678
f 75 672 678
f 14 69 73
f 14 75 69
f 678 673 68
f 69 75 678
f 69 678 676
f 677 74 73
f 68 673 3
f 673 680 3
f 42 679 46
f 42 26 679
f 46 679 675
f 678 68 682
f 676 678 8
f 69 676 8
f 69 8 13
f 685 677 69
f 11 677 685
f 10 677 11
f 20 190 10
f 11 147 10
f 718 11 685
f 8 678 682
f 680 27 3
f 680 2 27
f 127 675 679
f 127 149 675
f 679 26 127
f 26 37 43
f 43 37 39
f 43 39 126
f 126 39 45
f 45 1 126
f 45 12 1
f 66 1 58
f 1 66 681
f 128 66 67
f 7 111 67
f 111 128 67
f 111 65 109
f 109 65 110
f 3 6 144
f 33 112 4
f 28 683 5
f 5 32 28
f 5 539 32
f 110 65 6
f 67 66 9
f 66 58 9
f 1 12 58
f 58 102 9
f 58 101 102
f 58 12 101
f 35 104 12
f 35 36 48
f 48 544 49
f 50 16 670
f 59 81 53
f 63 64 78
f 51 78 64
f 684 51 62
f 51 64 62
f 52 684 61
f 59 53 38
f 38 53 57
f 63 86 59
f 60 63 59
f 60 64 63
f 55 64 56
f 55 62 64
f 54 684 62
f 61 684 54
f 54 62 55
f 64 60 56
f 39 60 59
f 37 56 60
f 60 39 37
f 44 56 37
f 42 54 55
f 40 54 42
f 40 61 54
f 46 40 42
f 46 47 40
f 41 47 46
f 2 680 41
f 41 675 2
f 41 46 675
f 55 44 42
f 44 26 42
f 39 38 45
f 38 57 45
f 57 36 35
f 81 50 53
f 50 544 53
f 544 50 34