v 0.451745 -0.341661 0.058539
v 0.494931 -0.278363 0.211567
v 0.382621 -0.379174 -0.209625
v 0.404061 -0.378653 -0.123847
v 0.469080 -0.312786 0.187868
v 0.278924 -0.286975 -0.393045
v 0.363834 -0.389107 -0.231897
v 0.274730 -0.295706 -0.394407
v 0.327290 -0.284841 -0.270548
v 0.513112 -0.064633 0.166843
v 0.347693 -0.398295 -0.244247
v 0.513055 -0.097933 0.177906
v 0.477828 -0.279880 0.224550
v 0.489732 -0.272753 0.228538
v 0.485689 -0.282474 0.229660
v 0.381580 -0.395653 -0.146000
v 0.391754 -0.387298 -0.141959
v 0.327644 -0.396411 -0.294938
v 0.425322 -0.370276 -0.000662
v 0.318119 -0.397833 -0.307339
v 0.461775 -0.314233 0.228333
v 0.457764 -0.332238 0.120604
v 0.471383 -0.300791 0.231107
v 0.367512 -0.406822 -0.146690
v 0.279530 -0.321829 -0.384934
v 0.252739 -0.327382 -0.390995
v 0.286767 -0.321091 -0.312429
v 0.374412 -0.272617 -0.108324
v 0.487491 -0.064479 0.149104
v 0.480397 -0.088949 0.145192
v 0.468263 -0.133154 0.110503
v 0.416603 -0.228004 0.000124
v 0.316812 -0.311911 -0.245893
v 0.331239 -0.354991 -0.341195
v 0.287787 -0.300885 -0.348323
v 0.305752 -0.299836 -0.305130
v 0.458425 -0.153902 0.070273
v 0.436626 -0.191611 0.014337
v 0.473142 -0.109825 0.096050
v 0.486860 -0.055107 0.102416
v 0.516670 -0.070470 0.174347
v 0.454238 -0.318693 0.234841
v 0.438879 -0.353584 0.111782
v 0.378104 -0.408821 -0.076739
v 0.267903 -0.349492 -0.375260
v 0.405269 -0.388491 0.082226
v 0.232563 -0.343400 -0.389651
v 0.333417 -0.307813 -0.197066
v 0.464610 -0.147080 0.139650
v 0.481213 -0.119714 0.160670
v 0.491529 -0.106177 0.165418
v 0.490106 -0.164926 0.177868
v 0.440893 -0.333774 0.235220
v 0.459350 -0.158302 0.104992
v 0.415666 -0.376682 0.113336
v 0.269754 -0.336448 -0.319925
v 0.428514 -0.218820 0.066985
v 0.479426 -0.240393 0.200683
v 0.460366 -0.164212 0.154534
v 0.473888 -0.146091 0.162457
v 0.384498 -0.406935 0.051485
v 0.381141 -0.410246 -0.019736
v 0.239632 -0.337116 -0.381728
v 0.234543 -0.352890 -0.354246
v 0.285037 -0.345113 -0.257280
v 0.431569 -0.350119 0.202410
v 0.300649 -0.341704 -0.216377
v 0.457065 -0.179996 0.162287
v 0.437303 -0.215575 0.164484
v 0.247891 -0.356764 -0.320367
v 0.396720 -0.394347 0.100676
v 0.427599 -0.256643 0.181172
v 0.403858 -0.373430 0.210451
v 0.424536 -0.348091 0.239817
v 0.409245 -0.358528 0.247795
v 0.362588 -0.421653 -0.057704
v 0.419451 -0.366803 0.166589
v 0.411740 -0.360970 0.238184
v 0.193303 -0.378984 -0.375024
v 0.217787 -0.415880 -0.323549
v 0.202510 -0.390180 -0.364006
v 0.243423 -0.433601 -0.307336
v 0.253216 -0.441671 -0.276246
v 0.193008 -0.378732 -0.364727
v 0.423414 -0.333783 0.232803
v 0.361384 -0.312720 -0.001134
v 0.242194 -0.376203 -0.277547
v 0.412646 -0.258319 0.175189
v 0.387856 -0.384427 0.218895
v 0.368041 -0.415905 0.099808
v 0.327755 -0.438242 -0.110364
v 0.246100 -0.447453 -0.255712
v 0.240453 -0.439251 -0.288677
v 0.244546 -0.438783 -0.293381
v 0.200547 -0.399446 -0.338759
v 0.222451 -0.372463 -0.327467
v 0.312423 -0.357918 -0.064420
v 0.386667 -0.283943 0.110124
v 0.381076 -0.379314 0.257099
v 0.391719 -0.376456 0.242252
v 0.307657 -0.449700 -0.104534
v 0.291513 -0.448994 -0.167681
v 0.192313 -0.387071 -0.344237
v 0.198791 -0.409076 -0.288560
v 0.212346 -0.385916 -0.306261
v 0.328138 -0.347589 0.001369
v 0.364296 -0.410476 0.164580
v 0.272570 -0.456893 -0.169714
v 0.196703 -0.406336 -0.284504
v 0.225583 -0.393806 -0.253267
v 0.368219 -0.390612 0.255653
v 0.354194 -0.427100 0.075823
v 0.315123 -0.450909 -0.036676
v 0.262859 -0.462595 -0.155298
v 0.219496 -0.407317 -0.206916
v 0.238461 -0.395273 -0.212654
v 0.271589 -0.388338 -0.079927
v 0.376322 -0.293485 0.152449
v 0.359433 -0.390812 0.271204
v 0.363563 -0.390495 0.266485
v 0.352199 -0.421772 0.143946
v 0.222638 -0.415044 -0.121996
v 0.326222 -0.443590 0.082270
v 0.297078 -0.460106 -0.013141
v 0.200470 -0.419302 -0.207362
v 0.246636 -0.403274 -0.103457
v 0.336109 -0.331769 0.166300
v 0.347948 -0.320818 0.182364
v 0.328529 -0.437841 0.131972
v 0.310511 -0.453470 0.052131
v 0.263233 -0.470620 -0.076379
v 0.315428 -0.356030 0.082077
v 0.256851 -0.473307 -0.062787
v 0.206613 -0.418902 -0.174106
v 0.254697 -0.398117 -0.005957
v 0.348118 -0.335894 0.208922
v 0.350289 -0.383595 0.261143
v 0.332951 -0.420564 0.224089
v 0.202312 -0.427215 -0.136082
v 0.307281 -0.451102 0.115084
v 0.314462 -0.345640 0.198441
v 0.311189 -0.443847 0.160657
v 0.341933 -0.398230 0.281183
v 0.255292 -0.475319 -0.012157
v 0.251963 -0.474506 -0.054084
v 0.244618 -0.473647 0.009953
v 0.220517 -0.415542 -0.053458
v 0.369949 0.014787 -0.343140
v 0.244822 -0.397348 0.064564
v 0.294427 -0.356853 0.199943
v 0.311133 -0.348859 0.179651
v 0.201353 -0.429075 -0.083573
v 0.300767 -0.448883 0.161174
v 0.269455 -0.467957 0.099754
v 0.271426 -0.369730 0.184815
v 0.266823 -0.382841 0.107730
v 0.247782 -0.473265 0.083957
v 0.297704 -0.441630 0.215807
v 0.234318 -0.398850 0.082839
v 0.250954 -0.473576 0.083858
v 0.260098 -0.471368 0.093335
v 0.203207 -0.435179 -0.017180
v 0.273181 -0.462121 0.146417
v 0.301758 -0.424841 0.287119
v 0.248970 -0.469688 0.141047
v 0.228488 -0.392269 0.138222
v 0.301088 -0.415165 0.306200
v 0.353444 0.015386 -0.378436
v 0.347556 0.003628 -0.387539
v 0.193712 -0.411107 0.068820
v 0.343436 -0.041164 -0.396782
v 0.208361 -0.400943 0.106171
v 0.252461 -0.462609 0.194722
v 0.246464 -0.375558 0.212724
v 0.264823 -0.456032 0.211903
v 0.261538 -0.411332 0.294503
v 0.247281 -0.465262 0.182968
v 0.377075 -0.108196 -0.380401
v 0.376527 -0.164322 -0.377913
v 0.423594 -0.271221 -0.315239
v 0.242238 -0.468656 0.129782
v 0.428652 -0.279485 -0.293996
v 0.202118 -0.431691 0.069219
v 0.241828 -0.457291 0.241874
v 0.191697 -0.416086 0.069221
v 0.280615 -0.431797 0.302101
v 0.230363 -0.460454 0.093968
v 0.534188 -0.190486 0.005425
v 0.583415 -0.075615 0.173864
v 0.554319 -0.166102 0.102753
v 0.188930 -0.400909 0.134724
v 0.416874 -0.289495 -0.310194
v 0.213400 -0.387965 0.179023
v 0.257677 -0.439437 0.312242
v 0.267341 -0.428608 0.332179
v 0.186258 -0.393456 0.181779
v 0.191425 -0.412533 0.139077
v 0.253010 -0.449370 0.272710
v 0.194201 -0.392291 0.171231
v 0.242172 -0.443453 0.318980
v 0.203620 -0.382002 0.230454
v 0.186528 -0.386635 0.219316
v 0.227971 -0.379368 0.232532
v 0.246365 -0.425259 0.327521
v 0.244309 -0.437794 0.338489
v 0.216936 -0.382870 0.247255
v 0.209516 -0.429649 0.235485
v 0.197202 -0.390794 0.260424
v 0.238939 -0.432941 0.346650
v 0.235690 -0.436459 0.347951
v 0.230721 -0.451918 0.244306
v 0.199362 -0.413889 0.265954
v 0.193917 -0.404385 0.264376
v 0.205459 -0.417712 0.292401
v 0.214186 -0.424730 0.312567
v 0.191075 -0.396230 0.259695
v 0.229014 -0.438530 0.343015
v 0.278666 -0.379713 0.076073
v 0.327504 -0.373880 0.242857
v 0.326982 -0.429203 0.198337
v 0.201830 -0.409286 0.284859
v 0.240869 -0.470718 -0.045671
v 0.349179 -0.324882 0.121865
v 0.326381 -0.348995 0.048060
v 0.294320 -0.373463 -0.050033
v 0.345211 -0.329406 0.201363
v 0.229646 -0.408925 -0.159045
v 0.349297 -0.327289 0.004413
v 0.334142 -0.338500 -0.050736
v 0.390147 -0.277372 0.144901
v 0.309948 -0.362330 0.015374
v 0.287337 -0.372275 -0.130469
v 0.408345 -0.253942 0.125387
v 0.377108 -0.292556 0.005622
v 0.293968 -0.356217 -0.188008
v 0.380801 -0.287756 0.166877
v 0.278492 -0.359763 -0.231720
v 0.246677 -0.425000 -0.320284
v 0.258575 -0.427459 -0.310480
v 0.233736 -0.424538 -0.322164
v 0.316676 -0.342953 -0.141562
v 0.222560 -0.415817 -0.332042
v 0.468547 -0.170952 0.167263
v 0.345754 -0.310399 -0.132689
v 0.393004 -0.268826 0.003693
v 0.251620 -0.435539 -0.298603
v 0.441790 -0.199084 0.144441
v 0.439233 -0.203078 0.100656
v 0.450287 -0.178728 0.088654
v 0.321474 -0.325583 -0.190489
v 0.440277 -0.197442 0.069075
v 0.493887 -0.066779 0.157334
v 0.417396 -0.378479 0.061897
v 0.485186 -0.060907 0.137749
v 0.482927 -0.058715 0.108185
v 0.466940 -0.124690 0.069163
v 0.421154 -0.212085 -0.026821
v 0.467120 -0.310889 0.217008
v 0.512226 -0.245407 0.229664
v 0.507924 -0.258916 0.221698
v 0.368725 -0.370559 -0.273949
v 0.517617 -0.229181 0.226541
v 0.337578 -0.323520 -0.355746
v 0.444542 -0.348185 -0.006822
v 0.479841 -0.069442 0.114670
v 0.503312 -0.076868 0.167976
v 0.362268 -0.211109 -0.270843
v 0.262186 -0.410940 -0.328764
v 0.342205 -0.369130 -0.322882
v 0.303272 -0.281032 -0.342816
v 0.419828 -0.235866 0.134125
v 0.364070 -0.236469 -0.231363
v 0.332244 -0.255082 -0.304812
v 0.235856 -0.414492 -0.335315
v 0.308855 -0.249402 -0.371511
v 0.466196 -0.046244 -0.009126
v 0.422010 -0.233170 0.153301
v 0.523158 -0.060761 0.145347
v 0.478491 -0.056625 0.069385
v 0.368335 -0.306932 0.092849
v 0.477987 -0.047980 0.034467
v 0.466211 -0.113346 0.043629
v 0.201242 -0.425059 -0.187143
v 0.449151 -0.160093 0.012913
v 0.548062 -0.095596 0.205940
v 0.238955 -0.407675 -0.048284
v 0.545734 -0.147426 0.217566
v 0.529624 -0.221206 0.230968
v 0.216204 -0.430304 0.309989
v 0.221773 -0.444253 0.224275
v 0.421350 -0.358553 -0.127278
v 0.370564 -0.359657 -0.296211
v 0.187334 -0.387174 0.245427
v 0.366532 -0.347185 -0.322781
v 0.224156 -0.438925 0.317274
v 0.330103 -0.258680 -0.387012
v 0.228730 -0.431523 0.340352
v 0.448388 -0.038675 -0.084692
v 0.190321 -0.384040 0.239596
v 0.521517 -0.052403 0.072709
v 0.192771 -0.384703 0.217766
v 0.555461 -0.075767 0.205318
v 0.264196 -0.427037 0.332200
v 0.542766 -0.199138 0.233019
v 0.246485 -0.392578 0.263208
v 0.189284 -0.409028 0.105640
v 0.532908 -0.219573 0.225809
v 0.481480 -0.300223 0.023208
v 0.456273 -0.325907 -0.061800
v 0.578997 -0.073132 0.196006
v 0.520276 -0.225204 0.002789
v 0.459325 -0.278992 -0.191770
v 0.508794 -0.263098 0.127327
v 0.580342 -0.097414 0.172770
v 0.548251 -0.182694 0.234917
v 0.450186 -0.308908 -0.160330
v 0.552737 -0.182156 0.232133
v 0.470901 -0.311175 -0.018321
v 0.385357 -0.338465 -0.306020
v 0.324848 -0.192985 -0.403891
v 0.398194 -0.199256 -0.359458
v 0.570199 -0.130226 0.237891
v 0.421976 -0.020906 -0.181594
v 0.578839 -0.084097 0.233485
v 0.565768 -0.152865 0.234185
v 0.548601 -0.192639 0.199806
v 0.523973 -0.235848 0.104388
v 0.342365 0.009650 -0.385394
v 0.336514 -0.118626 -0.390584
v 0.397998 -0.006612 -0.254235
v 0.583363 -0.083815 0.234929
v 0.405863 -0.018748 -0.221035
v 0.415897 -0.330097 -0.237838
v 0.400543 -0.318416 -0.305817
v 0.343896 -0.144370 -0.399462
v 0.576027 -0.064250 0.141086
v 0.465612 -0.295655 -0.122925
v 0.582264 -0.099309 0.236670
v 0.585173 -0.086984 0.212034
v 0.414291 -0.304535 -0.294078
v 0.342476 0.015067 -0.380281
v 0.512397 -0.025269 -0.084268
v 0.407559 -0.286841 -0.325367
v 0.527292 -0.035134 -0.026010
v 0.372767 -0.270806 -0.357145
v 0.407843 -0.001870 -0.255376
v 0.373061 -0.003022 -0.308754
v 0.348516 0.016852 -0.372422
v 0.584859 -0.081603 0.219605
v 0.472997 -0.275602 -0.140350
v 0.556388 -0.056009 0.095727
v 0.490528 -0.266046 -0.070051
v 0.583232 -0.097527 0.210429
v 0.522016 -0.203439 -0.043289
v 0.340687 -0.093861 -0.400928
v 0.508001 -0.237521 -0.045298
v 0.437632 -0.298915 -0.232361
v 0.493627 -0.015589 -0.137966
v 0.482512 -0.246486 -0.157936
v 0.338841 -0.032852 -0.395575
v 0.355005 -0.066883 -0.392567
v 0.434743 -0.229206 -0.323968
v 0.465995 -0.251867 -0.213997
v 0.542172 -0.047938 0.043685
v 0.579803 -0.076637 0.132364
v 0.355601 -0.007156 -0.386237
v 0.396026 0.020558 -0.349094
v 0.578523 -0.064416 0.130614
v 0.513446 -0.216487 -0.064542
v 0.440809 -0.254315 -0.292730
v 0.564695 -0.052840 0.079302
v 0.567514 -0.089137 0.059902
v 0.575777 -0.070499 0.095269
v 0.439898 -0.233480 -0.315040
v 0.554168 -0.140751 0.040434
v 0.379711 -0.031698 -0.373656
v 0.577796 -0.064452 0.110661
v 0.571093 -0.054475 0.069065
v 0.572562 -0.062293 0.070710
v 0.558851 -0.116114 0.035394
v 0.550394 -0.097108 -0.025000
v 0.516543 -0.184527 -0.103151
v 0.452389 -0.204893 -0.308111
v 0.544310 -0.030252 -0.033435
v 0.427960 -0.183177 -0.338609
v 0.565389 -0.048913 0.027561
v 0.382986 0.020648 -0.351595
v 0.499337 -0.186623 -0.171057
v 0.460410 -0.003491 -0.206901
v 0.447475 -0.202611 -0.317385
v 0.553292 -0.032461 -0.021035
v 0.447983 0.018745 -0.282201
v 0.533787 -0.143441 -0.068332
v 0.462806 -0.180459 -0.298123
v 0.478117 -0.179648 -0.251373
v 0.528244 -0.101002 -0.118373
v 0.559693 -0.047513 -0.003582
v 0.473980 -0.160813 -0.276771
v 0.455526 -0.170045 -0.314105
v 0.362979 -0.311606 0.112031
v 0.519539 -0.123544 -0.141644
v 0.426640 0.023732 -0.321776
v 0.530958 -0.016572 -0.100896
v 0.392187 -0.277444 0.173868
v 0.545147 -0.026405 -0.051941
v 0.437698 0.023898 -0.307032
v 0.266110 -0.446092 -0.239140
v 0.433568 0.022122 -0.319554
v 0.433475 -0.128171 -0.337718
v 0.403824 -0.259282 0.156886
v 0.191742 -0.386814 -0.354458
v 0.193725 -0.385629 -0.365530
v 0.536418 -0.019020 -0.096040
v 0.519467 -0.057407 -0.163320
v 0.364285 -0.422674 -0.002176
v 0.348095 -0.429434 -0.077233
v 0.525652 -0.010171 -0.134051
v 0.473638 0.025150 -0.274784
v 0.461962 -0.091367 -0.311365
v 0.398060 -0.368348 0.250100
v 0.456847 -0.006853 -0.306741
v 0.472566 -0.073565 -0.297849
v 0.512220 -0.020663 -0.189277
v 0.468013 -0.112556 -0.304300
v 0.465400 0.015982 -0.292344
v 0.526268 -0.026903 -0.141109
v 0.500444 0.011352 -0.209892
v 0.476848 -0.030244 -0.288799
v 0.485444 -0.054869 -0.272902
v 0.494019 0.013400 -0.240001
v 0.476483 0.021786 -0.259075
v 0.491531 -0.015144 -0.254679
v 0.480447 -0.041817 -0.284241
v 0.477329 0.022538 -0.275172
v 0.484949 -0.025131 -0.274167
v 0.482227 -0.003442 -0.276234
v 0.476449 -0.088101 -0.292101
v 0.480414 0.014410 -0.274450
v 0.483862 0.021352 -0.263185
v 0.502434 -0.050082 -0.221667
v 0.475305 -0.002566 -0.286274
v 0.503758 -0.122724 -0.198740
v 0.536924 -0.085095 -0.090144
v 0.502800 -0.083364 -0.215208
v 0.540873 -0.131138 -0.045999
v 0.537784 -0.051711 -0.096072
v 0.543153 -0.157986 -0.002630
v 0.404625 0.015103 -0.313738
v 0.547439 -0.134346 -0.009399
v 0.481025 -0.226632 -0.194016
v 0.450741 0.007267 -0.248484
v 0.276872 -0.413611 -0.318886
v 0.339818 -0.008428 -0.389649
v 0.372041 0.008040 -0.324600
v 0.345901 -0.005956 -0.369740
v 0.289062 -0.416420 -0.304263
v 0.342411 0.005191 -0.378802
v 0.352301 0.003301 -0.355199
v 0.541534 -0.195522 0.085022
v 0.569385 -0.140968 0.181663
v 0.565149 -0.138102 0.121217
v 0.381675 -0.053797 -0.286793
v 0.545386 -0.196273 0.146890
v 0.393518 -0.397878 -0.055596
v 0.370089 -0.010912 -0.313636
v 0.350300 -0.085525 -0.362941
v 0.561588 -0.164781 0.222919
v 0.397740 -0.396934 0.000776
v 0.499854 -0.267632 0.007437
v 0.563107 -0.159870 0.191484
v 0.349089 -0.129890 -0.357592
v 0.323480 -0.185060 -0.395057
v 0.481700 -0.290438 -0.037652
v 0.331197 -0.150150 -0.396071
v 0.447255 -0.177037 0.046216
v 0.424764 -0.060478 -0.157997
v 0.262509 -0.313438 -0.387734
v 0.374344 -0.121020 -0.296536
v 0.349965 -0.160984 -0.342822
v 0.572183 -0.132111 0.237617
v 0.376705 -0.322048 -0.331985
v 0.386861 -0.289390 -0.340363
v 0.309191 -0.225680 -0.403851
v 0.332021 -0.188320 -0.371222
v 0.454548 -0.031503 -0.093568
v 0.443355 -0.031250 -0.114318
v 0.561278 -0.067640 0.172514
v 0.436500 -0.042546 -0.119868
v 0.386456 -0.130611 -0.259165
v 0.345154 -0.196423 -0.332470
v 0.449805 -0.334283 0.184700
v 0.498113 -0.278107 0.166608
v 0.323244 -0.407661 -0.270724
v 0.457177 -0.062392 -0.034480
v 0.419578 -0.126197 -0.154571
v 0.421903 -0.158202 -0.120715
v 0.329339 -0.225255 -0.347881
v 0.405889 -0.156936 -0.181590
v 0.516521 -0.193710 0.207525
v 0.368159 -0.184407 -0.278513
v 0.457075 -0.122992 0.001943
v 0.344704 -0.276235 -0.228181
v 0.388442 -0.208943 -0.185477
v 0.405316 -0.184137 -0.154808
v 0.429486 -0.361822 -0.051203
v 0.464545 -0.325262 0.039642
v 0.443064 -0.162235 -0.019211
v 0.296501 -0.253655 -0.399880
v 0.442906 -0.345775 -0.050582
v 0.308919 -0.225511 -0.398148
v 0.338618 -0.233609 -0.314830
v 0.449161 -0.098029 -0.056197
v 0.437223 -0.147931 -0.067554
v 0.291131 -0.269945 -0.399796
v 0.393606 -0.226003 -0.133509
v 0.447222 -0.141570 -0.029330
v 0.461107 -0.094552 -0.002622
v 0.319373 -0.257169 -0.336726
v 0.493198 -0.052273 0.083171
v 0.520304 -0.063407 0.165946
v 0.471939 -0.093054 0.060035
v 0.468709 -0.074617 0.028043
v 0.534519 -0.209390 0.232377
v 0.508509 -0.260738 0.201001
v 0.479052 -0.306625 0.068296
v 0.394522 -0.349282 -0.258191
v 0.370613 -0.351250 -0.312527
v 0.337400 -0.288768 -0.371242
v 0.318010 -0.218079 -0.381671
v 0.467503 -0.041268 -0.023476
v 0.560368 -0.071071 0.198271
v 0.545350 -0.180813 0.231342
v 0.491444 -0.289576 0.107810
v 0.425785 -0.335717 -0.187885
v 0.497072 -0.279871 0.069421
v 0.528413 -0.228343 0.217395
v 0.562014 -0.147032 0.235866
v 0.568265 -0.089242 0.224928
v 0.474597 -0.030081 -0.086867
v 0.383925 -0.332152 -0.317758
v 0.398854 -0.309165 -0.319838
v 0.530793 -0.224808 0.137763
v 0.516224 -0.040402 -0.007548
v 0.335674 -0.140448 -0.402652
v 0.512735 -0.251337 0.051759
v 0.554751 -0.176072 0.156933
v 0.338069 -0.072956 -0.397442
v 0.392880 -0.013473 -0.256904
v 0.582411 -0.073511 0.185668
v 0.574148 -0.131287 0.218581
v 0.400865 -0.237227 -0.349495
v 0.360637 0.006285 -0.340239
v 0.555315 -0.043967 0.030579
v 0.448966 -0.016262 -0.169117
v 0.417024 -0.251509 -0.332597
v 0.451062 -0.223456 -0.297613
v 0.460307 -0.234288 -0.257177
v 0.522574 -0.159093 -0.104881
v 0.386975 0.013491 -0.360230
v 0.566410 -0.062310 0.034777
v 0.561717 -0.041325 0.014895
v 0.550616 -0.050924 -0.044244
v 0.468398 -0.153396 -0.295802
v 0.514101 -0.005646 -0.149052
v 0.550722 -0.031255 -0.041135
v 0.441881 -0.074577 -0.328857
v 0.536456 -0.024130 -0.101941
v 0.453487 -0.142412 -0.319135
v 0.512221 0.001489 -0.172522
v 0.484667 -0.112124 -0.264472
v 0.470173 -0.034293 -0.297193
v 0.461423 0.023974 -0.291278
v 0.506688 0.006313 -0.200050
v 0.498602 0.008857 -0.202230
v 0.483277 0.022492 -0.255930
v 0.515121 -0.001580 -0.173682
v 0.494144 0.016059 -0.235263
v 0.486276 0.007300 -0.265131
v 0.493978 0.005022 -0.244060
v 0.544407 -0.027924 -0.069868
v 0.477491 -0.107390 -0.286964
v 0.510740 -0.159753 -0.151894
v 0.545706 -0.171594 0.042853
v 0.566090 -0.113858 0.079557
v 0.340391 -0.044823 -0.388127
v 0.350080 -0.029751 -0.363666
v 0.528507 -0.219539 0.054624
v 0.583485 -0.085221 0.179948
v 0.391028 -0.039138 -0.260321
v 0.577812 -0.119122 0.232062
v 0.575822 -0.120946 0.189234
v 0.366075 -0.102702 -0.322785
v 0.406063 -0.048550 -0.217587
v 0.325719 -0.176057 -0.402903
v 0.386526 -0.094908 -0.270419
v 0.399341 -0.076158 -0.236382
v 0.407785 -0.100446 -0.205979
v 0.533250 -0.221304 0.191240
v 0.313605 -0.237530 -0.401820
v 0.426136 -0.096399 -0.145486
v 0.441256 -0.067264 -0.098430
v 0.402168 -0.136557 -0.207839
v 0.414926 -0.080656 -0.188240
v 0.475174 -0.039527 -0.025474
v 0.436782 -0.114246 -0.096876
v 0.381934 -0.189724 -0.231908
v 0.457908 -0.049289 -0.036782
v 0.439456 -0.340770 -0.104261
v 0.413729 -0.374877 -0.083881
v 0.367307 -0.062777 -0.323504
v 0.392130 -0.023260 -0.256214
v 0.342436 -0.012522 -0.393014
v 0.425980 -0.255068 -0.322476
v 0.494324 -0.163873 -0.207939
v 0.504829 0.002834 -0.209755
v 0.425182 0.015254 -0.330442
v 0.407581 0.001567 -0.348495
v 0.558517 -0.038310 -0.005957
v 0.485069 0.007038 -0.212897
v 0.458952 -0.177069 -0.307574
v 0.465106 -0.192823 -0.283203
v 0.439130 -0.202697 -0.326484
v 0.561544 -0.043373 0.027721
v 0.503982 -0.207104 -0.127388
v 0.529192 -0.173679 -0.056321
v 0.573876 -0.097606 0.113529
v 0.447505 -0.271809 -0.247027
v 0.584421 -0.092652 0.230195
v 0.581370 -0.094048 0.238486
v 0.566913 -0.064757 0.148401
v 0.416915 -0.031496 -0.185694
v 0.576484 -0.102162 0.237177
v 0.547872 -0.193588 0.224303
v 0.342097 -0.210490 -0.393436
v 0.471526 -0.059523 0.034661
v 0.528786 -0.069608 0.181614
v 0.290416 -0.271531 -0.385769
v 0.425638 -0.185103 -0.066033
v 0.327054 -0.374490 -0.328742
v 0.403700 -0.361039 -0.196044
v 0.340008 -0.378034 -0.313627
v 0.487689 -0.292606 0.160444
v 0.519171 -0.239417 0.228665
v 0.466241 -0.323347 0.093327
v 0.351578 -0.373151 -0.305126
v 0.349020 -0.382750 -0.287759
v 0.502807 -0.262961 0.228327
v 0.487834 -0.284251 0.225216
v 0.365324 -0.255854 -0.192067
v 0.286224 -0.296131 -0.393178
v 0.496099 -0.056925 0.130276
v 0.410347 -0.200825 -0.109548
v 0.521575 -0.134985 0.191843
v 0.315521 -0.393030 -0.317770
v 0.475568 -0.310292 0.127540
v 0.436790 -0.358754 0.043986
v 0.452714 -0.315458 0.233813
v 0.297623 -0.407628 -0.312415
v 0.265299 -0.318591 -0.365873
v 0.478210 -0.092735 0.134544
v 0.474228 -0.112928 0.126592
v 0.409144 -0.224858 -0.059708
v 0.282544 -0.384315 -0.343387
v 0.397242 -0.250145 -0.050374
v 0.477135 -0.082103 0.098670
v 0.493663 -0.060381 0.147329
v 0.450951 -0.324708 0.232397
v 0.409572 -0.385854 -0.007400
v 0.354778 -0.292203 -0.149015
v 0.474153 -0.128984 0.155073
v 0.336034 -0.422258 -0.180610
v 0.312099 -0.419859 -0.253126
v 0.482095 -0.095041 0.153552
v 0.438589 -0.339398 0.223889
v 0.418455 -0.359187 0.220073
v 0.200636 -0.371266 -0.379202
v 0.303777 -0.413082 -0.291628
v 0.342365 -0.322754 -0.095436
v 0.363596 -0.302645 -0.055309
v 0.433331 -0.338129 0.239748
v 0.409631 -0.248236 0.048024
v 0.271520 -0.431838 -0.284905
v 0.265821 -0.429649 -0.299296
v 0.370826 -0.417256 0.049833
v 0.292147 -0.433555 -0.241884
v 0.233772 -0.431794 -0.303667
v 0.315828 -0.433318 -0.186373
v 0.207052 -0.368195 -0.364722
v 0.381529 -0.290584 0.071811
v 0.410402 -0.327656 0.219666
v 0.384530 -0.399721 0.138207
v 0.232480 -0.445242 -0.229563
v 0.281430 -0.368833 -0.183441
v 0.337209 -0.439589 0.024961
v 0.196882 -0.389953 -0.323621
v 0.358610 -0.318673 0.056287
v 0.253416 -0.455548 -0.212930
v 0.267813 -0.386801 -0.135200
v 0.246879 -0.458962 -0.191560
v 0.324892 -0.446676 0.003768
v 0.248444 -0.396743 -0.166034
v 0.341995 -0.334915 0.066215
v 0.360026 -0.397497 0.250632
v 0.358934 -0.311180 0.160339
v 0.337558 -0.429923 0.152523
v 0.286657 -0.460523 -0.091908
v 0.250527 -0.466936 -0.138897
v 0.277579 -0.385062 -0.017569
v 0.357698 -0.313459 0.187703
v 0.348215 -0.407687 0.239472
v 0.243014 -0.466961 -0.113690
v 0.299679 -0.367164 0.074501
v 0.305015 -0.357532 0.142132
v 0.298658 -0.457299 0.086742
v 0.329297 -0.341908 0.125395
v 0.226487 -0.458709 -0.027276
v 0.251577 -0.475649 0.006834
v 0.283389 -0.463741 0.085334
v 0.204684 -0.434648 -0.099416
v 0.287165 -0.367751 0.144678
v 0.292154 -0.456062 0.133990
v 0.324897 -0.409820 0.289467
v 0.317721 -0.417146 0.281092
v 0.263476 -0.473225 0.008808
v 0.309902 -0.351208 0.214223
v 0.203198 -0.421397 -0.038585
v 0.213474 -0.412979 0.008347
v 0.310427 -0.429738 0.243707
v 0.255913 -0.473404 0.074955
v 0.213861 -0.446104 0.022625
v 0.201922 -0.413935 0.029279
v 0.289863 -0.368783 0.233675
v 0.279197 -0.439447 0.270368
v 0.256722 -0.468028 0.142346
v 0.257708 -0.379754 0.160182
v 0.290380 -0.425664 0.306783
v 0.250222 -0.374692 0.231257
v 0.262397 -0.373635 0.236576
v 0.243870 -0.465637 0.178788
v 0.210390 -0.435935 0.158627
v 0.255893 -0.433360 0.335708
v 0.236464 -0.455055 0.250480
v 0.212058 -0.382206 0.215751
v 0.221946 -0.387946 0.257983
v 0.235248 -0.444915 0.317149
v 0.185749 -0.397849 0.186251
v 0.213102 -0.408112 0.289378
v 0.197345 -0.405694 0.089625
v 0.234647 -0.439942 0.340141
v 0.230043 -0.444977 0.308614
v 0.186328 -0.393588 0.235545
v 0.225503 -0.434413 0.341825
v 0.247517 -0.473074 -0.066699
v 0.190709 -0.405243 0.221541
v 0.225844 -0.454371 -0.116371
v 0.204523 -0.404354 -0.257930
v 0.199342 -0.408901 -0.256120
v 0.206246 -0.433070 -0.165884
v 0.263700 -0.378388 -0.207478
v 0.441449 -0.218229 0.169812
v 0.409988 -0.254613 0.167807
v 0.263519 -0.360326 -0.273763
v 0.202222 -0.381352 -0.373764
v 0.431242 -0.221187 0.160338
v 0.217793 -0.402205 -0.351202
v 0.397675 -0.267900 0.059427
v 0.228232 -0.394763 -0.356236
v 0.216126 -0.366308 -0.381322
v 0.448403 -0.191403 0.158717
v 0.297802 -0.325503 -0.271681
v 0.241113 -0.372410 -0.369534
v 0.240204 -0.343949 -0.388463
v 0.482308 -0.065986 0.131175
v 0.456510 -0.149200 0.040095
v 0.350987 -0.412523 -0.178640
v 0.488234 -0.085180 0.158127
v 0.383807 -0.276674 -0.033496
v 0.215592 -0.356923 -0.383099
v 0.408598 -0.253898 0.097618
v 0.401387 -0.383987 0.158758
v 0.424596 -0.341588 0.241141
v 0.209123 -0.401574 -0.348523
v 0.520282 -0.010459 -0.159725
v 0.378975 -0.374459 0.257266
v 0.239091 -0.445755 -0.249942
v 0.467738 -0.134810 -0.301898
v 0.375127 -0.397405 0.197982
v 0.551713 -0.038900 -0.041231
v 0.373063 -0.363502 0.241483
v 0.212961 -0.430363 -0.234898
v 0.558786 -0.075659 0.002462
v 0.375268 -0.301184 0.187334
v 0.342943 -0.422188 0.181454
v 0.255119 -0.469286 -0.115805
v 0.472194 -0.206500 -0.248285
v 0.317387 -0.436972 0.184428
v 0.274776 -0.467297 -0.063606
v 0.406099 -0.065901 -0.357476
v 0.334016 -0.332805 0.192707
v 0.440081 -0.242863 -0.307614
v 0.345505 -0.400518 0.275549
v 0.278180 -0.468054 0.022771
v 0.571754 -0.055584 0.090155
v 0.332740 -0.410174 0.272358
v 0.205044 -0.424257 -0.099402
v 0.496118 -0.238390 -0.110123
v 0.199062 -0.427046 -0.042727
v 0.322156 -0.408596 0.293102
v 0.283645 -0.451805 0.191928
v 0.195521 -0.424370 0.020230
v 0.273947 -0.365207 0.213949
v 0.307837 -0.408457 0.294276
v 0.334925 -0.112227 -0.400567
v 0.288237 -0.422314 0.316029
v 0.430082 -0.018343 -0.175010
v 0.271111 -0.447846 0.245008
v 0.384594 -0.165408 -0.243928
v 0.237113 -0.382834 0.181249
v 0.557591 -0.165985 0.236727
v 0.275889 -0.428530 0.322106
v 0.439550 -0.321398 -0.172406
v 0.335896 -0.160638 -0.378013
v 0.429994 -0.030691 -0.147878
v 0.578715 -0.078247 0.224452
v 0.563920 -0.125295 0.230555
v 0.244169 -0.453546 0.263579
v 0.282635 -0.362349 0.219464
v 0.195892 -0.420189 0.013811
v 0.305988 -0.418428 0.299676
v 0.278924 -0.286975 -0.393045
v 0.274730 -0.295706 -0.394407
v 0.252739 -0.327382 -0.390995
v 0.487491 -0.064479 0.149104
v 0.232563 -0.343400 -0.389651
v 0.460366 -0.164212 0.154534
v 0.409245 -0.358528 0.247795
v 0.193303 -0.378984 -0.375024
v 0.243423 -0.433601 -0.307336
v 0.244546 -0.438783 -0.293381
v 0.202312 -0.427215 -0.136082
v 0.201353 -0.429075 -0.083573
v 0.353444 0.015386 -0.378436
v 0.193712 -0.411107 0.068820
v 0.188930 -0.400909 0.134724
v 0.186258 -0.393456 0.181779
v 0.186528 -0.386635 0.219316
v 0.186528 -0.386635 0.219316
v 0.214186 -0.424730 0.312567
v 0.191075 -0.396230 0.259695
v 0.201830 -0.409286 0.284859
v 0.233736 -0.424538 -0.322164
v 0.493887 -0.066779 0.157334
v 0.485186 -0.060907 0.137749
v 0.482927 -0.058715 0.108185
v 0.187334 -0.387174 0.245427
v 0.187334 -0.387174 0.245427
v 0.448388 -0.038675 -0.084692
v 0.190321 -0.384040 0.239596
v 0.555461 -0.075767 0.205318
v 0.578839 -0.084097 0.233485
v 0.523973 -0.235848 0.104388
v 0.342365 0.009650 -0.385394
v 0.583363 -0.083815 0.234929
v 0.583363 -0.083815 0.234929
v 0.342476 0.015067 -0.380281
v 0.342476 0.015067 -0.380281
v 0.342476 0.015067 -0.380281
v 0.342476 0.015067 -0.380281
v 0.340687 -0.093861 -0.400928
v 0.338841 -0.032852 -0.395575
v 0.392187 -0.277444 0.173868
v 0.398060 -0.368348 0.250100
v 0.477329 0.022538 -0.275172
v 0.339818 -0.008428 -0.389649
v 0.342411 0.005191 -0.378802
v 0.262509 -0.313438 -0.387734
v 0.309191 -0.225680 -0.403851
v 0.291131 -0.269945 -0.399796
v 0.530793 -0.224808 0.137763
v 0.335674 -0.140448 -0.402652
v 0.512735 -0.251337 0.051759
v 0.338069 -0.072956 -0.397442
v 0.392880 -0.013473 -0.256904
v 0.360637 0.006285 -0.340239
v 0.561717 -0.041325 0.014895
v 0.550722 -0.031255 -0.041135
v 0.325719 -0.176057 -0.402903
v 0.450951 -0.324708 0.232397
v 0.474153 -0.128984 0.155073
v 0.200636 -0.371266 -0.379202
v 0.265821 -0.429649 -0.299296
v 0.357698 -0.313459 0.187703
v 0.324897 -0.409820 0.289467
v 0.225503 -0.434413 0.341825
v 0.448403 -0.191403 0.158717
v 0.215592 -0.356923 -0.383099
v 0.205044 -0.424257 -0.099402
v 0.199062 -0.427046 -0.042727
v 0.334925 -0.112227 -0.400567
v 0.282635 -0.362349 0.219464
v 0.195892 -0.420189 0.013811
f 17 640 4
f 19 505 509
f 19 264 656
f 22 644 655
f 2 5 642
f 15 648 647
f 647 648 260
f 259 14 15
f 262 13 14
f 58 13 262
f 2 258 5
f 22 43 1
f 2 648 258
f 642 5 655
f 22 1 644
f 668 609 19
f 609 464 4
f 24 7 16
f 18 645 646
f 641 645 18
f 20 641 18
f 650 8 514
f 270 637 35
f 662 638 652
f 38 507 638
f 256 501 774
f 774 37 256
f 521 282 256
f 521 256 39
f 665 521 39
f 279 665 265
f 279 265 255
f 651 519 40
f 651 278 519
f 52 499 653
f 287 499 262
f 288 259 643
f 259 647 643
f 492 2 642
f 260 648 2
f 524 260 2
f 2 492 524
f 264 1 656
f 509 264 19
f 609 4 291
f 7 261 3
f 646 261 7
f 25 528 263
f 650 296 528
f 650 599 296
f 508 483 878
f 497 275 518
f 267 490 511
f 606 500 267
f 504 817 606
f 504 498 817
f 605 496 513
f 605 513 512
f 504 606 503
f 511 497 273
f 508 637 510
f 6 637 508
f 830 508 878
f 650 514 599
f 25 650 528
f 34 45 263
f 45 25 263
f 830 878 831
f 270 275 637
f 9 270 36
f 502 273 9
f 502 272 273
f 649 272 502
f 272 649 515
f 662 652 515
f 516 507 284
f 517 501 282
f 521 517 282
f 522 521 635
f 522 517 521
f 516 513 507
f 513 638 507
f 513 496 638
f 511 273 272
f 512 513 516
f 512 516 501
f 496 504 638
f 504 503 515
f 504 515 652
f 517 522 494
f 607 635 276
f 281 530 276
f 281 276 635
f 279 281 635
f 278 520 531
f 653 287 285
f 499 287 653
f 287 262 532
f 532 262 523
f 523 262 288
f 262 259 288
f 643 307 288
f 492 642 533
f 533 642 655
f 655 644 525
f 655 525 533
f 644 506 525
f 309 264 509
f 291 4 640
f 640 3 526
f 526 261 292
f 645 527 292
f 269 34 294
f 34 481 294
f 34 263 481
f 296 345 528
f 514 877 599
f 490 484 497
f 606 817 500
f 498 602 817
f 498 495 602
f 488 601 607
f 276 298 607
f 276 530 857
f 278 531 487
f 302 41 285
f 281 604 530
f 494 601 512
f 605 600 495
f 267 500 490
f 497 529 275
f 490 497 511
f 495 498 496
f 512 601 605
f 519 300 604
f 519 604 281
f 519 278 300
f 520 859 531
f 302 285 538
f 304 288 307
f 542 524 313
f 313 524 492
f 598 524 542
f 313 492 533
f 525 506 308
f 506 264 318
f 264 309 318
f 608 291 534
f 291 640 534
f 294 540 527
f 527 319 292
f 640 526 333
f 608 534 821
f 318 309 337
f 308 506 318
f 535 525 308
f 313 533 535
f 326 307 536
f 633 307 326
f 633 304 307
f 317 304 633
f 315 304 819
f 825 287 532
f 287 825 285
f 604 300 543
f 604 543 539
f 604 539 485
f 486 823 857
f 486 485 815
f 823 631 488
f 476 593 603
f 603 596 597
f 597 595 489
f 478 479 817
f 479 484 490
f 594 320 877
f 877 320 599
f 599 634 296
f 482 263 528
f 294 481 540
f 887 483 510
f 472 887 510
f 474 472 484
f 510 529 472
f 529 497 484
f 479 490 500
f 479 500 817
f 489 817 602
f 476 600 601
f 488 476 601
f 600 476 603
f 600 597 495
f 597 602 495
f 823 488 298
f 602 597 489
f 603 597 600
f 601 600 605
f 530 604 485
f 530 485 857
f 857 485 486
f 472 529 484
f 263 482 481
f 526 292 319
f 534 640 333
f 608 821 316
f 318 337 473
f 308 318 473
f 545 313 535
f 326 536 598
f 467 317 633
f 480 819 325
f 537 322 825
f 538 324 302
f 531 824 310
f 487 531 310
f 485 539 554
f 815 485 554
f 823 486 323
f 593 589 596
f 592 471 478
f 329 474 822
f 474 544 887
f 479 471 822
f 489 595 478
f 593 596 603
f 596 595 597
f 631 593 476
f 594 335 320
f 481 541 540
f 319 540 334
f 319 334 526
f 526 334 340
f 526 340 333
f 309 316 337
f 469 308 473
f 467 633 326
f 470 467 326
f 327 879 881
f 598 542 463
f 463 326 598
f 325 317 467
f 325 590 480
f 480 590 338
f 480 338 629
f 632 629 324
f 629 338 331
f 310 824 349
f 487 310 630
f 300 630 351
f 543 344 539
f 323 815 330
f 330 548 332
f 332 883 611
f 813 474 329
f 544 899 355
f 880 869 335
f 544 474 899
f 329 822 471
f 466 329 471
f 466 471 592
f 462 610 595
f 589 462 596
f 332 611 631
f 323 332 631
f 611 589 593
f 462 595 596
f 610 592 478
f 610 478 595
f 880 335 594
f 335 634 320
f 296 634 551
f 481 482 343
f 481 343 541
f 541 334 540
f 473 337 352
f 460 467 470
f 352 469 473
f 467 550 325
f 550 590 325
f 628 338 590
f 590 353 628
f 353 590 550
f 316 821 357
f 547 171 355
f 586 585 466
f 586 466 610
f 586 610 465
f 347 330 552
f 347 465 883
f 589 611 462
f 882 813 329
f 465 610 462
f 611 465 462
f 883 465 611
f 585 882 329
f 585 329 466
f 547 355 899
f 815 554 346
f 539 342 358
f 549 310 349
f 550 314 353
f 550 591 314
f 470 546 461
f 469 352 356
f 312 337 316
f 312 316 357
f 541 180 192
f 541 343 180
f 345 551 555
f 551 634 321
f 179 321 634
f 547 360 171
f 465 455 586
f 554 539 358
f 189 349 339
f 353 588 339
f 460 470 461
f 546 463 190
f 463 459 190
f 350 337 312
f 627 357 182
f 356 352 806
f 356 354 311
f 587 311 188
f 459 188 583
f 459 587 188
f 311 469 356
f 190 461 546
f 189 339 588
f 591 626 314
f 591 460 626
f 626 460 461
f 190 459 583
f 356 806 369
f 350 312 359
f 363 312 627
f 180 370 182
f 343 613 180
f 343 482 613
f 482 555 613
f 453 328 612
f 457 862 874
f 341 862 457
f 865 884 348
f 168 348 387
f 148 387 348
f 884 454 348
f 866 875 552
f 870 585 874
f 458 455 465
f 457 585 455
f 457 874 585
f 455 585 586
f 552 458 465
f 552 465 347
f 360 612 171
f 360 453 612
f 458 552 875
f 458 457 455
f 346 448 148
f 351 630 336
f 336 549 189
f 336 189 368
f 189 588 365
f 190 375 461
f 190 583 375
f 354 356 369
f 359 312 363
f 361 376 798
f 842 559 366
f 387 367 168
f 554 358 389
f 344 543 553
f 371 336 803
f 336 368 803
f 368 189 365
f 626 461 584
f 555 362 613
f 551 362 555
f 385 622 551
f 559 617 366
f 367 559 842
f 803 368 377
f 624 359 450
f 370 800 556
f 557 795 450
f 363 557 450
f 625 188 354
f 447 188 625
f 583 188 447
f 583 447 375
f 584 375 380
f 584 461 375
f 372 626 584
f 373 365 626
f 377 373 379
f 624 450 388
f 556 557 370
f 362 374 613
f 622 362 551
f 622 390 362
f 409 385 179
f 798 566 178
f 448 406 387
f 448 389 451
f 342 344 384
f 553 364 371
f 623 553 378
f 371 803 553
f 378 803 377
f 373 372 379
f 372 584 380
f 449 380 375
f 449 375 447
f 449 447 393
f 393 447 625
f 388 450 795
f 374 383 556
f 390 374 362
f 390 383 374
f 556 621 795
f 556 795 557
f 624 388 382
f 445 449 393
f 378 379 386
f 386 379 560
f 560 372 791
f 791 372 380
f 791 380 381
f 449 445 381
f 558 382 582
f 560 397 386
f 401 558 582
f 621 395 795
f 390 620 383
f 399 620 390
f 568 622 385
f 409 568 385
f 376 421 798
f 391 561 618
f 791 562 397
f 381 396 443
f 396 445 393
f 401 393 558
f 582 388 614
f 614 388 395
f 621 394 398
f 395 398 614
f 618 397 565
f 565 397 788
f 570 614 398
f 442 614 570
f 446 381 443
f 391 886 405
f 788 580 565
f 581 570 563
f 581 563 786
f 424 786 568
f 617 421 376
f 405 886 580
f 405 580 413
f 403 405 413
f 421 566 798
f 566 419 409
f 419 568 409
f 444 401 442
f 396 401 444
f 396 444 414
f 414 446 396
f 562 446 567
f 442 570 444
f 567 580 562
f 580 788 562
f 567 446 426
f 414 444 440
f 417 413 567
f 403 413 417
f 417 783 576
f 564 417 569
f 417 576 569
f 569 427 574
f 431 574 427
f 572 425 616
f 566 571 422
f 566 422 419
f 422 424 419
f 429 581 437
f 429 570 581
f 429 444 570
f 423 426 414
f 423 414 440
f 433 429 422
f 422 429 437
f 441 428 571
f 425 441 421
f 572 434 425
f 440 429 432
f 615 783 423
f 615 423 579
f 579 423 432
f 430 615 579
f 427 573 577
f 575 427 577
f 439 577 430
f 418 434 572
f 438 873 439
f 578 432 436
f 579 432 578
f 430 579 578
f 439 430 578
f 439 578 438
f 438 578 436
f 436 432 435
f 433 436 435
f 428 436 433
f 428 441 436
f 441 438 436
f 441 425 438
f 434 438 425
f 418 575 439
f 418 439 434
f 439 575 577
f 577 573 430
f 573 615 430
f 435 429 433
f 432 429 435
f 573 576 615
f 576 783 615
f 423 440 432
f 427 569 576
f 427 576 573
f 431 427 575
f 418 431 575
f 421 441 571
f 428 433 571
f 571 433 422
f 783 426 423
f 567 426 783
f 417 567 783
f 440 444 429
f 437 581 786
f 437 786 424
f 419 424 568
f 616 425 617
f 403 417 564
f 619 564 574
f 402 406 572
f 408 402 572
f 408 572 616
f 422 437 424
f 617 425 421
f 572 406 418
f 406 392 431
f 406 431 418
f 619 431 392
f 619 574 431
f 564 569 574
f 426 446 414
f 567 413 580
f 421 571 566
f 392 451 619
f 358 564 619
f 391 618 886
f 384 405 403
f 342 384 403
f 342 403 564
f 358 619 389
f 402 408 367
f 367 408 559
f 408 616 559
f 568 786 399
f 398 563 570
f 446 443 396
f 562 381 446
f 786 563 399
f 399 563 620
f 394 620 563
f 398 394 563
f 442 582 614
f 397 562 788
f 561 386 618
f 618 386 397
f 562 791 381
f 396 393 401
f 401 582 442
f 398 395 621
f 394 383 620
f 396 381 445
f 791 397 560
f 384 623 885
f 384 885 391
f 384 391 405
f 358 342 564
f 451 392 448
f 406 402 387
f 568 399 622
f 622 399 390
f 621 383 394
f 623 386 561
f 623 378 386
f 344 553 623
f 344 623 384
f 389 619 451
f 392 406 448
f 387 402 367
f 566 409 178
f 621 556 383
f 388 795 395
f 582 382 388
f 558 625 382
f 393 625 558
f 379 372 560
f 381 380 449
f 800 374 556
f 625 354 382
f 377 379 378
f 553 803 378
f 559 616 617
f 373 626 372
f 365 373 377
f 382 354 369
f 382 369 624
f 613 374 180
f 800 180 374
f 557 627 370
f 557 363 627
f 359 363 450
f 806 359 624
f 369 806 624
f 368 365 377
f 178 409 179
f 321 385 551
f 370 180 800
f 311 354 188
f 365 314 626
f 351 336 371
f 364 351 371
f 543 364 553
f 448 346 389
f 148 448 387
f 842 366 169
f 617 376 366
f 321 179 385
f 588 314 365
f 554 389 346
f 454 346 148
f 454 148 348
f 348 168 867
f 328 868 842
f 328 842 169
f 612 328 169
f 612 169 366
f 171 612 366
f 171 366 376
f 171 376 361
f 361 798 178
f 192 180 182
f 627 182 370
f 359 806 350
f 806 352 350
f 192 182 340
f 357 340 182
f 627 312 357
f 311 545 469
f 587 545 311
f 588 353 314
f 549 349 189
f 310 549 336
f 630 310 336
f 330 346 454
f 330 454 884
f 585 870 882
f 171 361 869
f 869 361 178
f 335 869 178
f 335 178 179
f 345 555 482
f 334 541 192
f 334 192 340
f 459 861 587
f 459 542 861
f 463 542 459
f 364 300 351
f 344 342 539
f 330 815 346
f 548 330 347
f 352 337 350
f 591 550 460
f 353 339 628
f 349 628 339
f 824 863 349
f 331 628 349
f 338 628 331
f 467 460 550
f 470 326 546
f 546 326 463
f 861 545 587
f 357 821 534
f 333 340 357
f 333 357 534
f 345 296 551
f 335 179 634
f 610 466 592
f 332 323 330
f 824 860 863
f 324 629 864
f 632 480 629
f 322 480 632
f 469 545 535
f 528 345 482
f 472 474 887
f 471 479 478
f 631 611 593
f 823 323 631
f 486 815 323
f 300 364 543
f 300 487 630
f 859 860 824
f 538 632 324
f 538 825 632
f 825 322 632
f 819 480 322
f 819 322 537
f 317 325 819
f 542 313 545
f 469 535 308
f 527 540 319
f 599 320 634
f 484 822 474
f 479 822 484
f 817 489 478
f 488 631 476
f 531 859 824
f 285 825 538
f 825 532 537
f 532 315 819
f 532 819 537
f 304 317 819
f 316 309 608
f 294 527 641
f 608 309 509
f 525 535 533
f 523 288 304
f 532 523 304
f 532 304 315
f 278 487 300
f 607 298 488
f 494 607 601
f 639 34 269
f 641 269 294
f 645 641 527
f 261 526 3
f 609 291 608
f 505 608 509
f 536 260 524
f 536 524 598
f 536 643 260
f 643 536 307
f 266 285 41
f 52 653 285
f 12 52 285
f 266 12 285
f 10 41 636
f 636 520 10
f 40 519 281
f 279 635 665
f 521 665 635
f 256 282 501
f 501 284 774
f 40 281 279
f 41 302 636
f 859 520 636
f 635 607 494
f 522 635 494
f 512 501 517
f 503 267 272
f 518 275 270
f 272 515 503
f 504 652 638
f 501 516 284
f 273 518 9
f 9 518 270
f 637 275 510
f 273 497 518
f 267 511 272
f 503 606 267
f 494 512 517
f 495 496 605
f 498 504 496
f 529 510 275
f 508 510 483
f 645 292 646
f 646 292 261
f 17 3 640
f 505 609 608
f 1 264 506
f 647 260 643
f 491 43 22
f 43 656 1
f 464 17 4
f 17 44 16
f 775 493 11
f 654 20 658
f 658 452 654
f 491 22 5
f 648 23 21
f 648 21 258
f 23 42 21
f 667 674 21
f 258 21 674
f 491 77 43
f 668 19 253
f 671 493 775
f 677 493 672
f 663 771 45
f 63 477 26
f 659 876 63
f 56 27 659
f 27 770 36
f 664 32 662
f 57 38 32
f 57 251 38
f 249 37 475
f 249 475 251
f 54 37 249
f 49 31 54
f 660 661 30
f 776 51 266
f 29 30 673
f 29 673 776
f 776 266 252
f 29 776 252
f 30 29 254
f 665 660 265
f 661 39 31
f 31 256 54
f 54 256 37
f 32 257 662
f 515 28 664
f 502 9 48
f 25 832 650
f 876 659 6
f 477 830 831
f 6 659 637
f 659 35 637
f 35 36 270
f 257 38 638
f 475 284 38
f 475 774 284
f 251 475 38
f 38 257 32
f 39 256 31
f 665 39 661
f 255 265 773
f 255 773 254
f 284 507 38
f 662 515 664
f 853 666 40
f 853 833 666
f 30 254 773
f 773 265 660
f 773 660 30
f 852 666 833
f 852 41 666
f 252 266 41
f 51 52 12
f 42 53 888
f 55 46 253
f 253 46 668
f 46 468 668
f 46 61 468
f 61 62 468
f 76 416 44
f 44 416 24
f 416 775 24
f 685 677 672
f 772 25 45
f 47 832 25
f 47 25 772
f 63 26 834
f 56 65 27
f 65 770 27
f 250 48 33
f 244 669 48
f 664 28 777
f 681 32 245
f 248 249 251
f 247 249 248
f 247 54 249
f 49 54 247
f 670 60 50
f 673 670 50
f 673 50 776
f 30 49 889
f 49 661 31
f 30 661 49
f 51 60 243
f 51 243 52
f 42 680 53
f 53 674 667
f 674 66 491
f 780 55 77
f 61 46 71
f 62 415 44
f 415 76 44
f 416 91 775
f 775 91 671
f 91 687 671
f 682 683 456
f 682 456 677
f 239 456 891
f 767 663 268
f 767 771 663
f 768 45 771
f 64 70 659
f 70 56 659
f 70 762 56
f 762 65 56
f 67 33 770
f 250 33 67
f 244 48 678
f 664 777 245
f 681 57 32
f 248 251 57
f 59 49 247
f 835 68 60
f 243 72 52
f 58 85 13
f 657 781 680
f 53 74 674
f 74 78 674
f 55 780 46
f 780 71 46
f 684 62 61
f 767 268 274
f 768 778 47
f 688 96 64
f 67 65 237
f 241 67 235
f 679 244 678
f 234 245 777
f 766 245 234
f 779 57 681
f 271 57 779
f 233 271 779
f 271 247 248
f 769 59 247
f 52 72 58
f 243 760 72
f 68 760 243
f 68 835 895
f 67 770 65
f 241 250 67
f 248 57 271
f 60 68 243
f 58 690 85
f 781 74 680
f 78 675 674
f 675 73 77
f 780 691 71
f 691 61 71
f 415 62 684
f 415 694 76
f 694 416 76
f 91 101 687
f 102 685 687
f 246 683 682
f 246 682 83
f 891 246 239
f 700 91 416
f 787 691 780
f 781 784 75
f 784 420 75
f 78 100 73
f 89 787 780
f 107 90 691
f 684 61 90
f 697 83 407
f 697 92 83
f 94 83 92
f 83 94 246
f 82 246 94
f 240 838 686
f 242 240 686
f 242 80 782
f 80 95 782
f 81 782 95
f 81 95 412
f 763 765 81
f 81 412 79
f 676 688 896
f 695 688 84
f 695 105 688
f 105 96 688
f 87 759 762
f 759 237 762
f 693 235 237
f 693 237 759
f 235 693 232
f 228 86 678
f 98 779 689
f 760 69 88
f 779 766 689
f 779 681 766
f 277 247 271
f 69 769 247
f 69 247 764
f 86 234 679
f 678 86 679
f 67 237 235
f 768 767 763
f 765 274 851
f 851 274 238
f 274 268 238
f 82 851 238
f 238 268 452
f 765 782 81
f 242 782 765
f 242 765 240
f 238 452 239
f 239 246 82
f 238 239 82
f 274 765 767
f 763 767 765
f 763 79 768
f 890 768 79
f 96 70 64
f 96 87 70
f 87 762 70
f 229 678 241
f 766 234 689
f 764 247 277
f 760 88 72
f 690 784 85
f 784 99 420
f 107 121 90
f 112 694 415
f 113 101 91
f 785 686 93
f 411 412 95
f 411 95 104
f 84 411 103
f 97 241 232
f 229 106 228
f 228 696 86
f 696 689 86
f 98 689 280
f 230 233 98
f 410 233 230
f 410 271 233
f 410 277 271
f 761 277 410
f 764 277 761
f 764 761 69
f 69 761 88
f 111 89 100
f 89 703 787
f 113 124 101
f 95 692 790
f 692 95 80
f 109 411 104
f 695 109 757
f 701 759 116
f 759 232 693
f 759 698 232
f 231 106 97
f 702 106 224
f 106 702 228
f 702 696 228
f 696 702 223
f 400 696 223
f 400 280 696
f 118 98 280
f 230 98 118
f 236 230 118
f 410 230 236
f 404 410 236
f 761 410 404
f 106 229 97
f 88 792 72
f 111 100 99
f 121 705 112
f 700 130 113
f 706 101 124
f 797 108 706
f 756 110 105
f 117 225 698
f 225 232 698
f 231 97 225
f 871 792 88
f 219 789 690
f 784 789 137
f 710 787 703
f 710 107 787
f 699 692 785
f 126 698 701
f 126 117 698
f 708 225 117
f 223 704 400
f 704 118 400
f 704 236 118
f 792 226 136
f 120 801 111
f 801 703 111
f 131 794 114
f 699 711 692
f 283 125 109
f 283 109 104
f 134 115 756
f 134 756 757
f 122 227 134
f 126 701 227
f 126 227 122
f 286 126 122
f 708 231 225
f 708 712 231
f 132 231 712
f 132 224 231
f 715 702 224
f 127 223 715
f 709 236 704
f 709 704 128
f 784 143 119
f 138 220 793
f 793 220 705
f 220 796 705
f 796 129 705
f 714 130 140
f 802 797 124
f 707 753 711
f 692 711 755
f 139 125 283
f 840 134 125
f 286 135 126
f 713 132 712
f 713 715 132
f 137 812 784
f 804 138 710
f 796 142 129
f 714 718 124
f 718 802 124
f 724 797 802
f 133 131 724
f 753 707 794
f 712 708 218
f 151 715 713
f 141 127 151
f 799 127 141
f 128 799 709
f 892 799 226
f 143 808 801
f 722 804 801
f 893 801 808
f 721 140 153
f 140 721 714
f 144 145 133
f 758 755 719
f 146 222 753
f 146 753 717
f 717 753 145
f 222 711 753
f 717 145 144
f 717 144 724
f 717 724 729
f 154 724 802
f 154 802 718
f 721 718 714
f 158 153 142
f 728 158 796
f 728 796 220
f 723 138 804
f 722 723 804
f 150 141 151
f 720 712 218
f 720 218 156
f 149 156 135
f 149 147 159
f 159 147 727
f 805 147 122
f 152 139 719
f 719 755 716
f 713 712 720
f 725 799 141
f 226 725 732
f 799 725 226
f 716 755 222
f 716 222 146
f 716 730 162
f 716 162 719
f 155 720 156
f 155 713 720
f 150 151 713
f 808 143 812
f 808 829 893
f 829 723 722
f 164 723 829
f 809 163 721
f 160 717 729
f 162 807 719
f 149 735 156
f 735 155 156
f 155 150 713
f 811 827 150
f 186 733 158
f 809 158 733
f 734 154 163
f 157 717 160
f 146 157 181
f 187 183 730
f 807 162 810
f 807 810 828
f 159 818 149
f 818 735 149
f 732 305 219
f 175 163 809
f 734 161 154
f 729 161 734
f 170 731 901
f 155 735 174
f 174 811 155
f 305 176 219
f 175 173 163
f 173 177 734
f 165 734 177
f 185 843 828
f 731 170 748
f 193 166 172
f 737 811 174
f 737 738 900
f 303 814 812
f 198 175 816
f 162 183 810
f 810 185 828
f 166 193 818
f 203 737 174
f 744 305 738
f 186 194 733
f 194 816 733
f 826 173 198
f 184 173 826
f 198 173 175
f 184 177 173
f 177 184 739
f 739 165 177
f 185 810 183
f 306 185 197
f 172 199 193
f 743 818 193
f 743 203 174
f 744 738 206
f 303 812 204
f 195 741 820
f 741 194 186
f 742 739 184
f 740 197 183
f 740 187 290
f 197 740 207
f 203 206 737
f 205 194 741
f 301 743 199
f 747 176 305
f 209 741 303
f 303 741 195
f 745 826 200
f 745 184 826
f 200 826 198
f 742 184 745
f 207 754 197
f 299 201 301
f 208 744 206
f 204 176 747
f 297 209 204
f 210 749 205
f 742 750 211
f 754 746 197
f 299 301 202
f 299 293 208
f 747 744 208
f 221 747 208
f 215 297 747
f 297 204 747
f 217 210 297
f 750 745 217
f 295 217 752
f 295 752 289
f 207 211 295
f 207 290 211
f 207 289 212
f 207 212 754
f 212 213 751
f 746 754 751
f 751 855 846
f 216 855 751
f 293 849 208
f 213 850 216
f 214 850 213
f 217 297 894
f 217 749 210
f 215 747 221
f 214 848 850
f 849 221 208
f 848 289 752
f 215 894 297
f 289 848 214
f 212 289 214
f 214 213 212
f 216 751 213
f 212 751 754
f 750 295 211
f 295 289 207
f 217 295 750
f 749 217 745
f 210 209 297
f 299 208 206
f 858 847 856
f 846 746 751
f 846 196 746
f 745 750 742
f 749 745 200
f 749 200 205
f 210 205 741
f 210 741 209
f 209 303 204
f 747 305 744
f 299 206 203
f 299 203 201
f 301 201 743
f 202 301 199
f 202 199 845
f 196 191 746
f 200 198 194
f 205 200 194
f 199 743 193
f 845 199 844
f 746 191 306
f 746 306 197
f 290 207 740
f 211 290 187
f 201 203 743
f 740 183 187
f 742 211 181
f 742 181 739
f 194 198 816
f 820 741 186
f 206 738 737
f 174 818 743
f 199 172 844
f 844 172 748
f 844 748 170
f 191 843 306
f 185 183 197
f 211 187 181
f 195 820 814
f 195 814 303
f 738 305 732
f 185 306 843
f 157 165 739
f 157 739 181
f 820 186 736
f 814 820 736
f 814 167 812
f 204 812 176
f 737 827 811
f 818 174 735
f 157 160 165
f 165 160 729
f 165 729 734
f 734 163 173
f 736 186 164
f 814 736 829
f 812 219 176
f 166 818 159
f 172 166 159
f 172 159 727
f 748 172 727
f 731 748 727
f 730 183 162
f 816 175 809
f 816 809 733
f 164 186 728
f 829 736 164
f 814 829 808
f 814 808 167
f 738 732 725
f 738 725 900
f 811 150 155
f 901 731 726
f 726 898 901
f 187 146 181
f 187 716 146
f 186 158 728
f 900 725 141
f 827 141 150
f 726 731 727
f 152 719 807
f 187 730 716
f 146 717 157
f 161 729 724
f 161 724 154
f 163 154 718
f 163 718 721
f 809 721 153
f 158 809 153
f 723 164 728
f 167 808 812
f 219 812 137
f 898 726 897
f 897 841 898
f 841 897 840
f 805 726 147
f 727 147 726
f 149 286 147
f 286 149 135
f 156 218 135
f 136 732 219
f 723 728 138
f 158 142 796
f 139 283 719
f 283 758 719
f 222 755 711
f 133 724 144
f 153 140 142
f 138 728 220
f 226 732 136
f 127 715 151
f 135 218 708
f 147 286 122
f 805 122 134
f 897 134 840
f 790 755 758
f 794 145 753
f 145 794 133
f 724 131 797
f 124 130 714
f 142 140 123
f 142 123 129
f 801 804 710
f 801 710 703
f 143 801 119
f 812 143 784
f 219 137 789
f 892 226 792
f 128 127 799
f 135 708 126
f 758 283 104
f 699 707 711
f 133 794 131
f 124 797 706
f 140 130 123
f 119 801 120
f 128 704 127
f 127 704 223
f 715 224 132
f 126 708 117
f 227 115 134
f 125 134 757
f 758 104 790
f 757 109 125
f 790 692 755
f 114 797 131
f 123 130 700
f 123 700 694
f 705 129 112
f 793 705 121
f 138 793 107
f 138 107 710
f 892 792 871
f 709 404 236
f 715 223 702
f 227 701 116
f 116 115 227
f 115 110 756
f 707 699 697
f 794 707 697
f 794 697 114
f 797 114 108
f 124 113 130
f 793 121 107
f 120 111 99
f 119 120 99
f 119 99 784
f 136 219 72
f 792 136 72
f 224 106 231
f 115 116 110
f 757 756 695
f 790 104 95
f 699 785 92
f 697 699 92
f 706 108 102
f 129 123 112
f 111 703 89
f 789 784 690
f 72 219 690
f 761 871 88
f 400 118 280
f 225 97 232
f 698 759 701
f 695 756 105
f 695 103 109
f 103 411 109
f 114 697 407
f 114 407 108
f 706 102 101
f 123 694 112
f 121 112 90
f 99 100 872
f 689 696 280
f 116 759 87
f 110 116 87
f 105 110 87
f 103 695 84
f 411 84 79
f 411 79 412
f 839 92 93
f 80 686 692
f 785 692 686
f 785 93 92
f 108 407 102
f 113 91 700
f 700 416 694
f 90 112 684
f 787 107 691
f 98 233 779
f 234 86 689
f 229 228 678
f 229 241 97
f 241 235 232
f 96 105 87
f 84 688 676
f 84 676 837
f 81 79 763
f 686 80 242
f 838 839 93
f 838 93 686
f 102 407 685
f 100 89 73
f 872 100 78
f 872 78 836
f 85 784 781
f 781 75 74
f 836 78 74
f 78 73 675
f 89 780 73
f 691 90 61
f 112 415 684
f 101 102 687
f 407 83 682
f 685 407 682
f 73 780 77
f 72 690 58
f 69 760 68
f 69 68 895
f 681 245 766
f 679 234 777
f 678 250 241
f 237 65 762
f 688 64 63
f 688 63 896
f 778 768 890
f 767 768 771
f 675 77 66
f 675 66 674
f 680 74 53
f 85 781 657
f 60 670 835
f 59 889 49
f 679 777 28
f 28 669 679
f 244 679 669
f 678 48 250
f 63 834 896
f 47 772 768
f 768 772 45
f 452 658 239
f 658 456 239
f 682 677 685
f 687 685 672
f 687 672 671
f 657 680 42
f 85 657 13
f 50 60 51
f 50 51 776
f 889 673 30
f 32 664 245
f 64 659 63
f 672 493 671
f 468 62 464
f 77 55 43
f 66 77 491
f 52 58 499
f 51 12 266
f 666 41 10
f 666 10 520
f 666 520 651
f 40 666 651
f 853 40 854
f 774 475 37
f 649 502 669
f 9 36 33
f 27 36 35
f 831 26 477
f 8 650 832
f 663 45 34
f 27 35 659
f 33 36 770
f 48 9 33
f 28 649 669
f 665 661 660
f 669 502 48
f 663 452 268
f 62 44 464
f 55 253 656
f 674 491 258
f 42 888 21
f 657 42 23
f 14 13 15
f 13 657 15
f 15 657 23
f 258 491 5
f 43 55 656
f 656 253 19
f 668 468 464
f 464 44 17
f 44 24 16
f 677 20 18
f 677 18 493
f 456 658 20
f 456 20 677
f 663 639 452
f 452 639 654
f 493 18 11
f 11 7 775
f 775 7 24
f 668 464 609
f 15 23 648
f 520 278 651
f 854 40 279
f 662 257 638
f 515 649 28
f 663 34 639
f 654 639 269
f 269 641 654
f 654 641 20
f 18 646 11
f 11 646 7
f 7 3 16
f 19 609 505
f 5 22 655
f 499 58 262
f 262 14 259
f 259 15 647
f 644 1 506
f 17 16 3